<?xml version="1.0" encoding="UTF-8" standalone="no"?>
<svg
   xmlns:dc="http://purl.org/dc/elements/1.1/"
   xmlns:cc="http://creativecommons.org/ns#"
   xmlns:rdf="http://www.w3.org/1999/02/22-rdf-syntax-ns#"
   xmlns:svg="http://www.w3.org/2000/svg"
   xmlns="http://www.w3.org/2000/svg"
   xmlns:sodipodi="http://sodipodi.sourceforge.net/DTD/sodipodi-0.dtd"
   xmlns:inkscape="http://www.inkscape.org/namespaces/inkscape"
   id="svg4450"
   version="1.1"
   viewBox="0 0 84.55217 70.774857"
   height="70.774857mm"
   width="84.55217mm"
   sodipodi:docname="kitty-string.svg"
   inkscape:version="0.92+devel unknown">
  <sodipodi:namedview
     pagecolor="#ffffff"
     bordercolor="#666666"
     inkscape:document-rotation="0"
     borderopacity="1"
     objecttolerance="10"
     gridtolerance="10"
     guidetolerance="10"
     inkscape:pageopacity="0"
     inkscape:pageshadow="2"
     inkscape:window-width="1920"
     inkscape:window-height="1016"
     id="namedview15"
     showgrid="false"
     inkscape:zoom="2.2099109"
     inkscape:cx="233.73255"
     inkscape:cy="130.5943"
     inkscape:window-x="0"
     inkscape:window-y="0"
     inkscape:window-maximized="1"
     inkscape:current-layer="layer1" />
  <defs
     id="defs4444" />
  <metadata
     id="metadata4447">
    <rdf:RDF>
      <cc:Work
         rdf:about="">
        <dc:format>image/svg+xml</dc:format>
        <dc:type
           rdf:resource="http://purl.org/dc/dcmitype/StillImage" />
        <dc:title />
      </cc:Work>
    </rdf:RDF>
  </metadata>
  <g
     transform="translate(-260.86082,3.7267139)"
     id="layer1">
    <ellipse
       ry="7.3634219"
       rx="6.9267097"
       cy="28.61635"
       cx="334.77213"
       id="path4415"
       style="vector-effect:none;fill:#654ff0;fill-opacity:1;stroke:none;stroke-width:0.26458332" />
    <path
       id="path4362"
       d="m 304.9332,56.749614 -0.81372,-4.343315 -0.56337,-15.306651 0.26088,-4.89925 0.10667,-9.217181 4.77546,-8.074997 c 0,0 -0.38564,-3.045124 -3.13658,-4.186068 l 0.66054,-3.3882191 c 0,0 -1.62227,-1.1001553 -4.21191,0.0098 -2.58963,1.109936 -3.42605,4.6257791 -3.42605,4.6257791 0,0 -3.80782,0.591788 -6.75984,4.584438 -2.95201,3.99265 -7.51928,12.119785 -7.46189,15.013387 0.0574,2.893603 -0.005,9.259864 -0.005,9.259864 0,0 0.36903,9.234025 -0.0456,9.798222 -0.41461,0.564195 -0.9968,3.631745 -0.9968,3.631745 0,0 -4.23304,-0.560136 -4.29477,-3.267334 l 1.43435,-4.932813 c 0,0 -0.20791,-3.657862 -1.3602,-4.753956 -1.15229,-1.096092 -4.23728,-1.364441 -5.52264,-0.690711 -1.28536,0.673732 -3.03064,3.119874 -4.2275,3.511137 -1.19687,0.391266 -6.48124,0.184283 -6.28838,1.932514 0.19286,1.748232 3.56595,1.849094 3.56595,1.849094 0,0 4.965,-2.131743 6.90665,-3.97161 1.94165,-1.839865 3.52267,-0.309504 3.52267,-0.309504 0,0 0.67613,1.176744 0.0431,3.262812 -0.63303,2.086068 -1.82981,5.515353 -0.95629,6.737316 0.87352,1.221962 1.71086,2.149461 2.27127,2.264256 0.56041,0.114798 4.66463,0.698278 4.66463,0.698278 0,0 -0.01,2.208892 2.54423,2.676194 2.55384,0.467302 15.13151,0.03479 15.13151,0.03479 l 2.91787,-1.116856 z"
       style="fill:#f7df1e;fill-opacity:1;fill-rule:evenodd;stroke:#000000;stroke-width:0.26458332px;stroke-linecap:butt;stroke-linejoin:miter;stroke-opacity:1" />
    <path
       id="path4364"
       d="m 304.67315,14.936919 c 0.75322,0.09178 1.51177,0.154655 2.26992,0.09849 0.67878,0.08945 1.35156,-0.09447 2.0294,-0.0316 0.5145,0.06384 0.94032,0.368908 1.39101,0.590736 0.47736,0.139504 0.85371,0.585424 0.89235,1.081592 0.0929,0.556836 0.35893,1.090827 0.26919,1.666167 0.0688,0.703578 -0.21036,1.34751 -0.55441,1.93903 -0.13956,0.483153 -0.35962,0.957119 -0.77012,1.268207 -0.45425,0.175649 -0.92588,0.399599 -1.37286,0.64127 -0.50597,0.261695 -1.09421,0.256632 -1.63615,0.38713 -0.38899,0.116732 -0.78573,0.191635 -1.17206,0.311838 -0.42847,0.14351 -0.83911,0.385591 -1.30868,0.313516 -0.53531,0.05438 -1.11067,0.205517 -1.57814,-0.1739 -0.49058,-0.34909 -1.07328,-0.560401 -1.51513,-0.985701 -0.24296,-0.382962 -0.68571,-0.600657 -1.02088,-0.898454 -0.37865,-0.468661 -0.75611,-0.983222 -0.73699,-1.616026 -0.0596,-0.510641 0.15947,-0.976736 0.29955,-1.452539 0.15145,-0.411437 0.25467,-0.874091 0.63862,-1.127734 0.27413,-0.464054 0.71871,-0.790621 1.19853,-1.027988 0.47865,-0.07241 0.7869,-0.408634 1.28674,-0.469353 0.40915,-0.313944 1.05877,-0.0617 1.37957,-0.422785 l 0.0176,-0.03219 z"
       style="fill:#ffffff;fill-rule:evenodd;stroke:#000000;stroke-width:0.26458332px;stroke-linecap:butt;stroke-linejoin:miter;stroke-opacity:1" />
    <g
       transform="translate(459.69474,-18.436301)"
       id="g4345">
      <rect
         style="vector-effect:none;fill:#000000;fill-opacity:0;stroke-width:0.26458332"
         id="rect4341"
         width="84.55217"
         height="70.774857"
         x="-198.83392"
         y="14.709587" />
      <path
         id="path4343"
         d="m -124.01568,20.69796 c -0.0197,-0.0012 -0.0418,0.01091 -0.0667,0.03566 -0.40895,0.407734 -0.41808,4.986389 -0.0139,7.017659 0.43945,2.208776 0.28263,2.791129 -1.2578,4.668448 -1.25044,1.523936 -1.2532,1.531498 -1.2206,3.444234 0.018,1.054322 0.14958,2.066354 0.29249,2.248958 0.1429,0.182605 0.32846,0.609815 0.41186,0.949815 0.13303,0.542031 -0.0218,0.695343 -1.25625,1.241266 -1.69934,0.751528 -3.82545,2.80811 -4.63796,4.486548 -0.77794,1.606984 -1.00497,4.25654 -0.45579,5.31854 0.82568,1.596689 2.32553,2.684433 4.55476,3.303672 2.02089,0.561372 4.82832,-0.415615 8.17779,-2.846337 2.28125,-1.655501 2.94295,-4.661442 1.46607,-6.659025 -0.55528,-0.75106 -3.06344,-2.307225 -6.09679,-3.782198 -1.18751,-0.577429 -1.9545,-2.333654 -1.9575,-4.479314 -0.002,-1.243613 0.12282,-1.632069 0.79168,-2.471166 1.85238,-2.32381 2.02644,-3.071725 1.45262,-6.239412 -0.1905,-1.051351 -0.24517,-2.645326 -0.14056,-4.101042 0.10575,-1.471181 0.0942,-2.127762 -0.0434,-2.136303 z m -31.43116,4.271573 c -0.83182,0 -2.58496,0.712517 -2.34456,0.952914 0.0661,0.0661 0.44215,-0.0023 0.83561,-0.151929 0.95217,-0.36202 2.19209,-0.344892 2.42569,0.03307 0.10847,0.175515 -0.15385,0.596011 -0.61908,0.992188 -0.7025,0.598235 -1.3901,1.573494 -1.3901,1.971972 0,0.07076 0.38696,0.206621 0.8599,0.301791 2.12551,0.427737 4.14328,2.074579 4.24367,3.46387 0.0537,0.742839 0.018,0.768033 -1.00253,0.694532 -2.3637,-0.170233 -3.0159,-0.08446 -4.4266,0.582911 -2.04132,0.965697 -2.98173,2.240214 -2.98173,4.040063 0,1.160219 0.12237,1.50173 0.79375,2.215367 0.43657,0.464039 1.18518,1.011187 1.66398,1.215948 1.03436,0.442341 0.8903,0.883735 -0.29042,0.888833 -1.16923,0.005 -2.05855,0.273273 -1.8774,0.566376 0.0834,0.1349 0.34979,0.189648 0.59221,0.121438 1.16704,-0.328372 3.6868,-0.436904 4.34392,-0.187068 0.69451,0.264051 1.03732,-0.01653 0.45785,-0.374653 -0.46692,-0.288578 -0.0448,-0.583414 1.09606,-0.765847 0.60664,-0.09701 1.69516,-0.431215 2.41897,-0.74259 3.3509,-1.441519 3.82925,-5.249871 0.8878,-7.067786 -0.67716,-0.418507 -1.02652,-0.877197 -1.22266,-1.605587 -0.18557,-0.689162 -0.70183,-1.40409 -1.59267,-2.205032 -0.72499,-0.651833 -1.31827,-1.350181 -1.31827,-1.551843 0,-0.201663 0.23813,-0.833705 0.52917,-1.404566 0.29105,-0.570861 0.52917,-1.107688 0.52917,-1.193208 0,-0.269695 -1.72124,-0.791167 -2.61173,-0.791167 z m -2.84892,1.058334 c -0.43425,0 -1.74894,1.518926 -2.34869,2.713529 -0.42353,0.843585 -0.92768,1.32051 -2.02572,1.916679 -3.57344,1.940168 -4.65364,2.962444 -7.43159,7.033162 -1.54417,2.26278 -4.24743,7.553544 -4.65294,9.106421 -1.10331,4.225113 -1.19701,6.458064 -0.71056,16.933333 0.10654,2.294123 -0.20264,5.012619 -0.81958,7.209896 -0.30386,1.082243 -0.50682,1.389062 -0.91881,1.389062 -1.36736,0 -3.15103,-1.633357 -3.14503,-2.879926 0.002,-0.380558 0.29951,-1.618953 0.66146,-2.752288 0.76523,-2.396122 0.81938,-3.590147 0.23926,-5.292699 -0.78212,-2.295395 -2.11532,-3.035432 -5.13715,-2.850472 -1.5803,0.09672 -2.40305,0.557678 -3.59669,2.014347 -1.39933,1.707726 -2.20671,2.064379 -5.07048,2.238623 -2.0216,0.123002 -2.54759,0.246962 -3.01119,0.710549 -1.74686,1.746862 1.9786,3.855329 4.72064,2.671673 1.21272,-0.523491 3.57201,-2.068031 4.77956,-3.129007 1.35192,-1.187813 2.7254,-1.536227 3.65507,-0.927077 0.87847,0.575596 0.83596,1.690553 -0.18035,4.713925 -1.00472,2.988937 -1.03999,4.309981 -0.15555,5.815148 1.04598,1.780093 2.134,2.441879 4.01836,2.443779 2.18588,0.0022 2.28181,-0.489826 0.13229,-0.678511 -0.94588,-0.08303 -1.96621,-0.306578 -2.26704,-0.49661 -1.27954,-0.808257 -2.36102,-3.244707 -1.94407,-4.379579 0.70395,-1.916059 1.59647,-5.702294 1.52187,-6.455936 -0.0604,-0.610235 -0.32402,-1.074957 -0.81958,-1.443323 -0.66559,-0.494755 -0.84052,-0.513758 -1.95958,-0.214456 -0.71213,0.190466 -1.90656,0.866098 -2.84118,1.607135 -2.30306,1.826141 -4.50146,2.934973 -5.81668,2.933671 -1.15609,-0.001 -2.80992,-0.817422 -2.80294,-1.383893 0.011,-0.910905 0.50062,-1.128678 2.57919,-1.145667 2.63906,-0.02158 3.97906,-0.63769 5.94743,-2.734201 1.24542,-1.326515 1.62317,-1.569146 2.68976,-1.729092 3.09957,-0.464809 5.05978,0.94153 5.56813,3.995105 0.14572,0.8753 0.0106,1.606942 -0.65732,3.552238 -0.74159,2.159862 -0.80646,2.567194 -0.54571,3.437517 0.3649,1.217932 1.82149,2.539846 3.05305,2.770888 0.91731,0.172088 0.92172,0.179996 0.76584,1.317234 -0.0863,0.629245 -0.0814,1.444717 0.0109,1.812292 0.2292,0.913199 1.71518,1.987405 3.11041,2.24844 1.22942,0.230016 10.06831,0.154001 13.57798,-0.116787 1.15756,-0.08931 2.34443,-0.330716 2.63808,-0.536403 0.29366,-0.205682 0.74592,-0.374137 1.00459,-0.374137 0.25866,0 0.47026,-0.11608 0.47026,-0.257865 0,-0.141785 0.35719,-0.442421 0.79375,-0.668176 0.92047,-0.475994 1.00111,-1.071759 0.38085,-2.811198 -0.57658,-1.616938 -1.20599,-11.634491 -1.11569,-17.758606 l 0.0734,-4.959903 c 0,0 -4.7711,-5.727389 -2.57965,-6.238379 0.40018,-0.08826 1.02526,-0.259551 1.38906,-0.380854 0.57949,-0.193218 0.53032,-0.222581 -0.39687,-0.237713 -1.624,-0.02651 -2.29072,0.220888 -2.11202,0.783932 l 3.08456,6.066813 c 0.0984,0.0022 0.16176,3.129008 0.14056,6.94893 -0.0417,7.528866 0.35609,13.848505 1.00304,15.934943 0.51934,1.674924 0.35247,2.26749 -0.44028,1.56373 -0.55916,-0.496393 -0.56146,-0.495218 -0.4284,0.226859 0.08,0.433983 -0.01,0.845167 -0.22324,1.02216 -0.37796,0.313682 -0.50667,0.13354 -0.68161,-0.952913 -0.12709,-0.789157 -2.43642,-2.179516 -3.97082,-2.390553 -1.54482,-0.212463 -4.63028,0.06766 -4.8612,0.441317 -0.10354,0.167511 0.64656,0.19444 2.11304,0.07545 2.51451,-0.204026 4.14653,0.199443 5.08703,1.258321 l 0.49558,0.558104 -1.32292,-0.166915 c -0.72761,-0.09158 -1.5015,-0.05071 -1.71979,0.09043 -0.30144,0.194926 -0.19085,0.25735 0.4594,0.26045 1.24614,0.0059 3.24477,0.592998 3.24477,0.952913 0,0.659109 -0.78821,0.976159 -2.0097,0.808736 -0.73286,-0.100449 -1.4337,-0.04461 -1.7818,0.142111 -0.39108,0.209774 -2.42863,0.299968 -6.39496,0.28267 -6.35098,-0.02773 -7.66934,-0.253471 -8.26461,-1.413351 -0.52079,-1.014786 -0.38851,-2.968964 0.33693,-4.980057 0.79258,-2.197219 0.91869,-5.263782 0.57154,-13.912847 -0.19179,-4.77833 -0.15965,-5.574001 0.33176,-8.202083 0.29931,-1.600729 0.82092,-3.446198 1.1591,-4.101042 0.33819,-0.654843 1.26079,-2.440781 2.05001,-3.96875 1.6475,-3.189673 4.27362,-6.898274 5.73712,-8.10183 1.23222,-1.013356 3.55957,-2.216919 4.28707,-2.216919 0.29587,0 0.53795,-0.104654 0.53795,-0.232544 0,-0.357513 1.77469,-3.223146 2.42466,-3.915007 0.31758,-0.338262 0.46045,-0.614949 0.31678,-0.614949 z m 3.64887,1.058333 c 0.44198,0 0.51923,0.117527 0.39119,0.595313 -0.0878,0.327422 -0.1613,0.68461 -0.16329,0.79375 -0.005,0.292459 -1.00435,0.241789 -1.19115,-0.06046 -0.26903,-0.435288 0.37872,-1.328601 0.96325,-1.328601 z m 2.70113,6.693649 c 0.6133,-0.01351 1.18565,0.04085 1.59112,0.174667 1.93735,0.639381 2.59391,3.11949 1.33118,5.027599 -0.55321,0.835954 -0.99838,1.142212 -2.30012,1.581814 -4.18022,1.411679 -7.74408,0.221552 -8.03981,-2.685105 -0.14926,-1.466861 0.50146,-2.529041 2.1363,-3.487127 1.21976,-0.714822 1.74614,-0.723773 1.74614,-0.02946 0,0.310388 0.10699,0.310013 0.70952,-0.0026 0.66735,-0.346228 1.8035,-0.557305 2.82567,-0.57981 z m -1.3007,3.472656 c -0.0856,-0.0034 -0.16049,0.01838 -0.21549,0.07338 -0.29553,0.295527 -0.17778,1.35414 0.16382,1.473295 0.54017,0.188424 0.99218,-0.09394 0.99218,-0.619598 0,-0.414359 -0.56965,-0.912156 -0.94051,-0.927077 z m 27.96212,3.441133 c 0.81331,0 0.8457,0.453666 0.13229,1.852084 -0.29105,0.570489 -0.52916,1.45892 -0.52916,1.97404 0,0.938858 -0.32659,1.136534 -1.25678,0.761193 -0.57712,-0.232878 -0.38316,-2.054807 0.33073,-3.106788 0.3638,-0.536093 0.66146,-1.088773 0.66146,-1.22783 0,-0.139057 0.29766,-0.252699 0.66146,-0.252699 z m -1.45417,0.287838 c 0.0687,-0.0029 0.12015,0.01008 0.15089,0.04082 0.0951,0.09509 -0.0784,0.492173 -0.3855,0.882632 -0.30715,0.390464 -0.68244,1.170659 -0.83406,1.733745 -0.32343,1.20114 -0.79561,1.296948 -1.5658,0.31781 l -0.55552,-0.7059 0.68833,-0.718302 c 0.71178,-0.742934 2.02082,-1.530334 2.50166,-1.55081 z m 3.30987,0.505912 c 0.85118,0 0.99363,0.332897 0.52607,1.229382 -0.424,0.812964 -0.49097,1.393539 -0.23668,2.056206 0.29031,0.756553 0.63304,0.437629 0.63304,-0.589113 0,-1.332275 0.58181,-2.147131 1.24126,-1.738394 0.26585,0.164777 0.49202,0.635134 0.50902,1.058333 0.0507,1.266732 0.091,1.42317 0.36638,1.42317 0.14552,0 0.26459,-0.290743 0.26459,-0.645957 0,-0.870754 0.45189,-1.093472 1.07487,-0.529682 0.76455,0.691901 0.62933,1.071867 -0.55088,1.544092 -0.68478,0.274 -1.8629,0.425297 -3.30729,0.425297 -2.2077,0 -2.24379,-0.01053 -2.24379,-0.65164 0,-0.358341 0.24679,-1.310844 0.54829,-2.116667 0.45294,-1.210582 0.65719,-1.465027 1.17512,-1.465027 z m -32.46468,2.267562 c -0.22687,0 -0.33899,0.119062 -0.24908,0.264583 0.0899,0.145521 0.27544,0.264583 0.41237,0.264583 0.13693,0 0.24908,-0.119062 0.24908,-0.264583 0,-0.145521 -0.1855,-0.264583 -0.41237,-0.264583 z m 25.44754,0.472839 c 0.23021,-0.0016 0.49952,0.13076 0.73019,0.411861 0.80172,0.977016 3.8556,1.863736 6.41563,1.862937 1.23693,-4e-4 2.72521,-0.125855 3.30729,-0.279054 1.97861,-0.52075 2.12745,-0.480311 2.0252,0.551387 -0.1178,1.1885 -0.89576,2.726594 -1.03922,2.054656 -0.11573,-0.542041 -0.40647,-0.578959 -1.20147,-0.15348 -0.9359,0.50088 -3.89417,0.970585 -5.60535,0.890387 -1.91581,-0.08976 -3.40943,-0.676706 -4.56406,-1.794209 -0.99792,-0.965829 -1.10771,-0.726519 -0.27233,0.594281 0.32214,0.50932 0.59701,1.372529 0.61081,1.918229 0.0316,1.24791 -0.35337,1.258687 -1.18856,0.03256 -0.51345,-0.753742 -0.63871,-1.24388 -0.59221,-2.312522 0.0676,-1.553689 0.25378,-2.284097 0.5824,-2.284097 0.12591,0 0.30512,0.24081 0.39842,0.53485 0.25562,0.80537 2.5402,1.83049 4.70204,2.109949 2.41614,0.31234 6.31482,-0.127458 7.15254,-0.80667 0.87995,-0.71346 0.38363,-0.874083 -1.04904,-0.339513 -1.67485,0.6249 -6.5216,0.60634 -8.28993,-0.03204 -1.37314,-0.49572 -2.64945,-1.612717 -2.64945,-2.318205 0,-0.415554 0.23112,-0.63922 0.5271,-0.641305 z m 10.89081,5.206918 c 0.46053,0.0123 -0.94697,1.192834 -2.21331,1.856735 -0.53989,0.283059 -1.10545,0.514696 -1.25677,0.514696 -0.31524,0 -0.36147,-0.78187 -0.0723,-1.221631 0.19536,-0.297151 2.87722,-1.167601 3.54242,-1.1498 z m -9.20048,0.249079 c 0.61201,0.0067 1.42252,0.859057 1.60508,1.923915 0.17739,1.03474 0.0165,1.144212 -1.20458,0.81752 -0.48602,-0.130029 -1.18789,-2.002353 -0.91571,-2.442744 0.12929,-0.209191 0.31121,-0.30093 0.51521,-0.298691 z m 2.63343,0.557591 c 0.19186,-0.0016 0.44286,0.01053 0.77153,0.02945 1.30687,0.07525 1.39395,0.124905 1.47485,0.831474 0.0509,0.44423 -0.1008,0.957601 -0.37155,1.256771 -0.25174,0.27817 -0.66863,0.505397 -0.92656,0.505397 -0.61998,0 -1.5658,-1.228606 -1.5658,-2.033985 0,-0.453998 0.042,-0.584234 0.61753,-0.58911 z m -35.09449,3.303156 c -0.29441,0 0.28233,5.026057 0.7338,6.394442 0.54015,1.637186 0.92743,4.691922 1.21905,9.612849 0.10348,1.74625 0.23477,2.817813 0.29197,2.38125 0.2272,-1.733968 -0.50805,-10.821662 -0.99477,-12.293306 -0.26645,-0.805656 -0.6289,-2.506824 -0.80512,-3.780131 -0.17621,-1.273307 -0.37623,-2.315104 -0.44493,-2.315104 z"
         style="fill:#000000;stroke-width:1" />
    </g>
    <g
       transform="translate(345.92348,-66.530635)"
       id="kitty-arm">
      <path
         style="fill:#f7df1e;fill-opacity:1;fill-rule:evenodd;stroke:none;stroke-width:0.26458332px;stroke-linecap:butt;stroke-linejoin:miter;stroke-opacity:1"
         d="m -52.107684,94.312083 8.6771,-0.839941 c 0,0 21.6305,-0.134525 22.65351,0.550613 1.023011,0.685139 0.499173,1.059292 0.499173,1.059292 l -1.338827,0.7684 1.497258,0.953061 -1.346005,0.699103 1.277882,1.728248 -0.756263,0.266747 -30.606277,-1.182616 z"
         id="path4356"
         inkscape:connector-curvature="0" />
      <path
         id="path4281-3"
         d="m -38.613865,98.895784 3.57187,0.006 c 1.964531,0.003 5.95313,0.17864 8.863539,0.38964 2.910433,0.211 5.559563,0.38644 5.886982,0.38964 0.843201,0.008 0.795639,-0.97264 -0.0661,-1.36529 -0.746339,-0.34006 -0.854379,-0.702 -0.264588,-0.88625 1.385228,-0.43276 1.364958,-0.39524 0.55708,-1.04438 l -0.765331,-0.61495 0.566891,-0.3545 c 0.901768,-0.56317 0.711297,-1.22584 -0.441831,-1.53635 -2.402922,-0.64704 -4.891259,-0.78202 -12.815242,-0.69401 l -9.90999,0.28681 c -2.272829,0.30653 -1.85615,0.39863 1.132232,0.25114 1.611461,-0.0795 6.493039,-0.13694 10.847919,-0.12764 7.9678,0.0171 10.925501,0.28249 11.161591,1.00149 0.152418,0.46417 -1.536121,1.12086 -2.882511,1.12086 -1.552768,0 -1.023469,0.36616 0.762741,0.52762 1.826231,0.16507 2.25956,0.79343 0.551389,0.79943 -0.63059,0.002 -1.32478,0.11939 -1.543061,0.26045 -0.3404,0.22002 -0.332189,0.25695 0.0589,0.26045 0.710358,0.006 2.870581,1.13946 2.760559,1.44798 -0.0542,0.15187 -0.323548,0.24778 -0.598929,0.21342 -2.32341,-0.28993 -15.094061,-0.80478 -20.74137,-0.83612 -3.8563,-0.0214 -7.6663,-0.10912 -8.46667,-0.19534 -1.00821,-0.10861 -1.373931,-0.0722 -1.190622,0.11937 0.22008,0.22998 3.359822,0.3763 12.349631,0.57413 z m -8.202148,-4.96352 c -0.873141,-1.4e-4 -2.420951,0.0851 -3.439591,0.18965 l -1.852081,0.19017 2.248961,0.0222 c 1.23693,0.0121 2.78474,-0.0737 3.439581,-0.19017 l 1.19063,-0.21187 z"
         style="fill:#000000;stroke-width:1"
         inkscape:connector-curvature="0" />
    </g>
    <g
       id="g4277"
       transform="translate(459.69474,52.338556)" />
    <path
       inkscape:connector-curvature="0"
       style="fill:#ffffff;stroke-width:1;fill-opacity:1"
       d="m 335.67905,2.261657 c -0.0197,-0.0013 -0.0418,0.0109 -0.0667,0.03566 -0.40895,0.407734 -0.41813,4.986391 -0.0139,7.017661 0.43945,2.208776 0.28262,2.791129 -1.25781,4.668448 -1.25044,1.523937 -1.25319,1.531499 -1.22059,3.444235 0.018,1.054323 0.14958,2.066354 0.29249,2.248959 0.14289,0.182605 0.32846,0.609811 0.41186,0.949812 0.13303,0.54203 -0.0218,0.695346 -1.25626,1.241269 -1.69934,0.751527 -3.82545,2.80811 -4.63796,4.486547 -0.77794,1.606984 -1.00496,4.256538 -0.45578,5.318538 0.82568,1.596689 2.32553,2.684436 4.55476,3.303675 2.02089,0.561372 4.82832,-0.415615 8.17779,-2.846337 2.28125,-1.655501 2.94294,-4.661443 1.46606,-6.659026 -0.55528,-0.751059 -3.06343,-2.307225 -6.09678,-3.782198 -1.18751,-0.577429 -1.95451,-2.333654 -1.95751,-4.479313 -0.002,-1.243614 0.12283,-1.63207 0.79169,-2.471167 1.85238,-2.323811 2.02644,-3.071725 1.45262,-6.239415 -0.1905,-1.051351 -0.24517,-2.645325 -0.14056,-4.101041 0.10575,-1.471179 0.0942,-2.127761 -0.0434,-2.136302 z m -1.26865,19.995677 c 0.81331,0 0.8457,0.453668 0.13229,1.852084 -0.29105,0.570489 -0.52917,1.45892 -0.52917,1.97404 0,0.938858 -0.32658,1.136536 -1.25677,0.761196 -0.57712,-0.232879 -0.38316,-2.054808 0.33073,-3.106788 0.3638,-0.536094 0.66146,-1.088777 0.66146,-1.227834 0,-0.139057 0.29766,-0.252698 0.66146,-0.252698 z m -1.45418,0.28784 c 0.0687,-0.0029 0.12016,0.01008 0.1509,0.04082 0.0951,0.09509 -0.0784,0.492175 -0.38551,0.882634 -0.30715,0.390464 -0.68243,1.17066 -0.83405,1.733743 -0.32344,1.201142 -0.79561,1.296951 -1.5658,0.317812 l -0.55552,-0.7059 0.68833,-0.718304 c 0.71178,-0.742934 2.02081,-1.530332 2.50165,-1.550808 z m 3.30988,0.50591 c 0.85118,0 0.99362,0.332899 0.52607,1.229384 -0.424,0.812964 -0.49097,1.393539 -0.23668,2.056204 0.29031,0.756555 0.63303,0.437632 0.63303,-0.589111 0,-1.332275 0.58182,-2.14713 1.24127,-1.738394 0.26585,0.164777 0.49201,0.635135 0.50902,1.058333 0.0507,1.266733 0.091,1.42317 0.36638,1.423168 0.14552,0 0.26458,-0.29074 0.26458,-0.645954 0,-0.870755 0.45189,-1.093473 1.07487,-0.529683 0.76455,0.691899 0.62934,1.071867 -0.55087,1.54409 -0.68478,0.274 -1.8629,0.425299 -3.30729,0.425297 -2.2077,0 -2.24379,-0.01053 -2.24379,-0.65164 0,-0.358341 0.24679,-1.310844 0.54829,-2.116667 0.45294,-1.21058 0.65719,-1.465027 1.17512,-1.465027 z m -7.01714,2.740404 c 0.23021,-0.0016 0.49951,0.130759 0.73019,0.411861 0.80171,0.977016 3.85559,1.863733 6.41562,1.862933 1.23693,-5.29e-4 2.72521,-0.125851 3.30729,-0.27905 1.97861,-0.520751 2.12746,-0.480312 2.0252,0.551386 -0.1178,1.188501 -0.89575,2.726593 -1.03921,2.054654 -0.11573,-0.542038 -0.40648,-0.578956 -1.20148,-0.153477 -0.9359,0.500881 -3.89416,0.970582 -5.60534,0.890384 -1.91581,-0.08976 -3.40943,-0.676703 -4.56406,-1.794206 -0.99792,-0.96583 -1.10772,-0.726519 -0.27234,0.594278 0.32214,0.509321 0.59702,1.372532 0.61082,1.91823 0.0316,1.247912 -0.35337,1.258683 -1.18856,0.03256 -0.51345,-0.753743 -0.63871,-1.243878 -0.59221,-2.31252 0.0676,-1.553689 0.25377,-2.2841 0.58239,-2.2841 0.12591,0 0.30513,0.240813 0.39843,0.534852 0.25562,0.805371 2.5402,1.830491 4.70204,2.10995 2.41614,0.31234 6.31481,-0.127458 7.15253,-0.80667 0.87995,-0.71346 0.38364,-0.874083 -1.04903,-0.339513 -1.67485,0.624898 -6.5216,0.60634 -8.28993,-0.03204 -1.37314,-0.495719 -2.64945,-1.612716 -2.64945,-2.318203 0,-0.415555 0.23111,-0.639221 0.5271,-0.641305 z m 10.8908,5.206915 c 0.46053,0.0123 -0.94696,1.192835 -2.2133,1.856735 -0.53989,0.283059 -1.10545,0.514697 -1.25677,0.514697 -0.31524,0 -0.36152,-0.781868 -0.0723,-1.221629 0.19536,-0.297151 2.87722,-1.167601 3.54241,-1.149803 z m -9.20047,0.249082 c 0.61201,0.0067 1.42251,0.859054 1.60507,1.923912 0.17739,1.034741 0.0165,1.144215 -1.20458,0.817523 -0.48601,-0.130029 -1.18788,-2.002353 -0.9157,-2.442744 0.12929,-0.209193 0.31121,-0.300929 0.51521,-0.298691 z m 2.63343,0.557588 c 0.19186,-0.0016 0.44286,0.01053 0.77153,0.02946 1.30687,0.07525 1.39395,0.124905 1.47485,0.831474 0.0509,0.444231 -0.10081,0.957602 -0.37156,1.256771 -0.25173,0.27817 -0.66863,0.505394 -0.92655,0.505394 -0.61998,0 -1.5658,-1.228603 -1.5658,-2.033984 0,-0.453996 0.042,-0.584235 0.61753,-0.589111 z"
       id="path4275" />
  </g>
</svg>
