<?xml version="1.0" encoding="UTF-8" standalone="no"?>
<svg
   xmlns:dc="http://purl.org/dc/elements/1.1/"
   xmlns:cc="http://creativecommons.org/ns#"
   xmlns:rdf="http://www.w3.org/1999/02/22-rdf-syntax-ns#"
   xmlns:svg="http://www.w3.org/2000/svg"
   xmlns="http://www.w3.org/2000/svg"
   xmlns:sodipodi="http://sodipodi.sourceforge.net/DTD/sodipodi-0.dtd"
   xmlns:inkscape="http://www.inkscape.org/namespaces/inkscape"
   id="svg5055"
   version="1.1"
   viewBox="0 0 84.55217 70.774857"
   height="70.774857mm"
   width="84.55217mm"
   sodipodi:docname="kitty-no-kitty.svg"
   inkscape:version="0.92.2 (5c3e80d, 2017-08-06)">
  <sodipodi:namedview
     pagecolor="#ffffff"
     bordercolor="#666666"
     inkscape:document-rotation="0"
     borderopacity="1"
     objecttolerance="10"
     gridtolerance="10"
     guidetolerance="10"
     inkscape:pageopacity="0"
     inkscape:pageshadow="2"
     inkscape:window-width="1920"
     inkscape:window-height="1016"
     id="namedview11"
     showgrid="false"
     inkscape:zoom="2.828427"
     inkscape:cx="176.3552"
     inkscape:cy="155.91632"
     inkscape:window-x="0"
     inkscape:window-y="27"
     inkscape:window-maximized="1"
     inkscape:current-layer="svg5055" />
  <defs
     id="defs5049" />
  <metadata
     id="metadata5052">
    <rdf:RDF>
      <cc:Work
         rdf:about="">
        <dc:format>image/svg+xml</dc:format>
        <dc:type
           rdf:resource="http://purl.org/dc/dcmitype/StillImage" />
        <dc:title></dc:title>
      </cc:Work>
    </rdf:RDF>
  </metadata>
  <g
     transform="translate(-219.3765,59.6368)"
     id="layer1">
    <g
       id="g4305"
       transform="translate(506.44382,-73.40447)">
      <rect
         style="vector-effect:none;fill:#dc0000;fill-opacity:0;stroke-width:0.26458332"
         id="rect4300"
         width="84.55217"
         height="70.774857"
         x="-315.13062"
         y="16.761089" />
    </g>
    <path
       id="path4292"
       d="m 260.1346,-29.585302 c -0.20337,-0.0064 -0.34106,0.06235 -0.34106,0.222723 0,0.197991 0.38694,0.477422 0.85989,0.621152 1.02031,0.310078 1.2317,0.232251 0.71159,-0.262001 -0.37034,-0.35193 -0.89146,-0.57123 -1.23042,-0.581874 z m 11.18743,1.143632 c -0.50207,-6.9e-5 -1.26103,0.295378 -1.73891,0.781865 l -0.66146,0.673859 0.87437,-0.438732 c 0.48082,-0.241181 1.13567,-0.402317 1.45521,-0.358116 0.37575,0.05197 0.58084,-0.0601 0.58084,-0.316778 0,-0.235815 -0.20881,-0.342056 -0.51005,-0.342098 z m -13.31598,2.210202 c -0.28822,0.02506 -0.68862,0.156549 -1.13636,0.388088 -0.77756,0.40209 -0.9394,0.671875 -0.6041,1.007174 0.28125,0.281252 0.46978,0.211301 0.95291,-0.352949 0.2492,-0.291039 0.63296,-0.529167 0.85266,-0.529167 0.21971,0 0.39946,-0.119054 0.39946,-0.264583 0,-0.19263 -0.17635,-0.273606 -0.46457,-0.248563 z m 13.50874,2.112531 c -0.47451,0.0019 -0.50186,0.342903 0.25114,0.868167 0.32742,0.228399 0.79676,0.421428 1.04283,0.429429 0.79734,0.02474 0.78093,-0.482428 -0.0289,-0.901234 -0.53479,-0.276548 -0.98034,-0.397481 -1.26504,-0.396362 z m -13.22194,2.633951 c -0.38663,0 -1.14514,0.903825 -1.14514,1.364255 0,0.55417 0.53133,0.644303 1.0051,0.170532 0.33441,-0.334409 0.44397,-1.534787 0.14004,-1.534787 z m 10.08931,1.058331 c -0.36438,0 -0.33276,0.115845 0.18087,0.657323 0.69845,0.736351 1.28468,0.862962 1.28468,0.278021 0,-0.43239 -0.78804,-0.935344 -1.46555,-0.935344 z m -5.66994,0.79375 c -0.35308,0 -0.3524,1.209262 10e-4,1.869654 0.28535,0.533191 1.04903,0.710319 1.04903,0.243398 0,-0.147492 -0.11057,-0.474927 -0.24547,-0.727604 -0.1349,-0.252693 -0.3098,-0.667766 -0.3886,-0.922427 -0.0788,-0.25467 -0.26591,-0.463021 -0.416,-0.463021 z"
       style="fill:#000000;stroke-width:1"
       inkscape:connector-curvature="0"
       sodipodi:nodetypes="csccccccccscccccsscccccccsscsscssccscccc" />
  </g>
  <path
     style="fill:#ffffff;stroke:none;stroke-width:1.32291663;stroke-miterlimit:4;stroke-dasharray:none;stroke-opacity:1"
     d="m 40.758098,30.051498 c -0.20336,-0.0064 -0.34106,0.06236 -0.34106,0.222727 0,0.19799 0.38695,0.477419 0.8599,0.621151 1.02031,0.310076 1.23169,0.232252 0.71158,-0.262001 -0.37034,-0.35193 -0.89145,-0.571232 -1.23042,-0.581877 z m 11.18744,1.143601 c -0.50207,-6.9e-5 -1.26104,0.295378 -1.73892,0.781865 -0.779349,0.765221 -0.709281,0.69786 0.21291,0.235127 0.48082,-0.241181 1.13567,-0.40232 1.45521,-0.358119 0.37575,0.05197 0.58084,-0.0601 0.58084,-0.316775 0,-0.235815 -0.2088,-0.342056 -0.51004,-0.342098 z m -13.31599,2.2102 c -0.28822,0.02506 -0.68862,0.156551 -1.13636,0.38809 -0.77756,0.402089 -0.9394,0.671874 -0.6041,1.007175 0.28125,0.28125 0.46979,0.211302 0.95291,-0.352951 0.24921,-0.291039 0.63296,-0.529166 0.85267,-0.529166 0.21971,0 0.39945,-0.119054 0.39945,-0.264583 0,-0.19263 -0.17635,-0.273608 -0.46457,-0.248565 z m 13.50874,2.112535 c -0.47451,0.0019 -0.50185,0.3429 0.25115,0.868164 0.32742,0.228399 0.79676,0.421431 1.04283,0.429432 0.79734,0.02474 0.78089,-0.482431 -0.0289,-0.901237 -0.53479,-0.276548 -0.98034,-0.397481 -1.26504,-0.396359 z m -13.22193,2.633948 c -0.38663,0 -1.14515,0.903825 -1.14515,1.364258 0,0.554167 0.53133,0.6443 1.0051,0.170532 0.33441,-0.334409 0.44398,-1.53479 0.14005,-1.53479 z m 10.08931,1.058331 c -0.36438,0 -0.33277,0.115845 0.18086,0.657323 0.69845,0.736351 1.28468,0.862962 1.28468,0.278021 0,-0.43239 -0.78803,-0.935344 -1.46554,-0.935344 z m -5.66994,0.79375 c -0.35308,0 -0.35237,1.209262 10e-4,1.869654 0.28535,0.533191 1.04904,0.710319 1.04904,0.243399 0,-0.147492 -0.11057,-0.474928 -0.24547,-0.727605 -0.13491,-0.252693 -0.30982,-0.667763 -0.38861,-0.922424 -0.0788,-0.25467 -0.26591,-0.463024 -0.416,-0.463024 z"
     id="path4278"
     inkscape:connector-curvature="0"
     sodipodi:nodetypes="cscccccccscccccsscccccccssssscssccscccc" />
  <g
     id="g4280"
     transform="translate(-210.4979,120.98739)" />
</svg>
