<?xml version="1.0" encoding="UTF-8" standalone="no"?>
<svg
   xmlns:dc="http://purl.org/dc/elements/1.1/"
   xmlns:cc="http://creativecommons.org/ns#"
   xmlns:rdf="http://www.w3.org/1999/02/22-rdf-syntax-ns#"
   xmlns:svg="http://www.w3.org/2000/svg"
   xmlns="http://www.w3.org/2000/svg"
   xmlns:sodipodi="http://sodipodi.sourceforge.net/DTD/sodipodi-0.dtd"
   xmlns:inkscape="http://www.inkscape.org/namespaces/inkscape"
   id="svg5055"
   version="1.1"
   viewBox="0 0 84.55217 70.774857"
   height="70.774857mm"
   width="84.55217mm"
   sodipodi:docname="kitty-no-string.svg"
   inkscape:version="0.92+devel unknown">
  <sodipodi:namedview
     pagecolor="#ffffff"
     bordercolor="#666666"
     inkscape:document-rotation="0"
     borderopacity="1"
     objecttolerance="10"
     gridtolerance="10"
     guidetolerance="10"
     inkscape:pageopacity="0"
     inkscape:pageshadow="2"
     inkscape:window-width="1920"
     inkscape:window-height="1016"
     id="namedview11"
     showgrid="false"
     inkscape:zoom="11.313708"
     inkscape:cx="93.31594"
     inkscape:cy="164.50621"
     inkscape:window-x="0"
     inkscape:window-y="0"
     inkscape:window-maximized="1"
     inkscape:current-layer="svg5055" />
  <defs
     id="defs5049" />
  <metadata
     id="metadata5052">
    <rdf:RDF>
      <cc:Work
         rdf:about="">
        <dc:format>image/svg+xml</dc:format>
        <dc:type
           rdf:resource="http://purl.org/dc/dcmitype/StillImage" />
        <dc:title />
      </cc:Work>
    </rdf:RDF>
  </metadata>
  <path
     style="fill:#ffffff;fill-opacity:1;fill-rule:evenodd;stroke:#000000;stroke-width:0.26458335px;stroke-linecap:butt;stroke-linejoin:miter;stroke-opacity:1"
     d="m 21.258316,26.875251 c -0.01974,-0.270378 0.269753,-0.369777 0.451923,-0.493485 0.144982,-0.14185 0.278996,-0.303512 0.383466,-0.473309 0.01523,-0.260694 0.271587,-0.374317 0.456696,-0.455829 0.263488,-0.02764 0.506711,-0.160593 0.775005,-0.13441 0.224693,-0.01558 0.455518,6.69e-4 0.664539,0.08524 0.01043,0.174205 0.12099,0.332064 0.17879,0.507416 0.06284,0.184172 0.09878,0.376402 0.07916,0.571173 -0.003,0.211424 0.01967,0.423314 -0.04423,0.625784 -0.0258,0.209996 -0.111437,0.396005 -0.17388,0.59685 -0.13995,0.227571 -0.209675,0.510441 -0.43937,0.671875 -0.172948,0.146019 -0.357743,0.281326 -0.523403,0.43235 -0.170447,0.100253 -0.294541,0.267031 -0.476382,0.359629 -0.160142,0.02171 -0.313129,0.301469 -0.407667,0.280806 -0.160164,0.153713 -0.353627,0.261794 -0.57461,0.301045 -0.214626,0.0313 -0.417996,0.07883 -0.63359,0.06762 -0.174494,-0.128234 -0.35914,-0.248171 -0.403586,-0.466701 -0.03523,-0.222375 -0.06036,-0.446061 -0.06509,-0.671109 -0.02439,-0.185863 -0.08776,-0.386629 0.0073,-0.562179 0.0138,-0.220404 0.23104,-0.360372 0.283899,-0.566074 0.141692,-0.138531 0.196464,-0.354719 0.406792,-0.396841 0.07286,-0.07469 0.160332,-0.200424 0.05427,-0.279853 z"
     id="path4328"
     inkscape:connector-curvature="0" />
  <path
     style="fill:#ffffff;fill-rule:evenodd;stroke:#000000;stroke-width:0.26458335px;stroke-linecap:butt;stroke-linejoin:miter;stroke-opacity:1;fill-opacity:1"
     d="m 51.677407,27.138313 c 0.31571,-0.0058 0.635355,0.0019 0.939328,0.08718 0.20875,0.05077 0.438382,0.104384 0.632855,0.1983 0.138173,0.01227 0.382657,0.181955 0.429682,0.164587 0.193936,0.06738 0.384285,0.147429 0.585737,0.194273 0.138035,0.06901 0.356606,0.06745 0.401559,0.244175 0.175056,0.04629 0.303425,0.290804 0.450644,0.41935 0.140342,0.112834 0.257325,0.255159 0.36105,0.37956 0.136234,0.124989 0.175773,0.290379 0.16694,0.481179 -0.01433,0.213489 -0.06847,0.3541 -0.10458,0.557522 -0.05909,0.197479 -0.04971,0.451119 -0.16017,0.607883 -0.06795,0.175363 -0.146163,0.338954 -0.16831,0.527065 -0.03887,0.07201 -0.04346,0.144703 -0.03847,0.246648 0.0067,0.152997 -0.150508,0.298722 -0.211097,0.447224 -0.07971,0.178347 -0.223386,0.166329 -0.43584,0.224832 -0.163125,0.0543 -0.371457,-0.01141 -0.519136,-0.04911 -0.184236,-0.05517 -0.401376,-0.05815 -0.560545,-0.173557 -0.148154,-0.06232 -0.157267,-0.09378 -0.332186,-0.207388 -0.168273,-0.101774 -0.217108,-0.302241 -0.386558,-0.407507 -0.111112,-0.181027 -0.227588,-0.313619 -0.387464,-0.470889 -0.12512,-0.120097 -0.189901,-0.320958 -0.323742,-0.443787 -0.127441,-0.160675 -0.226107,-0.347203 -0.250999,-0.559252 -0.04757,-0.21061 -0.07144,-0.436558 -0.11505,-0.659037 -0.02324,-0.142364 -0.04729,-0.285879 -0.08175,-0.423143 -0.02838,-0.159904 -0.104071,-0.315194 -0.12973,-0.480341 0.01221,-0.167833 -0.03985,-0.373813 0.0549,-0.509304 0.0042,-0.155886 0.0366,-0.293416 0.08544,-0.389142 0.03275,0.0025 0.06527,-0.0043 0.09749,-0.0073 z"
     id="path4325"
     inkscape:connector-curvature="0" />
  <g
     transform="translate(-191.3132,56.643381)"
     id="layer1">
    <g
       id="g4305"
       transform="translate(506.44382,-73.40447)">
      <rect
         style="vector-effect:none;fill:#dc0000;fill-opacity:0;stroke-width:0.26458332"
         id="rect4300"
         width="84.55217"
         height="70.774857"
         x="-315.13062"
         y="16.761089" />
    </g>
    <path
       id="path4311"
       d="m 213.96143,6.4085 -0.49043,-1.229465 2.70465,-10.584551 1.85811,-4.121144 1.61941,-7.631147 1.06646,-13.01673 c 0,0 -1.42444,-5.442223 -0.67379,-8.230153 0.75065,-2.787928 1.9762,-4.529879 1.9762,-4.529879 0,0 1.71799,-3.140056 4.3919,-3.85969 0,0 0.86866,1.028956 0.72146,4.131005 l 6.46262,-0.06708 c 0,0 -0.31545,-2.199434 2.67836,-4.286136 0,0 2.38837,1.6247 1.24769,5.253424 l 1.87532,1.535103 1.35918,4.675912 0.36084,1.825602 -2.20745,2.653642 0.29102,2.125107 -1.06125,4.128973 c 0,0 -2.47707,10.89828 -2.66068,18.254327 0,0 -0.44776,12.627573 -1.51305,12.561408 -1.0653,-0.06616 -1.41583,-1.24865 -1.41583,-1.24865 l -0.54184,0.275621 c 0,0 -0.50701,1.346267 -0.8223,1.256742 -0.3153,-0.08952 -1.83474,-0.617932 -1.67383,-2.10762 0.16091,-1.489687 -0.29372,-0.776127 -0.29372,-0.776127 0,0 -2.69518,1.177423 -3.15677,1.029955 -0.46159,-0.147469 -3.1412,-0.454412 -3.1412,-0.454412 0,0 -1.97137,1.015574 -2.2128,0.908953 -0.24143,-0.10662 -1.53641,-0.175133 -1.83774,0.107534 -0.30133,0.28267 -1.60245,1.516573 -1.60245,1.516573 L 215.843,5.656806 Z"
       style="fill:#f7df1e;fill-opacity:1;fill-rule:evenodd;stroke:#000000;stroke-width:0.26458332px;stroke-linecap:butt;stroke-linejoin:miter;stroke-opacity:1" />
    <path
       id="path4313"
       d="m 225.14648,-30.514651 c -0.73999,-0.241633 -1.2737,-0.773249 -1.87074,-1.266562 -0.64597,-0.557279 -0.98357,-1.415243 -0.43,-2.171643 0.35454,-0.70264 0.56703,-1.507135 1.18328,-2.03942 0.53383,-0.556022 1.28139,-0.85099 2.00616,-1.073115 0.49964,-0.342309 1.12385,-0.386191 1.71406,-0.470979 0.76396,-0.03815 1.55116,-0.175481 2.2872,0.112024 0.63902,0.26092 1.33476,0.05375 2.00277,0.139102 0.66933,0.207344 1.24951,-0.141995 1.7455,-0.564126 0.51676,-0.405701 1.22439,-0.476791 1.8606,-0.574366 0.58755,-0.06509 1.17541,-0.07635 1.72824,0.170926 0.78245,0.221032 1.69641,-0.03987 2.39805,0.420722 0.46931,0.71436 0.9984,1.414461 1.26083,2.249183 0.27243,0.771387 0.29127,1.754055 -0.36344,2.347409 -0.47764,0.621585 -0.99738,1.167654 -1.53367,1.73997 -0.51321,0.623675 -1.38112,0.324364 -2.07058,0.54741 -0.70276,0.229344 -1.32218,0.824606 -2.13096,0.582353 -0.67254,0.124793 -1.39005,0.07058 -1.9574,-0.351685 -0.40261,-0.426702 -0.77128,-0.918166 -1.4322,-0.565411 -0.9199,0.381489 -1.91183,0.576989 -2.87119,0.850878 -0.96642,0.253946 -1.98905,0.244445 -2.97305,0.114326 -0.19724,-0.07133 -0.467,-0.02516 -0.55346,-0.196996 z"
       style="fill:#ffffff;fill-rule:evenodd;stroke:#000000;stroke-width:0.26458332px;stroke-linecap:butt;stroke-linejoin:miter;stroke-opacity:1" />
    <path
       id="path4292"
       d="m 268.14393,-51.485259 c -0.1028,0.0072 -0.28891,0.09148 -0.55862,0.268201 -0.8466,0.554712 -1.44177,1.681809 -1.44177,2.731099 0,0.443614 0.41672,1.62421 0.92604,2.623612 1.26531,2.48281 1.18834,4.292507 -0.26613,6.255951 -0.96232,1.299072 -1.04197,2.281422 -0.35812,4.431252 0.74796,2.35132 0.7401,4.362558 -0.0227,5.655469 -0.29897,0.506719 -0.54363,1.030081 -0.54363,1.162719 0,0.491511 0.82702,-0.09785 1.22938,-0.875913 0.71242,-1.377684 0.7631,-3.600623 0.12712,-5.56917 -0.74447,-2.3044 -0.71999,-2.622535 0.34727,-4.53099 0.51389,-0.918906 0.98736,-2.211208 1.08779,-2.968294 0.1623,-1.223441 0.08,-1.538793 -0.9431,-3.603398 -1.26739,-2.557716 -1.29475,-3.588737 -0.12454,-4.688086 0.58871,-0.553086 0.76722,-0.908327 0.54105,-0.892452 z m -41.72999,4.294125 -1.33274,0.675411 c -1.35259,0.68541 -3.00447,2.294512 -3.00447,2.926436 0,0.190663 -0.25009,0.573205 -0.55603,0.850077 -0.84721,0.766707 -1.29113,1.802134 -1.70894,3.985805 -0.50558,2.642423 -0.45562,5.442344 0.12919,7.234182 0.31076,0.952285 0.40217,1.683664 0.2651,2.116666 -0.0366,0.115477 -0.0768,0.370445 -0.11782,0.675412 -1.13086,0.228137 -1.98025,0.690655 -1.98025,1.239716 0,0.135078 0.0893,0.199842 0.19844,0.143661 0.68819,-0.354243 1.21538,-0.588992 1.70429,-0.741556 -0.0529,0.513292 -0.0998,1.116827 -0.13591,1.72961 -0.12712,0.04804 -0.24949,0.09834 -0.36018,0.151929 -1.09583,0.530482 -1.31559,0.772663 -0.99322,1.095024 0.0817,0.08175 0.66122,-0.13787 1.28829,-0.488345 0.006,-0.0036 0.0142,-0.0068 0.0207,-0.01032 -0.43174,8.031123 -0.81257,10.870835 -2.10892,15.853812 -0.36959,1.420651 -0.67179,2.998229 -0.67179,3.505729 0,1.228659 0.4627,1.180206 0.66766,-0.06976 0.0895,-0.545703 0.50117,-2.420937 0.91467,-4.167187 1.16808,-4.932921 1.28128,-5.614477 1.46865,-8.863542 0.14221,-2.465949 0.3047,-4.771702 0.45631,-6.585643 0.52181,-0.195514 1.08959,-0.340643 1.48414,-0.363287 1.50101,-0.08615 1.38307,-0.459403 -0.1452,-0.459403 -0.37766,0 -0.83525,0.06601 -1.28056,0.174151 0.0563,-0.633828 0.11205,-1.246484 0.16124,-1.681036 0.44504,-0.06351 0.91013,-0.06582 1.48931,-0.02894 1.795,0.114298 2.25258,-0.18152 0.7245,-0.468185 -0.69673,-0.13071 -1.44516,-0.146889 -2.1425,-0.07803 0.0159,-0.113308 0.0327,-0.243274 0.047,-0.322977 0.0943,-0.522589 0.0312,-1.415557 -0.14005,-1.984374 -0.66601,-2.21184 -0.75616,-3.214746 -0.51108,-5.664773 0.29634,-2.962521 0.88517,-4.926016 1.5906,-5.30355 0.27889,-0.149257 0.50745,-0.475479 0.50798,-0.725021 0.003,-1.193378 2.50483,-3.496428 3.79874,-3.496428 0.58962,0 0.77567,0.912133 0.57257,2.808614 -0.14425,1.346999 -0.1071,1.689302 0.18397,1.689302 0.20076,1e-6 0.49684,-0.131998 0.65836,-0.293522 0.18421,-0.184206 1.09186,-0.25734 2.43447,-0.196369 2.07678,0.09431 2.7181,-0.08488 1.58854,-0.443384 -0.30353,-0.09634 -1.34533,-0.201318 -2.31511,-0.233578 -1.95582,-0.06506 -1.7857,0.144755 -1.8712,-2.30942 -0.0134,-0.384061 -0.23882,-0.963672 -0.50126,-1.287777 z m 9.86244,0.174666 c -0.60099,-0.01882 -2.05257,1.232608 -2.59932,2.286166 -0.34453,0.663887 -0.41685,1.133503 -0.26252,1.705839 0.20865,0.773788 0.21607,0.766491 0.37104,-0.376722 0.18556,-1.368969 1.69155,-3.128645 2.43396,-2.843754 0.76159,0.292249 1.25347,1.926853 1.05575,3.509347 -0.14346,1.148234 -0.10374,1.426786 0.20309,1.426786 0.20969,0 0.62523,0.267891 0.92345,0.595313 1.32714,1.45707 1.39357,2.687962 0.1261,2.334225 -1.66227,-0.463923 -3.58589,-0.321813 -4.94182,0.364834 -1.28406,0.650255 -1.39148,0.660728 -3.65507,0.370522 -2.60749,-0.334298 -3.73454,-0.13231 -5.50768,0.987018 -1.98603,1.25373 -2.4372,3.619875 -1.00201,5.25446 0.44854,0.510853 1.2088,1.037278 1.68931,1.169954 1.07378,0.296483 5.08659,-0.07626 6.30659,-0.58601 0.78664,-0.328679 0.93662,-0.316034 1.48518,0.128156 0.71277,0.577175 3.36513,0.684879 4.77387,0.193789 0.99917,-0.348311 1.3852,-0.0159 1.27021,1.093988 -0.0599,0.577582 -0.17874,0.650946 -0.93845,0.577225 -0.94615,-0.09181 -4.28966,0.909463 -4.28966,1.284677 0,0.127201 0.49103,0.05835 1.09141,-0.15348 1.14974,-0.405651 3.93567,-0.531479 3.93567,-0.177765 0,0.114046 -0.47339,1.960001 -1.05213,4.102592 -1.24222,4.598974 -2.02891,9.609444 -2.39727,15.268834 -0.93158,14.312463 -0.90107,14.022917 -1.48725,14.022917 -0.20884,0 -0.58254,-0.356555 -0.83043,-0.7922 -0.60705,-1.066797 -0.96009,-0.999241 -1.37667,0.263033 -0.40482,1.226643 -0.96594,1.376783 -1.2361,0.330729 -0.29142,-1.128419 -0.234,-2.344105 0.25529,-5.39140099 0.24834,-1.54664301 0.45165,-3.48326901 0.45165,-4.30309601 0,-0.81983 0.34904,-2.828462 0.77566,-4.463812 0.84834,-3.251856 1.70757,-7.854114 1.5043,-8.057388 -0.35172,-0.351716 -0.63549,0.348229 -0.79737,1.967838 -0.0986,0.986357 -0.34927,2.448015 -0.55707,3.24838 -1.17045,4.508143 -1.45465,5.968569 -1.45469,7.467761 -5e-5,1.844869 -0.67099,5.744581 -1.0542,6.127793 -0.15209,0.152082 -0.3928,0.124632 -0.6289,-0.07131 -0.74367,-0.617183 -2.01126,-0.799549 -3.60495,-0.518832 -1.31015,0.23078 -1.65797,0.207307 -2.16421,-0.147277 -0.33174,-0.23236299 -1.1123,-0.42271499 -1.73477,-0.42271499 -1.30742,0 -1.29026,0.06288 -0.72296,-2.64583301 0.84136,-4.01728 1.26656,-5.756696 2.13889,-8.755018 0.85422,-2.936094 1.11788,-4.73878 0.6935,-4.738732 -0.10914,1.3e-5 -0.39103,0.922748 -0.62632,2.050523 -0.2353,1.127771 -0.85674,3.657862 -1.3808,5.622394 -1.20003,4.498438 -2.29393,9.231294 -2.29339,9.921875 2.4e-4,0.291041 -0.35576,1.282073 -0.79117,2.20245 -0.59217,1.251735 -0.9085,1.649521 -1.25625,1.577681 -0.47508,-0.09814 -0.50705,-0.36676 -0.18191,-1.53117 0.16293,-0.583499 0.0466,-0.528932 -0.98547,0.463018 -0.64348,0.618463 -1.30484,1.124482 -1.46967,1.124482 -0.51816,0 -0.68016,-1.493034 -0.23565,-2.171446 0.22282,-0.340061 0.59514,-1.508588 0.82734,-2.59674 0.82192,-3.851696 1.37234,-7.122838 1.17874,-7.00319 -0.10788,0.06667 -0.57153,1.760386 -1.03043,3.763594 -0.45891,2.00320801 -1.02607,4.177941 -1.26039,4.832782 -0.59817,1.671717 -0.71479,2.758612 -0.36638,3.409608 0.35753,0.668065 0.98947,0.718204 1.63918,0.130226 0.47215,-0.427292 0.75804,-0.389097 1.59576,0.213423 0.36858,0.265097 0.61998,0.155358 1.53324,-0.669726 0.89852,-0.811747 1.26793,-0.976607 2.08101,-0.928627 0.54367,0.03208 1.36941,-0.131522 1.83503,-0.363802 0.70824,-0.353319 1.11755,-0.376082 2.50528,-0.140042 1.56201,0.265682 1.73987,0.240848 3.04787,-0.424264 l 1.38906,-0.706417 v 0.878499 c 0,1.183929 1.60295,2.841726 2.23811,2.314588 0.22425,-0.186108 0.40773,-0.506552 0.40773,-0.711583 0,-0.681908 0.83407,-0.739532 1.32291,-0.09147 0.5571,0.738573 1.2194,0.571759 1.58905,-0.400492 0.37339,-0.982102 1.05679,-8.910617 1.05679,-12.259718 0,-1.574069 0.11294,-3.506573 0.25114,-4.294827 0.13822,-0.788255 0.38568,-2.683661 0.54984,-4.21163 0.3429,-3.191584 0.60879,-4.500496 1.98076,-9.753925 0.8644,-3.309859 0.95435,-3.92497 0.69608,-4.7625 -0.28337,-0.918949 -0.25686,-0.997027 0.60358,-1.75545 1.6711,-1.472972 1.85978,-2.601693 0.81081,-4.855001 -0.3624,-0.778433 -0.65888,-1.742231 -0.65888,-2.141987 0,-0.964131 -0.69697,-2.319937 -1.44435,-2.809648 -0.50273,-0.329403 -0.62356,-0.693655 -0.73174,-2.20555 -0.12906,-1.803885 -0.66609,-2.989935 -1.50792,-3.331579 -0.032,-0.01298 -0.0679,-0.01993 -0.10801,-0.02119 z m 0.10698,8.882146 c 2.33493,-0.02079 4.32014,1.4444 4.32014,3.57239 0,1.42629 -0.58304,2.179778 -2.35437,3.042709 -1.9441,0.947094 -3.95685,1.077828 -4.89479,0.318328 -0.57427,-0.465008 -0.57797,-0.503153 -0.16175,-1.729095 0.53009,-1.561338 0.53344,-2.111237 0.0181,-3.107819 -0.50797,-0.982319 -0.4032,-1.150789 1.06506,-1.711524 0.67277,-0.256934 1.35384,-0.379169 2.00763,-0.384989 z m -8.7633,0.891418 c 0.14533,0.0066 0.25612,0.04011 0.3204,0.104386 0.14222,0.142216 0.77881,0.199858 1.4149,0.128159 1.62107,-0.182716 2.45649,0.07706 2.5585,0.7953 0.0547,0.384956 0.24097,0.569262 0.52762,0.52193 1.10612,-0.182631 0.73813,2.520257 -0.50488,3.708303 -0.53283,0.509275 -1.19936,0.774702 -2.45153,0.977201 -2.95433,0.477771 -4.34652,0.375264 -5.25188,-0.38654 -1.52823,-1.285928 -1.32203,-3.514339 0.4346,-4.698421 1.03678,-0.698854 2.32254,-1.178787 2.95227,-1.150318 z m 0.70539,3.637505 c -0.0954,-0.0059 -0.21374,0.0012 -0.35967,0.01809 -0.43748,0.05049 -0.75987,0.267472 -0.81287,0.546735 -0.0682,0.359582 0.0935,0.46302 0.72502,0.46302 0.64547,0 0.81339,-0.112736 0.81339,-0.546735 0,-0.330001 -0.0798,-0.463483 -0.36587,-0.481107 z m 6.63577,0.234092 c -0.82606,0 -1.01674,0.227812 -0.69505,0.82889 0.28743,0.537072 0.69898,0.618138 1.27693,0.252182 0.5417,-0.342998 0.14431,-1.081072 -0.58188,-1.081072 z m -20.01583,1.850533 c -0.46071,-0.01395 -1.05126,0.114922 -1.5875,0.392227 -1.47389,0.762164 -2.43139,3.43492 -1.5472,4.319113 0.42027,0.420251 0.87158,0.400449 1.79886,-0.07906 1.48626,-0.768573 2.25988,-2.271985 2.14509,-4.167706 -0.0178,-0.294077 -0.34855,-0.450623 -0.80925,-0.464572 z m -0.26045,0.464572 c 0.31383,-0.0026 0.40284,0.205676 0.46147,0.911054 0.0699,0.841193 -0.0681,1.126432 -0.99219,2.050521 -1.45039,1.450388 -2.13165,1.437831 -2.13165,-0.03928 0,-0.87208 1.64854,-2.78024 2.51354,-2.909381 0.0546,-0.0081 0.10399,-0.01255 0.14883,-0.01292 z m 28.36364,1.131196 c -0.4772,-0.0076 -0.59893,0.274539 -0.59893,0.880052 0,1.74073 1.11796,3.965887 2.21537,4.409032 0.95932,0.387387 1.48722,0.285803 2.19418,-0.421164 0.57387,-0.573852 0.65958,-0.848521 0.54002,-1.739945 -0.18407,-1.372348 -0.73032,-1.944446 -2.48202,-2.59984 -0.9114,-0.341001 -1.49747,-0.522185 -1.86862,-0.528135 z m 0.40049,0.839742 c 0.85578,-0.04284 2.61299,0.604367 2.97708,1.284677 0.41446,0.774427 0.29669,1.797756 -0.27233,2.36678 -0.65855,0.658582 -0.82269,0.658619 -1.65933,5.29e-4 -0.60946,-0.479396 -1.51567,-2.485443 -1.51567,-3.354835 0,-0.192003 0.18499,-0.282861 0.47025,-0.29714 z m 16.68553,-0.500038 c -0.20337,-0.0064 -0.34106,0.06235 -0.34106,0.222723 0,0.197991 0.38694,0.477422 0.85989,0.621152 1.02031,0.310078 1.2317,0.232251 0.71159,-0.262001 -0.37034,-0.35193 -0.89146,-0.57123 -1.23042,-0.581874 z m -30.25576,2.034833 c -0.50051,0 -1.6152,0.981734 -1.38131,1.216464 0.11157,0.111967 0.34353,0.06265 0.51573,-0.109553 0.45854,-0.458544 1.17872,-0.382034 1.41025,0.14986 0.19023,0.437031 0.20787,0.436616 0.31471,-0.01241 0.12852,-0.540157 -0.35762,-1.24437 -0.85938,-1.24437 z m 5.52318,1.061435 c -1.074,0.02777 -2.21352,0.226737 -2.21227,0.490926 2.7e-4,0.09217 0.9529,0.17335 2.11667,0.180351 2.01993,0.01214 2.6058,-0.165148 1.69757,-0.513665 -0.33659,-0.129159 -0.95757,-0.174276 -1.60197,-0.157612 z m 35.92001,-1.952636 c -0.50207,-6.9e-5 -1.26103,0.295378 -1.73891,0.781865 l -0.66146,0.673859 0.87437,-0.438732 c 0.48082,-0.241181 1.13567,-0.402317 1.45521,-0.358116 0.37575,0.05197 0.58084,-0.0601 0.58084,-0.316778 0,-0.235815 -0.20881,-0.342056 -0.51005,-0.342098 z m -13.31598,2.210202 c -0.28822,0.02506 -0.68862,0.156549 -1.13636,0.388088 -0.77756,0.40209 -0.9394,0.671875 -0.6041,1.007174 0.28125,0.281252 0.46978,0.211301 0.95291,-0.352949 0.2492,-0.291039 0.63296,-0.529167 0.85266,-0.529167 0.21971,0 0.39946,-0.119054 0.39946,-0.264583 0,-0.19263 -0.17635,-0.273606 -0.46457,-0.248563 z m 13.50874,2.112531 c -0.47451,0.0019 -0.50186,0.342903 0.25114,0.868167 0.32742,0.228399 0.79676,0.421428 1.04283,0.429429 0.79734,0.02474 0.78093,-0.482428 -0.0289,-0.901234 -0.53479,-0.276548 -0.98034,-0.397481 -1.26504,-0.396362 z m -13.22194,2.633951 c -0.38663,0 -1.14514,0.903825 -1.14514,1.364255 0,0.55417 0.53133,0.644303 1.0051,0.170532 0.33441,-0.334409 0.44397,-1.534787 0.14004,-1.534787 z m 10.08931,1.058331 c -0.36438,0 -0.33276,0.115845 0.18087,0.657323 0.69845,0.736351 1.28468,0.862962 1.28468,0.278021 0,-0.43239 -0.78804,-0.935344 -1.46555,-0.935344 z m -5.66994,0.79375 c -0.35308,0 -0.3524,1.209262 10e-4,1.869654 0.28535,0.533191 1.04903,0.710319 1.04903,0.243398 0,-0.147492 -0.11057,-0.474927 -0.24547,-0.727604 -0.1349,-0.252693 -0.3098,-0.667766 -0.3886,-0.922427 -0.0788,-0.25467 -0.26591,-0.463021 -0.416,-0.463021 z M 221.3667,1.293282 c 1.04418,-0.0057 1.76837,0.445447 1.76837,1.101225 0,0.54669 -1.34498,2.069639 -1.8278,2.069639 -0.13494,0 -0.40615,0.06158 -0.60254,0.136943 -0.70952,0.272265 -1.21137,-0.618355 -0.99994,-1.774568 0.21963,-1.20106 0.57338,-1.527339 1.66191,-1.533239 z m 5.00745,0.525031 c 1.51663,0 2.53793,0.487228 2.19263,1.045932 -0.11295,0.182751 -0.69656,0.555162 -1.29708,0.827855 -1.09763,0.498438 -1.27736,0.520703 -2.61328,0.318328 -0.60104,-0.09105 -0.7276,-0.243993 -0.7276,-0.877467 0,-0.98321 0.61631,-1.314648 2.44533,-1.314648 z"
       style="fill:#000000;stroke-width:1" />
  </g>
  <path
     style="fill:#ffffff;stroke:none;stroke-width:1.32291668;stroke-opacity:1;stroke-miterlimit:4;stroke-dasharray:none"
     d="m 76.83074,5.158131 c -0.1028,0.007 -0.28891,0.0915 -0.55863,0.26819 -0.8466,0.55472 -1.44177,1.68182 -1.44177,2.73111 0,0.44361 0.41672,1.6242 0.92604,2.62361 1.26531,2.48281 1.18834,4.292499 -0.26613,6.255939 -0.96232,1.299078 -1.04197,2.281431 -0.35812,4.43126 0.74796,2.351321 0.74006,4.362559 -0.0227,5.655469 -0.29898,0.50672 -0.54364,1.030081 -0.54364,1.16272 0,0.491511 0.82702,-0.09785 1.22938,-0.875917 0.71242,-1.377682 0.76311,-3.600622 0.12713,-5.569167 -0.74447,-2.304402 -0.72,-2.622537 0.34726,-4.530985 0.51389,-0.91891 0.98736,-2.21121 1.08779,-2.968299 0.1623,-1.22344 0.08,-1.53879 -0.94309,-3.6034 -1.2674,-2.55771 -1.29475,-3.58873 -0.12454,-4.68808 0.5887,-0.55309 0.76722,-0.90833 0.54105,-0.89245 z M 68.8214,27.058079 c -0.20336,-0.0064 -0.34106,0.06236 -0.34106,0.222727 0,0.19799 0.38695,0.477419 0.8599,0.621151 1.02031,0.310076 1.23169,0.232252 0.71158,-0.262001 -0.37034,-0.35193 -0.89145,-0.571232 -1.23042,-0.581877 z m 11.18744,1.143601 c -0.50207,-6.9e-5 -1.26104,0.295378 -1.73892,0.781865 l -0.66145,0.673859 0.87436,-0.438732 c 0.48082,-0.241181 1.13567,-0.40232 1.45521,-0.358119 0.37575,0.05197 0.58084,-0.0601 0.58084,-0.316775 0,-0.235815 -0.2088,-0.342056 -0.51004,-0.342098 z m -13.31599,2.2102 c -0.28822,0.02506 -0.68862,0.156551 -1.13636,0.38809 -0.77756,0.402089 -0.9394,0.671874 -0.6041,1.007175 0.28125,0.28125 0.46979,0.211302 0.95291,-0.352951 0.24921,-0.291039 0.63296,-0.529166 0.85267,-0.529166 0.21971,0 0.39945,-0.119054 0.39945,-0.264583 0,-0.19263 -0.17635,-0.273608 -0.46457,-0.248565 z m 13.50874,2.112535 c -0.47451,0.0019 -0.50185,0.3429 0.25115,0.868164 0.32742,0.228399 0.79676,0.421431 1.04283,0.429432 0.79734,0.02474 0.78089,-0.482431 -0.0289,-0.901237 -0.53479,-0.276548 -0.98034,-0.397481 -1.26504,-0.396359 z m -13.22193,2.633948 c -0.38663,0 -1.14515,0.903825 -1.14515,1.364258 0,0.554167 0.53133,0.6443 1.0051,0.170532 0.33441,-0.334409 0.44398,-1.53479 0.14005,-1.53479 z m 10.08931,1.058331 c -0.36438,0 -0.33277,0.115845 0.18086,0.657323 0.69845,0.736351 1.28468,0.862962 1.28468,0.278021 0,-0.43239 -0.78803,-0.935344 -1.46554,-0.935344 z m -5.66994,0.79375 c -0.35308,0 -0.35237,1.209262 0.001,1.869654 0.28535,0.533191 1.04904,0.710319 1.04904,0.243399 0,-0.147492 -0.11057,-0.474928 -0.24547,-0.727605 -0.13491,-0.252693 -0.30982,-0.667763 -0.38861,-0.922424 -0.0788,-0.25467 -0.26591,-0.463024 -0.416,-0.463024 z"
     id="path4278"
     inkscape:connector-curvature="0" />
  <g
     id="g4280"
     transform="translate(-182.4346,117.99397)" />
</svg>
