<?xml version="1.0" encoding="UTF-8" standalone="no"?>
<!-- Created with Inkscape (http://www.inkscape.org/) -->

<svg
   xmlns:dc="http://purl.org/dc/elements/1.1/"
   xmlns:cc="http://creativecommons.org/ns#"
   xmlns:rdf="http://www.w3.org/1999/02/22-rdf-syntax-ns#"
   xmlns:svg="http://www.w3.org/2000/svg"
   xmlns="http://www.w3.org/2000/svg"
   xmlns:sodipodi="http://sodipodi.sourceforge.net/DTD/sodipodi-0.dtd"
   xmlns:inkscape="http://www.inkscape.org/namespaces/inkscape"
   width="210mm"
   height="297mm"
   viewBox="0 0 210 297"
   version="1.1"
   id="svg8"
   inkscape:version="0.92+devel unknown"
   sodipodi:docname="kitties.svg">
  <defs
     id="defs2" />
  <sodipodi:namedview
     id="base"
     pagecolor="#ffffff"
     bordercolor="#666666"
     borderopacity="1.0"
     inkscape:pageopacity="0.0"
     inkscape:pageshadow="2"
     inkscape:zoom="1"
     inkscape:cx="-564.62921"
     inkscape:cy="996.36725"
     inkscape:document-units="mm"
     inkscape:current-layer="layer1"
     inkscape:document-rotation="0"
     showgrid="false"
     inkscape:window-width="1920"
     inkscape:window-height="1016"
     inkscape:window-x="0"
     inkscape:window-y="0"
     inkscape:window-maximized="1" />
  <metadata
     id="metadata5">
    <rdf:RDF>
      <cc:Work
         rdf:about="">
        <dc:format>image/svg+xml</dc:format>
        <dc:type
           rdf:resource="http://purl.org/dc/dcmitype/StillImage" />
        <dc:title></dc:title>
      </cc:Work>
    </rdf:RDF>
  </metadata>
  <g
     inkscape:label="Layer 1"
     inkscape:groupmode="layer"
     id="layer1">
    <ellipse
       style="vector-effect:none;fill:#654ff0;fill-opacity:1;stroke:none;stroke-width:0.26458332"
       id="path4415"
       cx="-21.263819"
       cy="46.87936"
       rx="6.9267092"
       ry="7.3634214" />
    <path
       style="fill:#f7df1e;fill-rule:evenodd;stroke:#000000;stroke-width:0.26458332px;stroke-linecap:butt;stroke-linejoin:miter;stroke-opacity:1;fill-opacity:1"
       d="m -51.10273,75.012626 -0.813721,-4.343313 -0.563364,-15.306651 0.260876,-4.89925 0.106672,-9.217183 4.775457,-8.074996 c 0,0 -0.385635,-3.045124 -3.136577,-4.186068 l 0.660536,-3.388219 c 0,0 -1.622271,-1.100155 -4.211906,0.0098 -2.589635,1.109936 -3.426055,4.625779 -3.426055,4.625779 0,0 -3.807815,0.591788 -6.759831,4.584438 -2.952017,3.99265 -7.51929,12.119784 -7.461893,15.013388 0.0574,2.893603 -0.0054,9.259863 -0.0054,9.259863 0,0 0.369025,9.234025 -0.04559,9.798221 -0.414611,0.564195 -0.996801,3.631745 -0.996801,3.631745 0,0 -4.233038,-0.560135 -4.294773,-3.267334 l 1.43435,-4.932812 c 0,0 -0.207906,-3.657861 -1.360198,-4.753955 -1.152292,-1.096094 -4.237283,-1.364442 -5.522642,-0.690711 -1.285359,0.673732 -3.030638,3.119873 -4.227501,3.511137 -1.196863,0.391265 -6.48124,0.184282 -6.288376,1.932514 0.192864,1.748232 3.565951,1.849094 3.565951,1.849094 0,0 4.964997,-2.131745 6.906647,-3.971611 1.94165,-1.839865 3.522672,-0.309505 3.522672,-0.309505 0,0 0.676131,1.176746 0.04309,3.262813 -0.633036,2.086067 -1.829807,5.515352 -0.956291,6.737315 0.873517,1.221963 1.710859,2.149463 2.271272,2.264258 0.560412,0.114796 4.664628,0.698278 4.664628,0.698278 0,0 -0.0096,2.208891 2.544234,2.676193 2.553831,0.467303 15.131506,0.03479 15.131506,0.03479 l 2.917872,-1.116857 z"
       id="path4362"
       inkscape:connector-curvature="0" />
    <g
       id="g4305">
      <rect
         y="16.761089"
         x="-315.13062"
         height="70.774857"
         width="84.55217"
         id="rect4300"
         style="vector-effect:none;fill:#dc0000;stroke-width:0.26458332;fill-opacity:0" />
    </g>
    <g
       id="g4309">
      <rect
         style="vector-effect:none;fill:#000000;stroke-width:0.26458332;fill-opacity:0"
         id="rect4302"
         width="84.55217"
         height="70.774857"
         x="-198.83392"
         y="14.709587" />
      <path
         inkscape:connector-curvature="0"
         id="path4281"
         d="m -124.01568,20.69796 c -0.0197,-0.0012 -0.0418,0.01091 -0.0667,0.03566 -0.40895,0.407734 -0.41808,4.986389 -0.0139,7.017659 0.43945,2.208776 0.28263,2.791129 -1.2578,4.668448 -1.25044,1.523936 -1.2532,1.531498 -1.2206,3.444234 0.018,1.054322 0.14958,2.066354 0.29249,2.248958 0.1429,0.182605 0.32846,0.609815 0.41186,0.949815 0.13303,0.542031 -0.0218,0.695343 -1.25625,1.241266 -1.69934,0.751528 -3.82545,2.80811 -4.63796,4.486548 -0.77794,1.606984 -1.00497,4.25654 -0.45579,5.31854 0.82568,1.596689 2.32553,2.684433 4.55476,3.303672 2.02089,0.561372 4.82832,-0.415615 8.17779,-2.846337 2.28125,-1.655501 2.94295,-4.661442 1.46607,-6.659025 -0.55528,-0.75106 -3.06344,-2.307225 -6.09679,-3.782198 -1.18751,-0.577429 -1.9545,-2.333654 -1.9575,-4.479314 -0.002,-1.243613 0.12282,-1.632069 0.79168,-2.471166 1.85238,-2.32381 2.02644,-3.071725 1.45262,-6.239412 -0.1905,-1.051351 -0.24517,-2.645326 -0.14056,-4.101042 0.10575,-1.471181 0.0942,-2.127762 -0.0434,-2.136303 z m -31.43116,4.271573 c -0.83182,0 -2.58496,0.712517 -2.34456,0.952914 0.0661,0.0661 0.44215,-0.0023 0.83561,-0.151929 0.95217,-0.36202 2.19209,-0.344892 2.42569,0.03307 0.10847,0.175515 -0.15385,0.596011 -0.61908,0.992188 -0.7025,0.598235 -1.3901,1.573494 -1.3901,1.971972 0,0.07076 0.38696,0.206621 0.8599,0.301791 2.12551,0.427737 4.14328,2.074579 4.24367,3.46387 0.0537,0.742839 0.018,0.768033 -1.00253,0.694532 -2.3637,-0.170233 -3.0159,-0.08446 -4.4266,0.582911 -2.04132,0.965697 -2.98173,2.240214 -2.98173,4.040063 0,1.160219 0.12237,1.50173 0.79375,2.215367 0.43657,0.464039 1.18518,1.011187 1.66398,1.215948 1.03436,0.442341 0.8903,0.883735 -0.29042,0.888833 -1.16923,0.005 -2.05855,0.273273 -1.8774,0.566376 0.0834,0.1349 0.34979,0.189648 0.59221,0.121438 1.16704,-0.328372 3.6868,-0.436904 4.34392,-0.187068 0.69451,0.264051 1.03732,-0.01653 0.45785,-0.374653 -0.46692,-0.288578 -0.0448,-0.583414 1.09606,-0.765847 0.60664,-0.09701 1.69516,-0.431215 2.41897,-0.74259 3.3509,-1.441519 3.82925,-5.249871 0.8878,-7.067786 -0.67716,-0.418507 -1.02652,-0.877197 -1.22266,-1.605587 -0.18557,-0.689162 -0.70183,-1.40409 -1.59267,-2.205032 -0.72499,-0.651833 -1.31827,-1.350181 -1.31827,-1.551843 0,-0.201663 0.23813,-0.833705 0.52917,-1.404566 0.29105,-0.570861 0.52917,-1.107688 0.52917,-1.193208 0,-0.269695 -1.72124,-0.791167 -2.61173,-0.791167 z m -2.84892,1.058334 c -0.43425,0 -1.74894,1.518926 -2.34869,2.713529 -0.42353,0.843585 -0.92768,1.32051 -2.02572,1.916679 -3.57344,1.940168 -4.65364,2.962444 -7.43159,7.033162 -1.54417,2.26278 -4.24743,7.553544 -4.65294,9.106421 -1.10331,4.225113 -1.19701,6.458064 -0.71056,16.933333 0.10654,2.294123 -0.20264,5.012619 -0.81958,7.209896 -0.30386,1.082243 -0.50682,1.389062 -0.91881,1.389062 -1.36736,0 -3.15103,-1.633357 -3.14503,-2.879926 0.002,-0.380558 0.29951,-1.618953 0.66146,-2.752288 0.76523,-2.396122 0.81938,-3.590147 0.23926,-5.292699 -0.78212,-2.295395 -2.11532,-3.035432 -5.13715,-2.850472 -1.5803,0.09672 -2.40305,0.557678 -3.59669,2.014347 -1.39933,1.707726 -2.20671,2.064379 -5.07048,2.238623 -2.0216,0.123002 -2.54759,0.246962 -3.01119,0.710549 -1.74686,1.746862 1.9786,3.855329 4.72064,2.671673 1.21272,-0.523491 3.57201,-2.068031 4.77956,-3.129007 1.35192,-1.187813 2.7254,-1.536227 3.65507,-0.927077 0.87847,0.575596 0.83596,1.690553 -0.18035,4.713925 -1.00472,2.988937 -1.03999,4.309981 -0.15555,5.815148 1.04598,1.780093 2.134,2.441879 4.01836,2.443779 2.18588,0.0022 2.28181,-0.489826 0.13229,-0.678511 -0.94588,-0.08303 -1.96621,-0.306578 -2.26704,-0.49661 -1.27954,-0.808257 -2.36102,-3.244707 -1.94407,-4.379579 0.70395,-1.916059 1.59647,-5.702294 1.52187,-6.455936 -0.0604,-0.610235 -0.32402,-1.074957 -0.81958,-1.443323 -0.66559,-0.494755 -0.84052,-0.513758 -1.95958,-0.214456 -0.71213,0.190466 -1.90656,0.866098 -2.84118,1.607135 -2.30306,1.826141 -4.50146,2.934973 -5.81668,2.933671 -1.15609,-0.001 -2.80992,-0.817422 -2.80294,-1.383893 0.011,-0.910905 0.50062,-1.128678 2.57919,-1.145667 2.63906,-0.02158 3.97906,-0.63769 5.94743,-2.734201 1.24542,-1.326515 1.62317,-1.569146 2.68976,-1.729092 3.09957,-0.464809 5.05978,0.94153 5.56813,3.995105 0.14572,0.8753 0.0106,1.606942 -0.65732,3.552238 -0.74159,2.159862 -0.80646,2.567194 -0.54571,3.437517 0.3649,1.217932 1.82149,2.539846 3.05305,2.770888 0.91731,0.172088 0.92172,0.179996 0.76584,1.317234 -0.0863,0.629245 -0.0814,1.444717 0.0109,1.812292 0.2292,0.913199 1.71518,1.987405 3.11041,2.24844 1.22942,0.230016 10.06831,0.154001 13.57798,-0.116787 1.15756,-0.08931 2.34443,-0.330716 2.63808,-0.536403 0.29366,-0.205682 0.74592,-0.374137 1.00459,-0.374137 0.25866,0 0.47026,-0.11608 0.47026,-0.257865 0,-0.141785 0.35719,-0.442421 0.79375,-0.668176 0.92047,-0.475994 1.00111,-1.071759 0.38085,-2.811198 -0.57658,-1.616938 -1.20599,-11.634491 -1.11569,-17.758606 l 0.0734,-4.959903 3.57187,0.0062 c 1.96453,0.0034 5.95313,0.178639 8.86354,0.389642 2.91043,0.211 5.55956,0.386439 5.88698,0.389641 0.8432,0.0082 0.79564,-0.972643 -0.0661,-1.365292 -0.74634,-0.340056 -0.85438,-0.701993 -0.26459,-0.886251 1.38523,-0.432758 1.36496,-0.395235 0.55708,-1.04438 l -0.76533,-0.614949 0.56689,-0.354502 c 0.90177,-0.563163 0.7113,-1.225836 -0.44183,-1.536341 -2.40292,-0.647043 -4.89126,-0.782023 -12.81524,-0.694012 -7.59971,0.0844 -9.77243,-0.06508 -7.67292,-0.528135 0.40018,-0.08826 1.02526,-0.259551 1.38906,-0.380854 0.57949,-0.193218 0.53032,-0.222581 -0.39687,-0.237713 -1.624,-0.02651 -2.29072,0.220888 -2.11202,0.783932 0.12769,0.402299 -0.0501,0.505647 -1.11724,0.649573 -2.27283,0.306533 -1.85615,0.398637 1.13223,0.251148 1.61146,-0.07953 6.49304,-0.136941 10.84792,-0.127641 7.9678,0.01708 10.9255,0.282485 11.16159,1.001488 0.15242,0.464169 -1.53612,1.120862 -2.88251,1.120862 -1.55277,0 -1.02347,0.366157 0.76274,0.527616 1.82623,0.165074 2.25956,0.793436 0.55139,0.799436 -0.63059,0.0022 -1.32478,0.119383 -1.54306,0.260448 -0.3404,0.220014 -0.33219,0.25695 0.0589,0.260451 0.71036,0.0063 2.87058,1.139452 2.76056,1.447972 -0.0542,0.151876 -0.32355,0.247785 -0.59893,0.213423 -2.32341,-0.28993 -15.09406,-0.804783 -20.74137,-0.836123 -3.8563,-0.02141 -7.6663,-0.109117 -8.46667,-0.195336 -1.00821,-0.108612 -1.37393,-0.07218 -1.19062,0.119372 0.22008,0.229978 3.35982,0.376303 12.34963,0.574124 0.0984,0.0022 0.16176,3.129008 0.14056,6.94893 -0.0417,7.528866 0.35609,13.848505 1.00304,15.934943 0.51934,1.674924 0.35247,2.26749 -0.44028,1.56373 -0.55916,-0.496393 -0.56146,-0.495218 -0.4284,0.226859 0.08,0.433983 -0.01,0.845167 -0.22324,1.02216 -0.37796,0.313682 -0.50667,0.13354 -0.68161,-0.952913 -0.12709,-0.789157 -2.43642,-2.179516 -3.97082,-2.390553 -1.54482,-0.212463 -4.63028,0.06766 -4.8612,0.441317 -0.10354,0.167511 0.64656,0.19444 2.11304,0.07545 2.51451,-0.204026 4.14653,0.199443 5.08703,1.258321 l 0.49558,0.558104 -1.32292,-0.166915 c -0.72761,-0.09158 -1.5015,-0.05071 -1.71979,0.09043 -0.30144,0.194926 -0.19085,0.25735 0.4594,0.26045 1.24614,0.0059 3.24477,0.592998 3.24477,0.952913 0,0.659109 -0.78821,0.976159 -2.0097,0.808736 -0.73286,-0.100449 -1.4337,-0.04461 -1.7818,0.142111 -0.39108,0.209774 -2.42863,0.299968 -6.39496,0.28267 -6.35098,-0.02773 -7.66934,-0.253471 -8.26461,-1.413351 -0.52079,-1.014786 -0.38851,-2.968964 0.33693,-4.980057 0.79258,-2.197219 0.91869,-5.263782 0.57154,-13.912847 -0.19179,-4.77833 -0.15965,-5.574001 0.33176,-8.202083 0.29931,-1.600729 0.82092,-3.446198 1.1591,-4.101042 0.33819,-0.654843 1.26079,-2.440781 2.05001,-3.96875 1.6475,-3.189673 4.27362,-6.898274 5.73712,-8.10183 1.23222,-1.013356 3.55957,-2.216919 4.28707,-2.216919 0.29587,0 0.53795,-0.104654 0.53795,-0.232544 0,-0.357513 1.77469,-3.223146 2.42466,-3.915007 0.31758,-0.338262 0.46045,-0.614949 0.31678,-0.614949 z m 3.64887,1.058333 c 0.44198,0 0.51923,0.117527 0.39119,0.595313 -0.0878,0.327422 -0.1613,0.68461 -0.16329,0.79375 -0.005,0.292459 -1.00435,0.241789 -1.19115,-0.06046 -0.26903,-0.435288 0.37872,-1.328601 0.96325,-1.328601 z m 2.70113,6.693649 c 0.6133,-0.01351 1.18565,0.04085 1.59112,0.174667 1.93735,0.639381 2.59391,3.11949 1.33118,5.027599 -0.55321,0.835954 -0.99838,1.142212 -2.30012,1.581814 -4.18022,1.411679 -7.74408,0.221552 -8.03981,-2.685105 -0.14926,-1.466861 0.50146,-2.529041 2.1363,-3.487127 1.21976,-0.714822 1.74614,-0.723773 1.74614,-0.02946 0,0.310388 0.10699,0.310013 0.70952,-0.0026 0.66735,-0.346228 1.8035,-0.557305 2.82567,-0.57981 z m -1.3007,3.472656 c -0.0856,-0.0034 -0.16049,0.01838 -0.21549,0.07338 -0.29553,0.295527 -0.17778,1.35414 0.16382,1.473295 0.54017,0.188424 0.99218,-0.09394 0.99218,-0.619598 0,-0.414359 -0.56965,-0.912156 -0.94051,-0.927077 z m 27.96212,3.441133 c 0.81331,0 0.8457,0.453666 0.13229,1.852084 -0.29105,0.570489 -0.52916,1.45892 -0.52916,1.97404 0,0.938858 -0.32659,1.136534 -1.25678,0.761193 -0.57712,-0.232878 -0.38316,-2.054807 0.33073,-3.106788 0.3638,-0.536093 0.66146,-1.088773 0.66146,-1.22783 0,-0.139057 0.29766,-0.252699 0.66146,-0.252699 z m -1.45417,0.287838 c 0.0687,-0.0029 0.12015,0.01008 0.15089,0.04082 0.0951,0.09509 -0.0784,0.492173 -0.3855,0.882632 -0.30715,0.390464 -0.68244,1.170659 -0.83406,1.733745 -0.32343,1.20114 -0.79561,1.296948 -1.5658,0.31781 l -0.55552,-0.7059 0.68833,-0.718302 c 0.71178,-0.742934 2.02082,-1.530334 2.50166,-1.55081 z m 3.30987,0.505912 c 0.85118,0 0.99363,0.332897 0.52607,1.229382 -0.424,0.812964 -0.49097,1.393539 -0.23668,2.056206 0.29031,0.756553 0.63304,0.437629 0.63304,-0.589113 0,-1.332275 0.58181,-2.147131 1.24126,-1.738394 0.26585,0.164777 0.49202,0.635134 0.50902,1.058333 0.0507,1.266732 0.091,1.42317 0.36638,1.42317 0.14552,0 0.26459,-0.290743 0.26459,-0.645957 0,-0.870754 0.45189,-1.093472 1.07487,-0.529682 0.76455,0.691901 0.62933,1.071867 -0.55088,1.544092 -0.68478,0.274 -1.8629,0.425297 -3.30729,0.425297 -2.2077,0 -2.24379,-0.01053 -2.24379,-0.65164 0,-0.358341 0.24679,-1.310844 0.54829,-2.116667 0.45294,-1.210582 0.65719,-1.465027 1.17512,-1.465027 z m -32.46468,2.267562 c -0.22687,0 -0.33899,0.119062 -0.24908,0.264583 0.0899,0.145521 0.27544,0.264583 0.41237,0.264583 0.13693,0 0.24908,-0.119062 0.24908,-0.264583 0,-0.145521 -0.1855,-0.264583 -0.41237,-0.264583 z m 25.44754,0.472839 c 0.23021,-0.0016 0.49952,0.13076 0.73019,0.411861 0.80172,0.977016 3.8556,1.863736 6.41563,1.862937 1.23693,-4e-4 2.72521,-0.125855 3.30729,-0.279054 1.97861,-0.52075 2.12745,-0.480311 2.0252,0.551387 -0.1178,1.1885 -0.89576,2.726594 -1.03922,2.054656 -0.11573,-0.542041 -0.40647,-0.578959 -1.20147,-0.15348 -0.9359,0.50088 -3.89417,0.970585 -5.60535,0.890387 -1.91581,-0.08976 -3.40943,-0.676706 -4.56406,-1.794209 -0.99792,-0.965829 -1.10771,-0.726519 -0.27233,0.594281 0.32214,0.50932 0.59701,1.372529 0.61081,1.918229 0.0316,1.24791 -0.35337,1.258687 -1.18856,0.03256 -0.51345,-0.753742 -0.63871,-1.24388 -0.59221,-2.312522 0.0676,-1.553689 0.25378,-2.284097 0.5824,-2.284097 0.12591,0 0.30512,0.24081 0.39842,0.53485 0.25562,0.80537 2.5402,1.83049 4.70204,2.109949 2.41614,0.31234 6.31482,-0.127458 7.15254,-0.80667 0.87995,-0.71346 0.38363,-0.874083 -1.04904,-0.339513 -1.67485,0.6249 -6.5216,0.60634 -8.28993,-0.03204 -1.37314,-0.49572 -2.64945,-1.612717 -2.64945,-2.318205 0,-0.415554 0.23112,-0.63922 0.5271,-0.641305 z m -33.63412,1.44539 c -0.87314,-1.4e-4 -2.42095,0.0851 -3.43959,0.189653 l -1.85208,0.190169 2.24896,0.02222 c 1.23693,0.01211 2.78474,-0.07365 3.43958,-0.190169 l 1.19063,-0.211873 z m 44.52493,3.761528 c 0.46053,0.0123 -0.94697,1.192834 -2.21331,1.856735 -0.53989,0.283059 -1.10545,0.514696 -1.25677,0.514696 -0.31524,0 -0.36147,-0.78187 -0.0723,-1.221631 0.19536,-0.297151 2.87722,-1.167601 3.54242,-1.1498 z m -9.20048,0.249079 c 0.61201,0.0067 1.42252,0.859057 1.60508,1.923915 0.17739,1.03474 0.0165,1.144212 -1.20458,0.81752 -0.48602,-0.130029 -1.18789,-2.002353 -0.91571,-2.442744 0.12929,-0.209191 0.31121,-0.30093 0.51521,-0.298691 z m 2.63343,0.557591 c 0.19186,-0.0016 0.44286,0.01053 0.77153,0.02945 1.30687,0.07525 1.39395,0.124905 1.47485,0.831474 0.0509,0.44423 -0.1008,0.957601 -0.37155,1.256771 -0.25174,0.27817 -0.66863,0.505397 -0.92656,0.505397 -0.61998,0 -1.5658,-1.228606 -1.5658,-2.033985 0,-0.453998 0.042,-0.584234 0.61753,-0.58911 z m -35.09449,3.303156 c -0.29441,0 0.28233,5.026057 0.7338,6.394442 0.54015,1.637186 0.92743,4.691922 1.21905,9.612849 0.10348,1.74625 0.23477,2.817813 0.29197,2.38125 0.2272,-1.733968 -0.50805,-10.821662 -0.99477,-12.293306 -0.26645,-0.805656 -0.6289,-2.506824 -0.80512,-3.780131 -0.17621,-1.273307 -0.37623,-2.315104 -0.44493,-2.315104 z"
         style="fill:#000000;stroke-width:1" />
    </g>
    <path
       style="fill:#f7df1e;fill-rule:evenodd;stroke:#000000;stroke-width:0.26458332px;stroke-linecap:butt;stroke-linejoin:miter;stroke-opacity:1;fill-opacity:1"
       d="m -292.48237,79.812969 -0.49043,-1.229466 2.70465,-10.58455 1.85811,-4.121145 1.61941,-7.631146 1.06646,-13.01673 c 0,0 -1.42444,-5.442223 -0.67379,-8.230153 0.75065,-2.787928 1.9762,-4.529879 1.9762,-4.529879 0,0 1.71799,-3.140056 4.3919,-3.85969 0,0 0.86866,1.028956 0.72146,4.131005 l 6.46262,-0.06708 c 0,0 -0.31545,-2.199434 2.67836,-4.286136 0,0 2.38837,1.6247 1.24769,5.253424 l 1.87532,1.535103 1.35918,4.675912 0.36084,1.825602 -2.20745,2.653642 0.29102,2.125106 -1.06125,4.128975 c 0,0 -2.47707,10.89828 -2.66068,18.254326 0,0 -0.44776,12.627572 -1.51305,12.561407 -1.0653,-0.06616 -1.41583,-1.24865 -1.41583,-1.24865 l -0.54184,0.275622 c 0,0 -0.50701,1.346266 -0.8223,1.256741 -0.3153,-0.08952 -1.83474,-0.617931 -1.67383,-2.107619 0.16091,-1.489688 -0.29372,-0.776126 -0.29372,-0.776126 0,0 -2.69518,1.177422 -3.15677,1.029954 -0.46159,-0.147468 -3.1412,-0.454411 -3.1412,-0.454411 0,0 -1.97137,1.015572 -2.2128,0.908952 -0.24143,-0.106621 -1.53641,-0.175135 -1.83774,0.107534 -0.30133,0.282669 -1.60245,1.516572 -1.60245,1.516572 l -1.42652,-0.84879 z"
       id="path4311"
       inkscape:connector-curvature="0"
       sodipodi:nodetypes="ccccccscc" />
    <path
       style="fill:#ffffff;fill-rule:evenodd;stroke:#000000;stroke-width:0.26458332px;stroke-linecap:butt;stroke-linejoin:miter;stroke-opacity:1"
       d="m -281.29732,42.889818 c -0.73999,-0.241633 -1.2737,-0.773249 -1.87074,-1.266562 -0.64597,-0.557279 -0.98357,-1.415243 -0.43,-2.171643 0.35454,-0.70264 0.56703,-1.507135 1.18328,-2.03942 0.53383,-0.556022 1.28139,-0.85099 2.00616,-1.073115 0.49964,-0.342309 1.12385,-0.386191 1.71406,-0.470979 0.76396,-0.03815 1.55116,-0.175481 2.2872,0.112024 0.63902,0.26092 1.33476,0.05375 2.00277,0.139102 0.66933,0.207344 1.24951,-0.141995 1.7455,-0.564126 0.51676,-0.405701 1.22439,-0.476791 1.8606,-0.574366 0.58755,-0.06509 1.17541,-0.07635 1.72824,0.170926 0.78245,0.221032 1.69641,-0.03987 2.39805,0.420722 0.46931,0.71436 0.9984,1.414461 1.26083,2.249183 0.27243,0.771387 0.29127,1.754055 -0.36344,2.347409 -0.47764,0.621585 -0.99738,1.167654 -1.53367,1.73997 -0.51321,0.623675 -1.38112,0.324364 -2.07058,0.54741 -0.70276,0.229344 -1.32218,0.824606 -2.13096,0.582353 -0.67254,0.124793 -1.39005,0.07058 -1.9574,-0.351685 -0.40261,-0.426702 -0.77128,-0.918166 -1.4322,-0.565411 -0.9199,0.381489 -1.91183,0.576989 -2.87119,0.850878 -0.96642,0.253946 -1.98905,0.244445 -2.97305,0.114326 -0.19724,-0.07133 -0.467,-0.02516 -0.55346,-0.196996 z"
       id="path4313"
       inkscape:connector-curvature="0" />
    <path
       style="fill:#000000;stroke-width:1"
       d="m -238.29987,21.91921 c -0.1028,0.0072 -0.28891,0.09148 -0.55862,0.268201 -0.8466,0.554712 -1.44177,1.681809 -1.44177,2.731099 0,0.443614 0.41672,1.62421 0.92604,2.623612 1.26531,2.48281 1.18834,4.292507 -0.26613,6.255951 -0.96232,1.299072 -1.04197,2.281422 -0.35812,4.431252 0.74796,2.35132 0.7401,4.362558 -0.0227,5.655468 -0.29897,0.50672 -0.54363,1.030082 -0.54363,1.16272 0,0.491511 0.82702,-0.09785 1.22938,-0.875914 0.71242,-1.377683 0.7631,-3.600622 0.12712,-5.569169 -0.74447,-2.3044 -0.71999,-2.622535 0.34727,-4.53099 0.51389,-0.918906 0.98736,-2.211208 1.08779,-2.968294 0.1623,-1.223441 0.08,-1.538793 -0.9431,-3.603398 -1.26739,-2.557716 -1.29475,-3.588737 -0.12454,-4.688086 0.58871,-0.553086 0.76722,-0.908327 0.54105,-0.892452 z m -41.72999,4.294125 -1.33274,0.675411 c -1.35259,0.68541 -3.00447,2.294512 -3.00447,2.926436 0,0.190663 -0.25009,0.573205 -0.55603,0.850077 -0.84721,0.766707 -1.29113,1.802134 -1.70894,3.985805 -0.50558,2.642423 -0.45562,5.442344 0.12919,7.234182 0.31076,0.952285 0.40217,1.683665 0.2651,2.116666 -0.0366,0.115478 -0.0768,0.370446 -0.11782,0.675413 -1.13086,0.228137 -1.98025,0.690655 -1.98025,1.239716 0,0.135077 0.0893,0.199842 0.19844,0.14366 0.68819,-0.354242 1.21538,-0.588991 1.70429,-0.741555 -0.0529,0.513291 -0.0998,1.116827 -0.13591,1.72961 -0.12712,0.04804 -0.24949,0.09834 -0.36018,0.151929 -1.09583,0.530482 -1.31559,0.772663 -0.99322,1.095023 0.0817,0.08175 0.66122,-0.137869 1.28829,-0.488344 0.006,-0.0036 0.0142,-0.0068 0.0207,-0.01033 -0.43174,8.031123 -0.81257,10.870835 -2.10892,15.853812 -0.36959,1.420652 -0.67179,2.99823 -0.67179,3.50573 0,1.228658 0.4627,1.180205 0.66766,-0.06976 0.0895,-0.545703 0.50117,-2.420938 0.91467,-4.167188 1.16808,-4.93292 1.28128,-5.614476 1.46865,-8.863541 0.1422,-2.465948 0.3047,-4.771702 0.4563,-6.585643 0.52182,-0.195514 1.0896,-0.340643 1.48415,-0.363286 1.50101,-0.08615 1.38307,-0.459404 -0.14521,-0.459404 -0.37765,0 -0.83525,0.06601 -1.28055,0.174151 0.0563,-0.633828 0.11205,-1.246484 0.16124,-1.681035 0.44504,-0.06351 0.91013,-0.06582 1.48931,-0.02894 1.79499,0.114295 2.25258,-0.18152 0.7245,-0.468188 -0.69673,-0.130707 -1.44516,-0.146888 -2.1425,-0.07803 0.0159,-0.113307 0.0327,-0.243273 0.047,-0.322976 0.0943,-0.52259 0.0312,-1.415558 -0.14005,-1.984375 -0.66601,-2.21184 -0.75616,-3.214746 -0.51108,-5.664772 0.29634,-2.962521 0.88517,-4.926017 1.5906,-5.303551 0.27889,-0.149257 0.50745,-0.475479 0.50798,-0.725021 0.003,-1.193377 2.50483,-3.496427 3.79874,-3.496427 0.58962,0 0.77567,0.912133 0.57257,2.808614 -0.14425,1.346998 -0.1071,1.689302 0.18397,1.689302 0.20076,1e-6 0.49684,-0.131998 0.65836,-0.293522 0.18421,-0.184206 1.09186,-0.25734 2.43447,-0.19637 2.07678,0.09431 2.7181,-0.08488 1.58854,-0.443384 -0.30353,-0.09634 -1.34533,-0.201317 -2.31511,-0.233577 -1.95582,-0.06506 -1.7857,0.144755 -1.8712,-2.30942 -0.0134,-0.384061 -0.23882,-0.963672 -0.50126,-1.287777 z m 9.86244,0.174666 c -0.60099,-0.01882 -2.05257,1.232608 -2.59932,2.286166 -0.34453,0.663887 -0.41685,1.133503 -0.26252,1.705839 0.20865,0.773788 0.21607,0.766491 0.37104,-0.376722 0.18556,-1.368969 1.69155,-3.128645 2.43396,-2.843754 0.76159,0.292249 1.25347,1.926853 1.05575,3.509347 -0.14346,1.148234 -0.10374,1.426786 0.20309,1.426786 0.20969,0 0.62523,0.267891 0.92345,0.595313 1.32714,1.45707 1.39357,2.687962 0.1261,2.334225 -1.66227,-0.463923 -3.58589,-0.321813 -4.94182,0.364834 -1.28406,0.650255 -1.39148,0.660728 -3.65507,0.370522 -2.60749,-0.334298 -3.73454,-0.13231 -5.50768,0.987018 -1.98603,1.25373 -2.4372,3.619875 -1.00201,5.25446 0.44854,0.510853 1.2088,1.037278 1.68931,1.169954 1.07378,0.296484 5.08659,-0.07626 6.30659,-0.58601 0.78664,-0.328679 0.93662,-0.316034 1.48518,0.128156 0.71277,0.577175 3.36513,0.684879 4.77387,0.193789 0.99917,-0.348311 1.3852,-0.0159 1.27021,1.093988 -0.0599,0.577583 -0.17874,0.650947 -0.93845,0.577226 -0.94615,-0.09181 -4.28966,0.909463 -4.28966,1.284676 0,0.127201 0.49103,0.05835 1.09141,-0.153479 1.14974,-0.405651 3.93567,-0.531479 3.93567,-0.177766 0,0.114046 -0.47339,1.960002 -1.05213,4.102592 -1.24222,4.598975 -2.02891,9.609445 -2.39727,15.268834 -0.93158,14.312464 -0.90107,14.022917 -1.48725,14.022917 -0.20884,0 -0.58254,-0.356555 -0.83043,-0.7922 -0.60705,-1.066797 -0.96009,-0.999241 -1.37667,0.263033 -0.40482,1.226643 -0.96594,1.376783 -1.2361,0.330729 -0.29142,-1.128418 -0.234,-2.344105 0.25529,-5.391401 0.24834,-1.546643 0.45165,-3.483269 0.45165,-4.303096 0,-0.81983 0.34904,-2.828462 0.77566,-4.463812 0.84834,-3.251856 1.70757,-7.854113 1.5043,-8.057388 -0.35172,-0.351715 -0.63549,0.348229 -0.79737,1.967839 -0.0986,0.986356 -0.34927,2.448015 -0.55707,3.248379 -1.17045,4.508143 -1.45465,5.968569 -1.45469,7.467762 -5e-5,1.844868 -0.67099,5.74458 -1.0542,6.127792 -0.15209,0.152083 -0.3928,0.124632 -0.6289,-0.07131 -0.74367,-0.617183 -2.01126,-0.799552 -3.60495,-0.518832 -1.31015,0.23078 -1.65797,0.207306 -2.16421,-0.147278 -0.33174,-0.232362 -1.1123,-0.422714 -1.73477,-0.422714 -1.30742,0 -1.29026,0.06288 -0.72296,-2.645833 0.84136,-4.01728 1.26656,-5.756696 2.13889,-8.75502 0.85422,-2.936092 1.11788,-4.73878 0.6935,-4.73873 -0.10914,1.3e-5 -0.39103,0.922747 -0.62632,2.050521 -0.2353,1.127773 -0.85674,3.657864 -1.3808,5.622395 -1.20003,4.498436 -2.29393,9.231292 -2.29339,9.921875 2.4e-4,0.291042 -0.35576,1.282073 -0.79117,2.20245 -0.59217,1.251736 -0.9085,1.649521 -1.25625,1.577681 -0.47508,-0.09814 -0.50705,-0.36676 -0.18191,-1.531172 0.16293,-0.583497 0.0466,-0.528929 -0.98547,0.46302 -0.64348,0.618464 -1.30484,1.12448 -1.46967,1.12448 -0.51816,0 -0.68016,-1.493031 -0.23565,-2.171444 0.22282,-0.340061 0.59514,-1.50859 0.82734,-2.59674 0.82192,-3.851695 1.37234,-7.122837 1.17874,-7.00319 -0.10788,0.06667 -0.57153,1.760387 -1.03043,3.763595 -0.45891,2.003208 -1.02607,4.177938 -1.26039,4.832779 -0.59817,1.671719 -0.71479,2.758614 -0.36638,3.409611 0.35753,0.668065 0.98947,0.718203 1.63918,0.130225 0.47215,-0.427291 0.75804,-0.389096 1.59576,0.213424 0.36858,0.265096 0.61998,0.155358 1.53324,-0.669727 0.89852,-0.811749 1.26793,-0.976606 2.08101,-0.928627 0.54367,0.03208 1.36941,-0.131521 1.83503,-0.363802 0.70824,-0.353319 1.11755,-0.376081 2.50528,-0.140041 1.56201,0.265681 1.73987,0.240848 3.04787,-0.424265 l 1.38906,-0.706416 v 0.878499 c 0,1.183926 1.60295,2.841725 2.23811,2.314588 0.22425,-0.186108 0.40773,-0.506553 0.40773,-0.711584 0,-0.681908 0.83407,-0.739531 1.32291,-0.09147 0.5571,0.738574 1.2194,0.57176 1.58905,-0.400492 0.37339,-0.982101 1.05679,-8.910616 1.05679,-12.259717 0,-1.57407 0.11294,-3.506573 0.25114,-4.294828 0.13822,-0.788254 0.38568,-2.68366 0.54984,-4.211629 0.3429,-3.191584 0.60879,-4.500496 1.98076,-9.753925 0.8644,-3.309859 0.95435,-3.92497 0.69608,-4.7625 -0.28337,-0.918949 -0.25686,-0.997027 0.60358,-1.75545 1.6711,-1.472972 1.85978,-2.601693 0.81081,-4.855001 -0.3624,-0.778433 -0.65888,-1.742231 -0.65888,-2.141987 0,-0.964131 -0.69697,-2.319937 -1.44435,-2.809648 -0.50273,-0.329403 -0.62356,-0.693655 -0.73174,-2.20555 -0.12906,-1.803885 -0.66609,-2.989935 -1.50792,-3.331579 -0.032,-0.01298 -0.0679,-0.01993 -0.10801,-0.02119 z m 0.10698,8.882146 c 2.33493,-0.02079 4.32014,1.4444 4.32014,3.57239 0,1.42629 -0.58304,2.179778 -2.35437,3.042709 -1.9441,0.947094 -3.95685,1.077828 -4.89479,0.318328 -0.57427,-0.465008 -0.57797,-0.503153 -0.16175,-1.729095 0.53009,-1.561338 0.53344,-2.111237 0.0181,-3.107819 -0.50797,-0.982319 -0.4032,-1.150789 1.06506,-1.711524 0.67277,-0.256934 1.35384,-0.379169 2.00763,-0.384989 z m -8.7633,0.891418 c 0.14533,0.0066 0.25612,0.04011 0.3204,0.104386 0.14222,0.142216 0.77881,0.199858 1.4149,0.128159 1.62107,-0.182716 2.45649,0.07706 2.5585,0.7953 0.0547,0.384956 0.24097,0.569262 0.52762,0.52193 1.10612,-0.182631 0.73813,2.520257 -0.50488,3.708303 -0.53283,0.509275 -1.19936,0.774702 -2.45153,0.977201 -2.95433,0.477771 -4.34652,0.375264 -5.25188,-0.38654 -1.52823,-1.285928 -1.32203,-3.514339 0.4346,-4.698421 1.03678,-0.698854 2.32254,-1.178787 2.95227,-1.150318 z m 0.70539,3.637505 c -0.0954,-0.0059 -0.21374,0.0012 -0.35967,0.01809 -0.43748,0.05049 -0.75987,0.267472 -0.81287,0.546735 -0.0682,0.359582 0.0935,0.46302 0.72502,0.46302 0.64547,0 0.81339,-0.112736 0.81339,-0.546735 0,-0.330001 -0.0798,-0.463483 -0.36587,-0.481107 z m 6.63577,0.234092 c -0.82606,0 -1.01674,0.227812 -0.69505,0.82889 0.28743,0.537072 0.69898,0.618138 1.27693,0.252182 0.5417,-0.342998 0.14431,-1.081072 -0.58188,-1.081072 z m -20.01583,1.850533 c -0.46071,-0.01395 -1.05126,0.114922 -1.5875,0.392227 -1.47389,0.762164 -2.43139,3.434921 -1.5472,4.319113 0.42027,0.420251 0.87158,0.40045 1.79886,-0.07906 1.48626,-0.768573 2.25988,-2.271985 2.14509,-4.167706 -0.0178,-0.294077 -0.34855,-0.450623 -0.80925,-0.464572 z m -0.26045,0.464572 c 0.31383,-0.0026 0.40284,0.205676 0.46147,0.911055 0.0699,0.841193 -0.0681,1.126432 -0.99219,2.050521 -1.45039,1.450388 -2.13165,1.43783 -2.13165,-0.03928 0,-0.87208 1.64854,-2.780241 2.51354,-2.909382 0.0546,-0.0081 0.10399,-0.01255 0.14883,-0.01292 z m 28.36364,1.131196 c -0.4772,-0.0076 -0.59893,0.27454 -0.59893,0.880052 0,1.740731 1.11796,3.965887 2.21537,4.409033 0.95932,0.387387 1.48722,0.285803 2.19418,-0.421164 0.57387,-0.573852 0.65958,-0.848521 0.54002,-1.739945 -0.18407,-1.372349 -0.73032,-1.944447 -2.48202,-2.599841 -0.9114,-0.341 -1.49747,-0.522184 -1.86862,-0.528135 z m 0.40049,0.839743 c 0.85578,-0.04284 2.61299,0.604367 2.97708,1.284676 0.41446,0.774428 0.29669,1.797757 -0.27233,2.36678 -0.65855,0.658583 -0.82269,0.65862 -1.65933,5.19e-4 -0.60946,-0.479396 -1.51567,-2.485443 -1.51567,-3.354835 0,-0.192003 0.18499,-0.28286 0.47025,-0.29714 z m 16.68553,-0.50004 c -0.20337,-0.0064 -0.34106,0.06235 -0.34106,0.222724 0,0.19799 0.38694,0.477422 0.85989,0.621151 1.02031,0.310079 1.2317,0.232252 0.71159,-0.262001 -0.37034,-0.35193 -0.89146,-0.57123 -1.23042,-0.581874 z M -276.56496,45.854 c -0.50051,0 -1.6152,0.981733 -1.38131,1.216464 0.11157,0.111966 0.34353,0.06265 0.51573,-0.109554 0.45854,-0.458544 1.17872,-0.382034 1.41025,0.14986 0.19023,0.437031 0.20787,0.436616 0.31471,-0.0124 0.12852,-0.540157 -0.35762,-1.244369 -0.85938,-1.24437 z m 5.52318,1.061434 c -1.074,0.02777 -2.21352,0.226737 -2.21227,0.490926 3.9e-4,0.09217 0.9529,0.17335 2.11667,0.180351 2.01993,0.01215 2.6058,-0.165148 1.69757,-0.513665 -0.33659,-0.129159 -0.95757,-0.174276 -1.60197,-0.157612 z m 35.92001,-1.952634 c -0.50207,-6.9e-5 -1.26103,0.295378 -1.73891,0.781865 l -0.66146,0.673859 0.87437,-0.438732 c 0.48082,-0.241181 1.13567,-0.402317 1.45521,-0.358116 0.37575,0.05197 0.58084,-0.0601 0.58084,-0.316778 0,-0.235817 -0.20881,-0.342056 -0.51005,-0.342098 z m -13.31598,2.210202 c -0.28822,0.02505 -0.68862,0.156549 -1.13636,0.388088 -0.77756,0.40209 -0.9394,0.671875 -0.6041,1.007174 0.28125,0.281252 0.46978,0.211301 0.95291,-0.352949 0.2492,-0.291039 0.63296,-0.529167 0.85266,-0.529167 0.21971,0 0.39946,-0.119054 0.39946,-0.264583 0,-0.19263 -0.17635,-0.273608 -0.46457,-0.248563 z m 13.50874,2.112531 c -0.47451,0.0019 -0.50186,0.342903 0.25114,0.868165 0.32742,0.228401 0.79676,0.42143 1.04283,0.429431 0.79734,0.02473 0.78093,-0.482428 -0.0289,-0.901236 -0.53479,-0.276548 -0.98034,-0.397479 -1.26504,-0.39636 z m -13.22194,2.633949 c -0.38663,0 -1.14514,0.903827 -1.14514,1.364257 0,0.55417 0.53133,0.644303 1.0051,0.170532 0.33441,-0.334409 0.44397,-1.534789 0.14004,-1.534789 z m 10.08931,1.058333 c -0.36438,0 -0.33276,0.115845 0.18087,0.657323 0.69845,0.736351 1.28468,0.86296 1.28468,0.278021 0,-0.43239 -0.78804,-0.935344 -1.46555,-0.935344 z m -5.66994,0.79375 c -0.35308,0 -0.3524,1.209262 0.001,1.869654 0.28535,0.533189 1.04903,0.710317 1.04903,0.243396 0,-0.14749 -0.11057,-0.474925 -0.24547,-0.727604 -0.1349,-0.252691 -0.3098,-0.667766 -0.3886,-0.922425 -0.0788,-0.25467 -0.26591,-0.463021 -0.416,-0.463021 z M -285.0771,74.69775 c 1.04418,-0.0057 1.76837,0.445447 1.76837,1.101225 0,0.54669 -1.34498,2.06964 -1.8278,2.06964 -0.13494,0 -0.40615,0.06158 -0.60254,0.136943 -0.70952,0.272264 -1.21137,-0.618355 -0.99994,-1.774569 0.21963,-1.20106 0.57338,-1.527339 1.66191,-1.533239 z m 5.00745,0.525031 c 1.51663,0 2.53793,0.487228 2.19263,1.045933 -0.11295,0.18275 -0.69656,0.555162 -1.29708,0.827854 -1.09763,0.498438 -1.27736,0.520703 -2.61328,0.318329 -0.60104,-0.09105 -0.7276,-0.243994 -0.7276,-0.877467 0,-0.98321 0.61631,-1.314649 2.44533,-1.314649 z"
       id="path4292"
       inkscape:connector-curvature="0"
       sodipodi:nodetypes="ccscsccsccccccccccscccccscccccccsscscccscccsccccscscccscscccccccccscscsccccccccscscsscsccsccccsccccsscccccscsssccccccccccccccscsccsccccccscccccsccscsccccccccsccccccssccsccscccccccccssccccscccccssccsscscccccccccccscccccccscccccsscccccccsscsscssccscccccsscscsccsss" />
    <path
       style="fill:#ffffff;fill-rule:evenodd;stroke:#000000;stroke-width:0.26458332px;stroke-linecap:butt;stroke-linejoin:miter;stroke-opacity:1"
       d="m -51.362773,33.199932 c 0.753213,0.09178 1.511768,0.154655 2.269915,0.09849 0.678781,0.08945 1.351563,-0.09447 2.029402,-0.0316 0.514497,0.06384 0.940322,0.368908 1.391005,0.590736 0.477359,0.139504 0.853709,0.585424 0.892356,1.081592 0.09294,0.556836 0.358927,1.090827 0.269189,1.666167 0.06885,0.703578 -0.210365,1.34751 -0.554414,1.93903 -0.139554,0.483153 -0.359622,0.957119 -0.770124,1.268207 -0.454247,0.175649 -0.925872,0.399599 -1.372859,0.64127 -0.505964,0.261695 -1.094211,0.256632 -1.636145,0.38713 -0.388988,0.116732 -0.785729,0.191635 -1.172056,0.311839 -0.428475,0.143509 -0.839118,0.385589 -1.308689,0.313515 -0.535305,0.05438 -1.110666,0.205517 -1.578133,-0.173901 -0.490583,-0.349089 -1.073285,-0.5604 -1.515136,-0.9857 -0.242959,-0.382962 -0.685708,-0.600657 -1.020877,-0.898454 -0.378654,-0.468661 -0.756111,-0.983222 -0.736995,-1.616026 -0.05963,-0.510641 0.159476,-0.976736 0.299555,-1.452539 0.151455,-0.411437 0.25467,-0.874091 0.638615,-1.127734 0.274139,-0.464054 0.718719,-0.790621 1.198531,-1.027988 0.478655,-0.07241 0.7869,-0.408634 1.286746,-0.469353 0.409145,-0.313944 1.058773,-0.0617 1.379564,-0.422785 l 0.01762,-0.03219 z"
       id="path4364"
       inkscape:connector-curvature="0" />
    <g
       id="g4345"
       transform="translate(103.65881,-0.17328766)">
      <rect
         y="14.709587"
         x="-198.83392"
         height="70.774857"
         width="84.55217"
         id="rect4341"
         style="vector-effect:none;fill:#000000;fill-opacity:0;stroke-width:0.26458332" />
      <path
         style="fill:#000000;stroke-width:1"
         d="m -124.01568,20.69796 c -0.0197,-0.0012 -0.0418,0.01091 -0.0667,0.03566 -0.40895,0.407734 -0.41808,4.986389 -0.0139,7.017659 0.43945,2.208776 0.28263,2.791129 -1.2578,4.668448 -1.25044,1.523936 -1.2532,1.531498 -1.2206,3.444234 0.018,1.054322 0.14958,2.066354 0.29249,2.248958 0.1429,0.182605 0.32846,0.609815 0.41186,0.949815 0.13303,0.542031 -0.0218,0.695343 -1.25625,1.241266 -1.69934,0.751528 -3.82545,2.80811 -4.63796,4.486548 -0.77794,1.606984 -1.00497,4.25654 -0.45579,5.31854 0.82568,1.596689 2.32553,2.684433 4.55476,3.303672 2.02089,0.561372 4.82832,-0.415615 8.17779,-2.846337 2.28125,-1.655501 2.94295,-4.661442 1.46607,-6.659025 -0.55528,-0.75106 -3.06344,-2.307225 -6.09679,-3.782198 -1.18751,-0.577429 -1.9545,-2.333654 -1.9575,-4.479314 -0.002,-1.243613 0.12282,-1.632069 0.79168,-2.471166 1.85238,-2.32381 2.02644,-3.071725 1.45262,-6.239412 -0.1905,-1.051351 -0.24517,-2.645326 -0.14056,-4.101042 0.10575,-1.471181 0.0942,-2.127762 -0.0434,-2.136303 z m -31.43116,4.271573 c -0.83182,0 -2.58496,0.712517 -2.34456,0.952914 0.0661,0.0661 0.44215,-0.0023 0.83561,-0.151929 0.95217,-0.36202 2.19209,-0.344892 2.42569,0.03307 0.10847,0.175515 -0.15385,0.596011 -0.61908,0.992188 -0.7025,0.598235 -1.3901,1.573494 -1.3901,1.971972 0,0.07076 0.38696,0.206621 0.8599,0.301791 2.12551,0.427737 4.14328,2.074579 4.24367,3.46387 0.0537,0.742839 0.018,0.768033 -1.00253,0.694532 -2.3637,-0.170233 -3.0159,-0.08446 -4.4266,0.582911 -2.04132,0.965697 -2.98173,2.240214 -2.98173,4.040063 0,1.160219 0.12237,1.50173 0.79375,2.215367 0.43657,0.464039 1.18518,1.011187 1.66398,1.215948 1.03436,0.442341 0.8903,0.883735 -0.29042,0.888833 -1.16923,0.005 -2.05855,0.273273 -1.8774,0.566376 0.0834,0.1349 0.34979,0.189648 0.59221,0.121438 1.16704,-0.328372 3.6868,-0.436904 4.34392,-0.187068 0.69451,0.264051 1.03732,-0.01653 0.45785,-0.374653 -0.46692,-0.288578 -0.0448,-0.583414 1.09606,-0.765847 0.60664,-0.09701 1.69516,-0.431215 2.41897,-0.74259 3.3509,-1.441519 3.82925,-5.249871 0.8878,-7.067786 -0.67716,-0.418507 -1.02652,-0.877197 -1.22266,-1.605587 -0.18557,-0.689162 -0.70183,-1.40409 -1.59267,-2.205032 -0.72499,-0.651833 -1.31827,-1.350181 -1.31827,-1.551843 0,-0.201663 0.23813,-0.833705 0.52917,-1.404566 0.29105,-0.570861 0.52917,-1.107688 0.52917,-1.193208 0,-0.269695 -1.72124,-0.791167 -2.61173,-0.791167 z m -2.84892,1.058334 c -0.43425,0 -1.74894,1.518926 -2.34869,2.713529 -0.42353,0.843585 -0.92768,1.32051 -2.02572,1.916679 -3.57344,1.940168 -4.65364,2.962444 -7.43159,7.033162 -1.54417,2.26278 -4.24743,7.553544 -4.65294,9.106421 -1.10331,4.225113 -1.19701,6.458064 -0.71056,16.933333 0.10654,2.294123 -0.20264,5.012619 -0.81958,7.209896 -0.30386,1.082243 -0.50682,1.389062 -0.91881,1.389062 -1.36736,0 -3.15103,-1.633357 -3.14503,-2.879926 0.002,-0.380558 0.29951,-1.618953 0.66146,-2.752288 0.76523,-2.396122 0.81938,-3.590147 0.23926,-5.292699 -0.78212,-2.295395 -2.11532,-3.035432 -5.13715,-2.850472 -1.5803,0.09672 -2.40305,0.557678 -3.59669,2.014347 -1.39933,1.707726 -2.20671,2.064379 -5.07048,2.238623 -2.0216,0.123002 -2.54759,0.246962 -3.01119,0.710549 -1.74686,1.746862 1.9786,3.855329 4.72064,2.671673 1.21272,-0.523491 3.57201,-2.068031 4.77956,-3.129007 1.35192,-1.187813 2.7254,-1.536227 3.65507,-0.927077 0.87847,0.575596 0.83596,1.690553 -0.18035,4.713925 -1.00472,2.988937 -1.03999,4.309981 -0.15555,5.815148 1.04598,1.780093 2.134,2.441879 4.01836,2.443779 2.18588,0.0022 2.28181,-0.489826 0.13229,-0.678511 -0.94588,-0.08303 -1.96621,-0.306578 -2.26704,-0.49661 -1.27954,-0.808257 -2.36102,-3.244707 -1.94407,-4.379579 0.70395,-1.916059 1.59647,-5.702294 1.52187,-6.455936 -0.0604,-0.610235 -0.32402,-1.074957 -0.81958,-1.443323 -0.66559,-0.494755 -0.84052,-0.513758 -1.95958,-0.214456 -0.71213,0.190466 -1.90656,0.866098 -2.84118,1.607135 -2.30306,1.826141 -4.50146,2.934973 -5.81668,2.933671 -1.15609,-0.001 -2.80992,-0.817422 -2.80294,-1.383893 0.011,-0.910905 0.50062,-1.128678 2.57919,-1.145667 2.63906,-0.02158 3.97906,-0.63769 5.94743,-2.734201 1.24542,-1.326515 1.62317,-1.569146 2.68976,-1.729092 3.09957,-0.464809 5.05978,0.94153 5.56813,3.995105 0.14572,0.8753 0.0106,1.606942 -0.65732,3.552238 -0.74159,2.159862 -0.80646,2.567194 -0.54571,3.437517 0.3649,1.217932 1.82149,2.539846 3.05305,2.770888 0.91731,0.172088 0.92172,0.179996 0.76584,1.317234 -0.0863,0.629245 -0.0814,1.444717 0.0109,1.812292 0.2292,0.913199 1.71518,1.987405 3.11041,2.24844 1.22942,0.230016 10.06831,0.154001 13.57798,-0.116787 1.15756,-0.08931 2.34443,-0.330716 2.63808,-0.536403 0.29366,-0.205682 0.74592,-0.374137 1.00459,-0.374137 0.25866,0 0.47026,-0.11608 0.47026,-0.257865 0,-0.141785 0.35719,-0.442421 0.79375,-0.668176 0.92047,-0.475994 1.00111,-1.071759 0.38085,-2.811198 -0.57658,-1.616938 -1.20599,-11.634491 -1.11569,-17.758606 l 0.0734,-4.959903 c 0,0 -4.7711,-5.727389 -2.57965,-6.238379 0.40018,-0.08826 1.02526,-0.259551 1.38906,-0.380854 0.57949,-0.193218 0.53032,-0.222581 -0.39687,-0.237713 -1.624,-0.02651 -2.29072,0.220888 -2.11202,0.783932 l 3.08456,6.066813 c 0.0984,0.0022 0.16176,3.129008 0.14056,6.94893 -0.0417,7.528866 0.35609,13.848505 1.00304,15.934943 0.51934,1.674924 0.35247,2.26749 -0.44028,1.56373 -0.55916,-0.496393 -0.56146,-0.495218 -0.4284,0.226859 0.08,0.433983 -0.01,0.845167 -0.22324,1.02216 -0.37796,0.313682 -0.50667,0.13354 -0.68161,-0.952913 -0.12709,-0.789157 -2.43642,-2.179516 -3.97082,-2.390553 -1.54482,-0.212463 -4.63028,0.06766 -4.8612,0.441317 -0.10354,0.167511 0.64656,0.19444 2.11304,0.07545 2.51451,-0.204026 4.14653,0.199443 5.08703,1.258321 l 0.49558,0.558104 -1.32292,-0.166915 c -0.72761,-0.09158 -1.5015,-0.05071 -1.71979,0.09043 -0.30144,0.194926 -0.19085,0.25735 0.4594,0.26045 1.24614,0.0059 3.24477,0.592998 3.24477,0.952913 0,0.659109 -0.78821,0.976159 -2.0097,0.808736 -0.73286,-0.100449 -1.4337,-0.04461 -1.7818,0.142111 -0.39108,0.209774 -2.42863,0.299968 -6.39496,0.28267 -6.35098,-0.02773 -7.66934,-0.253471 -8.26461,-1.413351 -0.52079,-1.014786 -0.38851,-2.968964 0.33693,-4.980057 0.79258,-2.197219 0.91869,-5.263782 0.57154,-13.912847 -0.19179,-4.77833 -0.15965,-5.574001 0.33176,-8.202083 0.29931,-1.600729 0.82092,-3.446198 1.1591,-4.101042 0.33819,-0.654843 1.26079,-2.440781 2.05001,-3.96875 1.6475,-3.189673 4.27362,-6.898274 5.73712,-8.10183 1.23222,-1.013356 3.55957,-2.216919 4.28707,-2.216919 0.29587,0 0.53795,-0.104654 0.53795,-0.232544 0,-0.357513 1.77469,-3.223146 2.42466,-3.915007 0.31758,-0.338262 0.46045,-0.614949 0.31678,-0.614949 z m 3.64887,1.058333 c 0.44198,0 0.51923,0.117527 0.39119,0.595313 -0.0878,0.327422 -0.1613,0.68461 -0.16329,0.79375 -0.005,0.292459 -1.00435,0.241789 -1.19115,-0.06046 -0.26903,-0.435288 0.37872,-1.328601 0.96325,-1.328601 z m 2.70113,6.693649 c 0.6133,-0.01351 1.18565,0.04085 1.59112,0.174667 1.93735,0.639381 2.59391,3.11949 1.33118,5.027599 -0.55321,0.835954 -0.99838,1.142212 -2.30012,1.581814 -4.18022,1.411679 -7.74408,0.221552 -8.03981,-2.685105 -0.14926,-1.466861 0.50146,-2.529041 2.1363,-3.487127 1.21976,-0.714822 1.74614,-0.723773 1.74614,-0.02946 0,0.310388 0.10699,0.310013 0.70952,-0.0026 0.66735,-0.346228 1.8035,-0.557305 2.82567,-0.57981 z m -1.3007,3.472656 c -0.0856,-0.0034 -0.16049,0.01838 -0.21549,0.07338 -0.29553,0.295527 -0.17778,1.35414 0.16382,1.473295 0.54017,0.188424 0.99218,-0.09394 0.99218,-0.619598 0,-0.414359 -0.56965,-0.912156 -0.94051,-0.927077 z m 27.96212,3.441133 c 0.81331,0 0.8457,0.453666 0.13229,1.852084 -0.29105,0.570489 -0.52916,1.45892 -0.52916,1.97404 0,0.938858 -0.32659,1.136534 -1.25678,0.761193 -0.57712,-0.232878 -0.38316,-2.054807 0.33073,-3.106788 0.3638,-0.536093 0.66146,-1.088773 0.66146,-1.22783 0,-0.139057 0.29766,-0.252699 0.66146,-0.252699 z m -1.45417,0.287838 c 0.0687,-0.0029 0.12015,0.01008 0.15089,0.04082 0.0951,0.09509 -0.0784,0.492173 -0.3855,0.882632 -0.30715,0.390464 -0.68244,1.170659 -0.83406,1.733745 -0.32343,1.20114 -0.79561,1.296948 -1.5658,0.31781 l -0.55552,-0.7059 0.68833,-0.718302 c 0.71178,-0.742934 2.02082,-1.530334 2.50166,-1.55081 z m 3.30987,0.505912 c 0.85118,0 0.99363,0.332897 0.52607,1.229382 -0.424,0.812964 -0.49097,1.393539 -0.23668,2.056206 0.29031,0.756553 0.63304,0.437629 0.63304,-0.589113 0,-1.332275 0.58181,-2.147131 1.24126,-1.738394 0.26585,0.164777 0.49202,0.635134 0.50902,1.058333 0.0507,1.266732 0.091,1.42317 0.36638,1.42317 0.14552,0 0.26459,-0.290743 0.26459,-0.645957 0,-0.870754 0.45189,-1.093472 1.07487,-0.529682 0.76455,0.691901 0.62933,1.071867 -0.55088,1.544092 -0.68478,0.274 -1.8629,0.425297 -3.30729,0.425297 -2.2077,0 -2.24379,-0.01053 -2.24379,-0.65164 0,-0.358341 0.24679,-1.310844 0.54829,-2.116667 0.45294,-1.210582 0.65719,-1.465027 1.17512,-1.465027 z m -32.46468,2.267562 c -0.22687,0 -0.33899,0.119062 -0.24908,0.264583 0.0899,0.145521 0.27544,0.264583 0.41237,0.264583 0.13693,0 0.24908,-0.119062 0.24908,-0.264583 0,-0.145521 -0.1855,-0.264583 -0.41237,-0.264583 z m 25.44754,0.472839 c 0.23021,-0.0016 0.49952,0.13076 0.73019,0.411861 0.80172,0.977016 3.8556,1.863736 6.41563,1.862937 1.23693,-4e-4 2.72521,-0.125855 3.30729,-0.279054 1.97861,-0.52075 2.12745,-0.480311 2.0252,0.551387 -0.1178,1.1885 -0.89576,2.726594 -1.03922,2.054656 -0.11573,-0.542041 -0.40647,-0.578959 -1.20147,-0.15348 -0.9359,0.50088 -3.89417,0.970585 -5.60535,0.890387 -1.91581,-0.08976 -3.40943,-0.676706 -4.56406,-1.794209 -0.99792,-0.965829 -1.10771,-0.726519 -0.27233,0.594281 0.32214,0.50932 0.59701,1.372529 0.61081,1.918229 0.0316,1.24791 -0.35337,1.258687 -1.18856,0.03256 -0.51345,-0.753742 -0.63871,-1.24388 -0.59221,-2.312522 0.0676,-1.553689 0.25378,-2.284097 0.5824,-2.284097 0.12591,0 0.30512,0.24081 0.39842,0.53485 0.25562,0.80537 2.5402,1.83049 4.70204,2.109949 2.41614,0.31234 6.31482,-0.127458 7.15254,-0.80667 0.87995,-0.71346 0.38363,-0.874083 -1.04904,-0.339513 -1.67485,0.6249 -6.5216,0.60634 -8.28993,-0.03204 -1.37314,-0.49572 -2.64945,-1.612717 -2.64945,-2.318205 0,-0.415554 0.23112,-0.63922 0.5271,-0.641305 z m 10.89081,5.206918 c 0.46053,0.0123 -0.94697,1.192834 -2.21331,1.856735 -0.53989,0.283059 -1.10545,0.514696 -1.25677,0.514696 -0.31524,0 -0.36147,-0.78187 -0.0723,-1.221631 0.19536,-0.297151 2.87722,-1.167601 3.54242,-1.1498 z m -9.20048,0.249079 c 0.61201,0.0067 1.42252,0.859057 1.60508,1.923915 0.17739,1.03474 0.0165,1.144212 -1.20458,0.81752 -0.48602,-0.130029 -1.18789,-2.002353 -0.91571,-2.442744 0.12929,-0.209191 0.31121,-0.30093 0.51521,-0.298691 z m 2.63343,0.557591 c 0.19186,-0.0016 0.44286,0.01053 0.77153,0.02945 1.30687,0.07525 1.39395,0.124905 1.47485,0.831474 0.0509,0.44423 -0.1008,0.957601 -0.37155,1.256771 -0.25174,0.27817 -0.66863,0.505397 -0.92656,0.505397 -0.61998,0 -1.5658,-1.228606 -1.5658,-2.033985 0,-0.453998 0.042,-0.584234 0.61753,-0.58911 z m -35.09449,3.303156 c -0.29441,0 0.28233,5.026057 0.7338,6.394442 0.54015,1.637186 0.92743,4.691922 1.21905,9.612849 0.10348,1.74625 0.23477,2.817813 0.29197,2.38125 0.2272,-1.733968 -0.50805,-10.821662 -0.99477,-12.293306 -0.26645,-0.805656 -0.6289,-2.506824 -0.80512,-3.780131 -0.17621,-1.273307 -0.37623,-2.315104 -0.44493,-2.315104 z"
         id="path4343"
         inkscape:connector-curvature="0"
         sodipodi:nodetypes="cccccccccccccscccccccccccsccccsccccssccssccscscccccscccscccccscccccccscccsccccccscscscccccsscccccccccccccccccscccccsscccsssccsssccccccccccsssccsccccccscscscssscccccccccsscsccssccssssscssscccccccccccccscccccsccccsccccccccccccssccscccccs" />
    </g>
    <g
       id="g4360"
       transform="translate(-10.112447,-48.267622)">
      <path
         inkscape:connector-curvature="0"
         id="path4356"
         d="m -52.107684,94.312083 8.6771,-0.839941 c 0,0 21.6305,-0.134525 22.65351,0.550613 1.023011,0.685139 0.499173,1.059292 0.499173,1.059292 l -1.338827,0.7684 1.497258,0.953061 -1.346005,0.699103 1.277882,1.728248 -0.756263,0.266747 -30.606277,-1.182616 z"
         style="fill:#f7df1e;fill-opacity:1;fill-rule:evenodd;stroke:none;stroke-width:0.26458332px;stroke-linecap:butt;stroke-linejoin:miter;stroke-opacity:1" />
      <path
         sodipodi:nodetypes="cccccccccccccccsccccccsccccccccccc"
         style="fill:#000000;stroke-width:1"
         d="m -38.613865,98.895784 3.57187,0.006 c 1.964531,0.003 5.95313,0.17864 8.863539,0.38964 2.910433,0.211 5.559563,0.38644 5.886982,0.38964 0.843201,0.008 0.795639,-0.97264 -0.0661,-1.36529 -0.746339,-0.34006 -0.854379,-0.702 -0.264588,-0.88625 1.385228,-0.43276 1.364958,-0.39524 0.55708,-1.04438 l -0.765331,-0.61495 0.566891,-0.3545 c 0.901768,-0.56317 0.711297,-1.22584 -0.441831,-1.53635 -2.402922,-0.64704 -4.891259,-0.78202 -12.815242,-0.69401 l -9.90999,0.28681 c -2.272829,0.30653 -1.85615,0.39863 1.132232,0.25114 1.611461,-0.0795 6.493039,-0.13694 10.847919,-0.12764 7.9678,0.0171 10.925501,0.28249 11.161591,1.00149 0.152418,0.46417 -1.536121,1.12086 -2.882511,1.12086 -1.552768,0 -1.023469,0.36616 0.762741,0.52762 1.826231,0.16507 2.25956,0.79343 0.551389,0.79943 -0.63059,0.002 -1.32478,0.11939 -1.543061,0.26045 -0.3404,0.22002 -0.332189,0.25695 0.0589,0.26045 0.710358,0.006 2.870581,1.13946 2.760559,1.44798 -0.0542,0.15187 -0.323548,0.24778 -0.598929,0.21342 -2.32341,-0.28993 -15.094061,-0.80478 -20.74137,-0.83612 -3.8563,-0.0214 -7.6663,-0.10912 -8.46667,-0.19534 -1.00821,-0.10861 -1.373931,-0.0722 -1.190622,0.11937 0.22008,0.22998 3.359822,0.3763 12.349631,0.57413 z m -8.202148,-4.96352 c -0.873141,-1.4e-4 -2.420951,0.0851 -3.439591,0.18965 l -1.852081,0.19017 2.248961,0.0222 c 1.23693,0.0121 2.78474,-0.0737 3.439581,-0.19017 l 1.19063,-0.21187 z"
         id="path4281-3"
         inkscape:connector-curvature="0" />
    </g>
  </g>
</svg>
