<?xml version="1.0" encoding="UTF-8" standalone="no"?>
<!-- Created with Inkscape (http://www.inkscape.org/) -->

<svg
   xmlns:dc="http://purl.org/dc/elements/1.1/"
   xmlns:cc="http://creativecommons.org/ns#"
   xmlns:rdf="http://www.w3.org/1999/02/22-rdf-syntax-ns#"
   xmlns:svg="http://www.w3.org/2000/svg"
   xmlns="http://www.w3.org/2000/svg"
   xmlns:sodipodi="http://sodipodi.sourceforge.net/DTD/sodipodi-0.dtd"
   xmlns:inkscape="http://www.inkscape.org/namespaces/inkscape"
   width="508mm"
   height="285.75mm"
   viewBox="0 0 508 285.75"
   version="1.1"
   id="svg1417"
   inkscape:version="0.92.2 (5c3e80d, 2017-08-06)"
   sodipodi:docname="overlay-usecases-helloworld.svg">
  <defs
     id="defs1411" />
  <sodipodi:namedview
     id="base"
     pagecolor="#ffffff"
     bordercolor="#666666"
     borderopacity="1.0"
     inkscape:pageopacity="0.0"
     inkscape:pageshadow="2"
     inkscape:zoom="0.35355339"
     inkscape:cx="871.9359"
     inkscape:cy="62.948064"
     inkscape:document-units="mm"
     inkscape:current-layer="layer1"
     showgrid="false"
     fit-margin-top="0"
     fit-margin-left="0"
     fit-margin-right="0"
     fit-margin-bottom="0"
     inkscape:window-width="1920"
     inkscape:window-height="1016"
     inkscape:window-x="0"
     inkscape:window-y="27"
     inkscape:window-maximized="1"
     inkscape:snap-nodes="false" />
  <metadata
     id="metadata1414">
    <rdf:RDF>
      <cc:Work
         rdf:about="">
        <dc:format>image/svg+xml</dc:format>
        <dc:type
           rdf:resource="http://purl.org/dc/dcmitype/StillImage" />
        <dc:title></dc:title>
      </cc:Work>
    </rdf:RDF>
  </metadata>
  <g
     inkscape:label="Layer 1"
     inkscape:groupmode="layer"
     id="layer1"
     transform="translate(24.946428,-88.35714)">
    <g
       id="g2364"
       transform="matrix(0.45716972,0.0376586,-0.0376586,0.45716972,443.35171,141.09845)"
       style="fill:#f7df1e;stroke:none;stroke-width:0.1089994;stroke-linejoin:round;stroke-miterlimit:4;stroke-dasharray:none;stroke-opacity:1;fill-opacity:1">
      <path
         inkscape:connector-curvature="0"
         id="path2360"
         d="m -199.30684,336.40401 35.85104,-3.30729 11.77396,8.86354 0.13229,59.13438 -43.25938,0.52916 z"
         style="opacity:1;fill:#f7df1e;fill-opacity:0.26771653;fill-rule:evenodd;stroke:none;stroke-width:0.1089994;stroke-linecap:butt;stroke-linejoin:round;stroke-miterlimit:4;stroke-dasharray:none;stroke-opacity:1" />
      <path
         inkscape:connector-curvature="0"
         id="path1374"
         d="m -153.30285,310.22151 c -0.3839,-0.0658 -0.9628,0.2327 -1.62459,0.84549 -0.41661,0.38575 -1.01096,0.89951 -1.32094,1.14168 -0.94968,0.74196 -1.74646,1.84022 -1.81721,2.50527 -0.0362,0.34035 -0.11302,0.86239 -0.17087,1.15992 -0.0636,0.32733 -0.002,0.83599 0.15578,1.28796 0.41026,1.17455 0.3359,2.96947 -0.15552,3.75868 -0.22264,0.35754 -0.41975,0.82772 -0.43794,1.0449 -0.0405,0.48342 0.35054,1.52754 0.58431,1.56045 0.0994,0.0139 0.13159,0.25681 0.0774,0.5831 -0.0763,0.45948 -0.0124,0.64536 0.3578,1.04216 0.24782,0.26558 0.55973,0.53152 0.6931,0.59085 0.39935,0.17768 1.41253,0.0972 1.48784,-0.11821 0.0402,-0.11501 -0.072,-0.22055 -0.26335,-0.24748 -0.18348,-0.0258 -0.38053,-0.17544 -0.43765,-0.33238 -0.0571,-0.15692 -0.21152,-0.25908 -0.34322,-0.22709 -0.34488,0.0838 -0.68638,-0.45563 -0.62907,-0.9938 0.027,-0.2539 -0.0364,-0.52651 -0.14094,-0.60589 -0.41446,-0.31445 -0.5158,-1.00002 -0.21043,-1.42398 0.22931,-0.31838 0.23839,-0.38195 0.0411,-0.28824 -0.13926,0.0661 0,-0.16293 0.30786,-0.50932 0.70608,-0.79265 0.87894,-0.87334 1.11348,-0.51956 0.10357,0.15618 0.51606,0.38547 0.91689,0.50959 l 0.72871,0.22571 1.17949,-1.02979 c 0.71617,-0.62537 1.13117,-1.11416 1.05686,-1.24488 -0.073,-0.12843 -0.0496,-0.16006 0.0581,-0.0784 0.22921,0.1739 0.33026,-0.10953 0.24653,-0.6918 -0.15335,-1.06647 -2.93336,-1.74887 -4.00064,-0.98198 l -0.46809,0.33642 -0.32219,-0.45483 c -0.29417,-0.41538 -0.301,-0.50221 -0.0791,-1.00196 0.17556,-0.39547 0.19181,-0.60561 0.0586,-0.75757 -0.13321,-0.15195 -0.0737,-0.31227 0.21439,-0.57836 0.21923,-0.20246 0.32839,-0.37942 0.24258,-0.39388 -0.0858,-0.0144 0.11268,-0.23326 0.44113,-0.48662 0.32845,-0.25334 0.82213,-0.73037 1.09716,-1.06018 0.27503,-0.32982 0.73838,-0.77791 1.02965,-0.9955 0.55184,-0.41223 0.84529,-1.33117 0.48539,-1.51992 -0.0465,-0.0244 -0.0975,-0.0412 -0.15231,-0.0506 z m -51.11914,-0.10683 c -0.0149,0.004 -0.041,0.0294 -0.0784,0.0755 -0.0877,0.10822 -0.23852,0.11179 -0.37412,0.009 -0.14046,-0.10657 -0.34849,-0.0859 -0.54425,0.0542 -0.17424,0.12467 -0.48725,0.20499 -0.69558,0.17806 -0.33418,-0.043 -0.3851,0.0498 -0.43199,0.78783 -0.0292,0.46011 -0.12132,0.89597 -0.20475,0.96844 -0.0834,0.0725 -0.65467,0.0734 -1.26949,0.002 -1.06687,-0.12399 -1.55256,0.0393 -1.32218,0.44444 0.0463,0.0815 -0.0717,0.32421 -0.26211,0.53953 -0.19045,0.21529 -0.30483,0.46441 -0.25419,0.55346 0.0506,0.0891 0.0115,0.15073 -0.0868,0.13688 -0.32716,-0.046 -0.18432,0.58345 0.22651,0.99849 0.68643,0.69344 0.69129,1.26847 0.0235,2.7347 -0.32863,0.72151 -0.59741,1.37233 -0.59741,1.44628 0,0.0739 0.18975,0.28559 0.42185,0.47034 0.37858,0.30133 0.462,0.3155 0.81032,0.13629 0.61301,-0.31539 1.74717,-0.24091 2.0096,0.13202 0.12023,0.17086 0.58617,0.71808 1.03533,1.21593 1.09569,1.21446 1.65422,1.282 1.89288,0.22909 0.16545,-0.73004 0.57287,-1.02836 1.34244,-0.98265 0.54726,0.0325 0.68457,-0.0289 0.72772,-0.32634 0.0292,-0.2016 0.27207,-0.51997 0.53957,-0.70742 0.4931,-0.34549 0.62878,-1.03288 0.21536,-1.09106 -0.38746,-0.0545 -0.32554,-0.8377 0.094,-1.18803 0.15371,-0.12838 0.39337,-0.3889 0.53261,-0.57883 0.13926,-0.18988 0.34834,-0.43109 0.46439,-0.536 0.4318,-0.39038 0.11262,-1.07265 -0.545,-1.16521 -0.19291,-0.0272 -0.48822,-0.22928 -0.65625,-0.44919 -0.24985,-0.32695 -0.42401,-0.39766 -0.95573,-0.38747 -0.35763,0.007 -0.69339,-0.0637 -0.74625,-0.15674 -0.0529,-0.093 -0.34229,-0.19247 -0.64317,-0.22133 -0.30088,-0.0287 -0.56536,-0.11055 -0.58752,-0.18163 -0.0222,-0.071 -0.15493,-0.41985 -0.29525,-0.77545 -0.32871,-0.83298 -0.32486,-0.87481 0.11522,-1.22286 0.2727,-0.21568 0.32072,-0.34976 0.182,-0.50801 -0.1037,-0.11824 -0.14931,-0.333 -0.10138,-0.47742 0.0369,-0.11135 0.0434,-0.16337 0.0186,-0.15663 z m 49.63624,8.48791 c 0.0901,0.009 0.18726,0.0373 0.28635,0.0893 0.21404,0.11227 0.22134,0.18696 0.0438,0.44631 v 0 c -0.2812,0.41027 -0.80711,0.33523 -0.80711,-0.11533 0,-0.28484 0.20655,-0.44557 0.477,-0.42047 z m -53.45809,-5.28213 c 0.0182,0.003 0.0371,0.008 0.0564,0.0132 0.39718,0.1142 0.49028,0.31288 0.26087,0.557 -0.26864,0.28585 -0.49323,0.25865 -0.61448,-0.0744 -0.11633,-0.31954 0.0247,-0.54231 0.29723,-0.49573 z m 2.71604,1.29745 c 0.32837,0.045 0.72377,0.20153 0.91047,0.4145 0.29435,0.33577 0.7386,1.61386 0.7386,2.12468 0,0.20425 -0.18945,0.52248 -0.42085,0.70731 -0.83312,0.66543 -2.87099,0.16339 -2.54988,-0.6282 0.0619,-0.15255 0.0276,-0.20652 -0.0945,-0.14829 -0.13702,0.0654 -0.16643,-0.12979 -0.10287,-0.68483 0.0615,-0.53727 0.21763,-0.87783 0.50691,-1.10518 0.22993,-0.18076 0.45372,-0.43038 0.49726,-0.55487 0.0445,-0.12713 0.25944,-0.15997 0.51482,-0.12512 z m 3.35255,0.67514 c 0.0876,0.017 0.1533,0.0714 0.1533,0.16624 0,0.0785 -0.15183,0.25864 -0.33752,0.40054 -0.33733,0.25782 -0.42843,0.11967 -0.23516,-0.35677 0.0662,-0.16311 0.27329,-0.23835 0.41938,-0.21001 z m 66.92684,18.78541 c -0.081,-0.0114 -0.17595,0 -0.29598,0.0281 -0.42758,0.10242 -1.48737,1.05285 -1.48737,1.33389 0,0.0886 -0.10908,0.27956 -0.24231,0.42435 -0.13326,0.14477 -0.49799,0.56896 -0.81058,0.94274 -0.4984,0.59603 -0.65022,0.6704 -1.23388,0.60328 -0.90823,-0.10439 -1.76455,-0.48297 -1.76455,-0.78 0,-0.13492 -0.0805,-0.25663 -0.17878,-0.27047 -0.0983,-0.0138 -0.12716,0.0657 -0.0641,0.17668 0.0781,0.13726 -0.003,0.12197 -0.2542,-0.0476 -0.29868,-0.2019 -0.33002,-0.29046 -0.16518,-0.46588 0.16533,-0.17595 0.15386,-0.20452 -0.0606,-0.15242 -0.1452,0.0352 -0.30992,0.17704 -0.36595,0.3152 -0.12208,0.30092 0.54678,1.43513 0.95916,1.62654 0.16084,0.0747 0.42044,0.43384 0.5769,0.7983 0.15646,0.36443 0.39718,0.81103 0.53485,0.99242 0.22447,0.29575 0.19255,0.44686 -0.30934,1.46506 -0.5964,1.20999 -0.82292,2.48527 -0.53855,3.03342 0.13201,0.2545 0.33582,0.34564 0.85135,0.38096 0.39681,0.0272 0.84005,0.17515 1.06972,0.35678 0.34793,0.2753 0.57777,0.30862 2.03703,0.29564 l 1.64485,-0.0145 0.63402,0.50443 v 0 c 0.34873,0.27744 0.80517,0.53324 1.01406,0.56804 0.32296,0.0539 0.37982,-0.0246 0.37982,-0.52342 0,-0.45562 0.13197,-0.68832 0.59074,-1.04121 0.6696,-0.51507 0.7176,-0.65686 0.28906,-0.85321 -0.29053,-0.1331 -0.48732,-0.83983 -0.22352,-0.8027 0.071,0.01 0.50138,0.41238 0.95645,0.89424 0.45504,0.48184 0.88604,0.88434 0.95768,0.89443 0.0717,0.0101 0.13031,0.1074 0.13031,0.21616 0,0.31492 0.5303,0.88965 0.86422,0.93665 0.78123,0.10996 0.59694,-1.43524 -0.22427,-1.88043 -0.21271,-0.11534 -0.32781,-0.20619 -0.25594,-0.20194 0.2282,0.0135 -0.93402,-1.32384 -1.18071,-1.35856 -0.12999,-0.0183 -0.18909,-0.10257 -0.13181,-0.18719 0.0573,-0.0846 -0.0144,-0.33951 -0.15899,-0.56638 -0.14465,-0.22686 -0.26156,-0.49012 -0.26014,-0.58532 0.002,-0.16482 0.62931,-0.87672 1.32614,-1.50618 0.35363,-0.31942 0.5586,-1.44884 0.27966,-1.5407 -0.97946,-0.32255 -1.7774,-0.45103 -1.7774,-0.28602 0,0.11603 -0.21423,0.13455 -0.54845,0.047 -1.14854,-0.301 -1.28965,-0.49821 -1.41417,-1.97595 -0.0425,-0.50394 -0.18807,-1.04244 -0.32342,-1.19685 -0.13536,-0.15441 -0.24862,-0.21881 -0.25149,-0.14294 -0.003,0.0759 -0.10735,-0.011 -0.23219,-0.19318 -0.11047,-0.16114 -0.20716,-0.24179 -0.34222,-0.26081 z m -27.68033,-3.07565 c -0.17838,-0.0263 -0.34989,0.0489 -0.7057,0.22263 -0.36263,0.1771 -0.96316,0.37358 -1.33454,0.43653 -0.37136,0.0629 -1.01713,0.22588 -1.43493,0.36205 -0.41779,0.13619 -0.97317,0.24608 -1.23439,0.24415 -0.26122,-0.002 -0.79304,0.0879 -1.18172,0.19964 -0.38867,0.11173 -1.25245,0.26679 -1.91934,0.34457 -0.66687,0.0778 -1.16776,0.21969 -1.11322,0.31561 0.0545,0.0959 0.0116,0.1082 -0.0952,0.0272 -0.10685,-0.0811 -1.04909,-0.0419 -2.09392,0.0873 -1.04484,0.12916 -2.64685,0.28969 -3.56001,0.35647 -0.91315,0.0668 -1.91631,0.19241 -2.22941,0.27916 -0.31311,0.0867 -1.03168,0.21101 -1.59665,0.27625 -1.16757,0.13477 -4.68726,0.8978 -6.07674,1.31746 -0.51064,0.15424 -1.46009,0.33174 -2.11,0.39441 -0.64988,0.0626 -1.5996,0.16135 -2.11023,0.21951 -1.19381,0.13599 -2.67609,0.14143 -3.18044,0.0115 -0.27267,-0.0702 -0.35615,-0.0332 -0.26926,0.11959 0.0831,0.14616 0.0545,0.16739 -0.0838,0.0624 -0.1153,-0.0875 -0.63967,-0.24961 -1.16539,-0.36038 -0.52574,-0.11075 -1.06992,-0.22873 -1.20918,-0.26217 -0.60741,-0.14577 -1.02708,-0.10723 -0.91812,0.0844 0.081,0.14255 0.0101,0.1312 -0.2416,-0.0392 -0.27813,-0.18802 -0.46811,-0.19917 -0.86447,-0.05 -0.27936,0.10515 -0.50789,0.14874 -0.50789,0.0967 0,-0.0521 -0.14223,-0.0386 -0.31602,0.0299 -0.34836,0.13741 -0.30287,0.66112 0.19412,2.23324 0.13823,0.43726 0.34717,1.34033 0.46438,2.00672 0.11719,0.6664 0.30562,1.49052 0.41863,1.83138 0.13761,0.41507 0.20763,1.91207 0.2124,4.53301 0.004,2.15236 0.0489,4.13385 0.0999,4.40315 0.051,0.2693 0.14157,2.24322 0.20129,4.38678 0.0597,2.14356 0.17278,4.0265 0.25122,4.18411 0.0785,0.15764 0.18034,0.89379 0.22651,1.63597 0.0462,0.74218 0.11935,1.58218 0.16247,1.86678 0.0431,0.2846 0.12965,1.0565 0.19236,1.71521 0.0627,0.65873 0.17984,1.51073 0.26014,1.89339 0.17684,0.84281 0.47831,3.27404 0.57788,4.65937 0.04,0.55631 0.14229,1.20914 0.22724,1.45083 0.085,0.24169 0.171,1.00895 0.19139,1.70493 0.0204,0.69597 0.0764,1.33445 0.12438,1.41882 0.048,0.0844 0.10389,1.84485 0.12412,3.91204 0.0203,2.06716 0.0902,3.85242 0.15554,3.96738 0.0654,0.11497 0.0283,0.39521 -0.0826,0.62288 -0.16377,0.33638 -0.14384,0.64985 0.10705,1.67355 0.16982,0.69281 0.3874,1.37116 0.48341,1.50742 0.10784,0.15298 0.19755,2.13447 0.23468,5.18175 0.0702,5.76091 0.0885,5.98269 0.54127,6.49913 l 0.34397,0.39211 0.51705,-0.42252 c 0.47947,-0.39183 0.51469,-0.5002 0.48292,-1.48588 -0.0189,-0.58471 -0.0793,-1.06924 -0.13428,-1.07698 -0.055,-0.008 -0.11328,-1.78207 -0.12931,-3.94293 -0.0365,-4.9179 -0.0345,-4.88172 -0.27645,-5.21508 -0.15718,-0.2166 -0.15482,-0.24274 0.0104,-0.12021 0.11604,0.0861 0.21091,0.0761 0.21091,-0.0222 0,-0.0983 -0.0787,-0.18987 -0.17483,-0.20339 -0.11847,-0.0167 -0.11657,-0.12503 0.006,-0.33668 0.0994,-0.17172 0.11583,-0.32122 0.0366,-0.33237 -0.0792,-0.0112 -0.15104,-0.23033 -0.15974,-0.48688 -0.0369,-1.08964 -0.18181,-2.57946 -0.26508,-2.72592 -0.0495,-0.087 0.0505,-0.53687 0.22205,-0.99987 0.17126,-0.46305 0.24941,-0.81197 0.17309,-0.77557 -0.0763,0.0365 -0.27558,-0.16135 -0.44286,-0.43942 -0.2486,-0.41321 -0.31001,-0.90733 -0.33603,-2.70451 -0.0175,-1.20943 -0.0668,-2.3179 -0.10932,-2.46314 -0.26463,-0.90334 -0.32569,-1.6071 -0.15256,-1.75586 0.21625,-0.18582 0.25921,-0.4862 0.0556,-0.38905 -0.0739,0.0352 -0.1267,-0.13867 -0.1172,-0.3864 0.009,-0.24774 -0.0329,-0.60949 -0.0942,-0.8038 -0.30236,-0.95872 -0.34308,-1.34261 -0.12536,-1.18107 0.16069,0.11924 0.15711,0.0783 -0.0138,-0.15649 -0.15855,-0.21778 -0.17008,-0.30955 -0.0364,-0.29072 0.14378,0.0203 0.14717,-0.0696 0.0129,-0.33944 -0.10042,-0.20172 -0.13439,-0.43775 -0.0757,-0.52448 0.0587,-0.0867 0.005,-0.29702 -0.11893,-0.46753 -0.16084,-0.22101 -0.16505,-0.2652 -0.0145,-0.15362 0.11607,0.0861 0.21118,0.0761 0.21118,-0.0222 0,-0.0983 -0.11729,-0.19527 -0.26062,-0.21545 -0.14333,-0.0202 -0.24217,-0.12895 -0.21959,-0.24183 0.0226,-0.11288 -0.0192,-0.70753 -0.0927,-1.32138 -0.0735,-0.61383 -0.1539,-1.54585 -0.17878,-2.0711 -0.0249,-0.52525 -0.10564,-1.06124 -0.17953,-1.19117 -0.0739,-0.12993 -0.1224,-0.50732 -0.10779,-0.83883 0.0367,-0.83283 -0.13556,-1.57838 -0.34198,-1.47987 -0.10175,0.0486 -0.0939,-0.0531 0.0195,-0.24897 0.10536,-0.18207 0.13201,-0.33946 0.0591,-0.34973 -0.0729,-0.0102 -0.14447,-0.72909 -0.15902,-1.59751 -0.0145,-0.86841 -0.10122,-1.86109 -0.19285,-2.20589 -0.11584,-0.43583 -0.11055,-0.67529 0.0178,-0.78554 0.13359,-0.11481 0.1288,-0.16634 -0.0178,-0.18698 -0.11141,-0.0157 -0.20277,-0.14247 -0.20277,-0.28174 0,-0.13926 0.0741,-0.24277 0.16468,-0.23002 0.1044,0.0147 0.10778,-0.13434 0.009,-0.40693 -0.0854,-0.2365 -0.15763,-0.56944 -0.16098,-0.74001 -0.0378,-1.98711 -0.0185,-2.61425 0.0853,-2.76758 0.0674,-0.0996 0.0514,-0.14721 -0.0356,-0.10565 -0.0928,0.0442 -0.15591,-0.40773 -0.15257,-1.09268 0.003,-0.6425 -0.039,-1.17439 -0.0935,-1.18202 -0.0544,-0.008 -0.0923,-0.49951 -0.0843,-1.09295 0.008,-0.59344 0.0525,-1.05012 0.0989,-1.01498 0.0464,0.0351 0.0927,-0.30559 0.10312,-0.75698 0.0121,-0.52511 -0.0439,-0.79065 -0.1553,-0.73746 -0.11179,0.0533 -0.12753,-0.0262 -0.0442,-0.22184 0.15407,-0.36203 0.24027,-2.06209 0.10557,-2.08104 -0.0515,-0.007 -0.10341,-0.43257 -0.11547,-0.94503 -0.0121,-0.51244 -0.11635,-1.05887 -0.2317,-1.21407 -0.16708,-0.22492 -0.16698,-0.27622 0,-0.25264 0.16746,0.0236 0.1674,-0.0279 0.002,-0.25206 -0.11515,-0.15493 -0.17029,-0.48029 -0.12265,-0.723 0.0477,-0.24265 0.0287,-0.56854 -0.0423,-0.72427 -0.071,-0.15572 -0.25378,-0.67366 -0.40629,-1.15089 -0.25765,-0.80555 -0.25754,-0.88678 0.002,-1.13605 0.24761,-0.23877 0.58025,-0.2252 2.9982,0.11514 1.49583,0.21103 3.02345,0.3431 3.39483,0.29362 0.37137,-0.0495 1.16897,-0.12028 1.77245,-0.1573 1.18285,-0.0726 2.86336,-0.37681 3.95935,-0.71666 0.86018,-0.26673 3.26218,-0.78017 4.48108,-0.95801 0.51065,-0.0745 1.57404,-0.23109 2.3632,-0.34785 1.57548,-0.23316 3.25863,-0.39172 4.30454,-0.40574 0.37137,-0.005 1.20687,-0.11596 1.85678,-0.24655 0.6499,-0.1306 1.46512,-0.24482 1.81153,-0.25366 0.34641,-0.009 2.09347,-0.29128 3.88244,-0.62785 2.18142,-0.41036 3.31932,-0.54952 3.45466,-0.42222 0.25967,0.24421 0.46979,1.35211 0.88153,4.64845 0.40867,3.27157 0.65744,4.68538 0.86669,4.92454 0.088,0.1006 0.15999,0.38027 0.15999,0.62166 0,0.80935 0.71117,1.21951 1.23637,0.71308 0.24279,-0.2341 0.2468,-0.31193 0.0329,-0.64744 -0.40784,-0.63968 0.009,-0.84629 2.35997,-1.17001 1.20697,-0.16622 2.8958,-0.41744 3.75288,-0.55828 2.2432,-0.36864 2.43247,-0.23871 2.32215,1.59387 -0.0332,0.55239 -0.0595,2.29572 -0.0581,3.87426 0.002,1.5785 -0.005,3.07793 -0.015,3.33188 -0.01,0.25396 -0.0251,0.74546 -0.0341,1.09236 -0.0217,0.82903 -0.26824,4.41732 -0.43371,6.31143 -0.18801,2.15201 -0.11867,8.6858 0.1026,9.67173 0.10311,0.45926 0.23307,2.62658 0.28884,4.81624 0.10611,4.16712 0.12584,4.67937 0.29698,7.72236 0.14067,2.50187 0.14557,3.24371 0.0426,6.55676 -0.0487,1.56543 -0.0183,3.01759 0.0683,3.25731 0.0858,0.2379 0.17083,2.27046 0.18892,4.51683 0.0396,4.91733 0.1367,4.71202 -2.03928,4.30831 -0.74799,-0.1388 -1.35999,-0.19548 -1.35999,-0.1264 0,0.0693 -0.32276,0.0886 -0.71736,0.0427 -0.96285,-0.11183 -1.52639,-0.11234 -1.73016,-0.002 -0.0928,0.0505 -0.39678,0.11329 -0.67531,0.13936 -0.27854,0.026 -0.98035,0.20289 -1.55955,0.39323 -0.80978,0.26612 -1.3948,0.32152 -2.53208,0.23977 -0.81346,-0.0584 -1.72659,-0.0783 -2.02938,-0.0443 -0.38557,0.0434 -0.51627,0.0115 -0.43642,-0.10648 0.0749,-0.11061 0.008,-0.14283 -0.19363,-0.0938 -0.16905,0.041 -0.69427,0.0573 -1.16712,0.036 -0.47289,-0.0212 -1.12557,-0.0318 -1.45051,-0.0234 -0.32495,0.008 -0.85678,0.009 -1.18172,0.002 -0.32495,-0.008 -0.81862,0.003 -1.09715,0.0234 -0.27854,0.0205 -0.69642,0.0267 -0.92853,0.0142 -0.70973,-0.0385 -2.85637,0.1475 -4.81096,0.41678 -1.02126,0.1407 -2.08465,0.2606 -2.36318,0.26628 -0.91959,0.0187 -1.01145,0.027 -1.18173,0.10839 -0.42477,0.20293 -3.73295,0.41264 -5.2328,0.33168 -0.55707,-0.03 -1.27887,-0.0555 -1.60383,-0.0563 -0.32493,-0.002 -1.04221,-0.0224 -1.59392,-0.0475 -0.55172,-0.0251 -1.06995,-0.0138 -1.15179,0.0253 -0.0818,0.0391 -0.35219,0.0655 -0.60063,0.0586 -0.62789,-0.0174 -3.77833,0.2273 -3.94401,0.30637 -0.33808,0.16117 -0.83967,0.0927 -0.75988,-0.10406 0.12962,-0.3195 -0.56955,-0.295 -0.76507,0.0269 -0.11774,0.19386 -0.10325,0.40901 0.0475,0.71189 0.18483,0.37138 0.34127,0.45184 1.08479,0.55649 0.47789,0.0673 1.28182,0.10786 1.7863,0.0904 1.41795,-0.0489 6.71182,-0.0393 7.92265,0.0143 0.2321,0.0102 0.72579,-0.0203 1.09715,-0.0676 0.37137,-0.0474 1.20687,-0.0628 1.85678,-0.0344 0.64991,0.0284 1.40961,-0.0213 1.68814,-0.11031 0.27852,-0.0891 0.74249,-0.15614 1.03089,-0.14891 0.28838,0.007 0.60026,-0.023 0.6931,-0.0674 0.0928,-0.0443 0.48951,-0.076 0.88153,-0.07 0.92176,0.014 1.39477,-0.0308 2.61319,-0.24741 0.54918,-0.0976 1.20936,-0.14777 1.46707,-0.1115 0.25772,0.0363 0.51555,-0.003 0.57294,-0.0883 0.0574,-0.0847 0.33788,-0.12107 0.62337,-0.0809 0.28548,0.0402 0.79383,0.0406 1.12955,0.002 1.00423,-0.11841 3.01638,-0.12567 4.21379,-0.0152 0.61766,0.057 1.69283,0.14013 2.38916,0.1847 3.76943,0.24128 4.59733,0.18906 6.34479,-0.4002 0.56513,-0.19056 1.47667,-0.3673 2.02566,-0.39267 1.32076,-0.061 3.05497,0.34491 3.51525,0.82268 0.61555,0.6389 0.7662,0.68047 1.2423,0.3425 0.28669,-0.20348 0.47343,-0.5166 0.49405,-0.82878 0.0182,-0.27598 0.0853,-0.98835 0.14888,-1.58288 0.0636,-0.59452 0.11587,-1.19479 0.11622,-1.334 0,-0.13922 0.0758,-0.33742 0.16739,-0.44059 0.11118,-0.12526 0.10172,-0.27474 -0.0282,-0.44954 -0.12314,-0.1657 -0.21986,-1.30963 -0.2636,-3.11763 -0.038,-1.57084 -0.13481,-3.09324 -0.21512,-3.38308 -0.1409,-0.50845 -0.12425,-4.07779 0.0249,-5.35737 0.0401,-0.34328 0.0222,-0.59987 -0.0398,-0.57014 -0.062,0.0297 -0.0944,-0.37313 -0.0717,-0.89509 0.0607,-1.39971 0.0365,-3.36504 -0.0534,-4.33827 -0.0434,-0.47033 -0.118,-1.58235 -0.16567,-2.47108 -0.11616,-2.16632 -0.17027,-2.7313 -0.31156,-3.25667 -0.0657,-0.2444 -0.0473,-0.755 0.0408,-1.13468 0.0881,-0.3797 0.0954,-0.73939 0.0163,-0.79938 -0.0791,-0.06 -0.1005,-0.21542 -0.0477,-0.34547 0.0527,-0.13005 0.0121,-0.34915 -0.0903,-0.48696 -0.10248,-0.13785 -0.14978,-0.28198 -0.10534,-0.32023 0.11675,-0.10032 0.20926,-1.45439 0.0957,-1.40117 -0.0523,0.0245 -0.10691,-0.46218 -0.12119,-1.08157 -0.0142,-0.61938 -0.10353,-1.33629 -0.19853,-1.59319 -0.12232,-0.33079 -0.11717,-0.51478 0.0175,-0.63056 0.12281,-0.10554 0.12771,-0.17242 0.0141,-0.18841 -0.18445,-0.0259 -0.16786,-3.47144 0.0235,-4.89198 0.0552,-0.41002 0.13149,-1.61475 0.16964,-2.67708 0.0381,-1.06233 0.13349,-2.34019 0.21166,-2.83983 0.0781,-0.49965 0.13808,-1.49037 0.13378,-2.20144 -0.004,-0.71104 0.052,-1.24746 0.12536,-1.19201 0.0734,0.0554 0.0834,-0.1055 0.0222,-0.35764 -0.0611,-0.25215 -0.099,-0.85261 -0.0843,-1.33429 0.0795,-2.60181 0.15952,-4.1448 0.2495,-4.8112 0.0553,-0.40999 0.0991,-1.02863 0.0972,-1.3745 -0.003,-0.48928 0.10977,-0.71375 0.50667,-1.01152 0.28059,-0.21049 0.51011,-0.51776 0.51011,-0.68263 0,-0.16485 0.0739,-0.33486 0.1642,-0.37796 0.0903,-0.0431 0.24682,-0.37335 0.34766,-0.73369 0.14086,-0.50324 0.13376,-0.72196 -0.0307,-0.94323 -0.36888,-0.4964 -0.95351,-0.70361 -1.78854,-0.63402 -1.28075,0.10676 -2.98536,-0.19112 -3.53378,-0.61755 -0.26191,-0.20367 -0.52912,-0.45325 -0.59371,-0.55462 -0.0646,-0.1014 -0.16914,-0.13977 -0.23243,-0.0854 -0.0633,0.0544 -0.44196,-0.1721 -0.84146,-0.50319 -0.3995,-0.3311 -0.80366,-0.61287 -0.89835,-0.62619 -0.0947,-0.0133 -0.23311,-0.12944 -0.30736,-0.2579 -0.12289,-0.21259 -1.03012,-0.81949 -1.23217,-0.82426 -0.0464,-0.002 -0.42615,-0.37846 -0.84394,-0.83884 -0.4178,-0.46039 -0.89265,-0.90215 -1.05512,-0.98157 -0.16248,-0.0794 -0.2955,-0.26888 -0.2955,-0.42092 0,-0.15203 -0.187,-0.4498 -0.41566,-0.66185 -0.3608,-0.33458 -0.73894,-1.41169 -0.63056,-1.7962 0.0192,-0.0682 -0.21948,-0.28121 -0.53039,-0.47325 -0.23728,-0.14652 -0.38003,-0.22907 -0.51878,-0.24983 z m 27.24092,5.059 c 0.2665,0.0259 0.52914,0.5542 0.47824,1.04775 -0.0558,0.54075 -0.57044,0.76023 -1.02915,0.43896 -0.26095,-0.18275 -0.26325,-0.24759 -0.026,-0.78207 0.14231,-0.32058 0.35092,-0.6282 0.46339,-0.68353 0.0373,-0.0183 0.0754,-0.0248 0.11349,-0.0211 z m -25.87769,-0.60065 c 0.23166,0.0291 0.53596,0.29176 0.93198,0.79856 0.26068,0.3336 0.6914,0.72706 0.9572,0.87458 0.26578,0.14751 0.64333,0.5074 0.83899,0.79958 0.19712,0.29434 0.59331,0.61682 0.88846,0.7232 0.29299,0.10558 0.86482,0.47291 1.27099,0.81637 l 0.73861,0.62448 -0.36152,0.33386 c -0.19883,0.18366 -0.41296,0.29498 -0.47575,0.24732 -0.0628,-0.0476 -0.32628,-0.006 -0.58555,0.0917 -0.25926,0.098 -0.63353,0.15612 -0.83183,0.12821 -0.19827,-0.0275 -0.81629,0.0735 -1.37335,0.22458 -1.48441,0.40255 -1.86835,0.28289 -1.95371,-0.6093 -0.009,-0.0941 -0.0987,-0.2818 -0.19929,-0.41726 -0.10066,-0.13543 -0.18456,-0.58419 -0.18646,-0.99703 -0.002,-0.41283 -0.0676,-0.75949 -0.14615,-0.77055 -0.0785,-0.011 -0.0599,-0.16345 0.0413,-0.33838 0.10127,-0.17493 0.13052,-0.49359 0.065,-0.70821 -0.16905,-0.55409 -0.11032,-1.48545 0.10832,-1.71815 0.0771,-0.082 0.16744,-0.11684 0.27274,-0.10353 z m 25.82501,3.78653 c 1.48126,0.2085 1.48679,0.21042 1.7282,0.74497 0.21952,0.4857 0.20611,0.63387 -0.14391,1.5833 -0.21237,0.57614 -0.51058,1.23453 -0.66269,1.46308 -0.27051,0.40643 -0.28848,0.40803 -0.82169,0.0747 -0.29981,-0.1874 -0.79982,-0.65854 -1.11124,-1.04708 -0.31143,-0.38854 -0.69251,-0.77273 -0.84667,-0.85356 -0.15418,-0.0809 -0.365,-0.34503 -0.46858,-0.58698 -0.15791,-0.36876 -0.12495,-0.52171 0.20425,-0.9465 0.21597,-0.27868 0.4476,-0.53695 0.51457,-0.57395 0.067,-0.037 0.79045,0.0269 1.60776,0.14199 z m -2.98408,2.66842 c 0.31207,0.0624 1.66291,1.39936 1.57612,1.57492 -0.0178,0.036 -0.2155,0.13468 -0.43941,0.21931 -0.22392,0.0846 -0.7607,0.15724 -1.19284,0.16123 -0.6086,0.006 -0.80666,-0.0507 -0.87907,-0.24958 -0.13216,-0.36304 0.56643,-1.67632 0.9085,-1.70791 0.008,0 0.0167,3e-5 0.0267,0.002 z m -78.71438,3.97844 c -0.53174,-0.0746 -1.18313,0.12435 -2.05979,0.6292 -0.52925,0.30541 -1.52592,0.1656 -1.94432,-0.27193 -0.14913,-0.15596 -0.39274,-0.30058 -0.54127,-0.32149 -0.14854,-0.0209 -0.37173,-0.15399 -0.49603,-0.29581 -0.57169,-0.65214 -2.36658,-0.69142 -3.59636,-0.0787 -0.37137,0.18504 -1.15395,0.76992 -1.73907,1.29968 -0.93173,0.84359 -1.04073,1.00948 -0.87832,1.3358 0.10202,0.20494 0.14273,0.4358 0.0905,0.51298 -0.0522,0.0771 -0.01,0.20507 0.0949,0.28436 0.16382,0.12431 0.77678,-0.3457 1.13821,-0.87265 0.1904,-0.2776 2.25565,-1.04588 3.26574,-1.21486 0.92295,-0.15443 0.98318,-0.1451 1.60357,0.24521 0.54484,0.34279 0.64142,0.48347 0.62363,0.90896 -0.0116,0.27691 -0.0788,0.68532 -0.14936,0.90749 -0.0705,0.22219 -0.15412,0.97675 -0.1857,1.67685 -0.0489,1.08434 -0.008,1.33276 0.27596,1.67752 0.18333,0.22261 0.33332,0.47968 0.33332,0.57114 0,0.0915 0.16877,0.30824 0.37511,0.48182 v 0 c 0.20634,0.17357 0.67025,0.35696 1.03089,0.40771 0.52327,0.0736 0.63535,0.0367 0.55513,-0.18372 -0.0553,-0.1519 -0.034,-0.22566 0.0473,-0.16397 0.0812,0.0616 0.24158,0.0123 0.35631,-0.10983 0.15173,-0.16143 0.15547,-0.2296 0.0134,-0.2496 -0.14311,-0.0201 -0.14714,-0.11102 -0.0148,-0.33962 0.13363,-0.2309 0.12833,-0.3197 -0.0203,-0.34063 -0.13655,-0.0192 -0.12061,-0.11145 0.0494,-0.2883 0.13764,-0.14309 0.22879,-0.48755 0.20252,-0.76524 -0.0263,-0.27767 0.025,-0.58209 0.11374,-0.6766 0.22295,-0.23723 0.14844,-1.09443 -0.1271,-1.46197 -0.29901,-0.39889 -0.0117,-1.16216 0.45894,-1.21899 0.18458,-0.0223 0.33555,-0.0913 0.33555,-0.15331 0,-0.062 0.20907,-0.20238 0.46439,-0.31223 0.33406,-0.14376 0.78545,-0.13725 1.61049,0.0234 1.10477,0.21516 1.14005,0.21007 0.96486,-0.14189 -0.1,-0.20091 -0.29303,-0.38099 -0.42902,-0.40013 -0.136,-0.0192 -0.24803,-0.0919 -0.24851,-0.16159 -0.002,-0.24324 -1.04316,-0.86391 -1.57389,-0.93862 z m 48.56257,7.57739 c -0.54138,-0.064 -1.32328,-0.0398 -2.71531,0.0453 -0.90685,0.0555 -2.69467,0.068 -3.97294,0.0276 -1.27829,-0.0405 -2.40773,-0.0338 -2.50983,0.0149 -0.10211,0.0488 -0.42359,0.11466 -0.71438,0.14647 -0.2908,0.0318 -1.06051,0.13591 -1.7104,0.23131 -0.6499,0.0954 -1.8546,0.19578 -2.67724,0.22306 -0.82261,0.0273 -1.58781,0.11296 -1.70024,0.19044 -0.11245,0.0775 -0.84454,0.0948 -1.62707,0.0383 -0.78251,-0.0566 -1.72673,-0.10258 -2.09811,-0.10221 -0.37136,0 -0.82661,-0.0263 -1.01159,-0.0593 -0.46109,-0.0823 -1.09841,0.27176 -1.09841,0.6102 0,0.15302 0.12578,0.43495 0.27943,0.62636 0.32212,0.40124 0.9076,0.50886 2.75908,0.50729 0.69633,0 1.53948,0.0469 1.87384,0.1055 0.33438,0.0586 0.82412,0.0549 1.08825,-0.008 0.26413,-0.0633 1.58593,-0.18356 2.93711,-0.26735 1.35122,-0.0838 2.68457,-0.2299 2.9631,-0.32475 0.62596,-0.21319 2.45631,-0.26488 4.13563,-0.11671 0.69634,0.0615 1.64602,0.0922 2.11024,0.0683 2.5102,-0.12941 3.96929,-0.14494 4.10278,-0.0437 0.17248,0.13088 0.94572,-0.5469 1.10011,-0.96433 0.0788,-0.21315 -0.0449,-0.3639 -0.51358,-0.62569 -0.30397,-0.16977 -0.5794,-0.27298 -1.00047,-0.32281 z m 2.42822,7.70634 c -0.17287,-0.0208 -0.45884,0.0325 -0.71263,0.16305 -0.22408,0.11528 -0.69626,0.18932 -1.04919,0.16462 -0.35292,-0.0247 -0.94536,0.0438 -1.31674,0.15219 -0.37136,0.10842 -0.78924,0.20894 -0.92851,0.22342 -0.55878,0.058 -2.65265,0.19232 -3.20739,0.2058 -0.32494,0.008 -1.16046,0.0496 -1.85678,0.0927 -0.69632,0.0431 -1.64577,0.0922 -2.10997,0.10879 -0.46424,0.0166 -1.03395,0.0476 -1.26605,0.0691 -0.61241,0.0566 -2.0421,0.13486 -2.53208,0.13865 -0.23211,0.002 -0.53605,0.0317 -0.67531,0.0664 -0.13926,0.0347 -0.55713,0.0627 -0.92851,0.0622 -0.37137,0 -0.789,0.008 -0.92827,0.0182 -0.13926,0.0104 -0.55712,0.0382 -0.92851,0.0619 -0.37136,0.0238 -0.78926,0.0846 -0.92851,0.13513 -0.13928,0.0505 -0.55689,0.0919 -0.92827,0.0919 -1.11792,0 -2.83701,0.39935 -3.04591,0.70799 -0.0584,0.0862 0.0206,0.3678 0.17533,0.62579 0.22817,0.38035 0.36656,0.45961 0.73191,0.41854 0.24782,-0.0279 0.85047,-0.0599 1.33924,-0.0711 0.48878,-0.0113 0.94456,-0.0462 1.01283,-0.0778 0.0683,-0.0315 0.49782,-0.0548 0.95447,-0.0516 0.45668,0.003 1.29219,-0.0431 1.85678,-0.10288 0.56462,-0.0597 1.48245,-0.11392 2.03951,-0.12069 0.55707,-0.007 1.73439,-0.0198 2.61641,-0.0286 0.88201,-0.009 2.7273,-0.13548 4.10055,-0.28161 1.37325,-0.14614 2.62663,-0.23027 2.78527,-0.18683 0.15867,0.0434 0.60186,0.0336 0.98491,-0.0216 0.38303,-0.0552 0.9146,-0.10197 1.18147,-0.10396 0.26686,-0.002 0.78909,-0.0767 1.16045,-0.16604 0.37139,-0.0893 0.78925,-0.14995 0.92851,-0.13514 1.25021,0.13476 2.30594,-0.61396 2.09466,-1.48552 -0.0727,-0.2999 -0.19336,-0.4362 -0.35188,-0.39769 -0.13371,0.0325 -0.1952,-0.009 -0.13797,-0.0939 0.0706,-0.10435 0.005,-0.16529 -0.12982,-0.18147 z m -9.5084,9.99422 c -0.25448,-0.0347 -0.7422,-0.0253 -1.67281,-0.0248 -0.50086,0 -1.65023,0.0504 -3.12308,0.13609 -0.41777,0.0243 -1.2154,0.0946 -1.77245,0.15629 -1.64167,0.18179 -3.27284,0.22115 -3.53205,0.0852 -0.13272,-0.0696 -0.33212,-0.0299 -0.44311,0.0882 -0.111,0.11813 -0.30405,0.20053 -0.42904,0.18295 -0.1426,-0.0201 -0.18706,0.0783 -0.11942,0.2641 0.0744,0.20424 0.0441,0.24774 -0.0974,0.14033 -0.14662,-0.11137 -0.18755,-0.0206 -0.14291,0.31913 0.0353,0.26829 0.20389,0.55074 0.38747,0.64849 0.43526,0.23167 0.41177,0.22856 1.08479,0.14806 0.32496,-0.0389 0.97071,-0.061 1.43493,-0.049 0.46422,0.0119 1.83154,-0.0341 3.0385,-0.10222 1.20696,-0.0682 2.3464,-0.10302 2.53209,-0.0788 1.16793,0.15576 1.72553,0.052 2.40596,-0.4472 0.53121,-0.38968 0.71808,-0.65191 0.7176,-1.0085 0,-0.29825 0.0581,-0.41416 -0.26903,-0.45823 z m 40.63695,36.01796 c -0.7444,-0.0963 -1.18934,-0.0311 -2.0363,0.29794 -0.59602,0.23156 -1.07705,0.49787 -1.06921,0.59184 0.008,0.0939 -0.0483,0.23787 -0.12463,0.31998 -0.0763,0.0821 -0.1625,0.42704 -0.19165,0.76654 -0.0396,0.461 0.0445,0.73469 0.3321,1.08131 0.21178,0.25525 0.41866,0.73936 0.45967,1.07581 0.041,0.33646 0.15712,0.83691 0.25817,1.11198 0.10104,0.27507 0.22497,1.2654 0.27521,2.2009 0.0502,0.93516 0.1562,1.79196 0.23541,1.90425 0.18287,0.25779 0.76815,0.30186 1.02938,0.0774 0.10998,-0.0945 0.13745,-0.18071 0.0611,-0.19146 -0.0764,-0.0107 -0.0464,-0.11774 0.0665,-0.23791 0.13974,-0.14869 0.16414,-0.45541 0.0762,-0.96008 -0.20204,-1.15877 -0.11703,-2.1816 0.2072,-2.49425 0.16014,-0.1544 0.37792,-0.23525 0.48392,-0.17966 0.44416,0.23297 1.82201,-0.005 2.65128,-0.45741 1.0076,-0.54994 1.3085,-0.94636 1.20274,-1.58513 -0.0401,-0.24271 -0.0745,-0.57619 -0.0759,-0.74087 -0.002,-0.16474 -0.0699,-0.26755 -0.15158,-0.22855 -0.1958,0.0934 -0.84331,-0.69984 -0.84666,-1.0373 -0.002,-0.23206 -0.0222,-0.2362 -0.16617,-0.0338 -0.1476,0.20759 -0.18799,0.17564 -0.15875,-0.1257 0.0143,-0.14561 -0.88701,-0.72 -0.99032,-0.63122 -0.0473,0.0406 -0.19601,-0.0328 -0.33063,-0.16375 -0.1346,-0.13065 -0.6732,-0.29307 -1.19703,-0.36086 z m -0.15331,1.5266 c 0.21033,0.0313 0.7972,0.1789 1.30411,0.32773 0.8607,0.25268 0.92898,0.3075 1.03211,0.82702 0.12393,0.62402 -0.26056,1.06096 -1.02544,1.1657 -0.23211,0.0318 -0.53579,0.0702 -0.67504,0.0852 -0.65507,0.0708 -1.85703,-1.07874 -1.85703,-1.77616 0,-0.32856 0.7274,-0.70335 1.22129,-0.62953 z m -9.60312,-0.70084 c -0.20811,-0.0162 -0.30318,0.0472 -0.44485,0.17823 -0.16608,0.15359 -0.25547,0.28576 -0.1988,0.29373 0.0567,0.008 -0.0163,0.11712 -0.16222,0.24248 -0.14591,0.12537 -0.26533,0.32835 -0.26533,0.45103 0,0.12271 -0.10966,0.24984 -0.24382,0.28244 -0.41018,0.0997 -0.50276,1.1598 -0.19658,2.25219 0.37854,1.35053 0.72618,3.25908 0.76236,4.18461 0.034,0.87101 0.0807,1.15562 0.26185,1.59961 0.0706,0.17315 0.0767,0.58371 0.0133,0.9126 -0.0806,0.41846 -0.0482,0.65005 0.10808,0.77114 0.35046,0.27153 0.51076,0.24889 0.98537,-0.13902 0.42558,-0.34783 0.43735,-0.40761 0.30291,-1.51889 -0.23156,-1.91405 -0.0669,-2.7502 0.5252,-2.66685 0.16742,0.0236 0.65552,-0.19235 1.08456,-0.47988 0.92383,-0.61911 1.46052,-1.65525 1.57191,-3.0346 0.0727,-0.90045 0.0492,-0.97731 -0.45201,-1.46962 -0.29088,-0.28567 -0.46621,-0.51144 -0.38945,-0.50064 0.50953,0.0677 -1.10234,-0.72929 -2.13917,-1.05802 -0.59393,-0.18827 -0.91526,-0.28433 -1.12336,-0.30054 z m 0.82836,1.58862 c 0.50625,0.0753 1.06159,0.32409 1.44655,0.73525 0.4053,0.43287 0.41152,0.47314 0.19263,1.22416 -0.12451,0.4272 -0.37763,0.92951 -0.56255,1.11615 -0.34598,0.34921 -0.95052,0.39435 -0.95052,0.0709 0,-0.10012 -0.29795,-0.51016 -0.66195,-0.91115 -0.67766,-0.74647 -0.74313,-0.89831 -0.70844,-1.63999 0.0235,-0.50164 0.59337,-0.69205 1.24428,-0.59536 z m -39.22601,-5.35353 c -0.27114,-0.0232 -0.23752,0.30818 0.10139,0.99248 0.40241,0.81259 0.97789,2.79593 1.16564,4.01709 0.13525,0.87985 0.76344,3.92194 0.87065,4.21642 0.0867,0.23809 0.34091,2.06715 0.475,3.4189 0.0338,0.33986 0.20482,0.78884 0.38031,0.99786 0.29394,0.35001 0.35464,0.36517 0.76828,0.18899 0.27772,-0.11827 0.47585,-0.37049 0.51927,-0.66057 0.0387,-0.25798 0.0266,-0.47596 -0.0269,-0.4835 -0.0536,-0.008 -0.11599,-0.37769 -0.13847,-0.82139 -0.063,-1.24418 -0.71415,-4.2124 -1.06007,-4.83257 -0.0562,-0.10076 -0.12279,-0.47964 -0.14811,-0.8418 -0.0337,-0.48338 0.009,-0.61678 0.16025,-0.50191 0.11342,0.0861 0.0337,-0.10111 -0.17706,-0.41586 -0.21077,-0.31474 -0.33825,-0.6828 -0.28338,-0.81807 0.0549,-0.13526 0.0252,-0.30255 -0.066,-0.37179 -0.0913,-0.0692 -0.14809,-0.21272 -0.12612,-0.31868 0.0219,-0.10595 -0.0688,-0.39774 -0.20153,-0.64853 -0.40584,-0.76659 -0.65206,-1.61103 -0.46192,-1.58425 0.2528,0.0356 -0.90287,-1.13082 -1.37853,-1.39135 -0.15809,-0.0866 -0.28227,-0.13373 -0.37264,-0.14147 z m 30.655,5.19978 c -0.0397,-0.009 -0.0856,-0.0138 -0.13599,-0.0163 -0.55596,-0.0276 -1.12633,0.0946 -1.12633,0.2413 0,0.072 -0.17092,0.15102 -0.37981,0.17576 -0.2089,0.0247 -0.96209,0.55555 -1.67355,1.1796 -1.59599,1.39989 -2.24467,2.58505 -2.10431,3.84441 0.0502,0.45063 0.20877,0.95303 0.35212,1.11654 0.14334,0.16352 0.26063,0.35916 0.26063,0.43455 0,0.20384 0.63494,0.47982 1.77247,0.77073 1.47814,0.37801 2.42018,0.42761 3.40445,0.17899 0.92991,-0.23484 1.27608,-0.44812 2.68663,-1.65493 0.98359,-0.84152 1.21622,-1.27476 0.9075,-1.69021 -0.35603,-0.47911 -0.95859,-0.42157 -1.46312,0.13975 -0.25928,0.28844 -0.54735,0.51524 -0.64019,0.50409 -0.0928,-0.0113 -0.64647,0.28599 -1.23019,0.6604 -1.0022,0.64279 -1.11967,0.67331 -2.10998,0.54794 -0.57682,-0.073 -1.37132,-0.15178 -1.76555,-0.17531 -0.69613,-0.0415 -0.71384,-0.0551 -0.61744,-0.47116 0.0546,-0.23562 0.12783,-0.68063 0.16272,-0.98919 0.0349,-0.30855 0.19318,-0.74205 0.35186,-0.96331 0.38276,-0.53367 1.62419,-1.64313 1.81302,-1.61989 0.16432,0.0202 0.6784,-0.43802 1.19902,-1.06859 0.18452,-0.22347 0.45666,-0.38922 0.60484,-0.36838 0.14819,0.0208 0.26927,-0.076 0.26927,-0.21529 0,-0.13926 -0.10563,-0.26809 -0.2349,-0.28628 -0.12924,-0.0182 -0.19854,-0.0871 -0.15381,-0.1532 0.0335,-0.0496 -0.0302,-0.0971 -0.14936,-0.12191 z m -35.0231,-3.10993 c -0.34185,-0.0285 -0.38105,0.33008 -0.20597,1.29417 0.46939,2.5847 0.68759,4.16888 0.88325,6.41374 0.24863,2.85244 0.45206,3.80647 0.8907,4.17546 0.45905,0.38616 0.50592,0.39014 0.72377,0.0611 0.19285,-0.29132 0.18223,-2.49481 -0.0181,-3.75864 -0.0677,-0.42732 -0.13242,-1.02497 -0.14366,-1.32827 -0.0113,-0.30334 -0.061,-0.55731 -0.11077,-0.56431 -0.0497,-0.007 -0.10671,-0.16686 -0.12661,-0.35535 -0.0199,-0.18849 -0.0526,-0.49148 -0.0725,-0.67314 -0.0199,-0.18166 -0.0957,-0.3016 -0.16864,-0.2668 -0.0729,0.0349 -0.13279,-0.0129 -0.13279,-0.10574 0,-0.0928 0.0694,-0.20173 0.15404,-0.24217 0.0864,-0.0412 0.0204,-0.45793 -0.15058,-0.94969 -0.16754,-0.4819 -0.26132,-0.91318 -0.20845,-0.95858 0.0529,-0.0454 -0.0503,-0.21399 -0.22924,-0.37451 -0.17893,-0.16055 -0.24089,-0.28251 -0.13771,-0.27085 0.23432,0.0263 0.0928,-0.83633 -0.14269,-0.86948 -0.0929,-0.013 -0.12896,-0.1701 -0.0804,-0.34908 0.0562,-0.20697 0.0222,-0.29384 -0.0935,-0.23866 -0.11266,0.0538 -0.14324,-0.008 -0.0804,-0.16339 0.0682,-0.16814 -0.0182,-0.29814 -0.26384,-0.39692 -0.11222,-0.0452 -0.20721,-0.0723 -0.2861,-0.0788 z m 15.76,2.87529 c -0.0357,-0.003 -0.0248,0.0385 0.0237,0.12376 0.0893,0.15708 0.0256,0.17529 -0.21934,0.0631 -1.47712,-0.67671 -2.55482,-0.19549 -3.81665,1.70409 -0.5867,0.88324 -0.60707,0.96882 -0.60707,2.55421 0,2.02751 0.16819,2.49378 1.51924,4.21177 0.58317,0.74153 0.60372,0.75218 1.57119,0.8099 1.24993,0.0746 2.71202,-0.41678 3.5281,-1.18537 0.34426,-0.32422 0.59531,-0.64344 0.55784,-0.70929 -0.0777,-0.13672 0.29811,-1.24622 0.47304,-1.39655 0.16676,-0.14328 0.14238,-0.97134 -0.0428,-1.45008 -0.0872,-0.22556 -0.20609,-0.77905 -0.26409,-1.23002 -0.0679,-0.5282 -0.17099,-0.78875 -0.28956,-0.73215 -0.11781,0.0562 -0.13493,0.0153 -0.0477,-0.11354 0.0814,-0.12034 0.0409,-0.28919 -0.10066,-0.41993 -0.13024,-0.12031 -0.34268,-0.43905 -0.47205,-0.70812 -0.13996,-0.29113 -0.43036,-0.5596 -0.71733,-0.66303 -0.26522,-0.0956 -0.48219,-0.24085 -0.48219,-0.32304 0,-0.0822 -0.16114,-0.25856 -0.35805,-0.39163 -0.13787,-0.0932 -0.22001,-0.14091 -0.25567,-0.14405 z m -0.33308,1.14693 c 0.22217,0.0196 0.39946,0.14576 0.7851,0.45521 0.92041,0.73866 1.18067,1.24975 1.38225,2.71479 0.17028,1.23745 0.1617,1.2963 -0.31157,2.09949 -0.55401,0.94037 -1.00426,1.25192 -1.23265,0.85369 -0.0798,-0.1392 -0.23272,-0.21109 -0.34001,-0.15988 -0.1073,0.0512 -0.30569,-0.0142 -0.44088,-0.14537 -0.19359,-0.18784 -0.24579,-0.19238 -0.24579,-0.021 0,0.11964 -0.051,0.15963 -0.11326,0.0886 -0.0622,-0.071 -0.30598,-0.0299 -0.54177,0.0914 -0.23579,0.12132 -0.60303,0.21514 -0.81601,0.20855 -0.33382,-0.0104 -0.37627,-0.0725 -0.3076,-0.45029 0.0438,-0.241 0.23395,-0.52068 0.4226,-0.62151 0.33759,-0.18043 0.5026,-0.57578 0.17505,-0.41945 -0.0924,0.0441 -0.25129,-0.11392 -0.35285,-0.35112 -0.1393,-0.32532 -0.28385,-0.42621 -0.58924,-0.41081 -0.59421,0.0299 -0.64299,-0.34382 -0.19265,-1.47836 0.49235,-1.24035 1.39149,-2.21016 2.21632,-2.39076 0.2203,-0.0482 0.36966,-0.075 0.50296,-0.0632 z m -36.8591,-2.38048 c -0.22987,-0.0324 -0.56016,1.25084 -0.41321,1.60526 0.0673,0.16222 0.1087,0.38081 0.092,0.48574 -0.0167,0.10491 0.11655,0.4655 0.29622,0.80133 0.57324,1.07137 0.7149,2.87084 0.4639,5.8945 -0.0723,0.87137 -0.0308,1.37304 0.15182,1.83588 0.28801,0.72987 0.27345,0.72215 0.91417,0.48103 0.42929,-0.16158 0.48524,-0.27788 0.51433,-1.06704 0.0179,-0.48716 0.0445,-1.08687 0.0586,-1.33273 0.036,-0.62397 0.71052,-1.18369 1.6194,-1.34372 0.42324,-0.0746 1.13001,-0.21054 1.57069,-0.30215 0.7248,-0.15072 0.83928,-0.13646 1.19876,0.14969 0.21857,0.17395 0.52444,0.60205 0.67977,0.95123 0.26174,0.58839 0.26259,0.71139 0.0109,1.67806 l -0.27174,1.04307 0.41592,0.50734 c 0.23374,0.28514 0.52276,0.48139 0.65946,0.44817 0.55328,-0.13444 1.29088,-3.95002 0.77768,-4.02226 -0.0644,-0.009 -0.24802,-0.25694 -0.40825,-0.55076 -0.16023,-0.29382 -0.48739,-0.66251 -0.72698,-0.81942 -0.2396,-0.15692 -0.4736,-0.33011 -0.52001,-0.38476 -0.0464,-0.0546 -0.44912,-0.24508 -0.89465,-0.42313 -0.62529,-0.24988 -0.89461,-0.29007 -1.18146,-0.1769 -0.20439,0.0806 -0.38996,0.1331 -0.41222,0.11682 -0.0499,-0.0365 -0.52163,0.0459 -0.97228,0.16975 -0.94708,0.26046 -1.25623,0.18302 -1.58107,-0.39686 -0.21064,-0.37601 -0.29475,-0.78766 -0.25518,-1.2488 0.0324,-0.37833 -0.009,-0.77979 -0.0922,-0.89229 -0.0832,-0.11248 -0.20709,-0.51631 -0.27521,-0.89727 -0.0681,-0.38097 -0.30342,-0.9333 -0.52274,-1.22734 -0.21934,-0.29406 -0.35913,-0.59314 -0.31058,-0.66488 0.0486,-0.0717 -4.6e-4,-0.19797 -0.10929,-0.28046 -0.12342,-0.0936 -0.15238,-0.0705 -0.0772,0.0618 0.0663,0.11652 0.0399,0.20047 -0.0584,0.18662 -0.0983,-0.0138 -0.17878,-0.10096 -0.17878,-0.1938 0,-0.0928 -0.0729,-0.17915 -0.1622,-0.19171 z m 45.56536,7.70622 c -0.22227,-0.0222 -0.40479,0.024 -0.56081,0.13471 -0.17222,0.12223 -0.36197,0.17722 -0.42185,0.12236 -0.0599,-0.0549 -0.12979,0.20135 -0.15529,0.56913 -0.0383,0.55204 0.0439,0.77705 0.47253,1.29027 v 5e-5 c 0.53238,0.6375 0.95907,0.80861 1.47497,0.59162 0.16122,-0.0678 0.57788,-0.195 0.92605,-0.28287 0.36632,-0.0925 0.63302,-0.27435 0.63302,-0.43165 0,-0.15465 -0.0798,-0.23354 -0.18545,-0.18313 -0.13459,0.0642 -0.13546,0.002 -0.003,-0.2274 0.16351,-0.28247 0.0916,-0.37649 -0.67753,-0.88687 -0.65181,-0.43259 -1.1325,-0.65924 -1.50292,-0.6962 z m -31.57439,-3.25406 c -0.26217,-0.0301 -0.59225,-0.0412 -0.83059,-0.0145 -1.06618,0.11896 -1.54119,0.46953 -2.0526,1.51493 -0.6276,1.28292 -0.763,3.51993 -0.25148,4.15714 0.15303,0.19066 0.27842,0.40951 0.27842,0.48627 0,0.31856 0.90624,1.42174 1.40451,1.71051 v -0.002 c 0.57266,0.331 1.20496,0.37651 2.55064,0.18344 0.45786,-0.0657 1.05665,-0.0879 1.33058,-0.0493 0.56319,0.0793 1.63522,-0.36595 1.63522,-0.67907 0,-0.11347 0.25031,-0.41367 0.55636,-0.6672 0.37183,-0.30808 0.55396,-0.61541 0.54871,-0.92648 -0.004,-0.25596 -0.0753,-0.44974 -0.15776,-0.43019 -0.0825,0.0195 -0.2134,-0.0747 -0.29081,-0.20959 -0.10987,-0.19146 -0.1964,-0.17364 -0.39563,0.0811 -0.32597,0.41676 -1.47942,0.91072 -2.45543,1.05173 -0.41779,0.0604 -1.06589,0.17259 -1.44036,0.24954 -0.37448,0.077 -0.80788,0.12219 -0.96288,0.10037 -0.529,-0.0745 -1.11559,-0.53647 -1.21808,-0.95927 -0.0563,-0.23218 -0.15974,-0.39475 -0.22997,-0.36123 -0.0702,0.0335 -0.13517,-0.10527 -0.1444,-0.30866 -0.0207,-0.45679 0.26728,-1.42371 0.4216,-1.41515 0.0624,0.003 0.41744,0.0116 0.7888,0.0183 0.37138,0.007 1.16899,0.0628 1.77246,0.1246 1.40511,0.14393 2.17716,-0.17057 2.31151,-0.94143 0.0631,-0.36181 -0.29017,-1.07864 -0.54944,-1.11513 -0.11363,-0.016 -0.25047,-0.14946 -0.3039,-0.29624 -0.0534,-0.14678 -0.23882,-0.28657 -0.41195,-0.31094 -0.17312,-0.0244 -0.37176,-0.10953 -0.44138,-0.18899 -0.0696,-0.0794 -0.17723,-0.16155 -0.23913,-0.18276 -0.43694,-0.14967 -0.85706,-0.40755 -0.80042,-0.49125 0.0339,-0.0501 -0.1604,-0.0995 -0.4226,-0.12969 z m 0.34224,1.44799 c 0.99859,0.14055 1.35502,0.74409 0.55735,0.94366 -0.67061,0.16778 -2.43665,-0.0167 -2.35775,-0.2463 0.12737,-0.37063 1.19207,-0.78299 1.8004,-0.69736 z"
         style="fill:#f7df1e;fill-opacity:1;stroke:none;stroke-width:0.1089994;stroke-linejoin:round;stroke-miterlimit:4;stroke-dasharray:none;stroke-opacity:1" />
    </g>
  </g>
</svg>
