<?xml version="1.0" encoding="UTF-8" standalone="no"?>
<!-- Created with Inkscape (http://www.inkscape.org/) -->

<svg
   xmlns:dc="http://purl.org/dc/elements/1.1/"
   xmlns:cc="http://creativecommons.org/ns#"
   xmlns:rdf="http://www.w3.org/1999/02/22-rdf-syntax-ns#"
   xmlns:svg="http://www.w3.org/2000/svg"
   xmlns="http://www.w3.org/2000/svg"
   xmlns:sodipodi="http://sodipodi.sourceforge.net/DTD/sodipodi-0.dtd"
   xmlns:inkscape="http://www.inkscape.org/namespaces/inkscape"
   width="508mm"
   height="285.75mm"
   viewBox="0 0 508 285.75"
   version="1.1"
   id="svg8"
   sodipodi:docname="overlay-asmjs.svg"
   inkscape:version="0.92.2 (5c3e80d, 2017-08-06)">
  <defs
     id="defs2" />
  <sodipodi:namedview
     id="base"
     pagecolor="#ffffff"
     bordercolor="#666666"
     borderopacity="1.0"
     inkscape:pageopacity="0.0"
     inkscape:pageshadow="2"
     inkscape:zoom="0.35"
     inkscape:cx="1551.4286"
     inkscape:cy="177.14287"
     inkscape:document-units="mm"
     inkscape:current-layer="layer1"
     showgrid="false"
     fit-margin-top="0"
     fit-margin-left="0"
     fit-margin-right="0"
     fit-margin-bottom="0"
     inkscape:window-width="1920"
     inkscape:window-height="1016"
     inkscape:window-x="0"
     inkscape:window-y="27"
     inkscape:window-maximized="1" />
  <metadata
     id="metadata5">
    <rdf:RDF>
      <cc:Work
         rdf:about="">
        <dc:format>image/svg+xml</dc:format>
        <dc:type
           rdf:resource="http://purl.org/dc/dcmitype/StillImage" />
        <dc:title></dc:title>
      </cc:Work>
    </rdf:RDF>
  </metadata>
  <g
     inkscape:label="Layer 1"
     inkscape:groupmode="layer"
     id="layer1"
     transform="translate(136.07143,85.511902)">
    <path
       style="fill:#ffffff;fill-opacity:1;stroke-width:1"
       d="m -43.01298,76.308221 c -0.53423,-0.11374 -1.40844,-0.25045 -1.94268,-0.3038 -1.0867,-0.10853 -1.80133,-0.29815 -2.46571,-0.65424 -1.12016,-0.60039 -1.36829,-1.13109 -0.83034,-1.77593 0.34646,-0.4153 0.77329,-0.43211 1.0181,-0.0401 0.28326,0.45357 1.5147,0.99407 2.35267,1.03262 0.41095,0.0189 1.01617,0.10577 1.34493,0.19303 0.8333,0.22116 1.5696,0.28497 3.2129,0.2784 1.75365,-0.007 2.3334,-0.0843 2.76772,-0.36883 0.34727,-0.22755 0.93035,-1.61296 1.26279,-3.00044 0.0985,-0.41095 0.2123,-0.88168 0.25296,-1.04606 0.13012,-0.52605 0.27829,-7.80996 0.17146,-8.42873 -0.0566,-0.32781 -0.17096,-1.20559 -0.25414,-1.95063 -0.0832,-0.74534 -0.25507,-1.50284 -0.38209,-1.68419 -0.21655,-0.30917 -0.20544,-0.34987 0.17942,-0.65703 0.39263,-0.31335 0.42957,-0.31679 0.85859,-0.0798 0.24657,0.13621 0.49173,0.30752 0.54481,0.38069 0.0859,0.11849 0.38349,2.86342 0.41485,3.82704 0.007,0.20548 0.0452,1.01244 0.0856,1.79325 0.11225,2.1705 0.11226,2.16404 -0.002,4.63255 -0.0591,1.27395 -0.1993,2.58526 -0.31154,2.91402 -0.11223,0.32876 -0.20503,0.78359 -0.20623,1.01073 -10e-4,0.22714 -0.0613,0.52975 -0.13357,0.67247 -0.0723,0.14271 -0.25083,0.62282 -0.39682,1.06689 -0.29758,0.90521 -0.84149,1.48156 -1.86278,1.97387 -0.56646,0.27307 -0.99049,0.3318 -2.68987,0.37258 -1.32731,0.0319 -2.34966,-0.0223 -2.98874,-0.15837 z m 17.33471,-4.01675 c -0.28766,-0.11427 -0.69114,-0.27721 -0.89662,-0.3621 -0.52049,-0.21504 -2.43238,-2.07897 -2.35882,-2.29966 0.10523,-0.31569 0.5449,-0.51419 0.77748,-0.35102 2.1898,1.53638 3.04515,1.90315 4.42064,1.89558 1.2579,-0.007 2.09213,-0.34397 2.09213,-0.84525 0,-1.14947 -1.53185,-3.11038 -4.41858,-5.6562 -0.87395,-0.77075 -1.32694,-1.71592 -1.2007,-2.50535 0.17659,-1.10436 0.30658,-1.22733 1.18709,-1.12297 0.97824,0.11594 1.53501,-0.1365 1.48025,-0.67116 -0.0356,-0.34698 0.0283,-0.38242 1.0196,-0.56574 1.21874,-0.22541 1.7055,-0.10265 2.18409,0.55082 0.23464,0.32038 0.26791,0.50124 0.16453,0.89429 -0.15865,0.60316 -0.53402,0.78509 -0.80639,0.39085 -0.4537,-0.6567 -0.52497,-0.69056 -1.23078,-0.58471 -1.04939,0.15736 -2.71279,1.11803 -2.71279,1.56673 0,0.0956 0.90783,1.06813 2.0174,2.16115 1.10957,1.09301 2.0174,2.08633 2.0174,2.20739 0,0.12104 0.13389,0.34126 0.29754,0.48936 0.28626,0.25906 1.00145,1.37575 1.03009,1.60837 0.008,0.062 0.11553,0.35604 0.23975,0.65335 0.12423,0.29732 0.22587,0.79676 0.22587,1.1099 0,0.62856 -0.35829,0.981 -1.34494,1.323 -0.82712,0.2867 -3.56135,0.36078 -4.18424,0.11337 z m -21.22007,-4.58263 c -0.20548,-0.16073 -0.58172,-0.29372 -0.8361,-0.29555 -0.54252,-0.004 -0.95809,-0.40069 -0.95486,-0.91171 0.003,-0.52629 0.151,-0.68256 0.81962,-0.86739 0.92346,-0.25528 1.70978,-0.21457 1.82735,0.0946 0.0547,0.14383 0.24916,0.38002 0.43215,0.52485 0.46969,0.37176 0.60439,1.09777 0.27185,1.46523 -0.33733,0.37274 -1.07674,0.36798 -1.56001,-0.0101 z m -6.32617,-2.64005 c -0.20683,-0.20682 -0.0841,-0.6101 0.38128,-1.25323 0.2645,-0.3655 0.52346,-0.69818 0.57548,-0.73927 0.23382,-0.18474 0.33841,-1.13001 0.34721,-3.13818 0.008,-1.91593 -0.0297,-2.26465 -0.32875,-3.01153 -0.79303,-1.98048 -2.09678,-2.86647 -4.287746,-2.91386 -1.071719,-0.0232 -1.301048,0.0347 -2.465713,0.62202 -0.760165,0.38337 -0.791472,0.56916 -0.339681,2.01575 0.08984,0.28767 0.164068,0.6239 0.164948,0.74719 9.04e-4,0.12329 0.01127,0.66126 0.02308,1.1955 0.01495,0.67594 -0.08652,1.28945 -0.333671,2.0174 -0.31005,0.91322 -0.425717,1.08111 -0.910837,1.32207 -0.443696,0.22039 -0.599937,0.23928 -0.775259,0.0938 -0.3036,-0.25196 -0.274842,-0.93088 0.05754,-1.35834 0.296965,-0.38192 0.629594,-1.61181 0.601586,-2.22435 -0.03965,-0.86725 -0.355382,-2.20204 -0.636082,-2.68913 -0.16601,-0.28808 -0.652055,-0.92752 -1.0801,-1.42098 -0.615479,-0.70955 -0.929668,-0.94263 -1.50212,-1.11433 -1.967546,-0.59013 -2.359867,-0.62459 -3.859856,-0.33903 -0.549745,0.10465 -0.603761,0.1592 -0.702055,0.70894 -0.05857,0.32756 -0.0749,0.99905 -0.0363,1.49219 0.05846,0.74683 -0.02797,2.25119 -0.30909,5.37974 -0.02216,0.24657 -0.04821,0.597 -0.0579,0.77872 -0.01716,0.32204 -0.543168,0.93981 -0.800192,0.93981 -0.210865,0 -0.544557,-0.94866 -0.419782,-1.1934 0.257714,-0.50552 0.415139,-6.31308 0.21559,-7.95327 -0.0743,-0.61066 -0.03721,-0.75185 0.281104,-1.07016 0.702606,-0.70261 3.883558,-0.81753 5.711811,-0.20635 1.189108,0.39751 1.361571,0.49368 2.267992,1.26478 0.699753,0.59528 0.825307,0.64843 1.314908,0.55658 0.297707,-0.0559 0.622044,-0.18127 0.72075,-0.2787 0.399728,-0.39458 1.627132,-0.59888 3.619327,-0.60244 0.819498,-0.002 1.172678,0.0712 1.614998,0.33215 0.31136,0.18371 0.63662,0.33402 0.7228,0.33402 0.53173,0 2.21723,2.05861 2.21723,2.70804 0,0.22687 0.061,0.45017 0.13545,0.49621 0.33997,0.21012 0.63576,1.60029 0.70891,3.33183 0.0687,1.62543 0.0385,1.95536 -0.27147,2.96665 -0.43543,1.42068 -1.18909,2.3028 -1.96747,2.3028 -0.27406,0 -0.54312,-0.0448 -0.59792,-0.0996 z m -27.896441,-3.17023 c -1.764338,-0.66378 -4.957429,-2.37224 -5.415591,-2.89759 -0.483388,-0.55428 -0.505516,-0.7242 -0.137671,-1.0571 0.369913,-0.33477 0.921826,-0.31143 1.290553,0.0546 0.317618,0.31526 2.560842,1.79025 2.722687,1.79025 0.05117,0 0.435758,0.1614 0.854641,0.35867 0.966848,0.45532 2.449137,0.81714 3.600911,0.87896 0.824946,0.0443 0.929311,0.0136 1.305541,-0.38422 0.346794,-0.36667 0.383416,-0.48136 0.241068,-0.75496 -0.160672,-0.30882 -1.074907,-1.61908 -1.394109,-1.99801 -1.069005,-1.26905 -2.43874,-2.67539 -3.248134,-3.33493 -0.551933,-0.44974 -1.138835,-1.01945 -1.304228,-1.26603 -0.165392,-0.24657 -0.537584,-0.77508 -0.827091,-1.17445 -0.656578,-0.90576 -0.707304,-1.65106 -0.156893,-2.30519 0.396355,-0.47103 2.387946,-1.59474 2.597213,-1.46541 0.06942,0.0429 0.275342,-0.0609 0.457605,-0.23072 0.182263,-0.16981 0.363878,-0.27624 0.403591,-0.23653 0.03971,0.0397 0.339276,0.0122 0.665696,-0.0611 0.476616,-0.10709 0.705202,-0.0764 1.160768,0.15605 0.90532,0.46186 1.080953,0.7833 0.673814,1.23319 -0.177176,0.19577 -0.314277,0.21861 -0.637016,0.1061 -0.423891,-0.14777 -1.82026,-0.1 -2.650018,0.0907 -0.258851,0.0595 -0.712767,0.30772 -1.008701,0.55166 -0.433364,0.35721 -0.538065,0.54669 -0.538065,0.97374 0,0.48762 0.203699,0.73241 2.535134,3.04651 1.394323,1.38396 2.812036,2.92195 3.150472,3.41776 0.338437,0.49581 0.678333,0.94041 0.755326,0.98799 0.07699,0.0476 0.305938,0.41401 0.508771,0.81428 0.41413,0.81725 0.383288,1.42404 -0.108168,2.12805 -0.512726,0.7345 -0.971195,0.88196 -2.95617,0.95083 -1.263169,0.0438 -1.543356,0.003 -2.541936,-0.37298 z m -10.938027,-2.19213 c -0.108904,-0.23902 -0.113472,-0.42049 -0.01381,-0.54844 0.0876,-0.11246 0.109502,-0.57871 0.05317,-1.13204 -0.115175,-1.13135 0.176672,-4.50909 0.506198,-5.85857 0.439225,-1.79871 0.450624,-1.94268 0.153822,-1.94268 -0.146829,0 -0.475049,0.15448 -0.729378,0.3433 -0.633508,0.47031 -2.911635,1.59452 -3.407224,1.68139 -0.222407,0.039 -0.975129,0.26502 -1.672718,0.50228 -1.529067,0.52008 -2.537323,0.67021 -3.194772,0.47571 -1.60326,-0.47431 -2.84028,-2.71362 -2.54372,-4.60476 0.12567,-0.80138 0.72234,-1.92958 0.91736,-1.73456 0.0543,0.0543 0.0988,0.0209 0.0988,-0.0744 0,-0.25767 0.81735,-0.94133 1.69323,-1.41628 0.64994,-0.35243 0.886044,-0.40483 1.48827,-0.3303 0.562169,0.0696 0.802696,0.0276 1.120775,-0.19569 0.222754,-0.15636 1.030577,-0.50124 1.795166,-0.76642 1.516831,-0.52607 2.749927,-0.5879 3.749757,-0.18802 0.420294,0.1681 0.528918,0.16897 0.632941,0.005 0.100757,-0.15876 0.232285,-0.13706 0.665522,0.10979 0.50951,0.29033 0.833129,0.70332 1.017738,1.29879 0.06346,0.20469 0.248218,0.26151 0.850371,0.26151 0.907146,0 0.907748,-0.18336 -0.0078,2.38076 -0.33549,0.93956 -0.707984,2.15 -0.827765,2.68987 -0.119782,0.53986 -0.314258,1.41868 -0.432167,1.95292 -0.343055,1.55435 -0.432665,2.62864 -0.401311,4.81115 l 0.0294,2.04655 -0.494109,0.26156 c -0.710816,0.37629 -0.86523,0.37208 -1.047759,-0.0285 z m -5.514345,-8.12987 c 0.553105,-0.24276 1.305243,-0.50852 1.67142,-0.59058 0.786837,-0.17634 2.311342,-0.8295 2.446502,-1.0482 0.05214,-0.0844 0.312904,-0.25689 0.579468,-0.38338 0.560279,-0.26587 2.19251,-1.74121 2.19251,-1.98176 0,-0.0893 0.07872,-0.18858 0.174934,-0.22065 0.125329,-0.0418 0.106928,-0.18303 -0.06489,-0.49813 -0.131901,-0.24189 -0.278351,-0.60793 -0.325443,-0.8134 -0.04709,-0.20548 -0.169197,-0.47447 -0.271345,-0.59775 -0.255306,-0.30813 -1.570653,-0.93573 -1.740786,-0.83058 -0.07611,0.047 -0.314317,0.0186 -0.529343,-0.0631 -0.430865,-0.16382 -1.228435,-0.0205 -2.622866,0.47149 -0.452047,0.15948 -1.225384,0.42683 -1.718529,0.59411 -0.49314,0.16728 -1.002783,0.39878 -1.132541,0.51443 -0.129757,0.11565 -0.283716,0.21028 -0.342128,0.21028 -0.05842,0 -0.449357,0.23109 -0.86876,0.51354 -0.62874,0.42341 -0.81127,0.65186 -1.04017,1.30183 -0.46316,1.3152 -0.31018,2.10965 0.6075,3.15483 0.728167,0.82934 1.538178,0.90181 2.984465,0.26703 z m 60.597553,2.02124 c -0.25481,-0.11093 -0.50699,-0.31554 -0.56039,-0.45469 -0.19775,-0.51532 -0.0923,-1.29318 0.23541,-1.73642 0.30265,-0.40936 0.38578,-0.44072 0.92626,-0.34941 0.70025,0.11831 1.43356,0.77944 1.42575,1.2854 -0.006,0.39388 -0.50612,1.04811 -0.99351,1.29989 -0.40282,0.20809 -0.45817,0.20569 -1.03352,-0.0448 z"
       id="path892"
       inkscape:connector-curvature="0" />
  </g>
</svg>
