<?xml version="1.0" encoding="UTF-8" standalone="no"?>
<!-- Created with Inkscape (http://www.inkscape.org/) -->

<svg
   xmlns:dc="http://purl.org/dc/elements/1.1/"
   xmlns:cc="http://creativecommons.org/ns#"
   xmlns:rdf="http://www.w3.org/1999/02/22-rdf-syntax-ns#"
   xmlns:svg="http://www.w3.org/2000/svg"
   xmlns="http://www.w3.org/2000/svg"
   xmlns:sodipodi="http://sodipodi.sourceforge.net/DTD/sodipodi-0.dtd"
   xmlns:inkscape="http://www.inkscape.org/namespaces/inkscape"
   width="508mm"
   height="285.75mm"
   viewBox="0 0 508 285.75"
   version="1.1"
   id="svg1417"
   inkscape:version="0.92.2 (5c3e80d, 2017-08-06)"
   sodipodi:docname="overlay-usecases-audio.svg">
  <defs
     id="defs1411" />
  <sodipodi:namedview
     id="base"
     pagecolor="#ffffff"
     bordercolor="#666666"
     borderopacity="1.0"
     inkscape:pageopacity="0.0"
     inkscape:pageshadow="2"
     inkscape:zoom="0.35355339"
     inkscape:cx="871.9359"
     inkscape:cy="62.948064"
     inkscape:document-units="mm"
     inkscape:current-layer="layer1"
     showgrid="false"
     fit-margin-top="0"
     fit-margin-left="0"
     fit-margin-right="0"
     fit-margin-bottom="0"
     inkscape:window-width="1920"
     inkscape:window-height="1016"
     inkscape:window-x="0"
     inkscape:window-y="27"
     inkscape:window-maximized="1"
     inkscape:snap-nodes="false" />
  <metadata
     id="metadata1414">
    <rdf:RDF>
      <cc:Work
         rdf:about="">
        <dc:format>image/svg+xml</dc:format>
        <dc:type
           rdf:resource="http://purl.org/dc/dcmitype/StillImage" />
        <dc:title></dc:title>
      </cc:Work>
    </rdf:RDF>
  </metadata>
  <g
     inkscape:label="Layer 1"
     inkscape:groupmode="layer"
     id="layer1"
     transform="translate(24.946428,-88.35714)">
    <g
       id="g2474"
       transform="matrix(0.43318258,-0.09898398,0.09898398,0.43318258,356.0964,247.39348)"
       style="fill:#ffffff;stroke-width:2.25048923">
      <path
         inkscape:connector-curvature="0"
         id="path2446"
         d="m -433.72767,14.273808 12.43541,-0.529167 10.05417,-10.5833333 7.67292,-15.0812497 1.85208,3.1749999 -3.70417,66.6749991 -3.96875,-0.79375 -13.75833,-21.960416 -12.17083,-1.058334 z"
         style="fill:#ffffff;fill-opacity:0.24705882;fill-rule:evenodd;stroke:#000000;stroke-width:0.59544194px;stroke-linecap:butt;stroke-linejoin:miter;stroke-opacity:1" />
      <path
         inkscape:connector-curvature="0"
         id="path1380"
         d="m -403.37361,-11.944842 c -0.0968,0.0023 -0.19587,0.008 -0.29738,0.01737 -0.18486,0.01696 -0.63878,0.502284 -1.00856,1.078553 -0.36979,0.576281 -0.97215,1.4065382 -1.33855,1.8450681 -0.36636,0.4385357 -0.98102,1.4146374 -1.36577,2.1690802 -0.96198,1.8862877 -1.98755,3.7815914 -2.17925,4.0270107 -0.0878,0.1123289 -0.87129,1.5792229 -1.74095,3.25990777 -1.41814,2.74062523 -2.52421,4.46650923 -4.63046,7.22498363 -0.91894,1.2034981 -4.85227,4.9373616 -5.43827,5.1624076 -0.26005,0.09988 -1.1331,0.1835 -1.9402,0.186395 -0.8071,0.0029 -1.88108,0.102747 -2.38659,0.221995 -0.50549,0.119247 -2.29773,0.20656 -3.98273,0.19417 -1.68501,-0.01239 -3.27044,-0.0209 -3.52319,-0.01974 -0.25275,0.0017 -0.45955,-0.08848 -0.45955,-0.199555 0,-0.289651 -0.72954,-0.249263 -0.96785,0.05355 -0.36305,0.461334 -0.49536,1.834304 -0.57144,5.926826 -0.0413,2.22063 -0.14643,4.150723 -0.23366,4.289094 -0.0872,0.13837 -0.22865,1.997692 -0.31444,4.132029 -0.0858,2.134337 -0.20092,4.726877 -0.2558,5.761077 -0.0934,1.759289 -0.0713,1.900427 0.34555,2.192418 0.32419,0.227078 0.48516,0.247972 0.59088,0.07689 0.0799,-0.129327 0.42517,-0.23516 0.76712,-0.23516 0.34193,0 0.58713,-0.05598 0.54481,-0.124458 -0.0423,-0.06851 0.58211,-0.114483 1.38761,-0.102325 0.80551,0.01216 1.61283,-0.05089 1.7939,-0.140015 0.19692,-0.09692 0.48052,-0.05124 0.70608,0.11369 0.20739,0.151669 0.51183,0.224137 0.67645,0.160961 0.21654,-0.0831 0.26233,-0.01806 0.16515,0.235154 -0.0848,0.220895 -0.0415,0.334631 0.11758,0.308462 0.13861,-0.02281 0.48179,0.02107 0.76262,0.09753 0.28084,0.07645 1.15418,0.170937 1.9405,0.209732 2.05454,0.101295 2.82002,0.406647 2.92991,1.168611 0.0388,0.269365 0.16695,0.606618 0.28453,0.749753 0.11756,0.143129 0.16127,0.312636 0.0972,0.376674 -0.064,0.06403 0.18901,0.384728 0.56218,0.712353 0.58761,0.515925 1.05473,1.412669 0.96455,1.851651 -0.0155,0.0755 0.2257,0.409315 0.53614,0.741671 0.31047,0.332355 0.52926,0.709973 0.48618,0.839219 -0.0431,0.129257 0.0309,0.209321 0.16425,0.177704 0.13333,-0.03161 0.34872,0.126276 0.47869,0.350946 0.12996,0.224669 0.32807,0.476052 0.4404,0.558582 0.11233,0.08252 0.12118,0.151443 0.0197,0.153174 -0.10144,0.0017 -5.8e-4,0.163932 0.22349,0.360522 0.22426,0.196578 0.3643,0.485095 0.31116,0.641147 -0.0588,0.172569 -0.006,0.227958 0.13403,0.141213 0.1269,-0.07844 0.23067,-0.04539 0.23067,0.0736 0,0.118958 0.13786,0.216304 0.30636,0.216304 0.1685,6e-6 0.30636,0.0912 0.30636,0.202553 0,0.111357 0.26196,0.456015 0.58193,0.765907 0.31996,0.309897 0.64374,0.818544 0.71983,1.130324 0.0761,0.311773 0.29693,0.734503 0.49066,0.93943 0.57304,0.606167 1.07031,1.250886 0.96486,1.250886 -0.10432,0 0.38859,0.640834 0.95321,1.23922 0.1872,0.198419 0.30154,0.399485 0.254,0.446976 -0.0475,0.04747 0.0981,0.253207 0.32341,0.457155 0.22535,0.203943 0.40989,0.49455 0.40989,0.64564 0,0.15109 0.20679,0.481442 0.45955,0.73419 0.25275,0.252754 0.46144,0.505405 0.46434,0.561569 0.0161,0.332894 1.22938,2.506258 1.44534,2.589136 0.14311,0.05488 0.21158,0.22636 0.15229,0.380866 -0.0685,0.178434 0.0845,0.329026 0.41976,0.413172 0.29026,0.07285 0.48195,0.206565 0.42603,0.297085 -0.0559,0.09054 0.12879,0.139488 0.41019,0.108606 0.28138,-0.03092 0.5116,0.01366 0.5116,0.09933 0,0.08566 0.30475,0.155878 0.67735,0.155878 0.37262,0 1.03755,0.193128 1.47767,0.429029 0.96327,0.516284 0.99432,0.518055 1.42171,0.09065 0.53155,-0.531539 0.68669,-1.139286 0.80063,-3.135444 0.0584,-1.022951 0.1569,-1.942055 0.219,-2.042526 0.13396,-0.216766 0.36019,-4.706891 0.62768,-12.45741 0.11334,-3.284038 0.23838,-5.256424 0.38176,-6.024953 0.0629,-0.337004 0.16772,-1.807644 0.23306,-3.267984 0.20502,-4.581785 0.56716,-9.824853 0.80421,-11.641836 0.0586,-0.449333 0.11086,-1.919979 0.11549,-3.267978 0.005,-1.348006 0.0905,-2.910364 0.19028,-3.472026 0.15978,-0.899158 0.34714,-3.323425 0.50502,-6.5356674 0.0276,-0.5616679 0.16561,-2.3539002 0.30666,-3.9827338 0.27339,-3.15727065 0.33069,-9.908881 0.0928,-10.9270786 -0.0788,-0.3369985 -0.13863,-0.9925556 -0.13284,-1.4570228 0.015,-1.2477824 -0.8947,-1.9952544 -2.34679,-1.9611484 z m 0.19177,3.1402318 c 0.0261,-0.00116 0.051,5.79e-4 0.0742,0.00521 0.45794,0.088193 0.5438,0.7894471 0.54032,4.4087682 -0.001,1.4884195 0.0616,2.7064147 0.14003,2.7064147 0.0784,0 0.0646,0.4825248 -0.0305,1.07227207 -0.44029,2.73118823 -0.7257,5.41082053 -0.62978,5.91127543 0.058,0.3024696 0.004,0.9917857 -0.11938,1.5318181 -0.12363,0.5400382 -0.27819,2.172525 -0.34346,3.6278977 -0.0653,1.455367 -0.15223,2.700416 -0.19327,2.766852 -0.041,0.06644 -0.0948,1.357378 -0.11937,2.868568 -0.0245,1.511202 -0.11656,3.253007 -0.20466,3.870845 -0.0881,0.617832 -0.21491,2.421065 -0.28182,4.006957 -0.0669,1.585893 -0.20304,3.166922 -0.30247,3.513618 -0.0993,0.346684 -0.13927,0.887435 -0.0883,1.201524 0.12469,0.768407 0.12215,1.348359 -0.0131,2.919731 -0.0629,0.730167 -0.15865,1.904011 -0.21273,2.608282 -0.0541,0.704276 -0.18111,1.853034 -0.28243,2.552933 -0.21183,1.463143 -0.18828,3.604363 0.0437,3.978843 0.0869,0.14042 0.0837,0.255204 -0.007,0.255204 -0.0909,0 -0.18273,0.390517 -0.20404,0.867936 -0.24258,5.432264 -0.31104,6.476706 -0.55827,8.527326 -0.0474,0.393169 -0.10726,1.174197 -0.13315,1.735865 -0.0259,0.561668 -0.15269,1.656733 -0.28183,2.433257 -0.17646,1.061133 -0.34516,1.485189 -0.67945,1.707143 -0.41785,0.277441 -0.51299,0.229093 -1.571,-0.799126 -0.61939,-0.601946 -1.128,-1.232568 -1.13032,-1.401067 -0.003,-0.259859 -1.05569,-1.867414 -3.47531,-5.310214 -0.77887,-1.10822 -3.76828,-5.092112 -4.67415,-6.229302 -0.44741,-0.561668 -1.1574,-1.57286 -1.5779,-2.246869 -0.4205,-0.674002 -0.83239,-1.272509 -0.9152,-1.330173 -0.0828,-0.05766 -0.2615,-0.546048 -0.39731,-1.085438 -0.1842,-0.731597 -0.1882,-1.039648 -0.0153,-1.212587 0.3512,-0.351183 0.27999,-0.851065 -0.21032,-1.47438 -0.41361,-0.525831 -0.51376,-0.553737 -1.5417,-0.43292 -0.94779,0.111391 -1.22165,0.05732 -1.98927,-0.392526 -1.03411,-0.606034 -3.36893,-0.936878 -6.95392,-0.98551 l -2.24657,-0.03051 v -2.8596 c 0,-1.57267 0.0693,-3.870197 0.15378,-5.105868 0.0845,-1.235665 0.20016,-3.625501 0.2573,-5.310504 0.0571,-1.685004 0.2044,-3.445174 0.32701,-3.911529 0.19113,-0.727058 0.31239,-0.860866 0.85177,-0.940032 0.34599,-0.05078 0.93502,-0.02351 1.30863,0.06073 0.52693,0.118842 0.72308,0.07776 0.87541,-0.1831 0.108,-0.184959 0.19907,-0.231322 0.20255,-0.102921 0.0105,0.393111 0.5744,0.47886 1.27782,0.19417 0.88422,-0.35787 2.24449,-0.561628 2.09099,-0.313244 -0.0653,0.105682 0.03,0.192074 0.21182,0.192074 0.18178,0 0.27992,-0.08144 0.2184,-0.181004 -0.0615,-0.09956 0.0708,-0.228821 0.2941,-0.287215 0.22328,-0.05839 0.46639,-0.0087 0.54003,0.110396 0.0843,0.136517 0.035,0.155577 -0.13344,0.05147 -0.15658,-0.09679 -0.21758,-0.08456 -0.14719,0.02929 0.17703,0.286461 1.28029,0.206594 1.21946,-0.08826 -0.0639,-0.309764 0.28503,-0.325402 0.47302,-0.02125 0.0909,0.147118 0.18407,0.154465 0.26716,0.02096 0.27611,-0.443671 1.20689,-0.354315 1.69548,0.162756 0.44821,0.474338 1.32228,0.787217 1.07318,0.384148 -0.0616,-0.09965 0.0771,-0.181305 0.30844,-0.181305 0.2313,0 0.42066,-0.09307 0.42066,-0.206734 0,-0.11366 0.75408,-0.917766 1.67573,-1.787022 2.98422,-2.81454 3.522,-3.3946415 4.55657,-4.9161831 0.56007,-0.8237206 1.11841,-1.6732626 1.24071,-1.8878525 0.1223,-0.2145899 0.35666,-0.551791 0.52058,-0.749157 0.16392,-0.1973543 0.53701,-0.8181626 0.82934,-1.3798306 0.52964,-1.0175723 1.0252,-1.9427954 3.0026,-5.6069996 0.573,-1.0618277 1.04176,-2.0040952 1.04176,-2.0936886 0,-0.089588 0.0694,-0.162756 0.15437,-0.162756 0.0849,0 0.27727,-0.2777192 0.42753,-0.617213 0.15029,-0.3394937 0.37974,-0.7303119 0.50982,-0.868229 0.40153,-0.4256765 1.35919,-1.9661152 1.35919,-2.1864367 0,-0.1147374 0.092,-0.2088299 0.20434,-0.2088299 0.11233,0 0.20404,-0.095689 0.20404,-0.2127198 0,-0.3649731 0.68076,-0.9692296 1.07227,-0.9843114 z m 13.85939,3.6344788 c -0.23287,0.029585 -0.42453,0.5902858 -0.42724,1.2834982 -0.002,0.6316637 0.057,0.7403684 0.35423,0.6447423 0.27231,-0.08759 0.29134,-0.067981 0.0802,0.082872 -0.34584,0.2470693 -0.11389,1.1405078 0.24083,0.9277705 0.13587,-0.081505 0.11852,0.00619 -0.0398,0.2013492 -0.24114,0.29723 -0.23466,0.3455554 0.0449,0.3455554 0.19134,0 0.28078,0.1151312 0.21752,0.2800351 -0.0591,0.1540137 0.0354,0.42283439 0.21003,0.59747055 0.17461,0.17463616 0.26632,0.45036954 0.20404,0.61272606 -0.0623,0.16235072 0.0228,0.34729229 0.18908,0.41108162 0.19218,0.0733595 0.26106,0.27394441 0.18998,0.54571201 -0.0713,0.27262436 -0.0239,0.40771206 0.12985,0.36979046 0.13324,-0.032885 0.36381,0.2851241 0.5125,0.7063722 0.14858,0.4212538 0.21708,0.7659061 0.15169,0.7659061 -0.0654,0 -0.009,0.1102331 0.12595,0.2450314 0.13479,0.134804 0.24532,0.4563791 0.24532,0.7147496 0,0.2583647 0.0971,0.4697182 0.21602,0.4697182 0.11897,0 0.15977,0.092013 0.0904,0.2043424 -0.0694,0.1123347 -0.0227,0.2043424 0.10381,0.2043424 0.13128,0 0.17827,0.1630107 0.10951,0.3796675 -0.07,0.2204778 0.0118,0.4893448 0.19506,0.641448 0.17645,0.1464468 0.26456,0.4226839 0.19986,0.6264936 -0.0667,0.2102477 0.0119,0.4357973 0.1858,0.5331428 0.16586,0.092818 0.33975,0.3982404 0.38624,0.6788486 0.0917,0.5538926 0.11441,0.6289195 0.65401,2.1442489 0.2,0.5616673 0.3748,1.2204783 0.38804,1.4639063 0.0134,0.243428 0.0869,0.505133 0.16335,0.581607 0.0765,0.07647 0.0837,0.283005 0.0162,0.45895 -0.0726,0.188994 -0.0375,0.267246 0.0856,0.191177 0.12266,-0.07581 0.21516,0.125865 0.2256,0.491261 0.01,0.340924 0.12349,0.747443 0.25279,0.903234 0.1293,0.155797 0.17305,0.383147 0.0976,0.505324 -0.0755,0.122171 -0.05,0.333027 0.0565,0.46852 0.10647,0.135493 0.25218,0.696657 0.32401,1.246995 0.0718,0.550332 0.23366,1.124569 0.35962,1.276319 0.17039,0.20524 0.16725,0.276145 -0.0123,0.276145 -0.13269,0 -0.19117,0.08119 -0.12984,0.180408 0.13183,0.213334 0.26022,1.064219 0.4344,2.883234 0.13539,1.413045 0.14035,8.332577 0.006,8.550664 -0.0706,0.11483 -0.26821,1.413977 -0.43921,2.886823 -0.0832,0.717037 -0.65531,3.223966 -0.9158,4.013256 -0.11973,0.362849 -0.19801,0.779981 -0.17383,0.927163 0.0242,0.147188 -0.004,0.405634 -0.0631,0.574133 -0.059,0.168499 -0.24888,0.765813 -0.42185,1.327487 -0.53954,1.751868 -1.1854,3.425304 -1.80168,4.667557 -0.32617,0.657451 -0.59299,1.29953 -0.59299,1.426808 0,0.127271 -0.21872,0.692089 -0.48587,1.255378 -0.26717,0.563272 -0.58804,1.253971 -0.71325,1.534805 -0.12519,0.280834 -0.31365,0.64857 -0.41886,0.817075 -0.1052,0.168493 -0.39173,0.765813 -0.63666,1.327481 -0.98698,2.263317 -1.52683,3.206382 -2.36655,4.134106 -0.92027,1.016774 -1.21627,2.095484 -0.57503,2.095484 0.17524,0 0.2618,0.09171 0.19238,0.204053 h -3e-4 c -0.1423,0.230221 0.11438,0.265121 0.59479,0.08078 0.17703,-0.06795 0.27362,-0.201703 0.21451,-0.297392 -0.0592,-0.09568 0.17147,-0.138903 0.51251,-0.09574 0.46328,0.05864 0.67565,-0.02547 0.8404,-0.333288 0.12125,-0.226586 0.58008,-0.886294 1.01961,-1.466002 0.4395,-0.579691 0.80002,-1.164933 0.80002,-1.300547 5.8e-4,-0.236492 0.95164,-2.438978 2.36236,-5.47237 0.36569,-0.786331 0.86858,-2.072956 1.11774,-2.859299 0.24918,-0.786326 0.66519,-1.797235 0.92448,-2.246568 0.60141,-1.042317 1.43273,-3.526546 1.70864,-5.106162 0.11772,-0.674003 0.35595,-1.960633 0.52955,-2.8593 0.39461,-2.042763 0.44115,-2.325467 0.66988,-4.085052 0.20921,-1.609792 0.20361,-1.459049 0.19955,-5.208186 -10e-4,-1.516505 0.007,-3.112361 0.0185,-3.546526 0.0215,-0.79391 -0.48454,-4.294826 -0.66238,-4.582595 -0.0525,-0.08485 -0.20218,-0.932507 -0.33239,-1.883656 -0.13026,-0.951154 -0.31014,-1.821677 -0.40002,-1.934522 -0.0899,-0.112838 -0.21184,-0.52682 -0.27075,-0.919989 -0.11252,-0.750616 -0.36027,-1.525681 -1.49594,-4.6774398 -0.38053,-1.0561076 -0.69201,-2.1707187 -0.69201,-2.4769399 0,-0.3062211 -0.13192,-0.6661636 -0.29319,-0.8000182 -0.1613,-0.1338545 -0.35573,-0.5357365 -0.43201,-0.8930621 -0.12348,-0.5784056 -0.86939,-2.37734792 -1.32809,-3.20275916 -0.46845,-0.84298248 -1.58817,-3.22726054 -1.72658,-3.67636794 -0.14263,-0.4628055 -0.94752,-1.3860775 -1.25718,-1.4420625 -0.0159,-0.00289 -0.0314,-0.00289 -0.047,-0.00116 z m -4.90183,18.6870074 c -0.0624,-0.0012 -0.12934,0.0069 -0.20255,0.02125 -0.18152,0.03543 -0.44303,0.07132 -0.58131,0.07988 -0.41969,0.02611 -0.54474,0.984676 -0.17651,1.352903 0.1916,0.191571 0.2904,0.535893 0.23754,0.827247 -0.0598,0.329842 -0.0137,0.451707 0.13584,0.359317 0.13967,-0.08635 0.18238,-0.02629 0.11188,0.157372 -0.0628,0.163555 0.007,0.463482 0.15559,0.666279 0.14825,0.202797 0.22023,0.497635 0.15975,0.655216 -0.0604,0.15758 -0.008,0.286617 0.11609,0.286617 0.12436,0 0.22618,0.183715 0.22618,0.408384 0,0.22467 0.0792,0.408384 0.17592,0.408384 0.0967,0 0.13187,0.230424 0.0781,0.511906 -0.0538,0.281477 -0.003,0.626141 0.11219,0.765907 0.27058,0.327266 0.73176,3.470653 0.60585,4.129331 -0.053,0.27692 -0.0314,0.463651 0.0479,0.414671 0.17699,-0.109376 0.0593,1.614319 -0.22318,3.267087 -0.23107,1.351896 -0.9018,3.714023 -1.34992,4.754325 -0.15861,0.36817 -0.46941,1.602555 -0.69052,2.743213 -0.22112,1.140664 -0.47507,2.172039 -0.56456,2.292045 -0.19007,0.25492 -0.66918,1.866836 -0.73628,2.477548 -0.0254,0.23157 0.0284,0.622082 0.11937,0.867924 0.19359,0.523346 0.43741,0.56671 0.79103,0.140616 0.13986,-0.168499 0.42465,-0.306366 0.63278,-0.306366 0.43215,0 1.05697,-1.215117 1.43219,-2.78539 0.13051,-0.546227 0.36252,-1.400001 0.51579,-1.897428 0.15326,-0.497433 0.27884,-1.11365 0.27884,-1.369363 0,-0.255708 0.23262,-1.089479 0.51699,-1.852843 0.48104,-1.29121 0.96468,-3.368607 1.30114,-5.58845 0.12696,-0.837627 0.0451,-2.632662 -0.26955,-5.90768 -0.0592,-0.616802 -0.20229,-1.152851 -0.31773,-1.191352 -0.11544,-0.0385 -0.20974,-0.409565 -0.20974,-0.824548 0,-0.414978 -0.14005,-0.954258 -0.31114,-1.198531 -0.1711,-0.244267 -0.58687,-1.340745 -0.92418,-2.436552 -0.54609,-1.774047 -0.75721,-2.221377 -1.19375,-2.228915 z"
         style="fill:#ffffff;fill-opacity:1;stroke:none;stroke-width:2.25048923" />
    </g>
  </g>
</svg>
