<?xml version="1.0" encoding="UTF-8" standalone="no"?>
<svg
   xmlns:dc="http://purl.org/dc/elements/1.1/"
   xmlns:cc="http://creativecommons.org/ns#"
   xmlns:rdf="http://www.w3.org/1999/02/22-rdf-syntax-ns#"
   xmlns:svg="http://www.w3.org/2000/svg"
   xmlns="http://www.w3.org/2000/svg"
   id="svg1417"
   version="1.1"
   viewBox="0 0 508 285.75"
   height="285.75mm"
   width="508mm">
  <defs
     id="defs1411" />
  <metadata
     id="metadata1414">
    <rdf:RDF>
      <cc:Work
         rdf:about="">
        <dc:format>image/svg+xml</dc:format>
        <dc:type
           rdf:resource="http://purl.org/dc/dcmitype/StillImage" />
        <dc:title></dc:title>
      </cc:Work>
    </rdf:RDF>
  </metadata>
  <g
     transform="translate(24.946428,-88.35714)"
     id="layer1">
    <path
       id="path880"
       d="m 346.06568,105.51343 c -0.0562,0.005 -0.10082,0.0905 -0.11408,0.27224 -0.0111,0.14933 -0.0368,0.44459 -0.058,0.65607 0.0408,1.27163 0.21761,1.66711 0.27327,2.98975 0,0 0.90266,5.05456 1.12331,7.36188 0.0438,0.49456 0.11113,1.16382 0.14999,1.48713 0.0775,0.64602 0.0425,0.69285 -1.1983,1.60214 -0.67568,0.49513 -0.7221,0.56975 -0.54882,0.88197 0.10414,0.18758 0.17445,0.39346 0.15634,0.45745 -0.0766,0.27045 0.83192,-0.0742 1.07423,-0.40746 0.0544,-0.0748 0.3685,-0.14461 0.69812,-0.15521 0.56788,-0.0182 0.60068,0.007 0.62404,0.46882 0.0135,0.26839 0.1131,0.65243 0.22112,0.85334 0.20953,0.38963 0.42616,1.23849 0.5588,2.1889 0.0447,0.32052 0.14392,0.62141 0.22023,0.66857 0.0763,0.0472 0.13862,0.28701 0.13862,0.53291 0,0.2459 0.0745,0.49317 0.16567,0.5495 0.0911,0.0562 0.12494,0.2089 0.075,0.33907 -0.05,0.13017 -0.0111,0.33255 0.086,0.44973 0.23272,0.28041 0.44068,0.26892 0.78607,-0.0436 0.31037,-0.2809 0.4045,-1.51208 0.12862,-1.68258 -0.0854,-0.0527 -0.15521,-0.297 -0.15521,-0.54292 0,-0.2459 -0.0657,-0.48776 -0.14612,-0.53744 -0.0804,-0.0497 -0.19375,-0.42026 -0.2518,-0.82357 -0.0581,-0.40331 -0.23659,-1.02624 -0.39679,-1.3842 -0.46197,-1.03227 -0.39433,-1.38458 0.33724,-1.7578 0.51371,-0.26208 0.80929,-0.30504 1.6185,-0.23475 l 0.98991,0.0861 -0.0441,-0.41336 c -0.0329,-0.30884 -0.21578,-0.50491 -0.72402,-0.77676 -0.73018,-0.39054 -1.2552,-0.44031 -2.23619,-0.2118 -0.6734,0.15687 -0.98005,-2.3e-4 -1.08445,-0.55563 -0.0304,-0.16191 -0.0668,-0.29452 -0.0809,-0.29452 -0.0141,0 -0.0508,-0.32971 -0.0818,-0.73289 -0.031,-0.40317 -0.12806,-0.86714 -0.21565,-1.03082 -0.0876,-0.1637 -0.2299,-0.91575 -0.31612,-1.67145 -0.29621,-2.59577 -0.4399,-3.5468 -0.59722,-3.94876 -0.0867,-0.22149 -0.15772,-0.71606 -0.15772,-1.09898 0,-0.72169 -0.27242,-1.95092 -0.49245,-2.22163 -0.0694,-0.0854 -0.17519,-0.41679 -0.23499,-0.73676 -0.0698,-0.37331 -0.19638,-0.59061 -0.2902,-0.58268 z m 37.43519,6.05992 c -0.31693,10e-4 -0.27113,0.17326 -0.15885,0.96991 0.01,0.069 0.0982,0.0759 0.19681,0.015 0.10966,-0.0678 0.13703,-0.0426 0.0706,0.0647 -0.0596,0.0965 -0.004,0.36897 0.12499,0.60564 0.12836,0.23667 0.23624,0.34849 0.23977,0.24862 0.006,-0.17319 0.53301,-0.34434 1.32965,-0.43179 0.20339,-0.0224 0.35411,0.0366 0.33679,0.13136 -0.0173,0.0944 0.10819,0.1718 0.27883,0.1718 0.17065,0 0.34604,0.0472 0.38974,0.10475 0.0438,0.0576 0.28523,0.12747 0.53655,0.15523 0.25133,0.0277 0.58205,0.17246 0.73494,0.32179 0.31959,0.31213 0.66178,0.3661 0.49313,0.0777 -0.0624,-0.10659 0.021,-0.0824 0.18499,0.0539 0.32765,0.27244 0.85277,0.51354 1.03491,0.47497 0.064,-0.0135 0.10537,0.0276 0.0919,0.0916 -0.0419,0.1979 0.20636,0.66134 0.31747,0.59267 0.24464,-0.15119 0.80499,0.97799 0.81197,1.63623 0.0111,1.07251 -0.0368,1.21726 -0.62654,1.88166 -0.77276,0.87063 -1.97657,1.38358 -3.18084,1.35555 -1.25329,-0.0291 -1.24229,-0.0316 -1.02219,0.23362 0.10549,0.12704 0.25833,0.18984 0.33973,0.13954 0.0814,-0.0503 0.18567,0.0529 0.23181,0.2293 0.046,0.17641 0.21602,0.36259 0.37746,0.41382 0.16143,0.0512 0.29362,0.15358 0.29362,0.22748 0,0.23267 1.6838,0.0178 2.29002,-0.29224 0.67464,-0.34502 1.8243,-1.45591 2.15051,-2.078 0.12428,-0.23705 0.26757,-0.87631 0.31837,-1.42034 0.11961,-1.28063 -0.2332,-2.0444 -1.49554,-3.2379 -0.87301,-0.82539 -2.2258,-1.6594 -2.6916,-1.6594 -0.11777,0 -0.4293,-0.10733 -0.69243,-0.23862 -0.68222,-0.34033 -2.00727,-0.7114 -2.85772,-0.80015 -0.19722,-0.0206 -0.34318,-0.0389 -0.44882,-0.0384 z m -30.71645,1.23239 c -0.334,0 -0.52877,0.47624 -0.26361,0.6445 0.10954,0.0695 0.1383,0.12753 0.0639,0.12885 -0.0744,0.001 -0.061,0.0919 0.0297,0.20134 0.0909,0.10954 0.38676,0.21595 0.65744,0.23658 0.46499,0.0354 0.48625,0.0137 0.38815,-0.39292 -0.11605,-0.48091 -0.47704,-0.81835 -0.87561,-0.81835 z m 24.90127,0.40406 c -0.39554,0.004 -0.81179,0.0901 -1.18558,0.27384 -0.81438,0.40023 -2.04558,1.57793 -1.89846,1.81599 0.0734,0.11887 0.0543,0.1519 -0.0507,0.0871 -0.093,-0.0575 -0.35049,0.1335 -0.57246,0.42452 -0.32486,0.42591 -0.54626,0.54907 -1.13489,0.63131 -1.40851,0.19679 -1.73963,0.27729 -1.73963,0.42314 0,0.0808 0.0647,0.10708 0.14385,0.0582 0.0792,-0.0489 0.19021,0.0569 0.2468,0.23521 0.0566,0.17831 0.14072,0.28653 0.1868,0.24043 0.0462,-0.046 0.2317,-0.004 0.41247,0.0937 0.18077,0.0976 0.54575,0.16355 0.81107,0.14635 0.50451,-0.0327 0.9383,0.3056 0.76061,0.59313 -0.0564,0.0912 -0.0123,0.14662 0.0981,0.12317 0.12158,-0.0258 0.26589,0.22011 0.36633,0.62449 0.0911,0.36694 0.23283,0.67054 0.31499,0.67494 0.0822,0.004 0.1328,0.0682 0.11248,0.14181 -0.0204,0.0737 0.0669,0.0942 0.19384,0.0454 0.13842,-0.0532 0.23089,5.7e-4 0.23089,0.1343 0,0.24666 0.49706,0.55452 1.06833,0.66177 0.20352,0.0382 0.39176,0.0914 0.41836,0.11789 0.0267,0.0266 0.36164,0.0619 0.74472,0.0786 0.89494,0.0389 1.68762,-0.29641 2.11299,-0.89379 l 0.33678,-0.47268 -1.44851,0.0925 c -1.27225,0.0813 -1.5145,0.0545 -1.99141,-0.21977 -0.29864,-0.17176 -0.73389,-0.39239 -0.96697,-0.4904 -0.34719,-0.14599 -0.41448,-0.26116 -0.37338,-0.63677 0.0441,-0.40214 0.20139,-0.53389 1.28058,-1.07195 1.60363,-0.79954 3.16246,-2.24975 3.16246,-2.94202 0,-0.61264 -0.77036,-0.99947 -1.64055,-0.99037 z m -9.72938,1.96664 c -0.49905,0.001 -1.23081,0.3748 -2.15732,1.10719 -0.65655,0.51899 -1.19774,1.01367 -1.2024,1.09945 -0.0213,0.3865 -1.15963,1.93847 -1.42191,1.93847 -0.32149,0 -0.66749,-0.54027 -0.54701,-0.85424 0.1244,-0.32419 -1.33615,-2.14439 -1.88302,-2.34662 -0.5288,-0.19555 -0.81084,-0.0429 -0.81084,0.43928 0,0.15359 -0.0872,0.26198 -0.19385,0.24066 -0.10672,-0.0212 -0.18404,0.0834 -0.17226,0.2327 0.0123,0.14933 -0.0448,0.27134 -0.12567,0.27134 -0.0808,0 -0.11126,0.058 -0.0675,0.12886 0.10315,0.16695 -0.49355,2.15954 -0.68152,2.27571 -0.0876,0.0542 -0.0854,0.24177 0.006,0.48109 0.18478,0.48581 0.1868,0.56892 0.0111,0.46065 -0.15898,-0.0982 -0.14834,0.41414 0.011,0.53495 0.0583,0.0442 0.12799,0.71741 0.15499,1.496 0.027,0.77861 0.10893,1.37958 0.18203,1.33535 0.0732,-0.0442 0.086,0.0679 0.0284,0.24929 -0.12621,0.39765 0.0365,0.98999 0.23771,0.86561 0.0792,-0.049 0.14407,-0.0207 0.14407,0.0625 0,0.0833 -0.0874,0.18646 -0.19408,0.22952 -0.10659,0.043 -0.0454,0.0839 0.13614,0.0906 0.50954,0.0189 0.69969,-0.34992 0.6879,-1.33466 -0.006,-0.49649 -0.01,-1.07726 -0.01,-1.29056 4.4e-4,-0.21333 -0.002,-1.19063 -0.007,-2.17187 -0.01,-2.33921 0.11126,-3.10291 0.49407,-3.10291 0.27822,0 0.96562,0.64447 1.00626,0.94333 0.0111,0.0785 0.0292,0.2299 0.0411,0.33655 0.0154,0.13714 0.0639,0.12742 0.16545,-0.0331 0.0979,-0.15485 0.14137,0.0427 0.13657,0.62062 -0.005,0.46623 0.0739,1.16181 0.17295,1.54578 0.099,0.38397 0.19343,0.8379 0.20998,1.00855 0.0165,0.17064 0.11802,0.403 0.22542,0.51654 0.10745,0.11347 0.16068,0.26282 0.11814,0.33156 -0.12207,0.19758 0.49499,0.29811 0.68198,0.11113 0.0925,-0.0925 0.16816,-0.28743 0.16816,-0.43313 0,-0.14572 0.17793,-0.60797 0.39544,-1.0272 0.21751,-0.41923 0.41401,-0.9351 0.43655,-1.14649 0.0799,-0.74915 0.7894,-1.93255 1.69189,-2.82134 0.82071,-0.80825 0.97271,-0.89586 1.48146,-0.85333 0.48795,0.0408 0.56729,0.10155 0.56905,0.43541 10e-4,0.2133 -0.0449,0.57871 -0.10279,0.8122 -0.0577,0.23349 -0.0391,0.46524 0.0414,0.51495 0.0804,0.0497 0.10573,0.15574 0.0564,0.23566 -0.0888,0.14367 0.15051,1.05479 0.41407,1.57646 0.0748,0.14816 0.13613,0.45237 0.13613,0.67585 0,0.5934 0.62893,1.28791 1.03149,1.13898 0.29274,-0.10831 0.30586,-0.18523 0.175,-1.02308 -0.0779,-0.49827 -0.15767,-1.01179 -0.17727,-1.14126 -0.0195,-0.12949 -0.0765,-0.3041 -0.12636,-0.38792 -0.15165,-0.25467 -0.27503,-1.03683 -0.3052,-1.93643 -0.0286,-0.85078 -0.30842,-1.6976 -0.73039,-2.20913 -0.12709,-0.15406 -0.30584,-0.2302 -0.53267,-0.22953 z m -12.85617,3.07587 c -0.1131,-0.004 -0.12983,0.11654 -0.12818,0.40997 0.002,0.33245 0.0355,0.37519 0.15272,0.19386 0.0828,-0.12803 0.15095,-0.17947 0.15272,-0.11433 10e-4,0.0652 -0.0807,0.25149 -0.18227,0.41405 l 0.27789,2.25367 c 0.13018,0.13022 0.19949,0.29703 0.15383,0.37088 -0.0457,0.0738 -0.007,0.75524 0.0863,1.51396 0.0932,0.75872 0.17431,1.62369 0.18022,1.92234 0.006,0.29864 0.0845,0.5943 0.17498,0.65698 0.33467,0.23189 0.54079,0.10549 0.62813,-0.38541 0.11224,-0.63057 0.11838,-2.19045 0.0123,-2.90885 -0.27461,-1.84811 -0.47051,-2.79248 -0.57951,-2.79248 -0.0685,0 -0.16968,-0.28191 -0.22474,-0.62631 -0.0587,-0.36721 -0.21569,-0.68796 -0.37951,-0.77561 -0.15395,-0.0824 -0.25645,-0.1301 -0.32429,-0.13273 z m -13.99448,1.89712 c -0.1185,-0.01 -0.23121,0.0199 -0.32451,0.0973 -0.11544,0.0958 -0.37368,0.1333 -0.57381,0.0834 -0.28362,-0.0707 -0.5179,0.0562 -1.06197,0.57518 -0.38395,0.3662 -0.82322,0.85975 -0.97604,1.09672 -0.43219,0.67021 -0.91963,2.42508 -0.85674,3.08451 0.0324,0.3399 -0.0123,0.59681 -0.10255,0.59812 -0.10499,0.001 -0.10634,0.041 -0.004,0.11642 0.0854,0.0628 0.17944,0.25364 0.20929,0.42428 0.0298,0.17065 0.1007,0.34504 0.15727,0.38769 0.0565,0.0427 0.11248,0.2806 0.12453,0.5286 0.0123,0.248 0.13356,0.51328 0.26976,0.5895 0.13618,0.0763 0.24747,0.24391 0.24747,0.37269 0,0.12878 0.0656,0.19358 0.14567,0.14408 0.0801,-0.0495 0.21444,0.033 0.29862,0.18339 0.0841,0.1504 0.20144,0.22512 0.26065,0.1659 0.0592,-0.0592 0.20922,-0.006 0.33316,0.11776 0.12393,0.12392 0.39072,0.22521 0.5929,0.22521 0.20218,0 0.40491,0.0605 0.45065,0.13453 0.0458,0.0739 0.38148,0.17754 0.74607,0.22999 0.36454,0.0524 0.94196,0.15753 1.2833,0.23361 h 2.3e-4 c 0.69852,0.15569 0.99628,0.10598 1.80393,-0.30134 1.70102,-0.8579 3.33003,-3.79885 2.42774,-4.38302 -0.31871,-0.20636 -0.55956,-0.022 -0.6613,0.50631 -0.17369,0.90193 -1.98438,2.51257 -3.04315,2.70705 -1.34458,0.24696 -3.97925,-0.51743 -4.31371,-1.25149 -0.35072,-0.76976 -0.19134,-1.39058 0.33543,-1.30671 0.26372,0.042 2.28193,-0.59185 2.64771,-0.83152 0.93408,-0.61201 1.27068,-1.61927 0.83084,-2.48591 -0.1732,-0.34131 -0.35595,-0.86449 -0.40632,-1.16264 -0.0801,-0.47383 -0.48595,-0.85109 -0.84129,-0.87947 z m -0.18249,1.31488 c 0.42213,0.009 0.53778,0.11323 0.67972,0.42474 0.15222,0.33408 0.12478,0.49533 -0.17634,1.03673 -0.31677,0.56949 -0.47699,0.68081 -1.43511,0.99604 -0.59324,0.1952 -1.16596,0.3569 -1.27262,0.35952 -0.26531,0.006 -0.24539,-0.69747 0.0275,-0.97037 0.12182,-0.12183 0.27007,-0.47986 0.3293,-0.79561 0.12429,-0.66252 0.52858,-0.98074 1.31102,-1.03173 0.22109,-0.0144 0.39583,-0.0221 0.53654,-0.0193 z m -33.05032,1.27581 c -0.19961,-0.006 -0.38758,0.0435 -0.45428,0.15135 -0.0533,0.0862 -0.29234,0.14183 -0.53133,0.12363 -0.53482,-0.0408 -1.11651,0.32238 -2.02732,1.26579 -0.94191,0.97567 -1.39624,1.9314 -1.39624,2.93702 0,0.7352 0.0521,0.8526 0.61245,1.3792 0.83456,0.78427 1.05923,0.96355 1.20808,0.96355 0.07,0 0.23799,0.12918 0.37315,0.28703 0.13515,0.15786 0.53456,0.33327 0.88764,0.38974 0.35309,0.0565 0.64199,0.16243 0.64199,0.23566 0,0.0732 0.33169,0.22184 0.73699,0.3302 0.76139,0.20353 1.11787,0.34511 2.83112,1.12421 1.01189,0.46016 1.86165,1.20201 1.86165,1.62509 0,0.1246 0.0998,0.41188 0.22181,0.63836 0.68552,1.27257 0.66632,2.71465 -0.0505,3.77671 -0.57296,0.84897 -1.2738,1.47285 -2.03302,1.80984 -0.63308,0.28102 -0.85619,0.3232 -2.05185,0.38725 -0.81075,0.0434 -0.92605,0.007 -1.31876,-0.407 -0.23667,-0.24998 -0.7264,-0.65979 -1.08832,-0.91085 -0.80452,-0.55809 -0.94913,-1.02765 -0.57335,-1.86097 0.24057,-0.53353 0.24882,-0.64292 0.058,-0.76356 -0.32944,-0.20825 -0.51446,-0.0987 -0.68972,0.40859 -0.0862,0.24957 -0.27088,0.62843 -0.41042,0.84174 -0.53811,0.8226 -0.51967,1.08145 0.12362,1.72236 0.32923,0.32798 0.75325,0.77272 0.94221,0.98833 0.18892,0.21562 0.48109,0.392 0.64925,0.392 0.16814,0 0.46718,0.0615 0.66472,0.13658 0.19754,0.0752 0.42122,0.13872 0.49699,0.14181 0.0758,0.004 0.18051,0.0706 0.23272,0.15044 0.0522,0.0798 0.30442,0.22423 0.56041,0.32065 1.03083,0.38839 3.11256,-0.16307 4.11122,-1.08899 0.67921,-0.62975 1.51032,-1.7347 1.7869,-2.37548 0.3534,-0.81874 0.34312,-3.37183 -0.0156,-3.91943 -0.16173,-0.24682 -0.20577,-0.52321 -0.135,-0.84539 0.0833,-0.37928 0.0588,-0.4611 -0.11776,-0.39337 -0.13418,0.0514 -0.61931,-0.28245 -1.21967,-0.83947 -0.54834,-0.50875 -1.24147,-1.03062 -1.5401,-1.15968 -0.29863,-0.12905 -0.75235,-0.32877 -1.00832,-0.44382 -0.25599,-0.11507 -0.82994,-0.29081 -1.27534,-0.39065 -0.81195,-0.18198 -1.36778,-0.4286 -2.35957,-1.04649 -0.29263,-0.1823 -0.58926,-0.29598 -0.65927,-0.25271 -0.07,0.0432 -0.12726,0.006 -0.12726,-0.0834 0,-0.0893 -0.23949,-0.26243 -0.53223,-0.38474 -0.43325,-0.18103 -0.54177,-0.31848 -0.58382,-0.73902 -0.0452,-0.45232 0.28983,-1.23233 0.65495,-1.52487 0.0533,-0.0427 0.27863,-0.34843 0.50087,-0.67949 0.52214,-0.77775 1.59698,-1.49104 2.24844,-1.49193 0.38186,-5.6e-4 0.50427,-0.0683 0.50427,-0.27974 0,-0.15358 -0.0837,-0.36302 -0.18612,-0.46541 -0.11335,-0.11335 -0.32467,-0.17469 -0.52427,-0.18067 z m 24.5981,1.63644 c -0.14284,0.001 -0.29061,0.028 -0.43973,0.0799 -0.59557,0.20761 -1.68948,1.51663 -2.03619,2.43661 -0.55726,1.47862 -0.61622,1.58146 -0.90537,1.58146 -0.18654,0 -0.41682,-0.24739 -0.64677,-0.69449 -0.46858,-0.91107 -0.80429,-1.19589 -1.68121,-1.42738 -1.00981,-0.26654 -1.677,-0.24937 -2.1412,0.0548 -0.37911,0.24841 -0.76386,0.90737 -0.6972,1.19443 0.0173,0.0747 -0.0666,0.24929 -0.18635,0.38793 -0.11986,0.13864 -0.26322,0.4919 -0.3186,0.78493 -0.0554,0.29304 -0.21631,0.66051 -0.3577,0.81675 -0.41532,0.45893 -0.45423,1.81349 -0.0734,2.56 0.18172,0.35624 0.28947,0.7994 0.24885,1.02355 -0.0419,0.23069 0.0257,0.49252 0.16203,0.62882 0.12846,0.12846 0.23413,0.32584 0.23588,0.43859 0.002,0.15141 0.0416,0.14415 0.15271,-0.0278 0.1296,-0.20052 0.15052,-0.20143 0.15272,-0.006 0.002,0.19546 0.0356,0.19419 0.23907,-0.01 0.27244,-0.27246 0.48048,-1.69143 0.30907,-2.10822 -0.13837,-0.33647 -0.16794,-2.26356 -0.0379,-2.47387 0.0502,-0.0813 0.12629,-0.45264 0.16906,-0.82516 0.11409,-0.99319 0.90246,-1.5602 1.95644,-1.40739 0.22753,0.033 1.01186,0.77926 0.81901,0.77926 -0.0556,0 -0.0174,0.0837 0.085,0.18612 0.10242,0.10242 0.18612,0.34665 0.18612,0.54291 0,0.19624 0.0699,0.357 0.15521,0.357 0.0854,0 0.15499,0.19777 0.15499,0.43952 0,0.24176 0.0475,0.487 0.10549,0.54495 0.058,0.058 0.1299,0.40108 0.15997,0.76265 0.0774,0.92967 0.33906,1.51079 0.68063,1.51079 0.39939,0 0.757,-0.60615 0.73584,-1.2474 -0.01,-0.29522 0.0987,-0.81241 0.24112,-1.14921 0.14232,-0.33679 0.227,-0.69508 0.18817,-0.7963 -0.10684,-0.27826 1.20645,-2.88226 1.66939,-3.31016 0.24098,-0.22274 0.59431,-0.37475 0.8704,-0.37475 0.53084,0 1.08921,0.43236 1.08921,0.84357 0,0.15319 0.0938,0.33445 0.20862,0.40268 0.11482,0.0683 0.33607,0.47308 0.49201,0.89971 0.15592,0.42662 0.34146,0.85274 0.41224,0.94696 0.0707,0.0942 0.14009,0.46321 0.15406,0.81993 0.014,0.35672 0.11851,0.76835 0.23226,0.9147 0.19145,0.24643 0.23366,0.23577 0.57472,-0.1459 0.54898,-0.61433 0.52016,-1.56879 -0.082,-2.71295 -0.26306,-0.49979 -0.6778,-1.30854 -0.92175,-1.79712 -0.31635,-0.63358 -0.55572,-0.91632 -0.83447,-0.98628 -0.21497,-0.0539 -0.39088,-0.16454 -0.39088,-0.24566 0,-0.0811 -0.0639,-0.10782 -0.14204,-0.0596 -0.0781,0.0484 -0.31992,0.0201 -0.53722,-0.0625 -0.12949,-0.0493 -0.26735,-0.0729 -0.41019,-0.0716 z m -15.0812,5.31773 c -1.31796,-0.0157 -2.51137,0.87071 -2.13049,1.58236 0.13507,0.25238 0.11924,0.44037 -0.0707,0.84061 -0.13453,0.28355 -0.24475,0.73187 -0.24475,0.99628 0,0.26442 -0.0696,0.48063 -0.15497,0.48063 -0.30629,0 -0.14422,0.59332 0.51291,1.87598 0.56175,1.0965 0.73491,1.31227 1.08603,1.35352 0.22974,0.027 0.41769,0.10304 0.41769,0.16908 0,0.0661 0.40157,0.20794 0.8922,0.31521 0.49063,0.10721 1.03152,0.25327 1.20217,0.32451 0.17065,0.0712 0.69543,0.13427 1.16626,0.13999 0.67196,0.009 0.98061,-0.074 1.43512,-0.38293 0.32989,-0.22417 0.57902,-0.52117 0.57902,-0.69039 0,-0.16334 0.12158,-0.36497 0.27022,-0.44815 0.41748,-0.23365 0.0895,-0.40852 -0.33748,-0.17998 -0.52806,0.2826 -0.83825,0.12121 -0.78743,-0.40974 0.0231,-0.24094 0.0894,-0.5519 0.14748,-0.69107 0.15663,-0.37528 -0.0266,-2.83576 -0.21588,-2.89884 -0.0897,-0.0298 -0.16295,-0.14792 -0.16295,-0.26225 0,-0.81492 -2.18661,-2.09789 -3.60446,-2.11482 z m -31.74908,0.1066 c -0.40795,-0.007 -0.56051,0.26197 -0.33723,0.66313 0.19447,0.34943 1.02964,1.11354 1.21716,1.11354 0.0825,0 0.23275,0.0994 0.33361,0.22089 0.43543,0.52465 4.17744,2.07805 4.51028,1.87234 0.0651,-0.0402 0.20454,0.0308 0.30997,0.15794 0.10549,0.12705 0.32062,0.23089 0.47793,0.23089 0.15729,0 0.52864,0.11568 0.82538,0.25725 0.51603,0.24606 0.5304,0.27496 0.32883,0.65949 -0.28237,0.5387 -1.06183,1.25755 -2.09891,1.93597 -0.46928,0.30698 -1.23715,0.83835 -1.70644,1.18081 -0.46929,0.34245 -1.24324,0.89639 -1.71984,1.2308 -2.02485,1.42075 -2.57491,2.21992 -1.88712,2.74204 0.3337,0.2533 0.35181,0.25448 0.90765,0.0532 0.24736,-0.0897 0.58951,-0.38389 0.76017,-0.65382 0.17064,-0.26992 1.25654,-1.15633 2.41319,-1.97005 3.31225,-2.33025 4.95472,-3.76335 5.27318,-4.60097 0.19568,-0.51469 -0.29675,-1.161 -1.17058,-1.53622 -0.89102,-0.3826 -2.54704,-1.00063 -3.1804,-1.18695 -0.7469,-0.21971 -2.23007,-0.90347 -2.33843,-1.07808 -0.049,-0.0788 -0.22354,-0.17207 -0.38793,-0.20704 -0.31745,-0.0675 -1.35092,-0.57997 -1.66349,-0.82493 -0.10279,-0.0806 -0.4074,-0.18829 -0.67699,-0.23929 -0.0683,-0.0129 -0.13171,-0.0198 -0.18999,-0.0209 z m 32.1011,1.25012 c 0.54795,-0.0124 1.06867,0.18035 1.43737,0.54905 0.24351,0.2435 0.54215,0.44292 0.66358,0.44292 0.12145,0 0.20843,0.0523 0.1934,0.11629 -0.0151,0.064 0.0609,0.42662 0.16908,0.80585 0.22702,0.79605 0.10659,2.22874 -0.23181,2.7568 -0.12108,0.18898 -0.34244,0.40364 -0.49177,0.47702 -0.36598,0.17982 -1.67125,-0.0386 -2.54774,-0.42633 -0.57518,-0.25444 -0.78085,-0.45747 -1.05559,-1.04197 -0.67113,-1.42778 -0.0137,-3.23185 1.31104,-3.59764 0.18407,-0.0508 0.36978,-0.078 0.55244,-0.082 z m 46.02649,1.04719 c -0.0388,0.005 -0.0795,0.0454 -0.12794,0.12207 -0.0936,0.14757 -0.13415,0.15392 -0.13592,0.0214 -10e-4,-0.10401 -0.0894,-0.16363 -0.1961,-0.13249 -0.10659,0.0312 -0.71768,0.14638 -1.35761,0.25589 -0.63996,0.10954 -1.30309,0.2829 -1.47375,0.38543 -0.17066,0.10254 -0.72907,0.22902 -1.24102,0.28109 -0.95876,0.0975 -2.3816,0.50089 -3.33563,0.94561 -0.6398,0.29824 -0.46124,0.26462 1.90052,-0.35838 1.07727,-0.28414 1.66782,-0.37832 1.66782,-0.26566 0,0.36545 -3.68299,2.01099 -6.51581,2.91112 -1.06658,0.33892 -2.39308,0.77735 -2.9477,0.97446 -1.65291,0.58748 -1.90072,0.66904 -2.79248,0.91832 -1.8289,0.51122 -5.1044,1.63732 -6.36059,2.18686 -0.72527,0.31729 -1.7028,0.72171 -2.17209,0.89855 -0.80602,0.30377 -2.00222,1.01458 -2.45456,1.45876 -0.11274,0.11064 -0.26983,0.20133 -0.34906,0.20133 -0.0792,0 -0.14385,0.13979 -0.14385,0.31044 0,0.17064 -0.0699,0.3102 -0.15522,0.3102 -0.0854,0 -0.15521,0.1088 -0.15521,0.2418 0,0.13309 0.0699,0.19885 0.15521,0.14612 0.0854,-0.0527 0.15522,0.052 0.15522,0.2327 0,0.18073 0.0653,0.28789 0.14545,0.23839 0.0801,-0.0495 0.20232,0.0111 0.27156,0.13454 0.0693,0.12343 0.40522,0.25468 0.74652,0.29179 0.83241,0.0905 3.43747,-0.0166 4.71073,-0.19362 0.56617,-0.0787 1.48317,-0.1827 2.03778,-0.23134 0.55463,-0.0486 1.42719,-0.15328 1.93915,-0.23249 0.51196,-0.0792 1.48926,-0.22493 2.17186,-0.32383 0.68261,-0.0989 1.79968,-0.27482 2.48229,-0.39087 0.6826,-0.11605 2.32276,-0.3598 3.6449,-0.54178 1.32216,-0.18196 2.44744,-0.35788 2.50047,-0.39064 0.2334,-0.14426 4.61676,-0.22182 4.96889,-0.0879 0.31676,0.12047 0.42291,0.0899 0.5845,-0.16884 0.16939,-0.2712 0.1507,-0.36277 -0.13157,-0.64472 -0.30595,-0.30558 -0.4894,-0.32835 -2.61274,-0.32293 -1.25596,0.004 -2.7722,0.0871 -3.36948,0.18657 -0.59728,0.0995 -1.71435,0.26009 -2.48229,0.3568 -0.76794,0.0966 -2.12926,0.3071 -3.02519,0.46746 -0.89593,0.16034 -2.69565,0.43258 -3.99943,0.60516 -1.30377,0.17257 -2.52557,0.34721 -2.71499,0.38792 -0.18942,0.0408 -0.83306,0.11224 -1.43034,0.15886 -0.59727,0.0467 -1.57457,0.12286 -2.17185,0.16953 -0.59727,0.0467 -1.42415,0.15907 -1.83733,0.24974 -0.61807,0.13563 -0.79231,0.12378 -0.98356,-0.0675 -0.2065,-0.2065 -0.19448,-0.26793 0.10745,-0.54926 0.33691,-0.31388 3.72842,-2.04869 4.00511,-2.04869 0.0792,0 0.65873,-0.20133 1.28784,-0.44747 0.62911,-0.24613 2.26084,-0.8146 3.62606,-1.26306 2.09243,-0.71414 3.70395,-1.16643 5.43043,-1.79417 0.59691,-0.22105 1.28401,-0.46253 1.52691,-0.53654 0.24293,-0.074 0.52225,-0.1981 0.62064,-0.27588 0.0984,-0.0777 0.45817,-0.18842 0.79948,-0.24589 0.58585,-0.0987 2.92248,-0.94541 3.25789,-1.18058 0.0854,-0.0598 0.36443,-0.15873 0.6204,-0.21954 0.65026,-0.15446 5.10865,-2.35347 5.34228,-2.635 0.10549,-0.1271 0.14226,-0.31156 0.0817,-0.40973 -0.0402,-0.065 -0.0769,-0.095 -0.11568,-0.09 z m -78.51232,2.61636 c -0.0806,-0.006 -0.16423,0.0168 -0.26702,0.0627 -0.21417,0.0955 -0.73712,0.10008 -1.41579,0.0125 -0.94467,-0.12182 -1.19337,-0.096 -2.03438,0.21136 -1.20873,0.44175 -1.34579,0.55096 -1.34579,1.07104 v 0.42314 l 2.44343,-0.0154 2.44342,-0.0155 0.50132,-0.54223 0.50156,-0.54245 -0.37724,-0.37701 c -0.19023,-0.19022 -0.31535,-0.27853 -0.44951,-0.28817 z m -12.40008,3.40198 c -0.23415,0.004 -0.45613,0.0833 -0.81674,0.25838 -0.38358,0.18636 -0.81883,0.33884 -0.96741,0.33884 -0.26383,0 -1.67083,1.27305 -2.58319,2.3373 -1.13517,1.32416 -1.88805,3.89045 -1.33648,4.55507 0.43999,0.53017 0.82448,0.22203 1.17104,-0.93834 0.34138,-1.14295 1.27544,-2.7947 1.96847,-3.48083 0.61694,-0.61084 0.74042,-0.6717 1.25398,-0.61927 0.15019,0.0154 0.45645,-0.11629 0.6804,-0.29248 0.22396,-0.17616 0.56833,-0.32019 0.76538,-0.32019 0.35913,0 1.3911,-0.7617 1.04446,-0.77084 -0.10353,-0.002 -0.17162,-0.19071 -0.15521,-0.42906 0.0254,-0.36983 -0.0459,-0.443 -0.55746,-0.57154 -0.182,-0.0458 -0.32674,-0.0697 -0.46724,-0.067 z m -9.36827,12.87185 c -0.0677,-8.6e-4 -0.13807,0.002 -0.20793,0.009 -0.42587,0.042 -0.56571,0.16292 -0.86424,0.74812 -0.19589,0.38398 -0.4744,1.08217 -0.61905,1.55146 -0.31642,1.02656 -0.49506,3.87853 -0.24295,3.87853 0.0926,0 0.13096,0.0974 0.0852,0.21658 -0.0457,0.11911 0.0598,0.31671 0.23452,0.43904 0.17467,0.12231 0.41828,0.46109 0.54131,0.75289 0.12304,0.2918 0.37137,0.68773 0.552,0.8797 0.32188,0.34211 0.89305,0.49932 0.70425,0.19385 -0.0527,-0.0854 -0.01,-0.15499 0.0954,-0.15499 0.10966,0 0.0474,-0.1533 -0.14589,-0.35906 -0.18553,-0.19747 -0.33747,-0.41681 -0.33747,-0.48723 0,-0.0704 -0.12207,-0.22324 -0.27134,-0.33951 -0.24869,-0.19364 -0.24935,-0.20352 -0.006,-0.11912 0.21504,0.0747 0.24811,0.0232 0.17363,-0.27112 -0.22205,-0.87779 -0.1088,-2.85687 0.22067,-3.85398 0.43433,-1.31474 0.69743,-2.81612 0.52404,-2.98952 -0.056,-0.056 -0.23301,-0.0917 -0.43587,-0.0946 z m 3.43835,14.26082 c -0.11875,0.0125 -0.23207,0.0852 -0.28045,0.21134 -0.0898,0.23399 1.05215,2.1089 1.28445,2.1089 0.0766,0 0.36082,0.38695 0.6313,0.8597 0.70253,1.22794 2.4091,2.37347 4.10759,2.75748 1.17046,0.26465 2.17198,0.0111 2.28459,-0.57744 0.0674,-0.35262 0.0139,-0.40831 -0.48383,-0.50359 -0.66737,-0.12778 -1.06172,-0.1787 -1.52145,-0.19612 -0.18759,-0.007 -0.53657,-0.19442 -0.77562,-0.41634 -0.23903,-0.22188 -0.60911,-0.49511 -0.82243,-0.60699 -0.60446,-0.31695 -2.17186,-1.86859 -2.17186,-2.15003 0,-0.13894 -0.0544,-0.25247 -0.12072,-0.25247 -0.0663,0 -0.3499,-0.20944 -0.63016,-0.46542 -0.28026,-0.25598 -0.64072,-0.46542 -0.80107,-0.46542 -0.16035,0 -0.33473,-0.0699 -0.38747,-0.15521 -0.0701,-0.11347 -0.1942,-0.16098 -0.31292,-0.14839 z m 7.55275,5.26795 c 0.18485,0 0.28751,0.0486 0.22816,0.10795 -0.16768,0.16767 -0.56427,0.19113 -0.56427,0.0334 0,-0.0777 0.15123,-0.14136 0.33611,-0.14136 z m 7.62638,5.11955 c -0.76147,0 -0.80526,0.10623 -0.42223,1.02286 0.27207,0.65114 0.48409,0.8531 1.3026,1.24081 0.29865,0.14148 0.78625,0.44048 1.08355,0.66448 0.2973,0.22401 0.68112,0.48779 0.85311,0.58609 0.17198,0.0983 0.53496,0.1855 0.80652,0.19385 0.3756,0.011 0.51898,-0.0641 0.59903,-0.31634 0.0823,-0.25901 -0.009,-0.41946 -0.41608,-0.73267 -0.28679,-0.22054 -0.71067,-0.59932 -0.94175,-0.84151 -0.23105,-0.24218 -0.81915,-0.75023 -1.30693,-1.12899 -0.73656,-0.57195 -1.00053,-0.68858 -1.55782,-0.68858 z m 6.59558,9.92892 c -0.41151,0 -0.62816,0.62223 -0.33316,0.95696 0.42509,0.48233 0.25426,3.03439 -0.28771,4.29872 -0.33359,0.77825 -0.26485,1.51093 0.15181,1.6194 0.44266,0.11519 0.5607,0.0343 0.88174,-0.60448 0.86501,-1.72123 1.15176,-2.67594 1.20126,-3.99944 l 0.0399,-1.06445 -0.67947,-0.60335 c -0.37362,-0.3319 -0.81205,-0.60336 -0.97447,-0.60336 z m -3.9633,12.0944 c -0.3061,-0.001 -0.57878,0.15316 -0.73403,0.45337 -0.12716,0.24592 -0.96264,1.17086 -1.85667,2.05551 -1.80802,1.78909 -2.05155,2.00815 -2.68045,2.41071 -0.79846,0.5111 -1.05867,1.15135 -0.63858,1.57145 0.34793,0.34793 0.91165,0.18779 2.03165,-0.57746 1.28729,-0.87955 1.90556,-1.44965 3.52242,-3.24766 1.39697,-1.55345 1.58947,-1.97282 1.09082,-2.37662 -0.23879,-0.19336 -0.4971,-0.28837 -0.73516,-0.2893 z m -10.85134,12.17941 c -0.12573,-0.004 -0.26818,0.005 -0.42747,0.0273 -0.68919,0.0944 -0.75177,0.14375 -1.12922,0.89218 -0.21972,0.43571 -0.45462,0.82776 -0.522,0.87128 -0.31952,0.20641 -0.50253,2.46534 -0.27566,3.40201 0.0943,0.38928 0.31359,0.86463 0.48724,1.0565 0.27848,0.3077 0.34496,0.3223 0.56427,0.12383 0.19975,-0.18077 0.24538,-0.53873 0.23157,-1.82256 -0.0187,-1.7418 0.0206,-1.8465 1.12899,-3.00156 0.87341,-0.91017 0.82233,-1.52619 -0.0577,-1.54895 z"
       style="fill:#f7df1e;stroke-width:1;fill-opacity:1" />
  </g>
</svg>
