<?xml version="1.0" encoding="UTF-8" standalone="no"?>
<!-- Created with Inkscape (http://www.inkscape.org/) -->

<svg
   xmlns:dc="http://purl.org/dc/elements/1.1/"
   xmlns:cc="http://creativecommons.org/ns#"
   xmlns:rdf="http://www.w3.org/1999/02/22-rdf-syntax-ns#"
   xmlns:svg="http://www.w3.org/2000/svg"
   xmlns="http://www.w3.org/2000/svg"
   xmlns:sodipodi="http://sodipodi.sourceforge.net/DTD/sodipodi-0.dtd"
   xmlns:inkscape="http://www.inkscape.org/namespaces/inkscape"
   width="508mm"
   height="285.75mm"
   viewBox="0 0 508 285.75"
   version="1.1"
   id="svg1417"
   inkscape:version="0.92.2 (5c3e80d, 2017-08-06)"
   sodipodi:docname="overlay-usecases-video.svg">
  <defs
     id="defs1411" />
  <sodipodi:namedview
     id="base"
     pagecolor="#ffffff"
     bordercolor="#666666"
     borderopacity="1.0"
     inkscape:pageopacity="0.0"
     inkscape:pageshadow="2"
     inkscape:zoom="0.35355339"
     inkscape:cx="871.9359"
     inkscape:cy="62.948064"
     inkscape:document-units="mm"
     inkscape:current-layer="layer1"
     showgrid="false"
     fit-margin-top="0"
     fit-margin-left="0"
     fit-margin-right="0"
     fit-margin-bottom="0"
     inkscape:window-width="1920"
     inkscape:window-height="1016"
     inkscape:window-x="0"
     inkscape:window-y="27"
     inkscape:window-maximized="1"
     inkscape:snap-nodes="false" />
  <metadata
     id="metadata1414">
    <rdf:RDF>
      <cc:Work
         rdf:about="">
        <dc:format>image/svg+xml</dc:format>
        <dc:type
           rdf:resource="http://purl.org/dc/dcmitype/StillImage" />
        <dc:title></dc:title>
      </cc:Work>
    </rdf:RDF>
  </metadata>
  <g
     inkscape:label="Layer 1"
     inkscape:groupmode="layer"
     id="layer1"
     transform="translate(24.946428,-88.35714)">
    <g
       id="g2478"
       transform="matrix(0.44434781,0,0,0.44434781,381.77677,271.39901)"
       style="stroke-width:2.25048923;fill:#ffffff">
      <path
         id="path2460"
         transform="matrix(0.26458333,0,0,0.26458333,-24.946428,88.35714)"
         d="m -1228,-121 a 45,45 0 0 0 -45,45 45,45 0 0 0 45,45 45,45 0 0 0 45,-45 45,45 0 0 0 -45,-45 z m 93,11 a 45,38 0 0 0 -45,38 45,38 0 0 0 45,38 45,38 0 0 0 45,-38 45,38 0 0 0 -45,-38 z m 101,82 -45,38 -2.2988,24.716797 L -1084,-22 h -183 l 13,128 175,-23 -1.377,-28.898438 L -1033,74 Z"
         style="opacity:1;vector-effect:none;fill:#ffffff;fill-opacity:0.24705882;stroke:none;stroke-width:11.25244617;stroke-opacity:1"
         inkscape:connector-curvature="0" />
      <path
         inkscape:connector-curvature="0"
         id="path1382"
         d="m -346.28392,56.437503 c -1.42267,-0.01337 -3.43316,0.106274 -4.41475,0.320117 -0.93485,0.20367 -2.10127,0.689576 -3.37,1.403469 -3.2979,1.855692 -7.55677,6.571047 -7.55677,8.368467 -9e-5,0.182875 -0.13816,0.662412 -0.30668,1.065689 -0.30875,0.738945 -0.41207,2.00233 -0.1825,2.231915 0.0682,0.06817 0.13871,0.742701 0.15648,1.49891 0.0185,0.781434 0.12853,1.406856 0.25491,1.448952 0.12219,0.04076 0.18298,0.280041 0.13492,0.531643 -0.0566,0.29631 0.099,0.658319 0.44159,1.028 0.29092,0.313915 0.46729,0.670604 0.39193,0.792532 -0.0783,0.126722 -0.0427,0.163381 0.0832,0.08557 0.12799,-0.0791 0.40948,0.242727 0.67197,0.768297 0.2917,0.584068 0.55127,0.866355 0.7327,0.796735 0.19999,-0.07675 0.24085,-0.0035 0.14181,0.254903 -0.0986,0.256877 -0.0656,0.317296 0.11279,0.207034 0.14005,-0.08656 0.40466,-0.01899 0.59627,0.152283 0.83546,0.746621 3.27556,1.658754 4.99668,1.867803 0.42427,0.05153 0.85237,0.14372 0.9514,0.204939 0.099,0.06121 0.9008,0.01378 1.78164,-0.105312 1.75127,-0.236799 4.20033,-1.124332 5.48224,-1.986576 1.20817,-0.812674 2.44127,-1.759434 2.51882,-1.933926 0.0375,-0.08425 0.16043,-0.15318 0.27316,-0.15318 0.4133,0 2.33151,-2.22448 2.92512,-3.392749 0.33636,-0.661457 0.84484,-1.570446 1.12971,-2.019779 0.2849,-0.449333 0.64168,-1.062233 0.79284,-1.36219 0.16748,-0.332326 0.38733,-0.502146 0.56306,-0.434715 0.22612,0.08677 0.26796,0.457028 0.19357,1.714925 -0.0522,0.882322 -0.16171,1.7124 -0.24353,1.844761 -0.0862,0.139476 -0.0611,0.186782 0.0595,0.112195 0.1298,-0.0802 0.24858,0.373919 0.31534,1.205716 0.0783,0.974637 0.20959,1.412287 0.48707,1.622465 0.20896,0.158298 0.30739,0.290931 0.21871,0.294399 -0.0887,0.0035 -0.064,0.121366 0.0548,0.261786 0.11875,0.140414 0.49275,0.649426 0.83143,1.13092 0.33867,0.481483 0.8643,0.98679 1.16801,1.123134 0.30373,0.136338 0.70778,0.385885 0.89785,0.554379 0.70535,0.625295 0.97502,0.816773 1.14887,0.816773 0.2407,0 0.75705,0.988387 0.59896,1.146477 -0.24779,0.247793 -6.15662,0.15674 -6.64068,-0.102325 -0.25653,-0.137294 -0.62583,-0.199161 -0.82065,-0.137322 -0.19485,0.06184 -1.13359,0.157852 -2.08592,0.213316 -0.95235,0.05546 -2.19082,0.150493 -2.75248,0.211226 -0.56167,0.06072 -2.07817,0.159919 -3.37,0.220495 -3.85093,0.180576 -5.56477,0.277355 -6.53598,0.369194 -1.40081,0.132465 -3.12765,0.512208 -3.35264,0.73719 -0.11066,0.110668 -0.36712,0.201349 -0.56995,0.201349 -0.47785,0 -2.09867,1.646631 -2.61278,2.654355 -0.21992,0.431073 -0.42146,1.066975 -0.44787,1.413347 -0.0264,0.346372 -0.11415,0.629782 -0.19506,0.629782 -0.15878,0 -0.18504,0.35131 -0.19119,2.552933 -0.005,1.565242 0.10079,2.784221 0.30817,3.574345 0.0737,0.280834 0.17154,0.832283 0.2178,1.225458 0.0463,0.393168 0.17281,1.009455 0.28124,1.369658 0.10852,0.360203 0.14822,0.842624 0.0882,1.071977 -0.06,0.229342 0.0491,0.658267 0.24235,0.953198 0.27787,0.424097 0.30501,0.637882 0.13014,1.021712 -0.14183,0.31149 -0.14791,0.485275 -0.0171,0.485275 0.11755,0 0.19533,0.583888 0.18371,1.378638 -0.0106,0.758245 -0.0108,2.251675 0,3.318845 0.0225,2.22183 -0.114,5.03541 -0.30218,6.2296 -0.17755,1.12659 -0.22817,4.7995 -0.0661,4.7995 0.0727,0 0.18707,0.21837 0.25401,0.48498 0.0705,0.28103 0.37896,0.59124 0.73419,0.73839 0.337,0.13958 0.56318,0.33401 0.50263,0.43202 -0.0606,0.098 0.0129,0.1312 0.16305,0.0736 0.15019,-0.0576 0.46682,0.0755 0.70369,0.29619 0.23683,0.22066 0.48417,0.34784 0.5496,0.28243 0.0654,-0.0654 0.2384,-0.0198 0.38446,0.10142 0.14605,0.12122 0.49844,0.19462 0.78325,0.16335 0.28482,-0.0313 0.74211,0.0342 1.01602,0.14541 0.73454,0.29831 1.79341,0.31602 1.90252,0.0317 0.0656,-0.17103 0.62275,-0.23704 1.79629,-0.21272 0.93561,0.0194 2.1606,-0.0434 2.72227,-0.13972 0.56166,-0.0964 1.50737,-0.2074 2.10147,-0.24653 0.59412,-0.0391 1.21451,-0.18271 1.37864,-0.31893 0.20971,-0.17404 0.29828,-0.17935 0.29828,-0.0182 0,0.12608 0.13252,0.22918 0.2944,0.22918 0.16185,0 0.33789,0.0704 0.39103,0.15647 0.1615,0.26128 -0.44504,2.30716 -0.99657,3.36192 -0.28547,0.54595 -0.46465,1.08059 -0.39821,1.18806 0.0664,0.10748 0.0326,0.19537 -0.0754,0.19537 -0.10796,0 -0.29598,0.25295 -0.41767,0.56187 -0.1217,0.30892 -0.30789,0.69943 -0.41376,0.86793 -0.44634,0.71031 -1.24311,2.55773 -1.24311,2.88233 0,0.19326 -0.0743,0.382 -0.16515,0.41946 -0.22173,0.0914 -1.3854,2.18465 -1.57071,2.82549 -0.13902,0.48064 -0.30896,0.90394 -1.00376,2.50207 -0.47391,1.09006 -0.97954,3.01475 -0.86823,3.30478 0.0571,0.14881 0.017,0.35755 -0.0892,0.46374 -0.10616,0.10619 -0.23196,0.3947 -0.27945,0.64115 -0.0475,0.24645 -0.22542,0.58683 -0.39521,0.75663 -0.16981,0.16981 -0.2567,0.44419 -0.19328,0.60944 0.0634,0.16525 0.0137,0.30038 -0.11069,0.30038 -0.12437,0 -0.22619,0.12839 -0.22619,0.28542 0,0.15704 -0.22882,0.68572 -0.5083,1.1746 -0.27948,0.48888 -0.5093,1.02673 -0.51162,1.19523 -0.002,0.16851 -0.13534,0.55842 -0.29619,0.86674 -0.34934,0.66973 -0.6153,2.27172 -0.44907,2.70492 0.16968,0.44218 0.63519,0.38284 1.55635,-0.19866 0.89844,-0.56717 1.2085,-1.03096 1.33795,-1.99974 0.15436,-1.15525 2.00684,-6.75426 3.36014,-10.15579 0.24578,-0.61784 0.50038,-1.30715 0.56575,-1.53182 0.0653,-0.22466 0.32,-0.73027 0.56576,-1.12343 0.24576,-0.39317 0.51861,-0.94131 0.60645,-1.21828 0.0878,-0.27698 0.45806,-1.10416 0.82275,-1.83818 0.36467,-0.73403 0.73038,-1.56454 0.81257,-1.84536 0.0822,-0.28084 0.31135,-0.78615 0.50923,-1.12314 0.49315,-0.83986 1.76539,-3.9043 2.03503,-4.90182 0.32034,-1.18507 0.8985,-1.78176 1.80199,-1.86003 0.41839,-0.0362 1.2094,-0.12616 1.758,-0.19986 0.78101,-0.10491 0.96256,-0.0777 0.83652,0.12626 -0.10601,0.17151 -0.0791,0.21012 0.0784,0.11279 0.13155,-0.0813 0.6096,-0.18473 1.06241,-0.22977 0.45278,-0.0451 0.93357,-0.15044 1.06868,-0.23426 0.13508,-0.0838 0.44501,-0.15569 0.68842,-0.15917 0.24342,-0.004 0.50513,-0.0695 0.58162,-0.146 0.0765,-0.0765 0.2679,-0.0898 0.42544,-0.0293 0.15751,0.0605 0.28631,0.0277 0.28631,-0.0727 0,-0.10045 0.18578,-0.19677 0.41287,-0.21391 0.25195,-0.019 0.35922,0.056 0.27495,0.19238 -0.0888,0.14364 -0.0426,0.16431 0.12985,0.0577 0.14753,-0.0912 0.78596,-0.27365 1.41873,-0.4057 1.34071,-0.27978 1.95952,-0.0943 2.14455,0.64295 0.0705,0.28106 0.2187,0.43635 0.34286,0.35962 0.15073,-0.0931 0.14909,-0.005 -0.006,0.28482 -0.29989,0.56032 -0.29258,0.58533 0.21033,0.71684 0.29746,0.0778 0.39513,0.21773 0.30876,0.4428 -0.0713,0.18572 -0.041,0.27648 0.0694,0.20823 0.10764,-0.0665 0.32773,0.19526 0.48916,0.58161 0.16144,0.38635 0.66961,1.10171 1.12942,1.58986 0.45979,0.48816 0.83622,0.98883 0.83622,1.11267 0,0.12383 0.18371,0.43715 0.40838,0.6962 0.22467,0.25904 0.40839,0.63537 0.40839,0.83622 0,0.20085 0.10607,0.43084 0.23576,0.511 0.15602,0.0964 0.17993,0.0552 0.0706,-0.12177 -0.11014,-0.17823 -0.0855,-0.2179 0.0739,-0.11937 0.13182,0.0813 0.19288,0.22247 0.13643,0.31384 -0.0564,0.0914 0.10119,0.42523 0.35034,0.74198 0.24919,0.31674 0.34081,0.50655 0.20375,0.42185 -0.16756,-0.10356 -0.20995,-0.0523 -0.12985,0.15647 0.0656,0.17078 0.22536,0.29052 0.35513,0.26597 0.12976,-0.0245 0.23576,0.13497 0.23576,0.35453 0,0.21957 0.21526,0.61436 0.4781,0.87721 0.26285,0.26285 0.42654,0.61168 0.3638,0.77518 -0.0627,0.16351 -0.0251,0.29709 0.0838,0.29709 0.10881,0 0.19776,0.13153 0.19776,0.29201 0,0.16047 0.14356,0.43527 0.31923,0.61093 0.17562,0.17567 0.26235,0.41217 0.19237,0.52537 -0.07,0.11319 -0.0298,0.20584 0.0892,0.20584 0.11896,0 0.21631,0.13017 0.21631,0.28931 0,0.15913 0.0927,0.32031 0.20614,0.35812 0.11346,0.0378 0.24912,0.29146 0.30158,0.56366 0.0524,0.27221 0.21238,0.56921 0.35543,0.66 0.14304,0.0908 0.18754,0.1664 0.0987,0.16814 -0.0888,0.002 0.0671,0.24952 0.34645,0.5508 0.27937,0.30129 0.4599,0.62574 0.40121,0.72073 -0.0587,0.095 0.18293,0.44321 0.53704,0.77399 0.38025,0.35522 0.58267,0.70019 0.49455,0.8428 -0.10053,0.16267 -0.0611,0.18713 0.12116,0.0745 0.19763,-0.12214 0.23477,-0.0735 0.13733,0.1804 -0.0825,0.21499 -0.0185,0.39182 0.16814,0.46344 0.16597,0.0637 0.25319,0.19464 0.19357,0.29111 -0.0596,0.0965 0.0788,0.36242 0.30756,0.59118 0.22877,0.22877 0.41587,0.50983 0.41587,0.6244 0,0.11457 0.23086,0.57401 0.5131,1.02111 0.28225,0.4471 0.46375,0.81288 0.40329,0.81288 -0.0605,0 0.0267,0.26425 0.19358,0.587 0.16693,0.32276 0.25676,0.6333 0.19985,0.69022 -0.0569,0.0569 0.0832,0.46139 0.31115,0.89874 0.22796,0.43736 0.43877,1.12991 0.46882,1.53901 0.03,0.40909 0.14677,0.72849 0.2591,0.70995 0.11233,-0.0185 0.19512,0.10406 0.1843,0.27256 -0.0119,0.18347 0.17245,0.31834 0.45954,0.33599 0.26366,0.0162 0.4793,-0.0581 0.4793,-0.16515 0,-0.10709 0.0927,-0.13754 0.20583,-0.0676 0.11311,0.0699 0.26047,-0.0162 0.32761,-0.19119 0.0672,-0.17498 0.21992,-0.25765 0.33957,-0.1837 0.13978,0.0864 0.16706,0.003 0.0763,-0.23366 -0.0777,-0.20247 -0.36315,-1.02166 -0.63457,-1.82053 -0.62451,-1.83811 -1.28394,-3.18869 -1.55695,-3.18869 -0.11629,0 -0.1618,-0.0801 -0.10112,-0.17832 0.0607,-0.0982 -0.11348,-0.42009 -0.38684,-0.71505 -0.27336,-0.29497 -0.44098,-0.53614 -0.37279,-0.53614 0.0682,0 -0.0284,-0.16828 -0.21451,-0.37397 -0.18611,-0.2057 -0.2771,-0.43558 -0.20195,-0.51071 0.0751,-0.0751 0.0293,-0.13673 -0.10173,-0.13673 -0.13106,0 -0.23814,-0.1702 -0.23814,-0.37847 0,-0.20826 -0.22012,-0.61622 -0.48917,-0.90652 -0.26903,-0.29031 -0.45211,-0.56482 -0.40689,-0.61004 0.0452,-0.0452 -0.14764,-0.39551 -0.42843,-0.77848 -0.28082,-0.38295 -0.65037,-0.995 -0.82126,-1.36008 -0.17089,-0.36509 -0.40138,-0.66389 -0.5122,-0.66389 -0.11082,0 -0.20135,-0.12364 -0.20135,-0.27495 0,-0.15131 -0.18402,-0.48712 -0.40869,-0.74616 -0.22467,-0.25904 -0.41975,-0.549 -0.43382,-0.64414 -0.0588,-0.39852 -0.41837,-1.23295 -0.77847,-1.80678 -0.10574,-0.1685 -0.43717,-0.85781 -0.73629,-1.53182 -1.01827,-2.29449 -1.38441,-2.94774 -1.96474,-3.50374 -0.31894,-0.30556 -0.57982,-0.67617 -0.57982,-0.82365 0,-0.14748 -0.092,-0.26807 -0.20434,-0.26807 -0.11233,0 -0.20434,-0.12601 -0.20434,-0.28003 0,-0.15402 -0.32011,-0.49868 -0.71146,-0.76591 -0.47896,-0.32706 -0.67644,-0.59768 -0.60405,-0.82755 0.0642,-0.20384 -0.12237,-0.58125 -0.46284,-0.93644 -0.31369,-0.32725 -0.73198,-0.87838 -0.92956,-1.22485 -0.32364,-0.56745 -0.32811,-0.66129 -0.0446,-0.94482 0.27509,-0.2751 0.7899,-0.43565 1.93572,-0.60376 0.1685,-0.0247 0.41294,-0.11147 0.54331,-0.19297 0.13035,-0.0815 0.61288,-0.163 1.07228,-0.18101 0.45939,-0.018 0.83532,-0.0864 0.83532,-0.15229 0,-0.0658 0.43637,-0.13258 0.96995,-0.14839 2.21391,-0.0655 2.5741,-0.11133 2.98765,-0.37847 0.23837,-0.15396 0.7551,-0.25333 1.14827,-0.2208 0.39316,0.0325 0.82984,-0.0307 0.97025,-0.14091 0.14042,-0.11017 0.2552,-0.13999 0.2552,-0.0661 0,0.0739 0.16595,0.0456 0.3686,-0.0628 0.21039,-0.11261 0.48986,-0.12211 0.65162,-0.0221 0.17386,0.10743 0.5123,0.0567 0.87601,-0.13135 0.32599,-0.1686 0.63853,-0.2608 0.6944,-0.20493 0.17572,0.1757 1.74412,-0.46596 2.04971,-0.83862 0.16032,-0.19583 0.2336,-0.24124 0.16246,-0.10082 -0.21572,0.42589 0.179,0.28747 0.87361,-0.30637 0.82539,-0.70563 1.69046,-2.75972 1.47767,-3.50852 -0.0823,-0.28893 -0.12047,-0.70909 -0.0853,-0.93376 0.0352,-0.22467 0.10437,-0.85295 0.15347,-1.39628 0.0694,-0.76778 0.23028,-1.12595 0.72253,-1.60722 0.34836,-0.34061 0.63338,-0.51105 0.63338,-0.37877 0,0.13207 0.0824,0.18966 0.18309,0.12746 0.28678,-0.17724 1.71097,0.67683 2.77194,1.66226 0.14543,0.13507 0.32119,0.18861 0.39073,0.11908 0.0695,-0.0695 0.12656,-0.0192 0.12656,0.11189 0,0.13106 0.13787,0.23815 0.30637,0.23815 0.1685,0 0.30635,0.092 0.30635,0.20434 0,0.11233 0.16064,0.20716 0.35723,0.21063 0.19658,0.003 0.53184,0.13845 0.74497,0.29978 0.21313,0.16156 0.48015,0.23627 0.59328,0.16634 0.11672,-0.0721 0.14252,-0.0252 0.0598,0.10861 -0.0872,0.14113 -0.0129,0.23576 0.18491,0.23576 0.19781,0 0.27183,0.0946 0.1846,0.23575 -0.0919,0.14866 -0.0558,0.18033 0.0975,0.0856 0.14625,-0.0904 0.56392,0.1705 1.04773,0.65432 0.44251,0.44251 0.83495,0.77405 0.87213,0.73688 0.0372,-0.0372 0.37237,0.21048 0.74466,0.5505 0.93375,0.85287 1.45987,0.73829 1.78523,-0.38923 0.2487,-0.86181 0.2217,-4.52323 -0.0365,-4.94102 -0.0653,-0.10564 -0.0227,-0.37185 0.0948,-0.59149 0.14445,-0.27001 0.14787,-0.57277 0.0101,-0.93495 -0.14226,-0.37391 -0.13832,-0.49513 0.0131,-0.4015 0.2194,0.13558 0.13256,-3.504602 -0.0889,-3.726035 -0.0568,-0.0568 -0.0106,-0.346482 0.10262,-0.643845 0.16654,-0.437598 0.30832,-8.72966 0.17683,-10.344269 -0.0183,-0.224669 -0.008,-1.054509 0.0233,-1.843869 0.0312,-0.789354 -0.008,-1.540213 -0.0877,-1.668845 -0.0795,-0.128627 -0.2011,-0.85968 -0.27017,-1.624272 -0.19627,-2.173005 -0.97526,-2.865344 -2.03325,-1.807366 -0.28083,0.280828 -0.56455,0.510708 -0.63037,0.510708 -0.22267,0 -1.80781,1.732021 -2.08562,2.27888 -0.15172,0.298648 -0.5307,0.821896 -0.8419,1.162629 -0.31121,0.340727 -0.77841,0.923539 -1.03816,1.295164 -0.74552,1.066575 -2.06048,2.398636 -2.84015,2.876952 -0.39317,0.241199 -0.83835,0.559132 -0.9894,0.706372 -0.51333,0.500322 -1.50019,0.913945 -1.70116,0.712955 -0.10604,-0.106036 -0.22829,-1.007591 -0.27166,-2.003337 -0.0581,-1.334 -0.16236,-1.87167 -0.39642,-2.042827 -0.1747,-0.127752 -0.31773,-0.297444 -0.31773,-0.377265 0,-0.287347 -2.52269,-2.9554 -2.69415,-2.849428 -0.0966,0.05967 -0.15023,-1.51e-4 -0.11938,-0.132836 0.0723,-0.310656 -1.19105,-0.983014 -2.09967,-1.117453 -2.92328,-0.432509 -6.05714,-0.501579 -6.93298,-0.152879 -0.41004,0.163248 -0.99383,0.270337 -1.73616,0.318332 -0.49461,0.03196 -0.62526,-0.04909 -0.67795,-0.420055 -0.0439,-0.309093 0.0399,-0.459546 0.2555,-0.459546 0.17632,0 0.32133,-0.06893 0.32133,-0.153192 4.5e-4,-0.08424 0.4139,-0.323126 0.91879,-0.53074 0.50489,-0.207636 0.8672,-0.459181 0.8054,-0.559178 -0.0618,-0.100038 0.0215,-0.130636 0.18489,-0.06792 0.16346,0.06273 0.67369,-0.07786 1.13391,-0.312647 0.46024,-0.23479 0.83682,-0.379951 0.83682,-0.322513 0,0.196932 2.14432,-1.184624 2.57358,-1.658083 0.23602,-0.260321 0.4798,-0.422846 0.54152,-0.361117 0.0617,0.06173 0.53498,-0.328749 1.05163,-0.867924 0.51667,-0.539187 0.93944,-0.898823 0.93944,-0.799127 0,0.0997 0.18372,0.01482 0.40838,-0.188479 0.22467,-0.203329 0.40838,-0.493357 0.40838,-0.644441 0,-0.151096 0.0783,-0.274651 0.17383,-0.274651 0.21717,0 2.13327,-3.662739 2.5643,-4.901831 0.40113,-1.153095 0.4051,-1.638653 0.0203,-2.376405 -0.16783,-0.32176 -0.30637,-0.73477 -0.30637,-0.917598 -5.8e-4,-0.182834 -0.13533,-0.443891 -0.29948,-0.580125 -0.16415,-0.136234 -0.36102,-0.446103 -0.43741,-0.68872 -0.20332,-0.645848 -0.99499,-1.757089 -1.50758,-2.116117 -0.39349,-0.275624 -2.65908,-0.950917 -4.08835,-1.21858 -0.28083,-0.05257 -2.48665,-0.118964 -4.90182,-0.147796 -4.24927,-0.05072 -6.39397,0.156278 -7.03321,0.679144 -0.11954,0.09779 -0.58494,0.276237 -1.03427,0.396417 -0.44934,0.120185 -1.09079,0.427761 -1.42562,0.683636 -0.59104,0.451655 -0.85193,0.705944 -3.03491,2.961022 -0.56767,0.586413 -1.05971,1.038768 -1.09352,1.004963 -0.10854,-0.108554 -0.0972,-1.022818 0.0251,-2.011419 0.13174,-1.06474 -0.32099,-2.137151 -1.23383,-2.921526 -0.26823,-0.230499 -0.48797,-0.530937 -0.48797,-0.667779 0,-0.136842 -0.0983,-0.248922 -0.2187,-0.248922 -0.28512,0 -0.80241,-0.520556 -0.80241,-0.807492 0,-0.123161 -0.27376,-0.278669 -0.60824,-0.345556 -0.33447,-0.0669 -0.71329,-0.248337 -0.8419,-0.4033 -0.12861,-0.154969 -0.33832,-0.281836 -0.46613,-0.281836 -0.12779,0 -0.48418,-0.233406 -0.79195,-0.518784 -0.30777,-0.285379 -0.55946,-0.463124 -0.55946,-0.395219 0,0.155415 -1.68832,-0.755519 -1.872,-1.010046 -0.081,-0.112195 -0.72308,-0.168204 -1.57669,-0.176216 z m 1.25628,2.242672 c 0.14996,-0.0087 0.46215,0.06766 0.80451,0.204643 1.30373,0.521656 3.01245,1.432504 2.89938,1.54558 -0.0564,0.05645 0.15476,0.193973 0.46942,0.305468 0.69201,0.245223 1.93043,1.430171 2.07873,1.988973 0.0298,0.112335 0.1868,0.350795 0.34885,0.529861 0.3564,0.393817 0.27278,1.193731 -0.32521,3.114202 -0.4872,1.564668 -0.84002,2.254238 -2.21157,4.321405 -1.88343,2.838631 -4.57684,4.952571 -7.78445,6.109632 -2.80213,1.010787 -6.48019,0.841361 -8.29337,-0.382059 -1.02491,-0.691545 -2.59161,-2.171385 -2.44943,-2.313588 0.0596,-0.0596 1.6e-4,-0.238697 -0.13194,-0.397916 -0.13214,-0.159224 -0.27598,-0.671721 -0.31952,-1.138991 -0.0435,-0.467286 -0.15667,-0.942956 -0.25132,-1.057022 -0.0947,-0.114054 -0.14669,-0.988717 -0.11578,-1.943496 0.075,-2.316112 0.55333,-3.358255 2.76626,-6.024959 0.89402,-1.07735 2.71346,-2.757276 2.98614,-2.757276 0.14506,0 0.33839,-0.133455 0.42963,-0.296489 0.29619,-0.529275 2.44207,-1.480893 3.1163,-1.381932 0.3402,0.04991 0.6187,0.163752 0.6187,0.252812 0,0.214868 0.80502,0.0023 1.36967,-0.361714 0.2478,-0.159739 0.55037,-0.228398 0.67256,-0.152879 0.12221,0.07551 0.33303,0.04996 0.46852,-0.05656 0.14154,-0.111269 0.76796,-0.132117 1.47199,-0.0491 0.674,0.0795 1.25491,0.07026 1.29097,-0.02067 0.009,-0.02269 0.041,-0.03509 0.091,-0.03798 z m 23.10385,3.176138 c 0.0715,0.0012 0.10261,0.02559 0.0685,0.08078 -0.0595,0.09629 0.61817,0.167226 1.50609,0.157667 0.98792,-0.01065 1.61439,0.06479 1.61439,0.19417 0,0.141845 0.0718,0.139755 0.2178,-0.0063 0.23024,-0.230233 3.08592,0.471218 3.22042,0.791038 0.0374,0.08904 0.24957,0.161859 0.47151,0.161859 0.22194,0 0.35818,0.07344 0.30278,0.163063 -0.0554,0.0896 -0.0162,0.296402 0.0871,0.459546 0.14242,0.225127 0.18826,0.231489 0.19058,0.02663 0.006,-0.493184 0.51614,0.198888 0.9131,1.238316 0.37476,0.981295 0.35886,1.978199 -0.0479,3.014275 -0.11026,0.280839 -0.20751,0.581647 -0.21631,0.668676 -0.0199,0.197389 -0.66394,1.345672 -0.9936,1.771164 -0.13524,0.174549 -0.54883,0.774492 -0.91909,1.333167 -0.37027,0.55868 -0.98141,1.222077 -1.35799,1.474374 -0.37659,0.252303 -1.0659,0.795537 -1.53182,1.206908 -0.46591,0.411377 -1.919,1.277193 -3.22909,1.924049 -1.98399,0.979587 -2.6325,1.20047 -3.88071,1.32179 -0.82424,0.08013 -1.72818,0.169235 -2.00902,0.198067 -0.61317,0.06298 -1.30725,-0.119184 -2.18703,-0.574139 -0.35877,-0.185532 -0.86817,-0.337473 -1.13211,-0.337473 -0.26396,0 -0.59012,-0.110233 -0.72492,-0.245031 -0.1348,-0.13481 -0.24503,-0.176177 -0.24503,-0.09215 0,0.215412 -1.64906,-0.951126 -2.1634,-1.53033 -0.83807,-0.943727 -1.31894,-2.590977 -1.21349,-4.157451 0.11152,-1.656699 0.42603,-3.431343 0.698,-3.937263 0.35618,-0.662609 1.39829,-1.870895 1.51387,-1.755306 0.0635,0.06351 0.23579,-0.07734 0.38295,-0.312949 0.14714,-0.235606 0.37869,-0.428126 0.5146,-0.428126 0.13588,0 0.32065,-0.126155 0.41048,-0.280035 0.21527,-0.36876 1.89922,-1.216577 1.89922,-0.956197 0,0.111101 0.1373,0.149376 0.30516,0.08497 0.16785,-0.06441 0.26262,-0.186036 0.21063,-0.27017 -0.24381,-0.394488 1.16223,-0.682559 3.50643,-0.718339 1.36975,-0.0209 2.61053,-0.134016 2.75728,-0.251608 0.26845,-0.215134 0.84616,-0.421219 1.0606,-0.417659 z m -17.09654,19.842452 c 0.41225,-4.57e-4 0.8709,0.0052 1.36816,0.01673 3.14503,0.07404 3.21854,0.08608 3.61444,0.589394 0.22225,0.282554 0.58683,0.571754 0.81019,0.642647 0.22336,0.0709 0.35413,0.213276 0.29051,0.316231 -0.0636,0.102956 0.0177,0.135875 0.1807,0.07331 0.16307,-0.06259 0.76201,0.02461 1.33107,0.193568 0.91644,0.272143 1.59685,0.280422 3.19319,0.0389 0.22467,-0.03398 0.45455,-0.08395 0.5107,-0.110696 0.0562,-0.02675 0.31395,-0.03115 0.57264,-0.0098 0.25872,0.02125 0.5803,-0.0517 0.71475,-0.16216 0.13447,-0.110459 0.59992,-0.256877 1.03428,-0.325211 0.43436,-0.06834 0.87387,-0.176321 0.97683,-0.239948 0.16566,-0.102388 0.70518,-0.195044 2.12271,-0.365002 0.22943,-0.0275 0.54229,-0.127423 0.6953,-0.221995 0.19542,-0.120776 0.23118,-0.09556 0.11997,0.08437 -0.12258,0.198339 -0.0661,0.206658 0.25072,0.03711 0.4591,-0.245703 5.74772,-0.173102 6.58084,0.09035 0.27884,0.08817 0.68676,0.327799 0.90653,0.532546 0.21976,0.204742 0.47963,0.372182 0.57742,0.372182 0.0977,0 0.12088,0.09201 0.0515,0.204348 -0.0694,0.112329 -0.0334,0.204342 0.0802,0.204342 0.32676,0 1.48948,1.815738 1.32897,2.075435 -0.0892,0.144397 -0.0545,0.178463 0.091,0.08856 0.14375,-0.08883 0.24201,-0.0012 0.25162,0.223789 0.0485,1.140097 0.23997,2.216051 0.4048,2.274995 0.10883,0.03896 0.11503,0.212106 0.0147,0.408684 -0.30668,0.600557 -0.41953,3.924729 -0.17113,5.038552 0.20126,0.902557 0.36194,4.112432 0.31683,6.331324 -0.016,0.78633 -0.0462,2.57856 -0.067,3.98273 -0.0386,2.58796 -0.18754,3.26374 -1.01723,4.6164 -0.48083,0.7839 -2.64927,1.87153 -4.09223,2.05241 -0.56167,0.0704 -1.16094,0.19883 -1.33167,0.28572 -0.79881,0.40651 -5.59965,1.1998 -7.96127,1.31551 -0.73017,0.0358 -2.03353,0.21128 -2.8964,0.38983 -0.86284,0.17855 -1.78203,0.31407 -2.04252,0.30128 -0.55859,-0.0274 -3.22977,0.38871 -4.252,0.66239 -0.85374,0.22857 -1.75453,0.31618 -5.00385,0.48678 -2.56139,0.13448 -2.88872,0.17163 -4.39142,0.49754 -0.5055,0.10963 -1.60841,0.20364 -2.45091,0.20942 -0.84248,0.006 -1.85339,0.0969 -2.24657,0.20315 -0.60949,0.16478 -5.85738,0.41469 -5.98696,0.28512 -0.0246,-0.0247 -0.53783,-0.0878 -1.14049,-0.14061 -0.60263,-0.0528 -1.4536,-0.26581 -1.89114,-0.47331 -0.69423,-0.32926 -0.7783,-0.44236 -0.6597,-0.88798 0.0747,-0.28083 0.16491,-1.29173 0.20046,-2.24657 0.0356,-0.95483 0.12241,-2.05774 0.19297,-2.45091 0.38335,-2.13553 0.26246,-11.176335 -0.17203,-12.86729 -0.0433,-0.168499 -0.14667,-0.582094 -0.22977,-0.919092 -0.0831,-0.336999 -0.2031,-0.750593 -0.26657,-0.919092 -0.0632,-0.168499 -0.0943,-0.51798 -0.0688,-0.776681 0.0255,-0.258694 -0.0647,-0.604198 -0.20046,-0.767706 -0.14628,-0.176171 -0.19985,-0.586366 -0.13162,-1.006752 0.0633,-0.390158 0.0333,-0.759734 -0.0667,-0.821561 -0.1,-0.06182 -0.13217,-0.241928 -0.0715,-0.400006 0.0607,-0.158078 0.0254,-0.438964 -0.0784,-0.624398 -0.30862,-0.551461 0.28043,-3.320438 1.01992,-4.793816 0.62524,-1.245802 1.22063,-1.790727 2.09638,-1.919267 0.14571,-0.02136 0.42957,-0.172702 0.63097,-0.33628 0.32236,-0.261798 0.34471,-0.260727 0.1858,0.009 -0.15652,0.265596 -0.13394,0.268415 0.16994,0.02183 0.19277,-0.156214 0.40955,-0.2253 0.48197,-0.152885 0.0724,0.07242 0.29166,-0.01279 0.48708,-0.189683 0.25886,-0.234263 0.92863,-0.345497 2.46737,-0.409883 4.19438,-0.175516 5.60037,-0.260188 6.50365,-0.390731 1.54696,-0.223541 3.66572,-0.252454 3.53964,-0.04846 -0.0644,0.104131 0.0624,0.09336 0.28153,-0.02391 0.18519,-0.09893 1.00353,-0.153452 2.24029,-0.154679 z m 39.87608,0.930758 c 0.24287,0.0076 0.40987,0.176918 0.4763,0.52447 0.0542,0.283515 0.0328,0.556047 -0.0472,0.605547 -0.0802,0.0495 -0.0776,0.529907 0.005,1.06749 0.083,0.537584 0.11472,2.76966 0.0706,4.960162 -0.0441,2.190501 -0.0789,4.097517 -0.0766,4.237937 0.002,0.140414 0.005,0.508149 0.005,0.817069 0.003,1.117141 0.0325,2.413127 0.0697,3.04838 0.0209,0.356695 -0.0113,0.61807 -0.0712,0.581017 -0.0599,-0.03705 -0.1089,0.374694 -0.1089,0.914906 0,0.540218 0.0833,0.930719 0.18489,0.867929 0.10158,-0.0628 0.13208,-0.0293 0.0679,0.0745 -0.116,0.18772 -0.34458,2.44165 -0.44278,4.3639 -0.0283,0.55392 -0.16941,1.14911 -0.31325,1.32269 -0.33452,0.40311 -0.95758,0.40572 -1.18178,0.005 -0.0955,-0.17064 -0.39224,-0.35243 -0.65941,-0.4039 -0.26716,-0.0515 -0.76796,-0.36123 -1.11295,-0.68842 -0.34503,-0.32719 -0.85727,-0.66089 -1.1381,-0.74138 -0.86976,-0.24927 -3.06364,-1.37424 -3.06364,-1.57101 0,-0.23889 -1.31899,-0.80737 -2.24656,-0.96815 l -0.71475,-0.12387 -0.0533,-1.936615 c -0.0292,-1.065214 -0.075,-3.069344 -0.10201,-4.453349 l -0.049,-2.516135 0.84878,-0.751548 c 1.66261,-1.471763 2.1664,-1.874983 2.34261,-1.874983 0.0982,0 0.17862,-0.09171 0.17862,-0.204041 0,-0.112335 0.10432,-0.204342 0.23187,-0.204342 0.12754,0 0.44018,-0.206797 0.695,-0.459546 0.25479,-0.252749 0.89038,-0.873141 1.41213,-1.378638 0.52179,-0.505504 1.35518,-1.532496 1.85196,-2.282174 1.20331,-1.81583 2.31999,-2.85241 2.94068,-2.832968 z m -38.2946,34.003417 c -0.067,0.0102 -0.0862,0.0785 -0.0862,0.20912 0,0.17246 0.10152,0.31355 0.22588,0.31355 0.12437,0 0.17029,0.14598 0.10172,0.32461 -0.0686,0.17864 -0.0581,0.4316 0.0233,0.56187 0.0815,0.13029 0.16938,0.37482 0.19537,0.54332 0.13799,0.8935 0.002,5.11785 -0.17383,5.41612 -0.0651,0.11021 -0.1169,0.79776 -0.11458,1.52793 0.002,0.73017 -0.0644,1.66759 -0.1478,2.08291 -0.19858,0.98938 -0.26792,2.41053 -0.11758,2.41053 0.14878,0 0.0921,1.61276 -0.0736,2.09338 -0.27903,0.80948 -0.30311,0.96118 -0.16545,1.04625 0.203,0.12543 0.15836,3.04318 -0.0518,3.38317 -0.10985,0.17779 -0.0961,0.23257 0.0377,0.14989 0.24299,-0.15017 0.48854,0.84328 0.36591,1.48006 -0.0974,0.50572 0.3359,0.57174 0.71953,0.1095 0.20461,-0.24655 0.29743,-0.25936 0.42185,-0.058 0.39137,0.63324 0.55445,-0.99933 0.48618,-4.86891 -0.0406,-2.30484 0.0177,-4.47226 0.13433,-4.9835 0.11353,-0.4976 0.24462,-2.14551 0.2914,-3.66201 0.11397,-3.69707 0.10085,-4.26983 -0.11638,-5.10617 -0.10212,-0.39316 -0.2332,-0.95072 -0.2914,-1.23891 -0.12355,-0.61159 -0.64104,-1.25102 -1.29128,-1.59555 -0.19138,-0.1014 -0.30634,-0.14935 -0.37338,-0.13912 z"
         style="fill:#ffffff;fill-opacity:1;stroke:none;stroke-width:2.25048923" />
    </g>
  </g>
</svg>
