<?xml version="1.0" encoding="UTF-8" standalone="no"?>
<svg
   xmlns:dc="http://purl.org/dc/elements/1.1/"
   xmlns:cc="http://creativecommons.org/ns#"
   xmlns:rdf="http://www.w3.org/1999/02/22-rdf-syntax-ns#"
   xmlns:svg="http://www.w3.org/2000/svg"
   xmlns="http://www.w3.org/2000/svg"
   id="svg4428"
   version="1.1"
   viewBox="0 0 677.33331 381"
   height="381mm"
   width="677.33331mm">
  <defs
     id="defs4422" />
  <metadata
     id="metadata4425">
    <rdf:RDF>
      <cc:Work
         rdf:about="">
        <dc:format>image/svg+xml</dc:format>
        <dc:type
           rdf:resource="http://purl.org/dc/dcmitype/StillImage" />
        <dc:title></dc:title>
      </cc:Work>
    </rdf:RDF>
  </metadata>
  <g
     transform="translate(278.19047,279.03572)"
     id="layer1">
    <g
       transform="translate(144.23043,-187.49686)"
       id="g4383">
      <path
         style="fill:#ffffff;fill-opacity:1;stroke-width:3.77952766"
         d="m 522.12695,605.92578 c -1.28827,-0.0535 -3.48047,1.81024 -3.48047,3.3711 0,0.68122 1.40939,2.56879 3.13282,4.19531 2.89496,2.73241 6.72218,11.34899 8.32617,18.74609 0.38143,1.75869 1.24172,2.88995 1.99805,2.625 0.90576,-0.31729 1.25734,-2.98871 1.10351,-8.38867 -0.17994,-6.30875 -0.81112,-8.92254 -3.09765,-12.82422 -1.57936,-2.69507 -3.69596,-5.20307 -4.70313,-5.57422 -1.00728,-0.37088 -2.1642,-1.17166 -2.57031,-1.77929 -0.16279,-0.24369 -0.41169,-0.35875 -0.70899,-0.3711 z m -61.15625,12 c -3.4909,0.032 -4.64912,0.65787 -7.15039,2.6875 -1.9982,1.62146 -3.79414,3.05232 -3.99219,3.17969 -0.19782,0.12767 -0.50387,1.53118 -0.67773,3.11719 -0.17416,1.586 -1.36738,4.00144 -2.65234,5.36914 -2.06423,2.1967 -2.31228,3.62987 -2.13086,12.27539 0.20402,9.72336 1.36001,14.71484 3.40625,14.71484 0.63628,0 0.79494,-1.99308 0.39258,-4.92773 -0.41677,-3.04052 -0.25035,-4.92969 0.43359,-4.92969 0.6099,0 1.26667,0.61611 1.46094,1.36914 1.65025,6.40433 5.7402,18.01296 6.65625,18.89453 0.62596,0.60242 1.23767,2.82117 1.35937,4.92969 0.19922,3.44904 0.99502,9.98153 1.30078,10.67969 0.0661,0.15042 1.1219,0.27343 2.34571,0.27343 2.77489,0 3.79181,-2.41955 2.23828,-5.32226 -0.64955,-1.21372 -1.44279,-4.29512 -1.76367,-6.84766 -0.3207,-2.55254 -1.79924,-8.96524 -3.28516,-14.25 -1.48585,-5.28476 -2.70117,-10.54448 -2.70117,-11.68945 0,-2.67254 -3.1347,-8.99024 -4.46094,-8.99024 -1.67422,0 -1.14729,-5.46239 0.85352,-8.8496 2.67167,-4.52278 8.20726,-6.84803 14.79687,-6.21485 6.33955,0.60915 9.10271,2.80702 8.14649,6.48242 -0.36598,1.40648 -3.14242,6.36125 -6.16797,11.00977 -3.02555,4.64859 -5.5,9.13035 -5.5,9.96094 0,3.29911 4.05913,5.2381 12.19336,5.82226 9.37247,0.67306 21.76171,4.48807 21.76171,6.70117 0,0.8281 0.46884,1.21472 1.04102,0.86133 0.57222,-0.35369 1.5747,0.35636 2.22852,1.57813 1.22422,2.28748 5.49414,3.12096 5.49414,1.07226 0,-1.84535 -3.46622,-8.03284 -5.3711,-9.58789 -4.48316,-3.65971 -14.18502,-6.39486 -24.59179,-6.93359 -2.85317,-0.14771 -5.08789,-0.80013 -5.08789,-1.48438 0,-0.67132 2.03,-4.34473 4.51171,-8.16406 5.3717,-8.2679 7.02638,-13.35216 5.35938,-16.4668 -1.91694,-3.58193 -7.56606,-5.75888 -16.04297,-6.18359 -1.81799,-0.0911 -3.24066,-0.1474 -4.4043,-0.13672 z m -51.84765,3.72656 c -5.71696,0.0875 -13.49615,1.50947 -16.60743,3.46094 -7.87154,4.93716 -13.74381,13.30892 -11.15234,15.90039 1.15899,1.15903 3.65039,0.84886 3.65039,-0.45508 0,-2.09537 7.82261,-8.86297 12.77735,-11.05468 5.317,-2.35197 14.23414,-2.86102 17.69336,-1.00977 1.23034,0.65855 3.29227,2.67779 4.58007,4.48633 2.81284,3.95029 4.38282,4.20405 4.38282,0.71094 0,-2.69239 -5.39878,-9.1309 -9.4375,-11.25586 -1.11396,-0.58611 -3.28811,-0.82299 -5.88672,-0.78321 z m -55.76758,27.62305 c -0.65318,0.0251 -1.20601,0.35211 -1.62695,1.0332 -0.30474,0.49308 1.41814,3.81919 3.82812,7.39258 11.39415,16.89479 14.5842,29.13225 8.96094,34.3711 -5.62819,5.24341 -13.31712,6.9816 -17.35742,3.92578 -1.16939,-0.88453 -3.14999,-1.62368 -4.40039,-1.64258 -4.18433,-0.0641 -7.43314,-4.92466 -7.75977,-11.60547 -0.35574,-7.27423 -0.8132,-8.14453 -4.26953,-8.14453 -2.8101,0 -2.78081,-0.0857 -3.24609,9.31055 -0.49861,10.06767 -5.87635,16.08192 -10.61719,11.87304 -5.37276,-4.76984 -9.93721,-22.79193 -6.33594,-25.01758 1.37448,-0.84933 1.44863,-4.92968 0.0898,-4.92968 -0.55312,0 -1.7609,-0.28882 -2.68359,-0.64258 -1.98179,-0.76052 -5.07422,5.68811 -5.07422,10.58203 0,8.18869 5.29798,20.3937 11.57617,26.67187 3.31769,3.3176 10.37058,1.11494 14.53516,-4.54101 1.93659,-2.62998 2.50866,-2.85484 4.2207,-1.65234 3.98876,2.80161 9.18354,4.65453 16.63086,5.93164 6.86406,1.17702 8.08411,1.09954 12.26367,-0.78516 5.20684,-2.34796 10.49712,-8.84151 11.45508,-14.06055 1.88815,-10.28662 -13.87534,-38.31296 -20.18945,-38.07031 z m 52.10742,3.55664 c -1.75399,-0.0541 -3.64269,0.64706 -6.01562,2.09375 -4.80152,2.92743 -3.95883,4.89258 2.09961,4.89258 4.38572,0 4.83684,0.24969 4.94531,2.73828 0.065,1.50607 0.18802,3.14839 0.27343,3.65039 0.34666,2.04023 3.01636,-0.23197 4.89649,-4.16797 l 2.00391,-4.19336 -2.9961,-2.57422 c -1.83458,-1.57651 -3.45304,-2.38535 -5.20703,-2.43945 z m -18.67578,1.58203 c -0.45138,0.0637 -0.93405,0.43896 -1.44141,1.13282 -2.47294,3.38195 -1.26844,18.84119 1.93164,24.79296 0.56259,1.0461 1.02344,2.53866 1.02344,3.31641 0,0.77779 0.76727,2.51075 1.70508,3.84961 2.12965,3.04048 3.09155,3.05526 5.06836,0.0781 1.38372,-2.08399 2.7238,-2.3908 11.60547,-2.65234 6.55933,-0.1931 9.95712,0.1013 9.79687,0.84961 -0.36673,1.71519 5.71128,3.57001 7.11133,2.16992 0.79019,-0.79018 0.17513,-2.03511 -2.00195,-4.05273 -5.28291,-4.89608 -9.8277,-6.20775 -20.14063,-5.81446 l -9.31054,0.35547 -0.80079,-5.47851 c -0.4402,-3.01217 -1.10427,-7.941 -1.47656,-10.95313 -0.63981,-5.17821 -1.71617,-7.78491 -3.07031,-7.59375 z m 144.94531,5.03906 c -2.53044,-0.01 -4.77095,2.55032 -3.93359,4.73243 0.7045,1.83575 1.20337,1.93298 4.86914,0.95117 3.24057,-0.86801 2.91664,-5.16894 -0.42578,-5.64649 -0.17045,-0.0244 -0.34107,-0.0365 -0.50977,-0.0371 z m -272.05078,1.1836 c -0.64907,-0.0354 -1.32183,0.19077 -2.23633,0.60742 -2.50722,1.1424 -2.64027,1.52804 -1.48437,4.29492 1.7163,4.10808 5.17873,7.05534 7.44531,6.33594 1.93154,-0.61304 7.69336,3.86444 7.69336,5.97852 0,1.52352 2.26218,5.37655 4.59375,7.82421 1.0206,1.07154 2.18182,3.82445 2.58008,6.11719 0.398,2.29274 1.13998,6.13905 1.64844,8.54688 1.34889,6.38676 -1.52774,16.87647 -5.91993,21.58984 -5.98822,6.42629 -10.43254,8.92429 -16.03125,9.00781 -5.55983,0.083 -16.44531,-4.25193 -16.44531,-6.54883 0,-0.72691 -0.68068,-1.8864 -1.51172,-2.57617 -2.21751,-1.84032 -3.16804,-7.26062 -2.89648,-16.52148 0.23266,-7.93493 1.64774,-11.67163 6.01562,-15.90039 2.291,-2.21806 10.04943,-7.1211 11.26953,-7.1211 0.69227,0 2.83169,1.95778 4.75391,4.34961 3.52861,4.39091 5.37109,4.81669 5.37109,1.24024 0,-2.99875 -6.49132,-9.97071 -9.2832,-9.97071 -1.3373,0 -3.58561,1.0035 -4.99805,2.22852 -1.41244,1.22495 -3.27747,1.95407 -4.14453,1.62109 -0.86709,-0.33278 -3.20586,0.63686 -5.19531,2.1543 -1.98945,1.51744 -3.88942,2.75977 -4.22266,2.75977 -0.3333,0 -1.34397,-1.76654 -2.24609,-3.92578 -4.75695,-11.38489 -23.98672,-20.20499 -38.22852,-17.53321 -4.72673,0.88672 -10.54687,5.52924 -10.54687,8.41211 0,1.15136 -0.44522,2.0918 -0.99023,2.0918 -1.73701,0 0.14661,9.03718 2.65429,12.73242 3.18578,4.69149 5.41751,2.99186 3.16211,-2.40625 -2.75578,-6.59531 -2.06262,-9.94775 2.70899,-13.10547 3.2844,-2.17326 5.40978,-2.75015 9.37304,-2.54492 2.81941,0.14597 5.37399,0.66433 5.67578,1.15234 0.30155,0.48787 1.52345,0.88672 2.7168,0.88672 2.46661,0 9.80417,3.53439 13.1582,6.33789 6.95531,5.81371 7.28872,15.23462 0.75196,21.29883 -7.44182,6.90376 -11.74772,10.43505 -13.57617,11.13672 -3.23829,1.24263 -5.91897,-0.35298 -5.91797,-3.52344 4.5e-4,-1.61609 -0.8064,-7.00453 -1.79297,-11.97461 -1.76462,-8.88952 -1.84574,-9.03515 -5.04883,-9.03515 -3.05926,0 -3.22159,0.21371 -2.68945,3.55859 0.3114,1.95791 1.12639,5.73794 1.81054,8.40039 0.68407,2.66249 1.67784,8.57777 2.20899,13.14453 2.16548,18.61565 3.5651,27.03684 4.83984,29.11524 0.73905,1.20487 1.92073,4.18014 2.625,6.61133 0.70432,2.43118 2.29619,5.51168 3.53906,6.8457 h 0.002 c 2.74721,2.94886 2.90577,2.96058 4.3125,0.33203 0.83774,-1.56541 0.43241,-4.25755 -1.60743,-10.67969 -1.49995,-4.72259 -3.10105,-9.32487 -3.55859,-10.22851 -0.45747,-0.90365 -0.83278,-4.57931 -0.82031,-8.16797 l 0.0137,-6.52539 6.97852,-4.78125 c 3.83873,-2.63014 8.24289,-5.95279 9.78515,-7.38282 1.54223,-1.43002 3.15827,-2.38125 3.5918,-2.11328 0.4334,0.2679 1.13977,3.52259 1.57031,7.23242 1.7907,15.42826 8.4974,23.04353 21.6543,24.58985 8.97709,1.05509 16.131,-1.70691 23.30273,-8.99414 7.61491,-7.73756 9.66449,-13.72711 8.87891,-25.95313 -0.77879,-12.12208 -1.83065,-15.10314 -8.65625,-24.54297 -2.26831,-3.13708 -4.12305,-6.19964 -4.12305,-6.80664 0,-0.60695 -1.10937,-1.67321 -2.46484,-2.36914 -1.35548,-0.69592 -4.05517,-2.76883 -5.99805,-4.60742 -1.95417,-1.84927 -2.969,-2.63626 -4.05078,-2.69531 z m 196.5293,1.91992 c 0.60245,0 1.0957,0.49328 1.0957,1.0957 0,0.60246 -0.49325,1.09375 -1.0957,1.09375 -0.60242,0 -1.09571,-0.49129 -1.09571,-1.09375 0,-0.60242 0.49329,-1.0957 1.09571,-1.0957 z m -1462.67574,11.8125 c -2.0767,0.0336 -3.6557,1.67141 -3.9942,5.05469 -0.3103,3.10129 -0.043,3.40291 3.2871,3.72265 3.1382,0.30138 3.8211,0.93624 5.1016,4.73047 1.9957,5.91372 0.2314,17.54221 -4.2969,28.33008 -4.3809,10.43649 -8.7206,15.73335 -13.6504,16.6582 -6.2727,1.17676 -8.8168,-0.0992 -11.6211,-5.82617 -2.1226,-4.33474 -2.5699,-7.05872 -2.664,-16.25586 -0.1162,-11.37142 -0.6318,-13.59765 -3.1485,-13.59765 -1.7423,0 -2.8426,3.85999 -3.4375,12.04883 -0.9179,12.63692 -1.7602,17.06345 -4.0078,21.0625 -2.6845,4.77649 -3.9468,5.07197 -7.1172,1.66601 -3.1129,-3.34424 -5.0311,-8.85334 -8.4863,-24.37109 -4.102,-18.42282 -4.8066,-20.45157 -6.957,-20.01953 -1.9637,0.39446 -2.0809,2.02889 -0.836,11.67968 0.9257,7.1757 2.961,15.73413 6.0938,25.63086 1.7107,5.4042 3.6307,8.76717 7.0371,12.32227 2.5768,2.68928 5.4243,4.89062 6.3262,4.89062 2.1284,0 5.9442,-4.10471 7.4082,-7.96875 1.7852,-4.71205 3.5843,-4.54808 9.4492,0.86719 4.9546,4.57482 5.8572,4.98716 10.3574,4.73242 2.711,-0.15348 5.421,-0.65165 6.0234,-1.10742 8.0936,-6.12268 9.8997,-8.63855 15.98832,-22.26367 5.46668,-12.23316 6.32507,-26.70627 2.04297,-34.46485 -2.73569,-4.95677 -6.22849,-7.56464 -8.89839,-7.52148 z m 1111.24214,3.58594 c -3.06039,4.3e-4 -6.306747,0.36313 -8.855465,1.16406 -6.565572,2.06317 -19.740918,8.88711 -25.675781,13.29688 -14.675653,10.90446 -28.017894,22.3457 -28.867188,24.7539 -0.34845,0.98786 -1.314157,2.5912 -2.144531,3.5625 -2.385967,2.79096 -3.664254,8.36482 -2.171875,9.4707 1.0685,0.79197 3.208601,0.98525 4.289062,0.38672 0.150611,-0.0834 6.852798,-0.37108 14.892579,-0.63867 8.03978,-0.26732 18.881875,-0.83377 24.095703,-1.25976 17.764732,-1.45149 20.751676,-1.09148 30.328126,3.66211 4.79988,2.3825 8.77405,4.41263 8.83203,4.50976 0.0584,0.0972 1.1009,-0.68597 2.31641,-1.74023 4.1671,-3.6144 -0.34945,-8.42464 -10.08985,-10.7461 -1.80734,-0.43075 -3.79282,-1.17792 -4.41211,-1.66015 -1.41244,-1.09958 -16.940615,-1.53198 -23.517575,-0.6543 -2.710949,0.36178 -9.365215,0.91519 -14.787109,1.22852 -5.421941,0.31355 -12.714469,0.80701 -16.205078,1.09765 -9.133074,0.7601 -9.365069,-1.22303 -1.060547,-9.06445 11.138717,-10.51752 21.010502,-18.04433 30.408203,-23.17969 3.614596,-1.97514 7.065534,-3.93972 7.667968,-4.36719 2.548294,-1.80801 17.134398,-5.71935 19.257808,-5.16406 2.9018,0.75878 5.38672,-0.14821 5.38672,-1.96484 0,-1.68515 -4.58685,-2.69408 -9.6875,-2.69336 z m -1271.06644,6.0039 c -2.0718,0.0572 -3.979,0.36146 -5.3945,0.92579 -4.1467,1.6532 -8.6278,6.65737 -9.9219,11.08203 -1.3983,4.78121 1.0101,21.06842 3.2246,21.80664 1.0904,0.36344 1.2277,-1.43678 0.6289,-8.30078 -0.9294,-10.65502 0.7496,-14.39145 8.0586,-17.92969 4.1012,-1.98535 5.3529,-2.1388 8.8672,-1.08594 4.9945,1.49639 11.5254,6.9038 13.7696,11.40235 2.114,4.23828 2.1284,13.88769 0.031,21.93945 -2.5649,9.84741 -11.8863,26.11622 -15.2461,26.60937 -2.3589,0.34621 -5.1026,-11.63586 -6.6504,-29.04882 -0.6591,-7.41517 -1.9524,-8.89926 -4.4433,-5.09766 -1.7151,2.61755 -1.7656,3.99589 -0.545,15.17773 0.7385,6.76445 2.3555,15.74972 3.5938,19.9668 2.7362,9.3182 3.8317,14.86717 5.166,26.1875 0.5616,4.76466 1.6203,9.03238 2.3516,9.48437 2.8009,1.73107 3.8339,-1.73432 3.7734,-12.6621 l -0.061,-10.94532 4.2968,0.36524 c 4.6096,0.39295 15.1073,5.04223 19.9004,8.8125 1.6138,1.26943 3.4113,2.30664 3.9961,2.30664 0.5849,0 2.5285,1.23214 4.3184,2.73828 5.3343,4.48864 8.067,3.17628 4.9648,-2.38477 -1.9146,-3.43245 -20.7648,-15.6875 -24.1289,-15.6875 -2.701,0 -10.6094,-3.66742 -10.6094,-4.91992 0,-0.73519 1.6517,-3.50343 3.6719,-6.15039 11.0491,-14.47737 16.7554,-36.63017 12.1758,-47.27344 -2.3738,-5.51693 -10.2229,-13.3998 -15.5625,-15.63086 -2.861,-1.19537 -6.7734,-1.78285 -10.2266,-1.6875 z m 504.47465,5.17579 c -0.59169,0.0765 -1.48126,0.56239 -2.17188,1.39453 -2.07314,2.49804 -0.20642,5.71198 4.54297,7.82031 10.0357,4.45504 23.14199,9.375 24.97461,9.375 1.0656,0 2.21894,0.4556 2.5625,1.01172 0.34371,0.55604 2.22088,1.34306 4.17187,1.75 10.76024,2.24553 23.8125,7.66817 23.8125,9.89258 0,0.63605 -8.50444,4.79723 -18.89648,9.24804 -38.254,16.38391 -42.51433,18.90067 -44.66016,26.38282 -1.59881,5.57484 -1.3854,6.32055 2.49024,8.68359 v 0.002 c 5.08959,3.10315 9.6926,2.73397 10.40625,-0.83398 0.15061,-0.75307 -0.61736,-1.36914 -1.70703,-1.36914 -1.08975,0 -2.89737,-0.67118 -4.01758,-1.49024 -1.97548,-1.44427 -1.96754,-1.60234 0.2832,-5.24414 1.27654,-2.06543 4.1935,-4.78964 6.48242,-6.05469 4.59799,-2.54124 24.12305,-10.81885 42.05079,-17.82617 6.38056,-2.49388 13.28041,-5.94338 15.33398,-7.66601 l 3.73437,-3.13282 -2.27734,-3.07421 c -1.25238,-1.691 -4.2518,-4.11785 -6.66601,-5.39453 -4.24732,-2.24603 -19.39404,-7.35158 -26.10743,-8.79883 -5.85671,-1.26259 -11.85573,-3.48097 -21.74218,-8.04297 -5.33133,-2.46002 -10.41183,-4.47266 -11.29102,-4.47266 -0.87931,0 -1.29416,-0.49328 -0.92187,-1.0957 0.49897,-0.80742 0.20497,-1.14095 -0.38672,-1.06445 z m -433.95705,1.57031 c -1.4267,0.0287 -2.7634,0.52034 -3.5488,1.4668 -2.2376,2.69612 -5.7537,12.91268 -7.3809,21.44531 -2.0718,10.86429 -2.5196,42.08352 -0.6308,43.97461 0.753,0.75394 1.3691,3.16268 1.3691,5.35156 0,2.18887 0.3483,4.32885 0.7754,4.75586 0.427,0.42614 1.784,0.63278 3.0137,0.45703 1.9341,-0.27666 2.1901,-0.98896 1.8965,-5.25 -0.1867,-2.71094 -0.8004,-6.65316 -1.3633,-8.76172 -1.4879,-5.57253 -1.2888,-15.95811 0.332,-17.26953 0.753,-0.6093 4.8797,-1.45354 9.1699,-1.875 l 7.8008,-0.76562 1.6719,7.49023 c 0.9192,4.11984 1.6006,11.18103 1.5137,15.69141 -0.1349,7.00346 0.1206,8.25428 1.7519,8.56836 1.9464,0.37489 4.415,-4.07446 4.1387,-7.45899 -0.233,-2.85694 -1.1402,-17.96206 -1.2422,-20.68555 -0.061,-1.61971 1.0507,-3.52877 2.9277,-5.02539 3.1638,-2.52272 2.9064,-3.11145 -1.8672,-4.25 -2.295,-0.54739 -3.0347,-1.5347 -3.6035,-4.80664 -2.0227,-11.63554 -8.8251,-28.72123 -12.6347,-31.73828 -1.1461,-0.90765 -2.6632,-1.34311 -4.0899,-1.31445 z m 1230.87892,6.0957 c -4.23067,-0.0329 -11.87646,1.21776 -21.18945,3.56055 -16.162939,4.0659 -19.16797,5.87813 -19.16797,11.5625 0,3.43309 2.10792,4.30374 4.230469,1.74609 0.667634,-0.80436 3.315731,-2.12485 5.884761,-2.93359 2.56899,-0.80875 5.44546,-2.11692 6.39063,-2.90821 3.01208,-2.52151 28.21918,-7.0959 34.70117,-6.29687 3.54683,0.43706 5.75,0.29278 5.75,-0.37695 0,-0.59728 -2.75618,-1.31445 -6.125,-1.59375 -3.36894,-0.27935 -6.51248,-1.13387 -6.98633,-1.90039 -0.34811,-0.56328 -1.56525,-0.8444 -3.48828,-0.85938 z M -1094.7773,698.5 c 2.0233,-0.39182 7.2555,14.52792 8.2011,23.38672 l 0.5899,5.5332 -5.6895,1.3125 c -3.13,0.72246 -6.9584,1.31446 -8.5058,1.31446 -2.8074,-10e-6 -2.8118,-0.0176 -2.1661,-7.39454 0.8292,-9.47263 5.2919,-23.71123 7.5704,-24.15234 z m 382.51168,14.61523 c -12.9696,-0.0353 -16.53707,1.1003 -15.11329,4.81055 0.49935,1.30129 3.60686,1.63113 16.30664,1.73242 15.5401,0.12397 18.76286,0.67212 37.32227,6.35547 1.05422,0.32289 1.91602,0.0831 1.91602,-0.5332 0,-1.83436 4.35822,-0.13207 5.5996,2.1875 h -0.002 c 1.09504,2.04623 1.24651,2.05811 3.26172,0.23437 1.92488,-1.74183 1.95893,-2.08035 0.39844,-3.80468 -1.73545,-1.91766 -13.39127,-6.34677 -22.40235,-8.51172 -7.84558,-1.88493 -13.92916,-2.43291 -27.2871,-2.47071 z m -50.61524,17.43165 c -0.22003,0.0148 -0.45751,0.0707 -0.71094,0.16796 -3.01009,1.1551 -2.89127,7.76706 0.59375,33.28711 1.15548,8.46146 2.86612,14.85415 4.61914,17.25196 3.18596,4.35775 3.34774,0.16163 0.70313,-18.34766 -1.08491,-7.5936 -2.20084,-18.50719 -2.64063,-25.83789 -0.27978,-4.66415 -1.02421,-6.62522 -2.56445,-6.52148 z m -82.47266,13.93164 c -1.93842,0.2038 -1.45899,3.69841 1.3379,11.23632 3.08912,8.3257 3.29098,9.84703 3.47656,26.36133 0.16698,14.88265 -0.10198,18.14469 -1.77344,21.63281 -1.29188,2.69602 -2.71066,4.10743 -4.13086,4.10743 -5.0843,0 -17.35894,-15.31393 -20.73633,-25.8711 -0.74804,-2.3382 -1.79256,-4.71868 -2.32226,-5.29101 -0.52967,-0.5723 -0.96289,-2.14605 -0.96289,-3.4961 0,-1.35004 -0.43868,-2.72555 -0.97461,-3.05664 -0.93948,-0.58068 -1.7049,-3.9374 -3.01367,-13.21875 -0.78218,-5.54687 -1.81352,-6.63769 -4.10743,-4.34375 -1.3178,1.31762 -1.65069,2.92626 -1.20312,5.82032 1.73234,11.20161 3.15623,17.3786 4.51172,19.57031 0.82526,1.33432 1.5,3.16848 1.5,4.07617 0,3.01856 5.1746,13.12743 10.19336,19.91406 7.50066,10.14278 17.65571,14.95095 23.00586,10.89453 2.82258,-2.14008 6.13321,-11.54476 6.87109,-19.52539 0.34681,-3.75156 0.82521,-7.01857 1.06445,-7.25781 0.23947,-0.2394 1.2143,0.21211 2.16602,1.00195 2.4404,2.02538 17.60337,2.6858 24.70117,1.07618 20.63082,-4.67864 21.69619,-4.22974 16.85352,7.10937 -3.56297,8.34274 -3.07432,17.26786 1.19726,21.87695 2.95113,3.18426 4.07781,3.39485 6.29492,1.17774 0.87496,-0.87481 1.99498,-1.24542 2.48828,-0.82227 0.49327,0.42312 -0.4783,-0.92413 -2.16015,-2.99414 -2.81178,-3.46069 -2.99773,-4.25355 -2.30664,-9.85742 0.41336,-3.35195 1.4684,-8.91455 2.3457,-12.36133 1.27295,-5.0005 1.3265,-6.77025 0.26563,-8.76172 -2.70131,-5.07084 -6.96443,-6.38216 -13.67774,-4.20508 -1.74659,0.5664 -5.14693,1.31194 -7.55664,1.65625 -2.40975,0.34417 -6.59957,1.09093 -9.31055,1.66016 -7.85238,1.64878 -11.88025,1.3208 -15.35742,-1.25 -7.14346,-5.28136 -6.50596,-14.18624 1.43555,-20.07422 8.26197,-6.12559 16.57382,-11.34581 17.32617,-10.88086 1.34393,0.83059 5.92533,-2.22035 5.86523,-3.90625 -0.0661,-1.86013 -2.43825,-1.61915 -4.88867,0.4961 -0.90372,0.78005 -3.45116,1.99761 -5.66211,2.70703 -2.21091,0.70945 -4.61346,2.00414 -5.33789,2.87695 -0.72438,0.87284 -1.98482,1.58789 -2.80078,1.58789 -0.81604,0 -2.29051,1.23222 -3.27734,2.73828 -1.17642,1.7955 -2.80798,2.73828 -4.73633,2.73828 -1.61752,0 -3.48779,0.5483 -4.1582,1.21875 -1.81055,1.81051 -3.426,0.28041 -4.23047,-4.00781 -0.39281,-2.09408 -1.15143,-4.07825 -1.68555,-4.4082 -0.53416,-0.33011 -0.9707,-1.71914 -0.9707,-3.08789 0,-1.55029 -1.06029,-3.05547 -2.81055,-3.99219 -1.18743,-0.6355 -2.1019,-0.93317 -2.74805,-0.86523 z m -71.27929,10.86914 c -5.19589,-0.0759 -8.34952,0.46027 -14.21094,2.02148 -5.04597,1.34408 -10.18589,3.08645 -11.42187,3.87305 -1.86479,1.18666 -2.88773,1.16231 -6.00977,-0.15039 -3.48484,-1.46529 -4.0884,-1.40093 -8.16016,0.87695 -6.07699,3.39972 -13.3914,10.43661 -16.68945,16.05469 -2.20433,3.75382 -2.65462,5.69946 -2.2168,9.58398 0.30218,2.68078 0.24127,4.89542 -0.13672,4.92188 -1.91444,0.13266 -19.85324,0.19541 -23.46484,0.082 -3.88784,-0.12223 -9.53654,-3.90211 -9.53324,-6.37891 0,-2.72103 13.38246,-13.4668 16.76566,-13.4668 0.87198,0 2.17163,-0.70478 2.88672,-1.5664 1.03809,-1.25087 0.8594,-1.80396 -0.88281,-2.73633 -2.59193,-1.38716 -4.07456,-0.99137 -12.81447,3.41016 -10.0941,5.08342 -13.1744,10.90414 -10.2344,19.33789 0.991,2.84266 2.152,3.72113 6.7149,5.07617 3.0348,0.90123 10.75341,1.93725 17.15038,2.30273 6.39692,0.36541 12.11407,1.12753 12.70507,1.69336 0.69139,0.66191 -0.0906,2.09544 -2.1914,4.02149 -5.12886,4.70207 -12.24521,10.08398 -13.33594,10.08398 -0.54622,0 -2.33077,0.61611 -3.96484,1.36914 -4.10423,1.89135 -3.31034,4.57449 1.47265,4.97852 2.97407,0.25119 5.33785,-0.65508 10.39649,-3.98828 6.81876,-4.49303 12.57226,-9.50885 12.57226,-10.96094 0,-0.46443 1.00565,-1.92328 2.23438,-3.24219 2.07488,-2.22697 2.98311,-2.36093 12.77148,-1.875 11.70679,0.58114 14.89295,2.23706 16.25781,8.45117 1.22102,5.55924 -1.14007,9.78939 -11.82226,21.1875 -6.6776,7.12517 -7.46605,8.84342 -4.38086,9.54883 2.9715,0.67941 7.43395,-2.36322 13.13476,-8.95898 6.06165,-7.01314 8.96272,-12.88346 9.79297,-19.8125 0.55729,-4.65098 0.32181,-5.22392 -3.95117,-9.62696 -5.58459,-5.75455 -8.38942,-6.87504 -16.94336,-6.77148 -3.67876,0.0446 -7.67403,-0.15007 -8.8789,-0.43164 -1.20484,-0.28195 -2.7478,-0.54997 -3.42774,-0.5957 -0.67997,-0.0461 -1.83088,-1.52243 -2.55859,-3.2793 -1.84989,-4.466 0.8507,-9.76107 9.05859,-17.76758 7.11919,-6.94469 12.06254,-8.95762 14.34375,-5.83789 1.29615,1.7726 1.61345,1.77563 5.24414,0.0527 2.12549,-1.0086 6.02996,-1.93223 8.67578,-2.05468 l 4.81055,-0.22266 0.23047,6.57031 c 0.5472,15.64865 1.29865,23.61154 3.10156,32.86133 2.0222,10.37496 3.02249,12.5957 5.67969,12.5957 1.34317,10e-6 1.53077,-1.47094 1.08203,-8.48828 -0.29862,-4.66888 -1.28644,-13.17138 -2.19727,-18.89453 -1.93224,-12.14105 -2.42587,-25.81852 -0.96289,-26.72265 2.05319,-1.26883 16.23346,-1.52672 22.0918,-0.40235 8.04903,1.54481 9.58435,3.09144 10.44336,10.53125 2.42585,21.00968 14.90066,53.83594 20.45898,53.83594 2.08347,0 2.61746,-2.15867 0.96289,-3.88867 -0.54735,-0.5723 -2.30183,-4.98519 -3.90039,-9.80469 -1.59855,-4.8195 -3.34272,-9.74825 -3.875,-10.95312 -0.5323,-1.20484 -2.02675,-6.13363 -3.32226,-10.95313 -2.9842,-11.10138 -2.73852,-10.01345 -3.72656,-16.42969 -0.4639,-3.01217 -1.64914,-6.11097 -2.63477,-6.88672 -0.98555,-0.77567 -2.53525,-2.96488 -3.44336,-4.86523 -2.07058,-4.33289 -7.90049,-6.06731 -23.69336,-7.04492 -2.36158,-0.14618 -4.32077,-0.23838 -6.05273,-0.26367 z m -112.87499,3.09961 c -9.7008,0.22741 -22.4681,7.67685 -27.6875,17.79296 -1.7996,3.48798 -1.8714,4.27129 -0.5371,5.87891 1.429,1.72184 1.6599,1.67757 3.2168,-0.61914 3.3321,-4.91535 10.8935,-12.24745 14.7793,-14.33008 5.844,-3.13217 13.0526,-3.86598 16.4043,-1.66992 1.5008,0.9834 3.2377,1.78906 3.8613,1.78906 2.2312,0 1.0806,-4.26611 -1.752,-6.49414 -2.1588,-1.69816 -5.0515,-2.42346 -8.2851,-2.34765 z m -26.9531,28.58789 c -0.787,0.0337 -1.6008,0.55513 -2.0098,1.62109 -1.0405,2.71147 0.5802,8.81492 3.4707,13.07422 3.2909,4.84955 3.4483,7.17969 0.4844,7.17969 -1.2238,0 -2.5114,0.74688 -2.8614,1.6582 -0.9784,2.54971 1.4124,4.59214 4.795,4.0957 2.1282,-0.31234 4.0215,0.39812 6.3203,2.375 v 0.002 c 3.7291,3.20666 5.3183,3.14088 5.8164,-0.23829 0.3513,-2.38321 2.1576,-3.00499 11.1562,-3.84375 6.0181,-0.56095 4.8115,-3.18065 -2.1914,-4.75781 -3.3134,-0.74623 -7.8737,-1.65241 -10.1347,-2.01562 -3.3886,-0.54429 -4.4933,-1.40921 -6.2832,-4.91797 -1.1945,-2.34127 -2.6702,-4.56579 -3.2813,-4.94336 -0.611,-0.37765 -1.1113,-1.64319 -1.1113,-2.8125 0,-1.16927 -0.4933,-2.12695 -1.0957,-2.12695 -0.6025,0 -1.0957,-0.98458 -1.0957,-2.18946 0,-1.44165 -0.9668,-2.20352 -1.9785,-2.16015 z m -128.8711,1.36914 c -6.8439,-0.24606 -19.5806,3.67501 -23.3028,7.36328 -6.5478,6.48828 -7.3456,12.20927 -2.3105,16.57617 3.1625,2.7428 3.3258,2.63476 2.5176,-1.67383 -1.7026,-9.07529 7.5576,-15.33553 22.4785,-15.19531 13.4399,0.12658 14.5613,4.02839 7.2832,25.35547 -6.1837,18.12045 -6.3784,21.47596 -1.5059,26.02734 3.4586,3.23063 9.2772,6.3799 14.9961,8.11524 3.7249,1.13007 3.9867,1.14562 6,0.37304 2.4656,-0.94616 2.1265,-2.95986 -0.7422,-4.41797 -1.3507,-0.68658 -5.4799,-2.77448 -9.1777,-4.64062 -9.7739,-4.93247 -10.065,-6.67076 -3.7852,-22.65234 5.2247,-13.29619 6.6596,-23.94728 3.6856,-27.34961 -3.2631,-3.73308 -9.6124,-7.05732 -14.8516,-7.77539 -0.3994,-0.0548 -0.8289,-0.0891 -1.2851,-0.10547 z m 103.2656,1.15234 c -0.6485,0.0618 -1.4047,0.43851 -2.4941,1.15234 -1.488,0.9749 -3.3821,1.77149 -4.209,1.77149 -1.8158,0 -9.5693,8.22833 -11.3535,12.04883 -3.9978,8.55991 -4.8282,18.64116 -1.9883,24.13281 1.7287,3.34307 6.396,6.33123 12.0312,7.70312 4.8735,1.18674 7.8445,1.15231 15.4707,-0.17578 6.9203,-1.2051 10.4481,-3.44055 8.5,-5.38867 -1.2745,-1.27453 -10.75,-1.65021 -15.4277,-0.61133 -4.3704,0.97066 -12.6964,-2.44476 -14.5918,-5.98633 -1.3254,-2.47649 -0.9751,-6.88762 1.1445,-14.41406 1.374,-4.87899 7.4495,-11.4054 12.6309,-13.57031 4.0409,-1.68839 4.7778,-3.73193 2.1367,-5.92383 -0.6594,-0.54729 -1.2011,-0.80004 -1.8496,-0.73828 z m -46.7559,5.51563 c -5.9439,0.0783 -11.8673,4.59913 -16.2617,13.08984 -2.6041,5.03176 -2.9324,6.86224 -2.873,16.08398 0.083,12.95638 2.8304,20.99431 9.2519,27.08203 2.3991,2.27426 5.2012,4.46948 6.2285,4.87891 3.1085,1.23901 5.0098,0.97951 8.1895,-1.11719 6.3185,-4.16636 7.1544,-5.58821 12.9941,-22.08203 4.1212,-11.6397 1.3051,-24.73587 -7.1347,-33.17578 -3.2536,-3.25356 -6.8282,-4.80677 -10.3946,-4.75976 z m -112.0039,3.98046 c -11.9928,0 -24.8839,12.73833 -24.3867,24.09766 0.2727,6.22923 0.3257,6.39212 2.7832,8.68164 2.9012,2.70274 4.8124,1.8515 2.6797,-1.19336 -4.4143,-6.30236 4.2926,-21.25037 14.002,-24.03906 4.1227,-1.18413 13.7374,0.39302 17.5253,2.875 3.4525,2.2622 4.2645,5.79855 2.8165,12.25977 -1.1391,5.08259 -9.4639,20.0371 -11.1543,20.0371 -0.4638,0 -0.8438,0.72894 -0.8438,1.6211 0,0.89216 -1.131,1.90694 -2.5137,2.2539 -3.3612,0.84363 -5.6927,4.56082 -4.08,6.50391 1.2523,1.50901 5.0073,1.07311 7.4804,-0.86719 1.5443,-1.21156 9.4434,-11.48736 12.5176,-16.2832 2.8311,-4.41668 6.3118,-14.18034 6.3125,-17.70898 0,-9.48594 -11.1026,-18.23829 -23.1387,-18.23829 z m 112.4903,2.35157 c 2.8972,0.0177 5.7463,2.33502 8.4804,6.95898 1.7811,3.01217 3.486,7.6136 3.7891,10.22461 0.6616,5.70282 -1.7514,16.60545 -3.8535,17.41211 -0.8272,0.31748 -1.2505,1.24075 -0.9395,2.05078 0.3109,0.80995 -0.2586,1.93257 -1.2656,2.4961 -1.0069,0.56348 -1.8826,2.20377 -1.9453,3.64453 -0.063,1.44075 -0.4792,3.21094 -0.9258,3.93359 -1.4766,2.38919 -6.6982,1.47075 -9.6641,-1.69922 -5.2568,-5.61861 -6.6838,-9.92923 -6.7968,-20.53516 -0.096,-9.03027 0.1722,-10.35181 3.1816,-15.69531 3.3106,-5.87823 6.6559,-8.8111 9.9395,-8.79101 z m -68.8067,12.05468 c -0.4629,0.0432 -1.0618,0.36136 -1.8769,0.87696 -3.5331,2.23487 -1.4613,14.00779 7.0918,40.30468 2.3144,7.1158 3.381,9.03711 5.0195,9.03711 1.1445,0 2.076,-0.3685 2.0723,-0.82031 -0.033,-3.28445 -2.4933,-15.76485 -3.7246,-18.89453 -2.1201,-5.38859 -5.4968,-18.5432 -6.6778,-26.01562 -0.5299,-3.35306 -0.8859,-4.58329 -1.9043,-4.48829 z m 452.81838,3.35938 c -1.46827,0.0417 -2.9973,0.794 -3.85351,2.16016 -0.89091,1.42155 -0.66598,2.39933 0.96289,4.19921 l 2.12304,2.34571 2.52735,-2.93946 c 2.02647,-2.35593 2.26734,-3.25482 1.21289,-4.52539 -0.72606,-0.87482 -1.83067,-1.27266 -2.97266,-1.24023 z m -144.65625,3.04687 c -4.11273,0 -16.53515,2.6557 -16.53515,3.53516 -10e-6,0.46511 -0.96298,0.8457 -2.13868,0.8457 -1.17569,0 -5.98166,1.67562 -10.67968,3.72461 -9.58972,4.18247 -18.25449,7.22852 -20.56446,7.22852 -2.03837,0 -2.92761,1.58163 -2.10156,3.73437 0.779,2.03003 4.06202,2.22678 9.30664,0.55664 3.82008,-1.2164 4.22386,-1.37775 13.58008,-5.41992 7.77298,-3.35815 16.65517,-6.45476 22.87109,-7.97265 3.325,-0.81192 5.96114,-2.23622 6.97852,-3.76954 1.52504,-2.29863 1.47771,-2.46289 -0.7168,-2.46289 z m -121.56053,6.46094 c -4.1775,0.0254 -10.2648,0.91773 -17.9063,2.67383 -13.2844,3.05295 -21.7231,8.87444 -17.1054,11.80078 v 0.002 c 1.8587,1.17793 1.3469,1.23304 5.5468,-0.60937 1.9784,-0.86789 6.5533,-2.39481 10.168,-3.39453 3.6146,-0.99969 7.5633,-2.28145 8.7734,-2.84766 1.2102,-0.56621 4.4135,-1.16573 7.1192,-1.33203 4.8423,-0.29783 9.8496,-2.21347 9.8496,-3.76758 0,-1.70967 -2.2679,-2.55082 -6.4453,-2.52539 z m -244.3301,12.29883 c -3.2535,0.16105 -3.2845,6.92413 -0.1797,22.50586 1.6863,8.46278 8.9604,30.20419 10.8301,32.36914 4.1407,4.79452 4.2876,-1.4534 0.3672,-15.58203 -2.5316,-9.12344 -4.6509,-17.47574 -5.1426,-20.26367 -3.0357,-17.21205 -3.4247,-18.63634 -5.1816,-18.97461 -0.2456,-0.0473 -0.4765,-0.0654 -0.6934,-0.0547 z"
         transform="scale(0.26458333)"
         id="path4281" />
      <rect
         style="opacity:0;vector-effect:none;fill:#000000;fill-opacity:1;stroke-width:0.26458332"
         id="rect4379"
         width="677.33331"
         height="381"
         x="-422.4209"
         y="-91.538857" />
    </g>
  </g>
</svg>
