<?xml version="1.0" encoding="UTF-8" standalone="no"?>
<svg
   xmlns:dc="http://purl.org/dc/elements/1.1/"
   xmlns:cc="http://creativecommons.org/ns#"
   xmlns:rdf="http://www.w3.org/1999/02/22-rdf-syntax-ns#"
   xmlns:svg="http://www.w3.org/2000/svg"
   xmlns="http://www.w3.org/2000/svg"
   id="svg5019"
   version="1.1"
   viewBox="0 0 677.33331 381"
   height="381mm"
   width="677.33331mm">
  <defs
     id="defs5013" />
  <metadata
     id="metadata5016">
    <rdf:RDF>
      <cc:Work
         rdf:about="">
        <dc:format>image/svg+xml</dc:format>
        <dc:type
           rdf:resource="http://purl.org/dc/dcmitype/StillImage" />
        <dc:title></dc:title>
      </cc:Work>
    </rdf:RDF>
  </metadata>
  <g
     transform="translate(29.482128,195.125)"
     id="layer1">
    <g
       transform="translate(392.93877,-103.58614)"
       id="g4389">
      <path
         style="fill:#ffffff;fill-opacity:1;stroke-width:1"
         d="m 95.31949,-50.741605 c -1.17892,0.009 -2.54508,0.40521 -3.67885,1.13274 -1.00555,0.64525 -1.55383,0.82287 -2.10839,0.68368 -0.86991,-0.21832 -1.33479,0.5021 -0.83768,1.29811 0.16429,0.26306 0.39145,0.89871 0.50436,1.41284 0.11294,0.51412 0.45916,1.07055 0.76946,1.23662 0.3103,0.16606 0.50086,0.40439 0.42375,0.52916 -0.16168,0.26163 1.1937,2.35231 1.52497,2.35231 0.12143,0 0.73046,0.79984 1.35341,1.77767 0.62294,0.97783 1.28111,1.92603 1.46244,2.10737 0.66045,0.66044 1.88631,2.80835 1.73891,3.04684 -0.21356,0.34552 0.95674,1.76217 1.45573,1.76217 0.22752,0 0.41341,0.13051 0.41341,0.2899 0,0.41602 3.07335,0.35821 3.84369,-0.0724 3.35654,-1.87606 5.32676,-7.13769 3.80339,-10.15803 -1.22126,-2.42138 -2.92686,-3.39049 -5.96553,-3.39049 h -2.0159 l 0.0507,-1.08676 c 0.0834,-1.80407 0.0285,-1.95591 -0.90847,-2.50941 -0.48171,-0.28455 -1.122,-0.418 -1.82935,-0.41237 z m -8.985499,1.41335 c -0.239125,-0.007 -0.541837,0.10945 -0.796335,0.35243 -0.210634,0.2011 -0.744844,0.52598 -1.187524,0.72192 -1.161092,0.51394 -5.94198,3.8241 -7.072436,4.89686 -0.686242,0.65122 -0.962216,1.17037 -0.962216,1.81126 0,0.49412 0.09452,0.89865 0.209807,0.89865 0.115284,0 0.832321,-0.67082 1.593702,-1.49035 0.76138,-0.81953 1.384411,-1.39676 1.384411,-1.28312 0,0.11363 0.216572,-0.01 0.481107,-0.27441 0.511919,-0.51191 2.338176,-1.77554 3.471622,-2.40192 0.376283,-0.20794 0.684197,-0.50146 0.684197,-0.65215 0,-0.1507 0.139512,-0.27389 0.309541,-0.27389 0.514001,0 2.299084,-1.48941 2.299084,-1.91823 0,-0.25027 -0.175837,-0.38021 -0.41496,-0.38705 z m 9.046479,0.1111 c 0.88094,-0.0335 1.29138,0.494 1.12499,1.51929 -0.19451,1.1987 -0.82536,2.70371 -1.13326,2.70371 -0.25806,0 -0.29642,0.98513 -0.0481,1.23352 0.23342,0.23341 2.50886,-0.59124 2.7621,-1.00098 0.11204,-0.18126 0.63894,-0.32734 1.17099,-0.32504 0.53206,0.002 1.03596,-0.0983 1.11931,-0.22428 0.43497,-0.65739 4.29654,1.99185 4.36511,2.99465 0.22134,3.2382 -0.46165,5.54791 -2.12287,7.17631 h -5.1e-4 c -1.009,0.98905 -1.36394,1.15858 -2.42931,1.15858 -1.31387,0 -1.58448,-0.24689 -1.94975,-1.77818 -0.12074,-0.50611 -0.0366,-0.8849 0.24959,-1.12242 0.53165,-0.44118 0.57008,-1.44694 0.0553,-1.44694 -0.20722,0 -0.53973,0.16301 -0.73898,0.36226 -0.65629,0.65629 -1.04624,0.39392 -2.03553,-1.37098 -0.53768,-0.9593 -1.35754,-2.20061 -1.82159,-2.75849 -1.0006,-1.2029 -1.03189,-1.24602 -2.05518,-2.81946 -0.43833,-0.67401 -0.79685,-1.33764 -0.79685,-1.47485 0,-0.48065 2.18403,-2.23002 3.25097,-2.60397 0.39432,-0.13822 0.73988,-0.21158 1.03353,-0.22273 z m -10.241239,9.95753 c -0.567304,-0.0169 -1.153811,0.06 -1.681551,0.24908 -0.673545,0.24138 -1.646569,0.36241 -2.21537,0.27544 -1.024654,-0.15667 -1.823476,0.11024 -1.746144,0.58342 0.06906,0.42284 1.161598,0.70477 1.95802,0.50488 0.488254,-0.12253 0.679183,-0.0816 0.555003,0.11938 -0.119369,0.19312 0.361098,0.16079 1.301729,-0.0873 1.60269,-0.42278 3.045391,-0.27841 3.693316,0.36949 0.523012,0.52304 1.025382,0.0456 0.776697,-0.73794 -0.237542,-0.74842 -1.393629,-1.23932 -2.6417,-1.27641 z m -7.888925,0.93069 c -0.878964,0 -1.131575,0.75139 -0.490408,1.45986 0.282863,0.31285 0.413822,0.56896 0.289904,0.56896 -0.123894,0 -0.05183,0.20951 0.160713,0.46561 0.212551,0.25609 0.522187,0.69835 0.687814,0.98288 0.165594,0.28453 0.707845,1.08557 1.205095,1.78026 0.497279,0.69468 1.164677,1.75082 1.483114,2.34662 0.318436,0.5958 1.019918,1.73374 1.559078,2.52853 0.539157,0.79479 1.081551,1.44791 1.205095,1.45211 0.123542,0.004 0.303771,-0.38845 0.400492,-0.8723 0.202954,-1.01478 0.617601,-1.28306 2.401403,-1.55598 3.089904,-0.47275 6.068574,-2.03845 5.324224,-2.79828 -0.26804,-0.2736 -0.59696,-0.21781 -1.49965,0.2527 -0.68966,0.35947 -2.013559,0.67694 -3.279387,0.78703 -4.230737,0.36796 -4.076993,0.39277 -4.724778,-0.75861 -0.322027,-0.57238 -1.075735,-1.68094 -1.674831,-2.46341 -0.599085,-0.78248 -1.381037,-2.04219 -1.737362,-2.79931 -0.495192,-1.05217 -0.803876,-1.37667 -1.310516,-1.37667 z m -8.998416,1.53738 c -0.522284,0.008 -0.920358,0.2821 -0.920358,0.78651 0,0.31576 0.130511,0.57413 0.289907,0.57413 0.159393,0 0.289904,0.17577 0.289904,0.39016 0,0.49525 0.997431,1.41428 1.25522,1.15651 0.10663,-0.10661 0.193786,-0.0418 0.193786,0.14418 0,0.18596 0.236302,0.33797 0.525034,0.33797 0.686535,0 2.662886,1.92038 2.662886,2.58743 0,0.14429 0.158945,0.31551 0.353467,0.38034 0.225989,0.0753 0.345321,0.7019 0.330211,1.73581 -0.04944,3.42027 -2.458379,5.32092 -5.677689,4.47932 -0.65636,-0.17159 -1.701736,-1.4676 -1.677416,-2.07946 0.04765,-1.20005 -0.05389,-1.5968 -0.408244,-1.5968 -0.766969,0 -1.250172,0.82276 -1.277443,2.17506 -0.03101,1.54484 -1.749078,4.95134 -3.196187,6.33708 l -0.869196,0.83251 -1.279509,-0.6196 c -1.353521,-0.65523 -1.679155,-1.15074 -2.498556,-3.79874 -0.331666,-1.07193 -0.470517,-2.3748 -0.423746,-3.97857 0.07286,-2.4987 -0.186722,-3.09885 -0.992704,-2.29288 -0.366381,0.36639 -0.458091,1.07297 -0.43925,3.39307 0.01409,1.72927 0.155805,3.06262 0.345715,3.25252 0.176985,0.17699 0.321945,0.68696 0.321945,1.13326 0,0.44631 0.130511,0.81132 0.289904,0.81132 0.159393,0 0.293706,0.22801 0.299207,0.50695 0.01134,0.59692 0.958895,1.81126 1.413351,1.81126 0.173675,0 0.315743,0.12002 0.315743,0.26613 0,0.14611 0.359021,0.39786 0.797367,0.55966 1.384408,0.511 3.290919,-0.14929 4.474662,-1.54978 0.269529,-0.31885 0.8402,-1.26598 1.26814,-2.10478 0.759442,-1.48864 1.691137,-2.1283 2.43241,-1.67018 0.592172,0.36599 3.637097,0.48428 4.358904,0.1695 3.294507,-1.43683 4.922748,-4.96298 3.659209,-7.92407 -0.430511,-1.00887 -3.590824,-4.69839 -4.900993,-5.72161 -0.428173,-0.3344 -0.909461,-0.49013 -1.315681,-0.48421 z m 35.14049,6.53242 c -0.49429,0.007 -1.01007,0.0622 -1.50637,0.1726 -1.84863,0.41132 -6.42259,3.11644 -9.05112,5.35316 -1.9068,1.62255 -4.661722,4.5381 -4.990914,5.28185 -0.257056,0.58071 -0.585356,0.83679 -1.093475,0.85369 -0.399447,0.0133 -0.987065,0.0676 -1.305861,0.12041 -0.318789,0.0528 -0.99313,0.16173 -1.498616,0.24184 -1.152102,0.18259 -4.434607,1.96356 -4.439007,2.40864 -0.0019,0.18219 -0.191382,0.40326 -0.421164,0.49144 -0.814218,0.31245 -1.40792,1.53682 -1.819527,3.75275 -0.180588,0.97202 0.613151,1.9933405 1.497066,1.9259805 1.252868,-0.0955 1.632418,0.0403 1.878957,0.67127 0.140158,0.35864 0.527873,0.93994 0.861962,1.29191 0.334089,0.35198 0.607714,0.74944 0.607714,0.88315 0,0.34252 1.965854,2.14431 3.2582,2.98638 0.596631,0.38877 1.086755,0.80495 1.086755,0.9245 0.0011,0.11954 0.181425,0.21704 0.401008,0.21704 0.219562,0 0.564195,0.19888 0.765847,0.44183 0.201618,0.24294 0.434173,0.37451 0.516763,0.29197 0.08253,-0.0825 0.332432,0.10959 0.555002,0.42737 0.22258,0.31777 0.57868,0.57774 0.79168,0.57774 0.21302,0 0.46219,0.19551 0.55398,0.4346 0.24349,0.6345 1.0818,0.56389 0.85886,-0.0724 -0.25318,-0.72243 -1.87526,-2.39055 -2.32441,-2.39055 -0.207816,0 -0.379817,-0.098 -0.379817,-0.21756 -0.0011,-0.11954 -0.78368,-0.86146 -1.738913,-1.64848 -1.858539,-1.53126 -2.023657,-1.81368 -1.229899,-2.10788 2.453777,-0.90945 4.881609,-4.0822505 5.442559,-7.1127405 0.20215,-1.09201 -0.36382,-2.85167 -1.0542,-3.27836 -0.61801,-0.38195 0.0976,-1.80182 1.79524,-3.56153 4.13088,-4.28181 8.65762,-7.54983 11.06031,-7.98556 0.59773,-0.1084 1.08759,-0.35421 1.09089,-0.54623 0.003,-0.25826 0.0601,-0.26226 0.21756,-0.0155 0.19968,0.31283 2.38641,0.49277 2.38641,0.19637 0,-0.62253 -1.2906,-1.03094 -2.77347,-1.00975 z m 8.74985,2.36368 c -1.72566,0 -4.02396,1.65611 -4.62452,3.33261 -0.41808,1.16708 -0.39022,1.57652 0.17983,2.6541 0.453,0.85629 0.56395,0.90533 1.72238,0.76223 0.68093,-0.0841 1.51599,-0.30046 1.8557,-0.48059 6.22337,-3.29971 7.56803,-3.40871 5.64152,-0.45682 -0.92777,1.42151 -2.16902,2.88251 -2.44947,2.88251 -0.0992,0 -0.41014,0.19337 -0.69091,0.42943 -0.28076,0.23607 -0.7602,0.60827 -1.06505,0.82734 -0.34297,0.2465 -0.48421,0.57992 -0.37104,0.87488 0.23652,0.61631 0.56084,0.60053 1.9203,-0.093 2.3595,-1.20372 6.07515,-6.60534 5.34489,-7.77006 -0.7968,-1.27084 -4.5166,-0.54645 -7.97161,1.55236 -2.11809,1.28665 -2.57038,1.28441 -2.57038,-0.0129 0,-1.20051 1.22503,-2.74361 2.75487,-3.46956 1.16987,-0.55514 1.31954,-1.03249 0.32349,-1.03249 z m -361.05289,5.60792 c -0.18019,0.015 -0.31705,0.12885 -0.38705,0.34675 -1.11487,3.47012 -1.89446,6.35315 -1.89446,7.00784 0,0.45224 -0.12236,1.2938 -0.27234,1.87017 -0.14999,0.57638 -0.42611,1.66053 -0.6134,2.40967 -0.18729,0.7491505 -0.57063,1.5703905 -0.85162,1.8247005 -0.47722,0.43187 -0.57526,0.35394 -1.48777,-1.1808105 -1.67102,-2.81044 -2.281,-4.01378 -2.281,-4.49895 0,-0.18005 -0.46776,-0.96405 -1.03921,-1.74253 -0.73661,-1.00346 -1.23863,-1.41541 -1.72549,-1.41541 -0.72795,0 -0.74266,0.041 -1.15289,3.26026 -0.16648,1.30652 -0.71933,1.96343 -0.71933,0.85473 0,-1.22232 -1.33329,-1.6341 -1.618,-0.49971 -0.1791,0.71366 10e-4,1.35085 1.48002,5.2239705 0.93922,2.45978 1.57935,4.70541 1.58338,5.55987 0.002,0.34826 0.13083,0.9678 0.28627,1.37666 0.3615,0.95079 1.10131,0.95813 1.33843,0.0134 0.22254,-0.88674 -0.11663,-3.83848 -0.5302,-4.61315 -0.16481,-0.30869 -0.35468,-1.02624 -0.4217,-1.59422 -0.0671,-0.56798 -0.24595,-1.74522 -0.39737,-2.6163805 -0.32592,-1.87508 -0.0672,-4.35735 0.45423,-4.35735 0.19892,0 0.64575,0.68453 0.99269,1.52135 0.9623,2.32093 1.23956,2.86977 2.11255,4.1821705 0.4432,0.6663 0.80563,1.34151 0.80563,1.50069 0,0.15917 0.4687,0.78656 1.0418,1.39423 l 1.04231,1.10484 0.55191,-0.72192 c 0.3035,-0.39708 0.67106,-0.86737 0.817,-1.04542 0.46204,-0.56372 1.21416,-3.0599705 1.77974,-5.9071305 1.12611,-5.66873 1.56106,-6.58635 2.37659,-5.01416 2.12354,4.09383 4.891,8.2366905 6.10764,9.1425905 1.88142,1.4009 3.12572,1.95751 4.377,1.95751 1.17719,0 2.13302,-0.54228 1.70687,-0.96842 -0.10488,-0.10488 -0.59448,-0.19069 -1.08831,-0.19069 -1.9029,0 -4.55093,-2.0880005 -6.15466,-4.8529305 -0.43968,-0.75804 -0.90187,-1.42171 -1.02733,-1.47485 -0.12546,-0.0531 -0.22789,-0.22611 -0.22789,-0.38447 0,-0.44643 -3.0933,-5.92636 -3.81165,-6.75256 -0.43154,-0.4963 -0.85207,-0.74531 -1.15239,-0.72037 z m 344.5309,1.3653 c -0.24567,-0.01 -0.46121,0.12765 -0.57205,0.4165 -0.21286,0.55468 0.0843,1.35126 0.42529,1.1405 0.1427,-0.0882 0.26226,0.076 0.26666,0.36432 0.007,0.48916 1.51551,2.2875 2.7497,3.27732 0.48177,0.38641 0.51347,0.38641 0.28577,0 -0.21907,-0.37173 -0.18646,-0.37867 0.22324,-0.0465 0.26353,0.21364 0.56045,0.64508 0.65991,0.9586 0.0995,0.31353 0.49571,0.68981 0.88056,0.83613 1.06984,0.40675 0.89361,1.42378 -0.47852,2.75745 -1.03505,1.00604 -3.1688,4.0959005 -3.1688,4.5888705 0,0.0987 0.22222,0.17932 0.49403,0.17932 0.27181,0 1.48335,-1.01107 2.69234,-2.24638 2.29966,-2.3496805 2.79367,-2.7634005 3.48764,-2.9212705 0.23135,-0.0526 0.48728,-0.18419 0.56844,-0.29249 0.0812,-0.10829 0.62084,-0.44493 1.19941,-0.74827 0.57857,-0.30335 1.809,-1.24999 2.73369,-2.10375 1.27331,-1.17561 1.59967,-1.6337 1.34565,-1.88774 -0.25404,-0.25403 -0.47167,-0.21242 -0.8971,0.1726 -0.69071,0.62507 -5.08902,2.78174 -5.67304,2.78174 -0.23335,0 -0.5697,-0.27192 -0.74776,-0.60461 -0.17806,-0.3327 -1.45434,-1.74273 -2.836,-3.13366 -1.38164,-1.39093 -2.68008,-2.74909 -2.88561,-3.0179 -0.23153,-0.30282 -0.50777,-0.46076 -0.75345,-0.47077 z m -9.172562,3.82767 c 0.455242,0.0132 0.832217,0.10776 1.085207,0.29404 0.192264,0.14156 0.480163,0.17667 0.639752,0.078 0.395103,-0.24418 1.184423,1.35289 1.184423,2.39675 0,0.96354 -1.180531,3.28426 -2.275311,4.4731105 -0.599895,0.65144 -0.903224,0.76823 -1.637628,0.63045 -0.767985,-0.14407 -0.95155,-0.0586 -1.241266,0.57723 -0.186987,0.41041 -0.464005,0.74621 -0.615985,0.74621 -0.69188,0 -2.488901,-3.6997405 -2.755386,-5.6730405 -0.141015,-1.044 -0.0675,-1.24697 0.633036,-1.7539 1.546744,-1.11927 3.617431,-1.80858 4.983158,-1.76888 z m -363.949858,4.06538 c -1.55922,0 -2.74675,0.66267 -3.65975,2.04225 -0.60531,0.91474 -0.73281,1.3758805 -0.59065,2.1337205 0.17227,0.91824 0.132,0.97562 -0.80201,1.15084 -1.08574,0.20368 -2.77294,1.78436 -3.48094,3.2613 -0.25751,0.53725 -0.45574,1.86138 -0.48524,3.24063 -0.0397,1.86126 0.0774,2.60236 0.57981,3.67109 0.89921,1.91295 2.83527,3.22808 5.04362,3.42615 0.63759,0.0572 1.16445,0.12564 1.16943,0.15244 0.0469,0.22751 3.67665,-1.32823 4.60335,-1.973 3.25641,-2.26577 5.9645,-6.57404 5.9645,-9.48883 0,-3.09027 -4.95763,-7.6165905 -8.34212,-7.6165905 z m 356.504319,0.3483 0.221691,0.7245 c 0.121955,0.39849 0.234641,0.88752 0.25063,1.08676 0.01588,0.19924 -0.08542,0.36225 -0.225309,0.36225 -0.565743,0 -0.837687,-0.72579 -0.542602,-1.44901 z m -356.150359,1.4118 c 0.91754,0.0132 1.79316,0.22865 2.33682,0.57516 0.47821,0.30477 1.14192,0.67517 1.47484,0.8232105 0.80203,0.35663 2.1344,1.96117 2.64946,3.1905 0.3307,0.78923 0.3483,1.24719 0.0878,2.28151 -0.66466,2.63959 -2.14225,4.73321 -5.24928,7.43934 -1.77223,1.54356 -5.44917,1.81687 -7.16907,0.53279 -1.47534,-1.10148 -1.81874,-1.86015 -1.82573,-4.02767 -0.01,-3.16636 1.30371,-5.61981 3.00911,-5.61981 0.65764,0 2.49385,1.02453 3.03908,1.69551 0.26202,0.32242 0.45148,0.35881 0.67903,0.13125 0.40793,-0.40794 -0.0382,-1.27461 -1.07591,-2.09082 -0.56147,-0.44166 -0.80062,-0.94682 -0.91053,-1.92185 -0.131,-1.1622 -0.0497,-1.42618 0.66921,-2.1766105 0.70289,-0.73366 1.02462,-0.85071 2.28513,-0.83251 z m 341.735734,2.1543905 c -0.479925,-0.009 -0.656687,0.48279 -0.856279,1.65055 -0.108997,0.63758 -0.26463,1.42012 -0.346231,1.73891 -0.112908,0.44082 -0.08111,0.48161 0.133324,0.17105 0.193733,-0.28063 0.328271,0.58066 0.430466,2.75332 0.156589,3.32962 0.483246,5.55238 1.003038,6.8249 0.17198,0.42094 0.301715,1.5295 0.288357,2.46342 -0.01684,1.17647 0.171553,2.12624 0.613915,3.09232 h 5.16e-4 c 0.558469,1.2195595 0.736436,1.3832195 1.420069,1.3043095 1.047189,-0.12088 1.143899,-0.9807795 0.383439,-3.4039295 -1.568349,-4.99733 -2.008222,-7.18122 -2.505792,-12.43645 -0.190346,-2.0104 -0.214365,-1.99879 1.491383,-0.73897 0.498358,0.36808 1.008332,0.57723 1.133265,0.46457 0.124871,-0.11265 0.13987,-0.0521 0.03307,0.13436 -0.106764,0.18648 0.112615,0.58015 0.487307,0.87488 0.374695,0.29474 0.831956,0.81791 1.016477,1.16272 0.184554,0.34482 0.606443,0.713 0.93741,0.81804 0.330946,0.10505 0.528069,0.26468 0.437701,0.35502 -0.09031,0.0903 -0.0035,0.35823 0.19327,0.59531 0.297513,0.35851 0.163909,0.58233 -0.795301,1.33067 -1.685814,1.31522 -3.045293,2.67826 -3.045293,3.05356 0,0.8282 0.971973,0.62295 2.122868,-0.44855 2.387783,-2.22307 3.226835,-2.34608 4.722191,-0.69092 0.575995,0.63758 1.195446,1.1603 1.376146,1.16117 0.180697,10e-4 0.558998,0.40673 0.840774,0.90176 0.377039,0.6624 0.663953,0.86038 1.086755,0.74982 0.62421,-0.16324 0.802415,0.23506 0.211873,0.47336 -0.199252,0.0804 -0.07762,0.15641 0.270269,0.16898 0.36489,0.0132 0.710348,0.26818 0.816488,0.60255 0.101175,0.31879 0.371113,0.57929 0.599446,0.57929 0.228346,0 0.414962,0.13051 0.414962,0.2899 0,0.1594 0.391522,0.28991 0.869714,0.28991 1.241677,0 1.093584,-0.56757 -0.507463,-1.94769 -0.757115,-0.65264 -1.664438,-1.45968 -2.016413,-1.79317 -0.351978,-0.33349 -0.775997,-0.60616 -0.942062,-0.60616 -0.166053,0 -0.301792,-0.19201 -0.301792,-0.42633 0,-0.23433 -0.396372,-0.71909 -0.881081,-1.07746 -1.171607,-0.86619 -1.050668,-1.71253 0.301789,-2.11356 0.557879,-0.16543 1.298752,-0.46274 1.646928,-0.66043 0.348144,-0.19769 0.870188,-0.36341 1.159619,-0.36845 0.614717,-0.0108 1.364398,-0.56141 1.468128,-1.07849 0.102216,-0.50959 -0.326663,-0.45638 -2.659269,0.33022 -1.12776,0.38029 -2.59401,0.75769 -3.258717,0.8387 -1.064284,0.12972 -1.33272,0.0338 -2.246373,-0.80305 -0.570596,-0.52265 -1.037146,-1.0349 -1.037146,-1.13843 0,-0.44656 -4.030676,-4.22409 -5.249809,-4.92011 -0.576744,-0.32929 -0.973985,-0.51575 -1.261939,-0.52142 z m -364.368464,0.1912 c -2.35442,-0.05 -4.95355,0.46505 -8.16798,1.572 -3.54412,1.2205 -4.14215,1.57953 -4.04368,2.42466 0.0737,0.63233 0.22966,0.73691 1.09866,0.73691 0.5828,0 1.23169,-0.21874 1.52858,-0.5147 1.31945,-1.31525 6.19953,-2.81734 9.15397,-2.81792 2.40565,-4.5e-4 5.83634,1.18946 7.39333,2.5647 0.2975,0.26277 0.94084,1.05826 1.42989,1.76734 0.76049,1.10259 0.8867,1.54284 0.8718,3.04271 -0.0325,3.25878 -2.68176,7.15853 -7.09983,10.4499995 -1.47611,1.0997 -2.2775,1.25936 -2.85048,0.56896 -0.44736,-0.53904 -0.0998,-1.4355695 1.18496,-3.0576895 1.00714,-1.27164 1.03635,-1.42576 0.27128,-1.42576 -0.3188,0 -1.12099,0.54172 -1.78282,1.20355 -1.13168,1.13165 -1.22687,1.17159 -1.59422,0.66921 -0.21484,-0.29381 -0.3909,-0.73751 -0.39119,-0.98599 -10e-4,-0.72051 -1.6655,-7.10784 -2.16111,-8.29407 -0.24797,-0.59344 -0.50395,-1.50439 -0.56843,-2.02416 -0.19175,-1.54594 -0.61953,-2.1049 -1.48519,-1.93942 -0.61645,0.11783 -0.72332,0.26042 -0.56999,0.75913 0.10379,0.33756 0.44471,1.59145 0.75758,2.78691 0.31287,1.19546 0.68162,2.43453 0.81957,2.75332 0.13796,0.31879 0.40725,1.36235 0.59841,2.31872 0.5206,2.60456 2.03838,8.0047695 2.50476,8.9115995 0.47591,0.92536 0.63807,0.97152 1.11569,0.31833 0.28761,-0.39332 0.507,-0.42362 1.23302,-0.17053 0.73575,0.25648 1.11815,0.19622 2.29028,-0.36071 1.63478,-0.77673 2.64015,-1.52961 4.45606,-3.3372595 3.72859,-3.71158 5.32127,-7.33277 4.78835,-10.88667 -0.181,-1.20697 -0.46474,-1.63802 -2.28306,-3.47059 -1.89167,-1.90649 -2.28714,-2.16186 -4.44418,-2.86804 -1.31691,-0.43115 -2.64136,-0.66454 -4.05403,-0.69454 z m 112.15596,2.42673 c -0.5165,0.0312 -1.12386,0.22098 -1.49449,0.51366 -0.48241,0.38099 -0.24447,1.39721 0.71159,3.03961 0.72561,1.24656 2.94819,3.82509 3.29695,3.82509 0.21784,0 4.20703,3.88749 5.11132,4.98109 0.34317,0.41502 0.79974,0.86588 1.01492,1.00201 0.2152,0.13612 0.89019,1.01133 1.50017,1.94458 1.11306,1.7027695 1.5713,3.2387195 1.14618,3.8436895 -0.54686,0.77821 -3.57975,1.9257 -8.24549,3.11971 -4.64957,1.18987 -9.62083,2.63542 -13.13873,3.82044 -1.70493,0.57431 -2.61613,1.33831 -2.36781,1.98541 0.24667,0.64282 2.08656,0.59392 3.04787,-0.0811 0.4231,-0.29711 1.94301,-0.89291 3.37757,-1.32395 3.52061,-1.05786 8.3128,-2.42153 10.43296,-2.96881 1.93385,-0.4992 3.05262,-0.85666 4.34702,-1.38855 0.47818,-0.19649 1.29404,-0.52311 1.81281,-0.72605 1.33908,-0.52386 2.67942,-2.14385 2.67942,-3.23805 0,-1.71111 -1.71617,-4.2770895 -5.21673,-7.8005595 -1.83304,-1.84502 -3.92867,-3.86706 -4.65708,-4.49378 -2.56941,-2.21081 -3.57939,-4.11676 -2.69803,-5.09064 0.44586,-0.49264 0.46034,-0.61392 0.10077,-0.83613 -0.17422,-0.10768 -0.4513,-0.14634 -0.76119,-0.12764 z m 229.354984,2.95382 c -0.574294,-0.002 -1.088353,0.0914 -1.205611,0.28112 -0.0985,0.1594 -0.464677,0.29261 -0.813903,0.29611 -0.349248,0.004 -0.961123,0.26139 -1.359607,0.57309 -0.398486,0.3117 -0.818195,0.56958 -0.932243,0.57309 -0.114067,0.004 -0.607407,0.39773 -1.096574,0.87592 -0.489167,0.47818 -0.993373,0.86971 -1.120344,0.86971 -0.126963,0 -0.403053,0.32164 -0.613399,0.71469 -0.210373,0.39305 -0.493014,0.6459 -0.628385,0.56224 -0.135374,-0.0837 -0.245981,0.0589 -0.245981,0.31677 0,0.25791 -0.100422,0.40716 -0.223242,0.33125 -0.12282,-0.0759 -1.068412,1.1225 -2.101164,2.6634 -1.032762,1.5409 -2.429649,3.53615 -3.104203,4.43384 -1.106862,1.4730695 -3.777693,6.5075095 -4.696354,8.8521695 -0.19829,0.50629 -0.274949,1.19082 -0.170016,1.52136 h -5.17e-4 c 0.226976,0.71516 1.009355,0.7716 2.194699,0.15865 1.001927,-0.51812 1.187403,-1.58647 0.275435,-1.58647 -0.721291,0 -0.719541,-0.0909 0.02842,-1.71979 2.111606,-4.5985 6.642233,-11.5214995 9.380305,-14.3329795 1.432618,-1.47102 3.974814,-3.36413 4.517038,-3.36413 0.151431,0 0.275436,-0.12044 0.275436,-0.26717 0,-0.33293 1.573977,-0.69681 2.825666,-0.65319 1.05157,0.0366 1.234344,-0.35196 0.380857,-0.80874 -0.357783,-0.19147 -0.992018,-0.28882 -1.566315,-0.29094 z m -249.948044,1.41749 c -2.29558,-0.006 -4.54165,0.10863 -5.4436,0.34675 -0.79698,0.2104 -1.991,0.51696 -2.65307,0.68161 -0.70107,0.17435 -1.58847,0.69656 -2.12493,1.25005 -0.82576,0.85197 -0.88155,1.01352 -0.53795,1.56373 0.47599,0.76219 0.71855,0.77202 1.10794,0.0444 0.36406,-0.68024 2.99462,-1.54727 6.14071,-2.02416 1.63085,-0.24722 3.03491,-0.2534 5.35523,-0.0227 6.64318,0.6604 8.04686,1.05067 12.95063,3.59926 1.6999,0.88348 3.09077,1.52282 3.09077,1.42059 0,-0.10222 0.29351,0.0843 0.65215,0.41496 0.35864,0.33066 0.91265,0.65608 1.23145,0.72295 1.8883,0.39608 2.67502,-1.17929 0.82062,-1.64331 -0.45123,-0.1129 -1.73628,-0.76109 -2.85564,-1.44022 -3.98467,-2.41758 -6.19681,-3.2547 -11.99461,-4.53822 -1.09932,-0.24337 -3.44413,-0.36966 -5.7397,-0.37569 z m -32.36133,3.57342 c -0.66523,0.008 -1.39154,0.16197 -1.63453,0.45476 -0.20162,0.24294 -0.42123,0.38703 -0.48782,0.32039 -0.16101,-0.16101 -1.53479,1.22256 -1.53479,1.54564 -10e-6,0.13887 -0.15653,0.3047 -0.34779,0.36846 -0.19128,0.0637 -0.34778,0.58974 -0.34778,1.16892 0,1.22114 0.77653,2.24069 1.70636,2.24069 0.34721,0 0.72563,0.0947 0.84077,0.2098 0.11515,0.11515 1.14772,0.18557 2.29444,0.15658 1.14672,-0.029 2.66114,0.10489 3.36568,0.29766 1.07138,0.29313 1.33469,0.51126 1.6092,1.33325 0.53588,1.6047095 0.11772,3.5122395 -1.22266,5.5763995 -0.65913,1.01505 -1.33322,2.20389 -1.4981,2.64222 -0.27409,0.7286 -0.24122,0.79685 0.38241,0.79685 1.04071,0 3.18603,-2.68795 3.94601,-4.94388 0.56158,-1.66705 0.58924,-2.02167 0.2744,-3.50522 -0.55588,-2.6194595 -1.79833,-3.4393395 -5.4591,-3.6018395 -3.67614,-0.16319 -4.38474,-0.32727 -4.38474,-1.01751 0,-0.76682 1.70516,-2.49817 2.85512,-2.89905 0.50191,-0.17497 0.91261,-0.501 0.91261,-0.7245 0,-0.28983 -0.60447,-0.42772 -1.26969,-0.41962 z m -13.87513,2.33164 c -0.89481,0 -1.33252,0.18253 -1.89755,0.7922 -1.41661,1.52854 -1.09966,4.24611 0.73587,6.3081495 0.69519,0.78098 2.76277,1.8836 3.53157,1.8836 0.34222,0 1.26971,0.3285 2.06137,0.72967 1.64919,0.8357 1.85517,1.55662 0.78703,2.75487 -0.81922,0.91902 -2.03719,1.49181 -3.63182,1.70843 -1.40919,0.19142 -1.62049,0.57857 -0.60978,1.11621 0.97724,0.51984 4.02456,-0.0828 4.02456,-0.79582 0,-0.16334 0.14759,-0.29662 0.32814,-0.29662 0.34365,0 1.17493,-0.85015 1.911,-1.9544 1.01992,-1.5301 -0.43811,-3.04476 -3.97805,-4.13309 -2.5847,-0.79463 -2.9016,-1.03704 -3.93465,-3.0101495 -0.57874,-1.10538 -0.7394,-1.72811 -0.59428,-2.30632 0.10932,-0.43559 0.32536,-0.71367 0.48008,-0.61805 0.15472,0.0956 0.28163,-0.0295 0.28163,-0.27802 0,-0.2485 0.16302,-0.4615 0.36226,-0.47335 0.6642,-0.0395 1.77436,-0.27937 1.90737,-0.41238 0.37819,-0.3782 -0.72883,-1.01493 -1.76475,-1.01493 z m -12.92633,4.49999 c -0.406,0.008 -0.89559,0.0691 -1.56374,0.17467 -1.18745,0.1877 -1.72921,0.47796 -2.74868,1.47432 -0.69831,0.6825095 -1.47465,1.6703395 -1.72545,2.1952195 -0.40794,0.85374 -0.41026,1.05265 -0.0212,1.88412 0.43317,0.92577 1.32156,3.4353 1.50894,4.26227 0.0542,0.2391 -0.0925,0.7385 -0.32607,1.11001 -0.54946,0.87392 -0.29665,1.4981 0.60719,1.4981 0.86823,0 0.95504,0.12869 1.50326,2.23346 0.23791,0.91337 0.58658,1.75569 0.77515,1.87224 0.18857,0.11654 0.55192,0.0233 0.80719,-0.20774 0.25529,-0.23103 0.56647,-0.42013 0.69143,-0.42013 0.12497,0 1.02733,-0.60282 2.00557,-1.33946 0.97825,-0.73663 1.97422,-1.40837 2.21329,-1.49293 0.23911,-0.0846 0.66408,-0.35062 0.94414,-0.59118 0.28004,-0.24056 0.80039,-0.58261 1.15652,-0.76016 0.70977,-0.35387 1.05797,-1.32291 0.47541,-1.32291 -0.20045,0 -0.92697,0.26102 -1.61489,0.57981 -0.68789,0.31878 -1.84676,0.85643 -2.57503,1.19475 -0.72826,0.33834 -1.7081,0.93816 -2.17765,1.33326 -0.85013,0.71534 -1.69463,0.72384 -1.73683,0.0171 -0.0122,-0.20425 -0.0663,-0.60378 -0.12041,-0.8878 -0.1251,-0.65618 0.81975,-1.27165 2.31613,-1.50792 2.11812,-0.33445 2.36678,-0.42311 2.36678,-0.84439 0,-0.75685 -1.1924,-1.13081 -2.91817,-0.91519 -0.88712,0.11084 -1.68812,0.32305 -1.77972,0.47129 -0.0916,0.14824 -0.28329,0.26923 -0.42582,0.26923 -0.40113,0 -1.3812,-2.43018 -1.76321,-4.37182 l -0.34417,-1.74925 1.21388,-1.09864 c 1.32639,-1.20035 3.73814,-1.9866295 5.06894,-1.6526195 1.04021,0.26109 1.00878,-0.4768 -0.0419,-0.97875 -0.65001,-0.31054 -1.09429,-0.44254 -1.77094,-0.42891 z m 284.453426,0.88418 c -0.182941,0.0107 -0.420261,0.19978 -0.682129,0.61909 -0.911892,1.4601695 -1.369413,3.7017495 -2.069641,10.1399495 -0.75264,6.92017 -0.683299,8.65972 0.412894,10.3327 0.479288,0.73147 0.564973,0.75071 2.515092,0.56947 1.110432,-0.1032 2.370225,-0.36929 2.799313,-0.59118 0.429055,-0.22188 2.081719,-0.82205 3.672644,-1.33376 1.590902,-0.51172 3.479371,-1.16198 4.196643,-1.44539 0.717282,-0.28343 1.723971,-0.67366 2.237072,-0.86714 0.691772,-0.26085 0.916815,-0.51232 0.869715,-0.97255 -0.05147,-0.50317 0.100763,-0.62819 0.805635,-0.66042 1.110685,-0.0508 2.293317,-0.51933 2.978112,-1.18029 0.295566,-0.2853 1.050647,-0.77328 1.677934,-1.08417 2.131859,-1.05657 2.862877,-2.04433 1.334802,-1.80351 -1.050441,0.16556 -2.341367,0.83523 -4.647777,2.41174 -1.014733,0.69361 -1.972975,1.26142 -2.129586,1.26142 -0.156645,0 -0.696077,0.18419 -1.198377,0.40928 -1.493581,0.66935 -5.178862,1.90928 -5.672005,1.90841 -0.428738,-7.8e-4 -3.612374,1.18979 -4.728393,1.76837 -0.276792,0.14348 -0.767259,0.26096 -1.090373,0.26096 -0.323103,0 -0.836299,0.15503 -1.139982,0.34469 -1.550277,0.96816 -1.806796,-1.31214 -1.196309,-10.63295 0.263352,-4.02067 0.554626,-5.9059 1.155485,-7.48119 0.441006,-1.1561695 0.301701,-1.9969795 -0.100769,-1.9735295 z M -281.90813,15.984035 c -0.49768,0.004 -1.02018,0.0831 -1.41748,0.25321 -0.41783,0.1789 -1.15067,0.93774 -1.62885,1.6862 -0.78105,1.22247 -0.86241,1.5671 -0.79891,3.38946 0.11644,3.33808 1.09164,5.20373 3.3166,6.34328 0.71348,0.36593 1.46418,0.46046 2.92642,0.37207 1.69202,-0.10233 2.08519,-0.23506 2.81742,-0.95343 0.46805,-0.45922 0.85537,-0.9331 0.85937,-1.05265 0.0148,-0.40001 -0.81868,-0.22291 -1.86915,0.39688 -1.06524,0.62855 -1.47109,0.6245 -3.92274,-0.0357 -0.84164,-0.22663 -1.18158,-0.54654 -1.71514,-1.61489 -0.80618,-1.6142 -0.9798,-4.80091 -0.32816,-6.02547 0.49599,-0.93202 2.10024,-1.98931 2.83083,-1.86552 0.30824,0.0522 0.52038,-0.0886 0.52038,-0.34623 0,-0.34818 -0.76112,-0.55328 -1.59059,-0.54725 z m -9.76995,2.87734 c -0.56531,-0.0149 -1.13036,0.0805 -1.59526,0.29456 -1.86221,0.85734 -3.40725,4.58884 -3.41426,8.2429 l -0.004,2.31873 -2.17868,-0.0413 c -1.30688,-0.0248 -2.36101,-0.19258 -2.63393,-0.4191 -0.25029,-0.20772 -1.02317,-1.50832 -1.71722,-2.89026 -1.11633,-2.22274 -2.71711,-4.33751 -3.27369,-4.3248 -1.16102,0.0264 -1.50561,1.621 -1.65002,7.63674 -0.0787,3.27651 -0.24593,5.32467 -0.4553,5.57692 -0.50914,0.61349 -0.076,3.38735 0.59428,3.80597 0.45554,0.28447 0.61508,0.22647 1.0015,-0.36329 0.34208,-0.52209 0.4594,-1.44176 0.4594,-3.59926 0,-3.27016 0.0573,-3.35878 2.37919,-3.67574 l 1.24333,-0.1695 0.91106,1.84019 c 1.72413,3.48175 2.1613,4.54834 2.31614,5.65599 0.0854,0.61077 0.20502,1.27354 0.26614,1.47278 0.26604,0.86743 1.54959,-0.0885 1.56888,-1.16841 0.0116,-0.64978 -2.28135,-6.53274 -2.63033,-6.74842 -0.14203,-0.0878 -0.25837,-0.39716 -0.25837,-0.68781 0,-0.44737 0.34102,-0.56059 2.22261,-0.73691 1.97675,-0.18524 2.27303,-0.14735 2.68044,0.34055 1.3767,1.64869 4.74154,1.88892 8.01552,0.57257 1.88021,-0.75595 3.03459,-1.72535 2.58744,-2.17248 -0.10101,-0.10103 -0.577,0.0424 -1.0578,0.31833 -0.4808,0.27594 -1.0672,0.50178 -1.30329,0.50178 -0.23606,0 -1.07275,0.21041 -1.8593,0.46767 -2.00557,0.656 -3.78129,0.35861 -4.75269,-0.79582 -0.66619,-0.79175 -0.73691,-1.11862 -0.73691,-3.40651 0,-1.77645 0.12713,-2.69793 0.42582,-3.09283 0.23402,-0.30941 0.4296,-0.76927 0.4346,-1.02164 0.005,-0.25238 0.47974,-0.92934 1.05471,-1.5043 0.90419,-0.90417 1.18753,-1.02733 2.10066,-0.91209 0.58063,0.0733 1.28426,0.2046 1.56321,0.29197 0.79383,0.24867 0.59452,-0.35781 -0.33488,-1.01958 -0.51483,-0.3666 -1.24201,-0.56837 -1.96887,-0.58756 z m -14.41876,6.16138 c 0.29998,0.0246 0.78004,0.76723 1.52447,2.20659 0.78695,1.5216 0.89101,1.91973 0.57981,2.22208 -0.20857,0.20262 -0.86833,0.4578 -1.46608,0.56689 l -1.08675,0.19844 v -2.4784 c 0,-1.84879 0.10858,-2.74349 0.44855,-2.7156 z"
         id="path4360" />
      <rect
         style="opacity:0;vector-effect:none;fill:#000000;fill-opacity:1;stroke-width:0.26458332"
         id="rect4385"
         width="677.33331"
         height="381"
         x="-422.4209"
         y="-91.538857" />
    </g>
  </g>
</svg>
