<?xml version="1.0" encoding="UTF-8" standalone="no"?>
<!-- Created with Inkscape (http://www.inkscape.org/) -->

<svg
   xmlns:dc="http://purl.org/dc/elements/1.1/"
   xmlns:cc="http://creativecommons.org/ns#"
   xmlns:rdf="http://www.w3.org/1999/02/22-rdf-syntax-ns#"
   xmlns:svg="http://www.w3.org/2000/svg"
   xmlns="http://www.w3.org/2000/svg"
   xmlns:sodipodi="http://sodipodi.sourceforge.net/DTD/sodipodi-0.dtd"
   xmlns:inkscape="http://www.inkscape.org/namespaces/inkscape"
   width="508mm"
   height="285.75mm"
   viewBox="0 0 508 285.75"
   version="1.1"
   id="svg8"
   inkscape:version="0.92.2 (5c3e80d, 2017-08-06)"
   sodipodi:docname="overlay-compile-to-js.svg">
  <defs
     id="defs2" />
  <sodipodi:namedview
     id="base"
     pagecolor="#ffffff"
     bordercolor="#666666"
     borderopacity="1.0"
     inkscape:pageopacity="0.0"
     inkscape:pageshadow="2"
     inkscape:zoom="0.49497475"
     inkscape:cx="906.01167"
     inkscape:cy="348.98177"
     inkscape:document-units="mm"
     inkscape:current-layer="layer1"
     showgrid="false"
     fit-margin-top="0"
     fit-margin-left="0"
     fit-margin-right="0"
     fit-margin-bottom="0"
     inkscape:window-width="1920"
     inkscape:window-height="1016"
     inkscape:window-x="0"
     inkscape:window-y="27"
     inkscape:window-maximized="1" />
  <metadata
     id="metadata5">
    <rdf:RDF>
      <cc:Work
         rdf:about="">
        <dc:format>image/svg+xml</dc:format>
        <dc:type
           rdf:resource="http://purl.org/dc/dcmitype/StillImage" />
        <dc:title />
      </cc:Work>
    </rdf:RDF>
  </metadata>
  <g
     inkscape:label="Layer 1"
     inkscape:groupmode="layer"
     id="layer1"
     transform="translate(136.07143,85.511902)">
    <path
       style="fill:#ffffff;fill-opacity:1;stroke-width:0.99999994"
       d="m -82.510479,7.3073933 c -1.42636,-0.2066 -2.08776,-0.52954 -3.01658,-1.47288 -0.47784,-0.4853 -0.86879,-0.98425 -0.86879,-1.10877 0,-0.12452 -0.0672,-0.26796 -0.14944,-0.31876 -0.19744,-0.12202 -0.17105,-0.9323 0.0488,-1.49598 0.2651,-0.6799 0.74341,-1.41804 0.91888,-1.41804 0.0858,0 0.23881,-0.13261 0.34004,-0.2947 0.21826,-0.34949997 0.57281,-0.25824997 0.68655,0.17669 0.0516,0.19714 -0.0584,0.4923 -0.30262,0.81251 -0.89041,1.1674 -0.49919,2.7166 0.83873,3.32126 0.38689,0.17486 0.84608,0.31791 1.02042,0.31791 0.17435,0 0.35529,0.062 0.4021,0.13771 0.14586,0.23602 2.00953,0.3692 2.38138,0.1702 0.18277,-0.0978 0.39583,-0.16246 0.47346,-0.14364 0.1966,0.0477 0.96425,-0.16739 1.41137,-0.39534 0.20548,-0.10476 0.60895,-0.28938 0.89662,-0.41028 1.34484,-0.56518 1.74287,-0.8136 2.54667,-1.58937 1.04128,-1.00499 1.1817,-1.41191 1.29414,-3.75052997 0.0691,-1.43675003 0.0317,-1.92454003 -0.22563,-2.94207003 -0.16965,-0.67087 -0.40455,-1.37526 -0.522,-1.56531 -0.11744,-0.19006 -0.301,-0.68179 -0.4079,-1.09275 -0.10691,-0.41094 -0.37425,-0.98254 -0.59411,-1.27021 -0.21985,-0.28767 -0.64153,-0.97519 -0.93705,-1.52784 -0.57823,-1.08131 -0.57794,-1.08092 -1.63979,-2.2422903 -0.3904,-0.42699 -0.70983,-0.82934 -0.70983,-0.8941 0,-0.0648 -0.13449,-0.11776 -0.29887,-0.11776 -0.16438,0 -0.29887,0.0673 -0.29887,0.14944 0,0.0822 -0.1345,0.14944 -0.29888,0.14944 -0.17107,0 -0.29887,-0.0996 -0.29887,-0.23298 0,-0.12813 -0.0615,-0.19496 -0.13668,-0.1485 -0.0752,0.0465 -0.16035,0.0134 -0.18931,-0.0734 -0.0487,-0.14615 -1.03906,-0.0429 -1.99029,0.20743 -0.16438,0.0433 -0.82802,0.21682 -1.47476,0.38566 -0.64674,0.16884 -1.89179,0.35047 -2.76677,0.40362 -1.36341,0.0828 -1.61968,0.0619 -1.79222,-0.14597 -0.37926,-0.45697 -0.1172,-0.65378 0.72642,-0.54556 0.64442,0.0827 0.83711,0.0491 1.15528,-0.20115 0.21003,-0.16522 0.65857,-0.34793 0.99675,-0.40605 1.25504,-0.21568 3.0152,-0.60805 3.30474,-0.73668 0.37014,-0.16445 1.30026,-0.36835 1.47274,-0.32285 0.0703,0.0185 0.20903,-0.0337 0.3083,-0.11608 0.0993,-0.0824 0.41161,-0.18033 0.6941,-0.21763 1.09918,-0.14519 2.81639,-0.40862 4.15261,-0.63704 0.7686,-0.13138 1.57556,-0.23789 1.79325,-0.23666 0.21768,0.001 0.46304,-0.0515 0.54523,-0.11712 0.0822,-0.0656 0.78828,-0.16199 1.56909,-0.21412 3.78315,-0.25254 4.13049,-0.21721 3.90325,0.39708 -0.16931,0.45768 -0.98281,0.67522 -2.88846,0.7724 -0.8458,0.0431 -1.80681,0.11548 -2.13557,0.16078 -0.32876,0.0453 -0.76586,0.105 -0.97134,0.13268 -0.20548,0.0277 -0.61592,0.13047 -0.91209,0.22843 -0.29618,0.098 -0.66603,0.2058 -0.82191,0.23966 -0.3511,0.0763 -1.25265,0.38108 -1.55362,0.52529 -0.52218,0.25022 -0.2234,1.016 0.72469,1.85742 0.19311,0.17137 0.57076,0.7546503 0.83924,1.2961703 0.26848,0.54151 0.7227,1.35124 1.00938,1.79939 0.28667,0.44815 0.62247,1.04741 0.74621,1.3317 1.14656,2.63422 1.41561,3.8939 1.33924,6.27022003 -0.0779,2.42437997 -0.61132,3.49881997 -2.39568,4.82560997 -0.46388,0.34493 -0.87705,0.66465 -0.91815,0.71049 -0.16421,0.18319 -1.18503,0.59082 -1.47959,0.59082 -0.17251,0 -0.31365,0.0619 -0.31365,0.13756 0,0.0757 -0.21634,0.18508 -0.48077,0.24316 -0.26442,0.0581 -0.58384,0.15604 -0.70982,0.21768 -0.97135,0.47533 -2.56932,0.64703 -4.03971,0.43404 z m 23.8429,-5.33344 c -0.0231,-0.0231 -0.20236,-0.0728 -0.39841,-0.11034 -0.79539,-0.15238 -0.84302,-0.79892 -0.11498,-1.56073997 0.57314,-0.59974 1.02874,-0.60835 1.02874,-0.0194 0,0.40481 0.0482,0.44089 0.70983,0.53162 0.3904,0.0535 1.21418,0.0612 1.8306,0.0171 0.61643,-0.0442 2.53296,-0.125 4.25896,-0.17968 2.92703,-0.0927 4.18424,-0.15433 4.18424,-0.20503 0,-0.0116 0.19652,-0.0468 0.43672,-0.0781 0.24018,-0.0314 0.5702,-0.19047 0.73335,-0.35362 0.28288,-0.28288 0.28483,-0.31467 0.042,-0.68524 -0.36841,-0.56226003 -1.09855,-1.23071003 -1.99664,-1.82796003 -0.4315,-0.28695 -0.78454,-0.58244 -0.78454,-0.65664 0,-0.0742 -0.0504,-0.12423 -0.11208,-0.11118 -0.26842,0.0568 -0.91485,-0.35626 -1.61566,-1.03242 -0.10648,-0.10274 -0.29208,-0.1868 -0.41244,-0.1868 -0.12036,0 -0.25347,-0.0841 -0.2958,-0.1868 -0.0719,-0.17453 -1.2757,-0.8293 -2.51222,-1.36644 -0.2969,-0.12897 -0.62455,-0.3366 -0.72813,-0.46141 -0.10357,-0.1248 -0.28095,-0.22691 -0.39417,-0.22691 -0.11323,0 -0.20586,-0.0608 -0.20586,-0.13515 0,-0.0743 -0.44518,-0.35886 -0.98928,-0.63227 -0.54411,-0.27342 -1.02203,-0.58245 -1.06205,-0.68675 -0.04,-0.1043 -0.16736,-0.18964 -0.28296,-0.18964 -0.11561,0 -0.32697,-0.0629 -0.46969,-0.13972 -0.14271,-0.0768 -0.78064,-0.37823 -1.41762,-0.66976 -0.63697,-0.29152 -1.15813,-0.5985 -1.15813,-0.68218 0,-0.0837 -0.0665,-0.1521403 -0.14773,-0.1521403 -0.50046,0 -1.15848,-1.08817 -1.28826,-2.13041 -0.0833,-0.66861 0.41296,-1.62359 1.17321,-2.2579 0.26781,-0.22345 0.68867,-0.57324 0.93524,-0.77732 0.55017,-0.45534 3.30689,-1.85792 3.65169,-1.85792 0.22154,0 1.36398,0.72638 1.19669,0.76088 -0.0365,0.008 -0.30175,0.0437 -0.58942,0.0803 -0.57672,0.0734 -1.49437,0.50081 -1.49437,0.69604 0,0.0683 -0.0596,0.0874 -0.13251,0.0424 -0.0729,-0.0451 -0.21499,0.0175 -0.3158,0.13897 -0.10082,0.12147 -0.24293,0.18401 -0.31581,0.13897 -0.0729,-0.0451 -0.13251,-0.007 -0.13251,0.0836 0,0.091 -0.20374,0.25115 -0.45276,0.35585 -0.56776,0.23873 -1.5784,1.18655 -1.87335,1.75691 -0.31826,0.61545 -0.22497,1.39118 0.22698,1.88729 0.36727,0.40315 0.97835,0.73247 4.05532,2.1855003 0.78824,0.37223 1.51937,0.78066 1.62475,0.90763 0.10537,0.12697 0.2553,0.23085 0.33316,0.23085 0.0779,0 0.42268,0.19203 0.76625,0.42674 0.34357,0.23471 1.06178,0.65907 1.59601,0.94301 1.40671,0.74766 1.67587,0.91027 2.09213,1.26396 0.36587,0.31089 0.8962,0.68667 2.82617,2.00258 0.95778,0.65305 1.7524,1.39484 2.34539,2.18949003 0.35507,0.4758 0.33429,1.00318 -0.0569,1.44438 -0.33231,0.37477 -1.68987,0.98038997 -2.39771,1.06962997 -0.30256,0.0381 -0.85943,0.12724 -1.2375,0.198 -0.61163,0.11448 -2.07668,0.15946 -6.63502,0.20373 -0.73972,0.007 -1.5803,0.006 -1.86797,-0.003 -0.28767,-0.009 -0.88172,-10e-4 -1.32011,0.0168 -0.4384,0.0179 -0.81597,0.0136 -0.83905,-0.01 z m -39.38436,-17.2215003 c -0.45205,-0.0626 -1.18761,-0.15905 -1.63457,-0.21435 -0.446971,-0.0553 -0.917691,-0.15566 -1.046061,-0.223 -0.12837,-0.0673 -0.58651,-0.17012 -1.01809,-0.2284 -0.49438,-0.0668 -0.74844,-0.1646 -0.68673,-0.26446 0.0588,-0.0952 0.0265,-0.11433 -0.081,-0.0479 -0.30098,0.18602 -1.51483,-0.93947 -1.8926,-1.75483 l -0.34441,-0.74339 0.29467,-0.7476 c 0.36321,-0.92148 0.57843,-1.33174 0.80044,-1.52585 0.094,-0.0822 0.35328,-0.3988 0.57618,-0.70358 0.37206,-0.50873 1.93702,-1.80125 3.175541,-2.6227 0.52257,-0.3466 1.60747,-0.75173 2.00603,-0.74912 0.12329,7.4e-4 0.34017,-0.0467 0.48195,-0.1056 0.36902,-0.15328 1.61192,1.16024 1.60542,1.69664 -0.005,0.36466 -0.29574,0.91527 -0.48426,0.91527 -0.0453,0 -0.12665,-0.26151 -0.18065,-0.58113 -0.0839,-0.4967 -0.16725,-0.59817 -0.57352,-0.69834 -0.26144,-0.0645 -0.57621,-0.10229 -0.6995,-0.0841 -0.12329,0.0182 -0.38614,0.0587 -0.58413,0.09 -0.19798,0.0313 -0.54831,0.19614 -0.77849,0.36632 -0.23019,0.17019 -0.48515,0.30943 -0.56659,0.30943 -0.0814,0 -0.20184,0.0877 -0.26756,0.19499 -0.0657,0.10725 -0.354871,0.34109 -0.642541,0.51965 -0.56843,0.35285 -1.27854,1.06304 -2.1398,2.14006 -0.70679,0.88385 -0.7659,1.74153 -0.15879,2.30418 0.74655,0.69188 1.67121,1.12885 2.5055,1.18405 0.441791,0.0292 0.946221,0.12965 1.120961,0.22317 0.17474,0.0935 1.00875,0.20046 1.85335,0.23764 1.32938,0.0585 1.61019,0.0277 2.09069,-0.22989 1.00228,-0.53719 1.25795,-0.34866 0.66872,0.49311 -0.18465,0.26379 -0.34258,0.49746 -0.35097,0.51926 -0.032,0.0831 -1.73091,0.48246 -1.9731,0.46379 -0.13982,-0.0108 -0.62408,-0.0708 -1.07612,-0.13339 z m 43.84482,-1.06675 c -0.0602,-0.0975 -0.10897,-0.41772 -0.10826,-0.71162 10e-4,-0.47531 0.0401,-0.52866 0.35177,-0.48286 0.58712,0.0863 1.04561,0.50516 1.00422,0.91752 -0.0313,0.31256 -0.12428,0.37781 -0.58772,0.41274 -0.3066,0.0231 -0.59899,-0.0371 -0.66001,-0.13578 z m -36.0122,-0.7772 c -0.0516,-0.13454 -0.17142,-0.24462 -0.26621,-0.24462 -0.20963,0 -0.99118,-0.70569 -0.99118,-0.89497 0,-0.0746 -0.16707,-0.32409 -0.37127,-0.55434 -0.62903,-0.7093 -0.67479,-0.77416 -0.67479,-0.95626 0,-0.0971 -0.10991,-0.257 -0.24424,-0.35522 -0.33285,-0.2434 -0.29883,-1.60731 0.0552,-2.21295 0.14564,-0.24914 0.62714,-0.64745 1.07514,-0.88938 0.79773,-0.43078 2.0294,-0.65266 2.18905,-0.39433 0.0444,0.0718 0.24482,0.13053 0.44545,0.13053 0.20062,0 0.36477,0.0527 0.36477,0.11721 0,0.0645 0.21855,0.24091 0.48567,0.39209 1.00177,0.56695 1.71193,1.74855 1.53889,2.56047 -0.0343,0.16091 -0.10684,0.50143 -0.16121,0.75672 -0.0746,0.35041 -0.0404,0.4866 0.13967,0.55571 0.1312,0.0503 0.23854,0.0372 0.23854,-0.0292 0,-0.10516 0.64252,-0.46761 0.82893,-0.46761 0.0372,0 0.0677,0.10828 0.0677,0.24062 0,0.31183 -1.30134,1.5972 -1.49553,1.47719 -0.0816,-0.0504 -0.14828,-0.0218 -0.14828,0.0636 0,0.55122 -2.88186,1.21146 -3.07628,0.70479 z m 1.50016,-1.80854 c -0.0841,-0.56095 -0.0524,-0.67138 0.25435,-0.8863 0.28747,-0.2014 0.34774,-0.37101 0.33542,-0.94396 -0.0129,-0.59999 -0.0853,-0.75714 -0.51367,-1.11475 -0.27426,-0.22897 -0.52769,-0.38727 -0.56317,-0.3518 -0.0355,0.0355 -0.15645,-0.0274 -0.26883,-0.13982 -0.1244,-0.1244 -0.39508,-0.1773 -0.69204,-0.13525 -0.73327,0.10385 -0.7649,0.12392 -1.21201,0.7691 -0.38353,0.55344 -0.40701,0.66884 -0.31018,1.52464 0.13496,1.19297 0.58902,1.78799 1.384,1.81368 0.30091,0.01 0.74885,0.065 0.99542,0.12278 0.62911,0.14748 0.69975,0.0688 0.59071,-0.65832 z m 20.2047,0.43025 c -0.35236,-0.23944 -0.53792,-0.46686 -0.48769,-0.59775 0.0446,-0.11619 -10e-4,-0.21179 -0.10104,-0.21243 -0.10016,-5.6e-4 -0.27051,-0.18557 -0.37856,-0.41095 -0.91608,-1.91083 -1.29946,-3.69183 -1.29451,-6.01368 0.003,-1.63099 0.21111,-2.17595 1.01939,-2.67549 1.10059,-0.68021 2.56269,-0.28033 3.99428,1.09241 1.01968,0.97776 1.39314,1.66902 1.23726,2.29009 -0.12307,0.49033 -0.64238,0.95742 -0.94476,0.84975 -0.12078,-0.043 -0.16879,-0.0274 -0.10668,0.0347 0.16233,0.16233 -1.05281,0.49569 -1.81661,0.49836 -0.49156,0.002 -0.7164,-0.0791 -0.92901,-0.33397 -0.54425,-0.65239 -0.23434,-0.90912 0.97978,-0.81162 0.56026,0.045 1.07949,-0.11402 1.28501,-0.39353 0.32457,-0.44145 -0.8147,-1.84372 -1.61598,-1.98902 -0.2174,-0.0394 -0.44029,-0.0995 -0.4953,-0.1335 -0.51525,-0.31844 -1.02471,4.3033 -0.6478,5.87678 0.1578,0.65877 0.50443,1.26627 1.04447,1.83054 0.47159,0.49273 0.49665,0.56654 0.34251,1.0087 -0.2014,0.57772 -0.34965,0.5901 -1.08476,0.0906 z m -14.46029,-0.30521 c -0.11165,-0.13453 -0.20877,-0.6191 -0.21716,-1.08342 -0.008,-0.46202 -0.0684,-1.29744 -0.13342,-1.85648 l -0.11825,-1.01645 0.49347,-0.44057 c 0.2714,-0.24231 0.5413,-0.44056 0.59978,-0.44056 0.0585,0 0.14622,-0.15896 0.19498,-0.35325 0.0487,-0.19428 0.35859,-0.63138 0.6885,-0.97134 0.82526,-0.85036 1.37788,-0.85129 2.22544,-0.004 l 0.61436,0.61436 0.37198,-0.35285 c 0.20459,-0.19407 0.37314,-0.43677 0.37456,-0.53934 0.002,-0.10257 0.27157,-0.47207 0.60033,-0.8211 0.32876,-0.34902 0.59774,-0.67922 0.59774,-0.73376 0,-0.17712 1.79982,-0.71242 2.06185,-0.61324 0.33712,0.12761 0.49367,0.297 0.93249,1.00897 0.67405,1.09361 0.87174,1.69983 1.04761,3.21259 0.18521,1.59316 0.13027,1.83381 -0.4535,1.98647 -0.45468,0.1189 -0.7846,-0.56594 -0.99248,-2.06019 -0.1029,-0.73972 -0.29789,-1.5803 -0.43331,-1.86797 -0.43789,-0.9302 -0.58803,-1.19549 -0.67657,-1.19549 -0.15307,0 -1.11661,0.95393 -1.50943,1.49437 -0.20908,0.28766 -0.63711,1.061 -0.95115,1.71853 -0.60056,1.25737 -0.98539,1.71852 -1.4341,1.71852 -0.36282,0 -0.58014,-0.44596 -0.58014,-1.19047 0,-0.7249 -0.35247,-1.64978 -0.62749,-1.64654 -0.35104,0.004 -0.54494,0.21796 -0.8563,0.94434 -0.39557,0.92283 -0.45851,1.22735 -0.60549,2.92959 -0.094,1.0885 -0.18297,1.45524 -0.38975,1.60645 -0.35559,0.26001 -0.58011,0.24709 -0.82455,-0.0474 z m 22.73558,-4.96522 c -0.16723,-0.53276 -0.30405,-1.12064 -0.30405,-1.30641 0,-0.18576 -0.10271,-0.44046 -0.22825,-0.566 -0.14531,-0.14531 -0.21319,-0.44088 -0.1868,-0.81342 0.047,-0.66451 0.22309,-0.67637 0.89087,-0.06 0.47709,0.44034 1.20846,2.50427 1.13963,3.21603 -0.0414,0.42827 -0.0977,0.48049 -0.52686,0.48898 -0.46243,0.009 -0.49193,-0.0269 -0.78454,-0.95915 z m 5.6917,0.36723 c -0.087,-0.17282 -0.19773,-0.61682 -0.24616,-0.98668 -0.0484,-0.36985 -0.14975,-0.8742 -0.22514,-1.12078 -0.19408,-0.63467 -0.63239,-3.17346 -0.6708,-3.88536 -0.0607,-1.12547 -0.23828,-2.82092 -0.3071,-2.932275 -0.0784,-0.126921 -0.35174,-3.34922 -0.43571,-5.137332 -0.0309,-0.657523 -0.0873,-1.296367 -0.12529,-1.419653 -0.038,-0.123286 -0.13789,-1.192382 -0.22192,-2.375768 -0.14025,-1.975233 -0.18177,-2.177362 -0.50644,-2.465713 -0.19452,-0.172755 -0.34473,-0.414971 -0.33382,-0.538257 0.0109,-0.123285 0.0301,-0.306486 0.0426,-0.407114 0.0125,-0.100628 0.20893,-0.279229 0.43646,-0.396893 0.56396,-0.291637 0.78889,-0.09363 1.20632,1.061914 0.24496,0.678128 0.37485,1.508699 0.47907,3.063461 0.0786,1.173199 0.17587,2.435699 0.21606,2.805555 0.0402,0.369858 0.10715,1.143195 0.1488,1.718528 0.0416,0.575333 0.14584,1.617657 0.23154,2.316275 0.0857,0.698619 0.19271,1.976302 0.23782,2.839302 0.0707,1.35181 0.30156,3.06575 0.55362,4.10953 0.35795,1.48229 0.47865,1.82801 0.71942,2.06058 0.35259,0.34058 0.35978,1.16612 0.0139,1.59328 -0.36442,0.45004 -1.00972,0.50185 -1.21323,0.0974 z m 5.68953,-0.33791 c -0.27162,-0.11439 -0.54061,-0.18514 -0.59775,-0.15722 -0.0571,0.0279 -0.25281,-0.10488 -0.4348,-0.29511 -0.18199,-0.19023 -0.28846,-0.34587 -0.2366,-0.34587 0.25305,0 -0.98087,-1.01697 -1.33783,-1.10261 -0.48388,-0.11608 -0.53353,-0.46484 -0.11618,-0.81612 0.20094,-0.16914 0.34625,-0.57984 0.45653,-1.29036 0.16673,-1.07414 0.76882,-2.34011 1.41013,-2.96495 0.69404,-0.67623 1.47979,-1.24961 1.91073,-1.39431 0.14384,-0.0483 0.26152,-0.14399 0.26152,-0.21267 0,-0.241435 1.01783,-0.03017 1.49639,0.3106 0.26618,0.18953 0.61855,0.65342 0.78304,1.03085 0.16449,0.37743 0.37223,0.77782 0.46165,0.88975 0.23972,0.30009 0.11352,1.22324 -0.23393,1.71119 -0.42367,0.59498 -1.49816,1.58884 -1.7226,1.59333 -0.10274,0.002 -0.1868,0.071 -0.1868,0.15318 0,0.0822 -0.10087,0.14943 -0.22416,0.14943 -0.12328,0 -0.22415,0.0673 -0.22415,0.14944 0,0.0822 -0.11352,0.14944 -0.25227,0.14944 -0.32415,0 -1.23975,0.62041 -1.24108,0.84096 -0.005,0.84311 2.52032,0.68458 3.82101,-0.23986 0.33503,-0.23812 0.78618,-0.47737 1.00257,-0.53168 0.21639,-0.0543 0.47167,-0.19302 0.5673,-0.30824 0.0956,-0.11522 0.33375,-0.20949 0.52916,-0.20949 0.19541,0 0.35529,-0.0618 0.35529,-0.13743 0,-0.16374 1.47646,-0.67749 1.59793,-0.55602 0.0463,0.0463 -0.0757,0.21899 -0.2712,0.38374 -1.55737,1.31266 -1.98382,1.6356 -2.08073,1.5757 -0.0612,-0.0378 -0.14986,0.0317 -0.19699,0.15452 -0.0471,0.12281 -0.18866,0.22329 -0.31453,0.22329 -0.12587,0 -0.22927,0.0504 -0.22979,0.11208 -10e-4,0.10788 -0.697,0.55399 -0.93837,0.60138 -0.0646,0.0127 -0.22069,0.12633 -0.34692,0.25255 -0.12622,0.12622 -0.35521,0.22949 -0.50886,0.22949 -0.15366,0 -0.31385,0.0558 -0.35598,0.12393 -0.12665,0.20492 -2.07144,0.15042 -2.60173,-0.0729 z m 0.64183,-3.47035 c 0.70735,-0.34619 1.85198,-1.33872 2.07026,-1.79517 0.22528,-0.47108 0.19413,-1.15249 -0.076,-1.66316 -0.14751,-0.2788 -0.32617,-0.3807 -0.6852,-0.39079 -0.26712,-0.008 -0.48567,0.046 -0.48567,0.11883 0,0.0729 -0.18493,0.21478 -0.41096,0.31536 -0.83572,0.37191 -1.8306,1.72821 -1.8306,2.49563 0,0.17791 -0.0671,0.44888 -0.14914,0.60215 -0.11023,0.20595 -0.0879,0.33991 0.0855,0.51334 0.25834,0.25834 0.66243,0.20484 1.48181,-0.19619 z m 21.41302,-0.21031 c -0.22135,-0.17935 -0.73701,-1.35248 -0.68789,-1.56495 0.0141,-0.0607 -0.0457,-0.27854 -0.13286,-0.48402 -0.0871,-0.20548 -0.27163,-0.76416 -0.41004,-1.24153 -0.13841,-0.47736 -0.35291,-0.90678 -0.47666,-0.95427 -0.31253,-0.11993 -1.42002,0.23268 -1.66567,0.53033 -0.11158,0.1352 -0.1603,0.16176 -0.10825,0.059 0.11807,-0.23309 -0.10409,-0.24483 -0.3314,-0.0175 -0.25359,0.25359 -0.63768,0.0374 -0.63768,-0.35886 0,-0.43646 0.26179,-0.70705 0.68405,-0.70705 0.17898,0 0.40765,-0.0991 0.50816,-0.220198 0.10051,-0.12111 0.41198,-0.263205 0.69216,-0.315766 0.65142,-0.122207 0.72806,-0.414469 0.57711,-2.2006 -0.1492,-1.765543 -0.15291,-1.793811 -0.51382,-3.913385 -0.16794,-0.986286 -0.27516,-1.872961 -0.23827,-1.970387 0.0369,-0.09743 0.007,-0.198299 -0.0667,-0.224156 -0.0736,-0.02586 -0.15782,-0.284845 -0.18724,-0.575529 -0.0294,-0.290682 -0.0976,-0.599831 -0.15143,-0.686997 -0.0539,-0.08717 -0.11714,-0.437646 -0.1406,-0.778842 -0.0234,-0.341197 -0.0843,-0.620458 -0.1352,-0.620577 -0.0509,-1.21e-4 -0.1001,-0.335365 -0.10933,-0.744987 -0.0154,-0.68328 0.0202,-0.763856 0.43033,-0.975979 0.24592,-0.127165 0.43575,-0.178688 0.42185,-0.114496 -0.0139,0.06419 0.0116,0.217585 0.0567,0.340871 0.109,0.297923 0.4516,2.199059 0.49819,2.764587 0.0203,0.246572 0.11474,0.648791 0.20984,0.893821 0.16697,0.430243 0.56662,2.44011 0.69885,3.514575 0.0354,0.287667 0.13035,0.892887 0.21101,1.344935 0.0807,0.452047 0.21222,1.382528 0.29235,2.067736 0.0801,0.685208 0.17689,1.296289 0.215,1.357959 0.082,0.132642 1.64139,0.08101 1.87279,-0.062 0.0879,-0.05436 0.54471,-0.126067 1.01503,-0.159365 0.47032,-0.0333 1.15774,-0.124581 1.5276,-0.202852 0.36986,-0.07827 0.80958,-0.109427 0.97717,-0.06923 0.16759,0.04019 0.47581,0.008 0.68494,-0.07149 0.20913,-0.07951 0.47046,-0.0888 0.58074,-0.02065 0.12898,0.07972 0.377,-0.01071 0.69534,-0.253516 0.27216,-0.207587 0.86962,-0.571882 1.32769,-0.809543 0.75289,-0.390627 0.9737,-0.43211 2.29999,-0.43211 1.12182,0 1.51092,0.05276 1.65317,0.224156 0.10232,0.123285 0.27867,0.224155 0.39189,0.224155 0.11322,0 0.20586,0.06725 0.20586,0.149437 0,0.08219 0.13294,0.282381 0.29543,0.444867 0.54733,0.547333 0.77285,1.314261 0.57785,1.965126 -0.0954,0.31831 -0.21763,0.57876 -0.27167,0.57876 -0.13998,0 -0.75105,1.11928 -0.75105,1.37569 0,0.55383 -1.37361,1.15519 -2.91971,1.27824 -0.66696,0.0531 -0.77415,0.0202 -0.93937,-0.28831 -0.10257,-0.19152 -0.44772,-0.49847 -0.76699,-0.68209 -0.5249,-0.30189 -1.37052,-1.23522 -1.11914,-1.23522 0.0568,0 0.0355,-0.0841 -0.0473,-0.1868 -0.0828,-0.10274 -0.19619,-0.4007 -0.25206,-0.66214 -0.0559,-0.261446 -0.20847,-0.564056 -0.33912,-0.672473 -0.25925,-0.215136 -1.23762,-0.277103 -1.23762,-0.07839 0,0.06768 -0.0713,0.07899 -0.15846,0.02513 -0.0872,-0.05387 -0.33932,-0.03093 -0.56039,0.05096 -0.22106,0.08189 -1.05283,0.264409 -1.84837,0.405601 -2.19831,0.390162 -2.7493,0.889162 -2.25192,2.039472 0.34382,0.79514 0.79857,2.52121 0.70438,2.67359 -0.18724,0.30298 -0.62374,0.43006 -0.84933,0.24727 z m 11.40243,-3.99014 c 0.88291,-0.911224 1.01071,-1.147372 0.92883,-1.716316 -0.0778,-0.540412 -0.28517,-0.807433 -0.78579,-1.011716 -0.44815,-0.182867 -1.35009,-0.147233 -1.60605,0.06345 -0.0991,0.0816 -0.25031,0.10507 -0.33593,0.05215 -0.16847,-0.104125 -1.05291,0.358722 -1.05291,0.551015 0,0.06447 -0.0931,0.117217 -0.20697,0.117217 -0.11383,0 -0.32463,0.179579 -0.46845,0.399063 -0.52674,0.803917 0.11184,1.862547 1.29152,2.141067 1.17166,0.27662 1.46644,0.19805 2.23575,-0.59593 z m -46.31791,-2.405801 c -0.40893,-0.380986 -0.35844,-0.575762 0.23984,-0.925178 l 0.46015,-0.268741 0.17646,0.534671 c 0.13691,0.414842 0.13584,0.583613 -0.005,0.753044 -0.24798,0.298801 -0.47668,0.274192 -0.87167,-0.0938 z"
       id="path859"
       inkscape:connector-curvature="0"
       sodipodi:nodetypes="ccsccsccccsccccccccccccsssssscccscccccccccccccccscccccccccccsscccccccscccscsccsccscccssccsccsscccsccscccscccccssccccccccsccccccccccccccccccscccccsccccccccscccccccccccsscsccccssccccssscsccccccccccccccccccccccccccccccccccccccccscccccccscccccssccsscccccccssccccccccccccccccscccccscccccccsscccccscscccssssccccssscccscccscccccccscscccccccccccsscccsccccccccccccccccccccccccscssccsscccscccscccccccsccacssccsccccccc" />
  </g>
</svg>
