<?xml version="1.0" encoding="UTF-8" standalone="no"?>
<!-- Created with Inkscape (http://www.inkscape.org/) -->

<svg
   xmlns:dc="http://purl.org/dc/elements/1.1/"
   xmlns:cc="http://creativecommons.org/ns#"
   xmlns:rdf="http://www.w3.org/1999/02/22-rdf-syntax-ns#"
   xmlns:svg="http://www.w3.org/2000/svg"
   xmlns="http://www.w3.org/2000/svg"
   xmlns:xlink="http://www.w3.org/1999/xlink"
   xmlns:sodipodi="http://sodipodi.sourceforge.net/DTD/sodipodi-0.dtd"
   xmlns:inkscape="http://www.inkscape.org/namespaces/inkscape"
   width="508mm"
   height="285.75mm"
   viewBox="0 0 508 285.75"
   version="1.1"
   id="svg8"
   inkscape:version="0.92.2 (5c3e80d, 2017-08-06)"
   sodipodi:docname="overlay-textdecoder.svg">
  <defs
     id="defs2">
    <linearGradient
       inkscape:collect="always"
       id="linearGradient1041">
      <stop
         style="stop-color:#000000;stop-opacity:1;"
         offset="0"
         id="stop1037" />
      <stop
         style="stop-color:#000000;stop-opacity:0.756"
         offset="1"
         id="stop1039" />
    </linearGradient>
    <linearGradient
       inkscape:collect="always"
       xlink:href="#linearGradient1041"
       id="linearGradient1043"
       x1="184.14999"
       y1="-18.118753"
       x2="184.14999"
       y2="91.418747"
       gradientUnits="userSpaceOnUse"
       gradientTransform="matrix(3.7795275,0,0,3.7795275,207.99999,269.48032)" />
  </defs>
  <sodipodi:namedview
     id="base"
     pagecolor="#ffffff"
     bordercolor="#666666"
     borderopacity="1.0"
     inkscape:pageopacity="0.0"
     inkscape:pageshadow="2"
     inkscape:zoom="1"
     inkscape:cx="932.73396"
     inkscape:cy="473.04549"
     inkscape:document-units="mm"
     inkscape:current-layer="layer1"
     showgrid="false"
     fit-margin-top="0"
     fit-margin-left="0"
     fit-margin-right="0"
     fit-margin-bottom="0"
     inkscape:lockguides="true"
     inkscape:measure-start="0,0"
     inkscape:measure-end="0,0"
     inkscape:window-width="1920"
     inkscape:window-height="1016"
     inkscape:window-x="0"
     inkscape:window-y="27"
     inkscape:window-maximized="1" />
  <metadata
     id="metadata5">
    <rdf:RDF>
      <cc:Work
         rdf:about="">
        <dc:format>image/svg+xml</dc:format>
        <dc:type
           rdf:resource="http://purl.org/dc/dcmitype/StillImage" />
        <dc:title></dc:title>
      </cc:Work>
    </rdf:RDF>
  </metadata>
  <g
     inkscape:label="Layer 1"
     inkscape:groupmode="layer"
     id="layer1"
     transform="translate(55.033333,71.300003)">
    <path
       style="opacity:1;vector-effect:none;fill:url(#linearGradient1043);fill-opacity:1;stroke:none;stroke-width:6;stroke-linejoin:round;stroke-miterlimit:4;stroke-dasharray:none;stroke-opacity:1"
       d="M 0 0 L 0 582 L 0 1090 L 1924 1090 L 1924 540 L 1924 0 L 0 0 z M 694 622 L 1202 622 L 1198 692 L 690 692 L 694 622 z "
       transform="matrix(0.26458333,0,0,0.26458333,-55.033333,-71.300003)"
       id="rect1035" />
    <path
       style="fill:#f7df1e;fill-opacity:1;stroke-width:1"
       d="m 213.60755,85.143 c -0.51865,-0.193425 -3.12728,-1.759547 -4.58256,-2.751185 -1.87067,-1.274708 -4.12103,-3.328293 -4.12103,-3.760689 0,-0.352686 0.91334,-1.214156 1.28726,-1.214156 0.10737,0 0.45167,0.256444 0.76513,0.569875 0.31345,0.313439 0.87537,0.80301 1.24867,1.087955 0.37333,0.284938 1.01891,0.828739 1.43463,1.208454 0.41572,0.379708 1.14191,0.861572 1.61375,1.070795 0.47184,0.209231 0.92116,0.482803 0.99851,0.607931 0.0773,0.125136 0.472,0.365986 0.87705,0.535225 0.87342,0.364936 2.02076,0.416308 1.81366,0.0812 -0.17123,-0.27705 6.57113,-7.026487 7.01912,-7.026487 0.59334,0 1.00281,0.263688 1.19519,0.769675 0.17413,0.457984 0.0401,0.646271 -1.41467,1.987529 -2.50589,2.310343 -5.91606,5.597685 -6.22354,5.999378 -0.2396,0.313001 -1.35613,1.014763 -1.53822,0.96679 -0.0341,-0.009 -0.20198,-0.06853 -0.37295,-0.132287 z m -0.48717,-10.919992 c -0.18829,-0.287381 -0.34175,-0.93604 -0.34175,-1.444651 0,-0.507694 -0.1349,-1.466817 -0.29977,-2.131376 -0.16489,-0.664566 -0.34868,-2.602759 -0.40843,-4.307097 -0.0936,-2.671339 -0.0621,-3.150148 0.22831,-3.471075 0.3458,-0.38212 1.02841,-0.483884 1.43339,-0.213687 0.14113,0.09415 0.27495,1.417387 0.35076,3.467902 0.076,2.058043 0.23939,3.669357 0.43058,4.248184 0.16943,0.512887 0.40142,1.445419 0.51554,2.072281 0.17784,0.976925 0.15482,1.213764 -0.16122,1.65783 -0.51681,0.726167 -1.31493,0.781753 -1.74741,0.121689 z M 105.96703,56.870321 c -0.26876,-0.454976 -0.41162,-1.192649 -0.47154,-2.434931 -0.0851,-1.764497 -0.2782,-2.476363 -0.86343,-3.183192 -0.23301,-0.281429 -0.25485,-0.518676 -0.0956,-1.03775 0.25354,-0.826092 -0.16089,-3.133795 -0.80464,-4.480551 -0.54867,-1.147856 -0.33791,-1.609058 0.68902,-1.507811 0.38643,0.03806 0.77978,0.14326 0.87413,0.233699 0.203,0.1946 0.53022,1.398527 0.73459,2.702762 0.21981,1.402757 0.28445,1.44968 1.99719,1.44968 0.84253,0 2.03783,0.131785 2.65623,0.292856 2.26549,0.590082 4.77555,3.021245 5.00714,4.849747 0.0676,0.533846 0.16901,1.203763 0.22532,1.4887 0.28654,1.449774 0.2599,1.869105 -0.13202,2.07886 -0.73109,0.391269 -1.59835,-0.615983 -1.61151,-1.871626 -0.0103,-0.980614 -0.68473,-2.586218 -1.31758,-3.13663 -1.51361,-1.316438 -4.18562,-2.110863 -5.46444,-1.62466 -0.52085,0.198023 -0.53746,0.253624 -0.41705,1.395817 0.35466,3.364071 0.38602,5.065651 0.0967,5.24884 -0.48467,0.306907 -0.7011,0.215873 -1.10259,-0.46381 z m 15.32027,-0.480423 c -0.11397,-0.04065 -0.44081,-0.124791 -0.7263,-0.186909 -0.64431,-0.140182 -1.9419,-1.836523 -2.16056,-2.824514 -0.51218,-2.31415 -0.51221,-2.317886 -0.0205,-2.776284 0.25706,-0.239667 0.95251,-1.041893 1.54544,-1.782738 1.1986,-1.497621 1.47594,-1.67987 3.13851,-2.06239 1.02519,-0.235876 1.23461,-0.224895 1.86505,0.09782 1.09307,0.559521 2.2644,1.548555 2.2644,1.911971 0,0.500426 -1.00212,2.099099 -1.73157,2.762366 -0.90164,0.819833 -2.59978,1.597552 -3.85053,1.763471 -0.57706,0.07652 -1.04921,0.199675 -1.04921,0.273604 0,0.07394 0.14829,0.346131 0.32953,0.604885 0.2831,0.404191 0.45095,0.452618 1.19156,0.343765 0.47412,-0.06971 1.28167,-0.156198 1.79456,-0.192258 0.5129,-0.03603 1.49205,-0.205495 2.1759,-0.376512 1.31393,-0.328594 4.39074,-0.642723 5.83195,-0.595424 0.99157,0.03258 1.29583,-0.361724 0.69721,-0.903474 -0.73445,-0.664668 -2.2432,-4.429351 -1.95926,-4.888791 0.0707,-0.114319 -0.0215,-0.436742 -0.20481,-0.716487 -0.32295,-0.492899 -0.30738,-0.53672 0.50338,-1.41629 0.54909,-0.59569 0.79232,-1.023151 0.70769,-1.243692 -0.0709,-0.184825 -0.2194,-0.336043 -0.32994,-0.336043 -0.38173,0 0.97253,-1.169136 1.61108,-1.390851 1.61417,-0.560469 4.8683,0.396225 6.04164,1.776206 1.12007,1.317338 0.0788,1.784415 -1.7086,0.766457 -0.45591,-0.259632 -1.36011,-0.531975 -2.00935,-0.605214 -1.08875,-0.122802 -1.25497,-0.08284 -2.1401,0.514524 l -0.95966,0.647672 0.0922,1.373308 c 0.0507,0.755319 0.22112,1.740045 0.37865,2.188269 0.3034,0.863271 1.43361,2.147259 2.72136,3.091641 0.5766,0.422856 0.77711,0.719299 0.77711,1.148922 0,1.006593 -0.83457,1.466088 -2.87437,1.582577 -2.80946,0.160436 -9.67966,1.024357 -11.32078,1.423567 -0.22795,0.05545 -0.50771,0.06751 -0.62168,0.02687 z m 2.11504,-5.520102 c 1.14347,-0.525826 1.89531,-1.498397 1.65084,-2.135488 -0.27871,-0.726285 -2.82269,-0.146886 -3.68908,0.840197 -0.514,0.58561 -1.01105,1.660571 -0.84564,1.828847 0.2559,0.260337 1.7644,-0.01872 2.88388,-0.533556 z m 25.44634,0.627747 c -2.79192,-0.206928 -4.34952,-0.582814 -6.29034,-1.517977 -1.3375,-0.644469 -1.91053,-1.504466 -2.04533,-3.069617 -0.0617,-0.716393 -0.21333,-1.429794 -0.33695,-1.585326 -0.17074,-0.214824 -0.1088,-0.376685 0.25774,-0.673488 0.26537,-0.214886 0.63975,-0.390704 0.83194,-0.390704 0.19219,0 0.71807,-0.383867 1.16861,-0.853035 0.45054,-0.469167 1.09892,-0.988493 1.44085,-1.154051 0.34192,-0.165558 0.90144,-0.452994 1.24337,-0.638744 0.82492,-0.448122 3.04498,-0.584067 4.0612,-0.24869 0.82843,0.273409 1.43071,0.944014 1.42986,1.592047 -0.002,1.465149 -3.94302,3.374754 -6.9649,3.374754 -1.26076,0 -1.48891,0.229814 -1.172,1.180524 0.3164,0.949222 2.3466,1.580032 6.7904,2.109876 2.05156,0.244609 3.98949,0.443611 4.3065,0.442233 0.83673,-0.0039 0.97211,0.570846 0.27567,1.169888 -0.62198,0.535014 -1.02906,0.55638 -4.99662,0.26231 z m -3.10843,-7.233447 c 1.58193,-0.38107 2.48674,-0.872662 2.48674,-1.351056 0,-0.378627 -0.11477,-0.407943 -1.34134,-0.342692 -1.03404,0.05498 -1.44431,0.173711 -1.79075,0.518072 -0.24717,0.24569 -0.66181,0.593278 -0.92142,0.772425 -0.52202,0.360221 -0.38007,0.917658 0.19137,0.751497 0.18659,-0.05428 0.80552,-0.210962 1.3754,-0.348246 z m 70.31404,5.243694 c -0.44979,-0.11858 -0.85977,-1.354251 -0.73174,-2.205516 0.21662,-1.440406 0.79544,-3.061847 1.79367,-5.024438 1.39415,-2.74103 1.67547,-3.086973 2.36879,-2.912964 0.87782,0.220322 0.71239,1.039575 -0.85942,4.256329 -0.90153,1.844982 -0.95404,2.047915 -0.96525,3.730111 -0.006,0.978445 -0.0873,1.895547 -0.17948,2.038015 -0.16458,0.254306 -0.73247,0.301456 -1.42657,0.118463 z M 1.8671566,41.72188 c -0.42551,-0.522459 -0.83144,-1.780546 -0.97578,-3.02423 -0.11493,-0.990184 -0.2247,-1.275075 -0.49037,-1.272694 -0.52423,0.0047 -2.88623,0.579517 -4.32039,1.051425 -0.96726,0.318272 -1.3845,0.368813 -1.69094,0.204806 -0.44808,-0.239808 -0.39894,-0.866913 0.10043,-1.281341 0.30486,-0.253021 2.16222,-0.964477 4.3689,-1.673508 1.29792,-0.417029 1.76862,-0.928519 1.35705,-1.474624 -0.10325,-0.136999 -0.3045,-0.90186 -0.44722,-1.699689 -0.14272,-0.79783 -0.34954,-1.68899 -0.4596,-1.980359 -0.14716,-0.389563 -0.11593,-0.691194 0.11798,-1.139757 0.17495,-0.335496 0.31866,-0.7334 0.31937,-0.884225 0.002,-0.518858 0.71822,-0.135465 0.90266,0.483472 0.10156,0.340818 0.37259,1.055624 0.6023,1.588454 0.2297,0.532831 0.36239,1.112777 0.29485,1.288768 -0.0675,0.17599 0.0125,0.579312 0.17782,0.896273 0.16533,0.316958 0.3026,0.762793 0.30505,0.990744 0.009,0.797958 0.2374,0.871142 2.6569,0.849711 2.09885,-0.01859 2.37917,0.02188 2.64216,0.38146 0.16181,0.221241 0.29421,0.513 0.29421,0.648351 0,0.415259 -1.21699,0.763456 -3.83372,1.096879 l -1.03615,0.132025 -0.0637,0.880941 c -0.0351,0.484519 0.0832,1.454465 0.26278,2.155444 0.30186,1.178285 0.30033,1.303428 -0.0202,1.657603 -0.40386,0.44625 -0.76746,0.488639 -1.06437,0.124071 z M 40.611638,39.713204 c -0.491011,-0.229211 -1.283651,-0.520821 -1.761442,-0.648009 -0.477783,-0.127196 -1.028923,-0.374233 -1.224753,-0.548979 -0.308474,-0.275256 -0.649999,-0.286707 -2.555633,-0.08571 -2.614994,0.275813 -3.762482,0.01285 -4.941824,-1.13252 -0.399257,-0.387756 -0.852133,-0.70501 -1.00639,-0.70501 -0.154256,0 -0.601822,0.337721 -0.994602,0.750491 -0.727961,0.765008 -2.896383,1.943018 -3.577163,1.943316 -0.206943,8.6e-5 -0.56447,0.100887 -0.794504,0.223994 -0.323691,0.173234 -0.709061,0.121158 -1.704815,-0.23037 -1.542923,-0.544694 -1.778869,-0.710973 -2.343246,-1.651289 -0.339458,-0.565575 -0.423239,-1.005277 -0.380444,-1.996679 0.128809,-2.983701 3.030589,-6.203796 4.937273,-5.478876 0.63081,0.239834 0.789836,0.47865 0.909364,1.365605 0.07707,0.572194 0.01472,0.70957 -0.379199,0.834587 -0.290788,0.09229 -0.501491,0.05968 -0.549746,-0.08508 -0.132114,-0.396344 -1.153323,-0.258601 -1.724223,0.232565 -0.662609,0.570057 -1.509816,2.521349 -1.461632,3.366432 0.119528,2.096222 2.211045,2.633938 4.692875,1.206518 1.070857,-0.615905 1.377662,-0.922841 1.802499,-1.803292 0.498821,-1.033772 0.504977,-1.103678 0.239213,-2.71888 -0.150019,-0.911805 -0.264127,-2.077465 -0.253569,-2.590355 0.01057,-0.51289 -0.04887,-2.076825 -0.132115,-3.475411 -0.127078,-2.135399 -0.09564,-2.68869 0.196175,-3.452802 0.529593,-1.386712 1.477743,-1.538109 1.322836,-0.211226 -0.04409,0.377456 -0.0063,0.640698 0.0838,0.584979 0.09016,-0.05572 0.175818,0.06739 0.190362,0.27357 0.06242,0.884391 0.130126,1.265014 0.263501,1.480821 0.07809,0.126374 0.337022,0.955017 0.575373,1.841428 0.465111,1.729723 0.563656,4.764968 0.195008,6.006333 -0.108548,0.365511 -0.165527,0.831775 -0.126625,1.036141 0.03893,0.204367 0.07785,0.528526 0.08659,0.720353 0.0087,0.191827 0.433319,0.690856 0.943552,1.108955 0.856198,0.701587 1.036379,0.76195 2.337669,0.783144 1.701863,0.02772 2.744696,-0.341345 2.743231,-0.970838 -0.0023,-1.169019 0.746884,-2.51344 2.223421,-3.987741 1.927353,-1.924448 2.557329,-2.155109 3.953559,-1.447587 1.595109,0.808303 1.691551,1.601238 0.445572,3.663403 -0.60829,1.006759 -1.175068,1.624039 -2.063158,2.246998 -1.231398,0.863776 -1.471543,1.46693 -0.584055,1.46693 0.223893,0 0.546963,0.139876 0.717927,0.310846 0.527591,0.527589 1.664235,0.368931 3.096957,-0.432293 0.730866,-0.408727 1.328848,-0.815971 1.328848,-0.904992 0,-0.08902 0.37413,-0.409444 0.831403,-0.712052 0.45727,-0.302607 1.064393,-0.811688 1.34916,-1.13129 0.579786,-0.650712 1.964005,-2.882615 1.964005,-3.166748 0,-0.101159 0.490957,-0.719317 1.091016,-1.373686 0.600059,-0.654369 1.305645,-1.492612 1.567971,-1.86276 0.827332,-1.167386 2.018386,-1.069165 2.710197,0.223498 0.372518,0.696057 0.02287,1.174798 -0.858002,1.174798 -0.749949,0 -2.074858,1.326389 -3.181271,3.184819 -0.574951,0.965743 -0.707391,1.382553 -0.643214,2.024315 0.04445,0.44449 0.117944,0.82975 0.163323,0.856135 1.229271,0.714691 1.635981,0.835209 2.960481,0.877255 1.720779,0.05463 3.156729,-0.261644 4.670362,-1.028658 0.854795,-0.43316 1.146732,-0.497759 1.378856,-0.305111 0.16196,0.134412 0.294472,0.352066 0.294472,0.483673 0,0.406044 -1.199699,1.577923 -1.926092,1.88143 -1.87498,0.783414 -5.524989,1.081924 -6.54624,0.535366 -0.226183,-0.121047 -0.58263,-0.220086 -0.792105,-0.220086 -0.209477,0 -0.729092,-0.287036 -1.154702,-0.637867 -0.968608,-0.798404 -1.738097,-0.692838 -2.700501,0.370489 -1.824405,2.015717 -4.122395,2.769446 -5.90558,1.937003 z m -0.872983,-5.214607 c 0.88669,-0.609344 2.076562,-2.02317 2.076562,-2.46741 0,-0.112454 -0.192565,-0.204461 -0.427921,-0.204461 -0.410291,0 -2.780378,2.24871 -2.580624,2.448463 0.05099,0.05103 -4.15e-4,0.267016 -0.114461,0.47998 -0.29309,0.547649 -0.02992,0.483126 1.046444,-0.256572 z m 21.686644,2.181158 c -0.97513,-0.924831 -2.162482,-2.940199 -2.426031,-4.117852 -0.546096,-2.440221 0.09424,-4.506108 1.748166,-5.639996 0.867151,-0.594497 1.180311,-0.690348 2.25547,-0.690348 1.420722,0 2.844054,0.362965 2.998162,0.764563 0.05732,0.149368 0.26245,0.271579 0.455848,0.271579 0.447827,0 1.584174,1.170014 1.868265,1.923618 0.119559,0.317149 0.224688,1.20305 0.233624,1.96867 0.0089,0.76562 0.02045,1.593849 0.02559,1.840509 0.0149,0.715589 -1.048652,1.860631 -2.79754,3.011859 -1.31067,0.862767 -1.826503,1.082822 -2.693969,1.149247 -0.94337,0.07221 -1.144694,0.0141 -1.667585,-0.481849 z m 3.482823,-2.240882 c 0.520336,-0.426377 1.046041,-0.962038 1.168234,-1.190357 0.390286,-0.729258 0.837864,-2.747091 0.716547,-3.230449 -0.153282,-0.610725 -1.446151,-1.779358 -2.033301,-1.837917 -2.544873,-0.253807 -3.257036,-0.02213 -3.878553,1.261751 -0.382119,0.789355 -0.500851,1.795538 -0.411206,3.484751 0.01094,0.206043 0.200998,0.555741 0.422363,0.777107 0.221363,0.221363 0.402479,0.62784 0.402479,0.903281 0,0.636204 0.263454,0.746963 1.59272,0.669603 0.884517,-0.05147 1.242036,-0.199702 2.020717,-0.83777 z M 221.61311,31.524442 c 0.67174,-0.126013 0.71598,-0.180359 0.59511,-0.730714 -0.18968,-0.863595 0.30274,-1.659468 2.25918,-3.651449 1.59387,-1.622836 1.76584,-1.739628 2.56151,-1.739628 1.44853,0 1.37518,0.372569 -0.46906,2.383126 -0.52276,0.569878 -1.31037,1.779806 -1.7503,2.688726 -0.71923,1.486012 -0.76533,1.674742 -0.45756,1.872396 -2.66762,1.74827 -6.69537,-0.105169 -2.73888,-0.822457 z M 70.875251,33.736677 c -0.368358,-0.3441 -0.676039,-0.751417 -0.683731,-0.905144 -0.0077,-0.153729 -0.05559,-0.601305 -0.106425,-0.99461 -0.217407,-1.681832 0.903289,-4.541658 2.283989,-5.828368 1.715057,-1.598306 2.103973,-1.858982 2.69033,-1.803244 0.725813,0.069 0.934716,0.48632 0.338209,0.675643 -0.234226,0.07434 -0.425865,0.229496 -0.425865,0.344789 0,0.115294 -0.448612,0.738467 -0.996916,1.384828 -0.548303,0.64636 -1.30778,1.803679 -1.687727,2.57182 -0.615274,1.243897 -0.670523,1.493164 -0.505256,2.279513 0.195723,0.93127 0.602363,1.160757 1.60908,0.908087 0.721,-0.18096 1.789743,-1.319352 2.705255,-2.881554 0.30287,-0.516811 0.677001,-0.988131 0.8314,-1.04738 0.22745,-0.08728 0.267628,-0.985569 0.211703,-4.733302 -0.06474,-4.338827 -0.03803,-4.746271 0.431049,-6.572532 0.537915,-2.094295 0.921046,-2.715682 1.67442,-2.715682 0.593208,0 0.863956,0.490079 0.830087,1.502543 -0.0143,0.427485 0.06725,0.808396 0.181229,0.846467 0.113976,0.03807 0.217197,0.387708 0.229379,0.77697 0.01219,0.38926 0.140658,1.453768 0.2855,2.365572 0.144841,0.911805 0.249257,1.797707 0.232034,1.96867 -0.01722,0.170963 -0.05378,0.543974 -0.08123,0.828913 -0.02745,0.284939 -0.351654,1.421925 -0.72045,2.526637 -0.368794,1.10471 -0.670537,2.218729 -0.670537,2.475602 0,0.346506 0.929307,2.043526 1.119058,2.043526 0.01461,0 0.49919,0.172756 1.076862,0.383904 0.915602,0.334663 1.205794,0.352855 2.262568,0.141839 1.396031,-0.278757 1.768932,-0.664105 1.36786,-1.413513 -0.326384,-0.609856 -0.167078,-2.491764 0.288187,-3.404362 0.351591,-0.704784 1.921688,-2.182043 3.134946,-2.949583 0.670272,-0.424034 1.045751,-0.503569 2.299249,-0.487045 1.356496,0.01788 1.576933,0.08214 2.331319,0.679628 0.971756,0.769644 1.02295,1.114692 0.309663,2.087198 -0.677002,0.923041 -4.453555,4.754706 -4.686316,4.754706 -0.09797,0 -0.178119,0.122342 -0.178119,0.271871 0,0.381997 0.91441,0.998344 2.466838,1.662741 1.556462,0.666123 2.656954,0.61409 4.138764,-0.195684 1.147091,-0.62686 1.46762,-0.633887 1.335993,-0.02929 -0.340817,1.565457 -1.485285,2.404326 -3.511518,2.573859 -1.215884,0.101731 -1.659514,0.03605 -3.019795,-0.447087 -0.87699,-0.311485 -1.75403,-0.742586 -1.948979,-0.958 -0.194949,-0.215416 -0.449223,-0.391666 -0.565053,-0.391666 -0.11583,0 -0.373647,-0.147555 -0.572926,-0.327902 -0.331589,-0.300082 -0.445084,-0.291292 -1.337838,0.103615 -0.682372,0.301847 -1.407056,0.431516 -2.411616,0.431516 -2.152287,0 -3.049902,-0.29813 -4.097127,-1.360797 -0.497953,-0.505293 -1.01442,-0.918715 -1.147707,-0.918715 -0.133288,0 -0.537062,0.442951 -0.897279,0.984334 -1.455052,2.186852 -2.768144,3.146575 -4.522842,3.305685 -1.14261,0.103607 -1.26245,0.07095 -1.889724,-0.515012 z m 18.024946,-6.417169 c 3.444402,-3.172302 3.860756,-4.042187 1.659189,-3.466517 -1.358512,0.355225 -1.984179,0.838185 -2.872911,2.217639 -0.694491,1.077958 -0.806845,1.494622 -0.569685,2.112649 0.195766,0.510161 0.397955,0.412235 1.783407,-0.863771 z M 79.38409,22.242413 c 0.190863,-1.562324 0.169554,-2.642163 -0.05214,-2.642163 -0.122601,0 -0.215624,0.480526 -0.215624,1.113853 0,0.612619 -0.05828,1.405267 -0.129517,1.761442 -0.07676,0.38383 -0.04415,0.647588 0.08008,0.647588 0.115281,0 0.25802,-0.396324 0.317197,-0.88072 z m 45.43406,5.377365 c -0.17184,-0.26226 -0.40233,-1.171475 -0.51219,-2.020477 -0.10986,-0.849002 -0.27707,-1.916651 -0.37157,-2.372553 -0.20507,-0.989232 -0.43025,-1.000528 -2.37219,-0.119016 -1.2826,0.582221 -1.83452,0.611889 -2.2423,0.120541 -0.27063,-0.326089 1.34375,-1.748846 2.59665,-2.288438 0.45174,-0.194552 0.96123,-0.423896 1.13219,-0.509652 0.30585,-0.153412 0.34472,-0.750904 0.14163,-2.176917 -0.62298,-4.374288 -1.17013,-9.228227 -1.12761,-10.003392 0.0371,-0.67618 0.14862,-0.990067 0.3643,-1.025302 0.51042,-0.08338 0.98247,0.425291 1.10556,1.191313 0.22815,1.419963 0.73451,4.041027 0.83956,4.345829 0.0589,0.170964 0.15369,1.103491 0.2106,2.072284 0.0569,0.968793 0.20131,2.08721 0.32086,2.485372 0.11956,0.398163 0.21739,1.016201 0.21739,1.373417 0,1.094029 0.33313,1.203987 2.80495,0.925847 1.19725,-0.134722 2.28939,-0.175373 2.42698,-0.09034 0.24019,0.14845 2.52697,0.66264 3.35088,0.753462 0.60996,0.06723 0.63243,0.535169 0.0366,0.761711 -0.29279,0.111316 -1.90898,0.244434 -3.59153,0.295815 -1.68256,0.05138 -3.3699,0.20579 -3.74964,0.343132 -0.6846,0.247594 -0.68946,0.258712 -0.57416,1.311478 0.064,0.583974 0.21162,1.574659 0.32814,2.201524 0.40906,2.200798 -0.45431,3.768589 -1.33509,2.424361 z m 30.01052,-2.629844 c -0.77363,-0.312196 -1.11013,-1.033786 -1.11013,-2.380543 0,-0.687739 0.0803,-1.530438 0.17846,-1.872665 0.22595,-0.787855 -0.032,-1.498547 -0.63916,-1.76068 -0.2595,-0.112045 -0.6117,-0.297251 -0.78267,-0.411567 -0.17096,-0.114314 -0.5535,-0.293493 -0.85007,-0.398172 -0.29658,-0.104679 -0.83279,-0.633501 -1.19157,-1.175159 -0.71335,-1.07696 -0.85355,-2.092938 -0.31724,-2.298745 0.54923,-0.210758 1.41962,0.206542 1.49257,0.715601 0.0387,0.270176 0.42597,0.698718 0.93253,1.03197 1.09253,0.718745 2.40073,1.38818 2.49492,1.276713 0.0395,-0.04681 0.42895,-0.737876 0.86532,-1.535705 1.82281,-3.332648 3.91758,-5.83272 5.11134,-6.100287 0.4217,-0.09452 0.81803,-0.120557 0.88071,-0.05786 0.0627,0.06269 0.114,0.562824 0.114,1.111399 0,1.06648 -0.46583,2.504809 -1.03047,3.181695 -0.19015,0.227952 -0.74623,1.090627 -1.23573,1.917058 -0.54298,0.916702 -1.36512,1.914193 -2.10847,2.558172 -1.1886,1.029701 -2.04941,2.43083 -2.04941,3.335801 0,0.220955 -0.0958,0.580787 -0.21294,0.799626 -0.16089,0.300616 -0.1124,0.594978 0.19835,1.204086 0.52973,1.038365 0.31656,1.285778 -0.74034,0.859265 z m -16.20309,-0.464312 c -0.37983,-0.09891 -1.12084,-0.482478 -1.64669,-0.852379 -0.78807,-0.554352 -1.00469,-0.852982 -1.23263,-1.699276 -0.36207,-1.344265 -0.23289,-2.295293 0.52641,-3.875562 0.71752,-1.493309 2.03715,-2.934187 3.09028,-3.374211 0.40102,-0.167559 1.33901,-0.304653 2.08441,-0.304653 1.07773,0 1.53937,0.107885 2.25421,0.526806 0.96554,0.565847 1.02275,0.713972 0.66836,1.730583 -0.2694,0.772792 -1.72678,1.584808 -3.914,2.180776 -0.74084,0.201863 -1.50891,0.451515 -1.70682,0.554783 -0.19792,0.103269 -0.46739,0.187761 -0.59885,0.187761 -0.37574,0 -0.78894,0.670486 -0.79617,1.291908 -0.004,0.340142 0.23508,0.837105 0.59804,1.24337 0.58205,0.651494 0.66524,0.677372 2.22771,0.693053 0.89269,0.009 2.62433,-0.04255 3.84808,-0.114459 1.80906,-0.106306 2.33613,-0.2129 2.8194,-0.570197 0.93988,-0.694882 1.37967,-0.687899 1.37967,0.02191 0,0.500164 -0.16809,0.69188 -1.03706,1.182814 -0.57038,0.322244 -1.60926,0.73249 -2.30861,0.911658 -1.45431,0.372578 -5.22905,0.53267 -6.25574,0.265317 z m 2.50384,-7.721243 c 0.38201,-0.157657 0.50701,-0.727011 0.15961,-0.727011 -0.48588,0 -1.86925,0.690634 -1.86925,0.933206 0,0.264989 0.80246,0.168209 1.70964,-0.206195 z m 96.82747,5.075384 c -0.2293,-0.722446 0.0679,-1.126475 1.18912,-1.616464 0.59971,-0.262093 1.39664,-0.611749 1.77091,-0.777018 0.37429,-0.165268 0.91663,-0.300487 1.20519,-0.300487 0.28858,0 0.68172,-0.08313 0.87369,-0.184732 0.19197,-0.101604 1.01143,-0.232212 1.82105,-0.290242 l 1.47201,-0.105506 -0.13302,0.650449 c -0.11228,0.548929 -0.34203,0.752595 -1.47203,1.304911 -0.76288,0.37288 -1.87394,0.719034 -2.58236,0.804545 -0.68385,0.08254 -1.68977,0.325338 -2.23537,0.539542 -1.26865,0.498069 -1.74515,0.49183 -1.90919,-0.025 z m -68.02273,-0.835371 c -0.50903,-0.204605 -0.50887,-0.20408 -0.57356,-1.858598 -0.0491,-1.255253 -0.35797,-2.995515 -0.74482,-4.196375 -0.24472,-0.759571 -0.27417,-0.777509 -1.30515,-0.794959 -2.27632,-0.03853 -2.49596,-0.07625 -2.56716,-0.441007 -0.0483,-0.247534 0.10761,-0.393465 0.5143,-0.481292 0.32099,-0.06932 0.91002,-0.254769 1.30893,-0.412095 0.39892,-0.157327 0.91181,-0.317579 1.13976,-0.356115 0.47014,-0.07948 0.4708,-0.09634 0.11051,-2.747049 -0.32354,-2.380376 -0.78375,-4.701593 -1.18269,-5.965319 -0.32736,-1.037016 -0.16315,-1.598516 0.46749,-1.598516 0.46647,0 1.22751,0.990622 1.47362,1.918183 0.71896,2.709581 1.364,6.400704 1.33969,7.66613 -0.004,0.199457 0.1038,0.366986 0.23918,0.372285 5.34699,0.20933 5.99365,0.334529 6.11479,1.183869 0.0735,0.515282 0.0948,0.508451 -1.82767,0.584187 -2.4632,0.09703 -3.001,0.147024 -3.48027,0.323494 -0.42501,0.156488 -0.46558,0.2797 -0.38215,1.161032 0.0513,0.542279 0.22873,1.545481 0.39427,2.229334 0.38739,1.600496 0.4433,2.965245 0.13664,3.334755 -0.27435,0.330566 -0.50876,0.346131 -1.17571,0.07806 z M 255.877,14.924121 c -0.28224,-0.742387 -0.3029,-0.695373 0.84058,-1.912732 1.39167,-1.481534 3.02533,-4.692237 2.78033,-5.464198 -0.18174,-0.572621 0.25843,-0.626607 0.82532,-0.101222 0.55256,0.512096 0.70155,1.249403 0.30233,1.496135 -0.13458,0.08317 -0.18309,0.43175 -0.11685,0.839784 0.18252,1.124865 -1.00505,3.248514 -2.56445,4.585846 -0.69776,0.598372 -1.40286,1.087949 -1.56688,1.087949 -0.16405,0 -0.38921,-0.239202 -0.50038,-0.531562 z M 4.1397366,11.77738 c -0.14771,-0.427409 -0.36647,-1.150118 -0.48614,-1.606021 -0.11967,-0.455902 -0.33853,-1.108671 -0.48634,-1.450598 -0.14782,-0.341927 -0.37829,-1.181201 -0.51217,-1.865055 -0.13388,-0.683854 -0.32501,-1.569755 -0.42474,-1.96867 -0.0997,-0.398915 -0.33115,-1.471322 -0.51426,-2.383126 -0.18311,-0.9118056 -0.42112,-1.9442071 -0.5289,-2.2942258 -0.10777,-0.3500195 -0.19596,-0.7689049 -0.19596,-0.9308556 0,-0.161953 -0.37768,-1.440227 -0.83929,-2.8406084 l -0.83929,-2.5461468 0.42484,-0.5400887 c 0.23366,-0.2970492 0.42483,-0.7140181 0.42483,-0.9265988 0,-0.4874348 0.33891,-0.5010747 0.59284,-0.023857 0.10613,0.199457 0.43812,1.1086712 0.73775,2.0204764 0.29963,0.9118052 0.62869,1.8443329 0.73124,2.0722836 0.10256,0.2279515 0.23263,0.6475891 0.28904,0.932528 0.0564,0.284939 0.24593,1.1242144 0.42112,1.8650556 0.17519,0.7408419 0.51495,2.3261387 0.755,3.5228825 0.24006,1.196744 0.52849,2.595536 0.64097,3.108426 0.11248,0.51289 0.23972,1.460282 0.28276,2.105314 0.043,0.645032 0.22338,1.453446 0.40076,1.796475 0.18166,0.351289 0.31217,1.083556 0.2988,1.676604 -0.0209,0.927913 -0.076,1.052915 -0.46401,1.052915 -0.32288,0 -0.5119,-0.207222 -0.70885,-0.777106 z M 17.673112,6.915004 C 16.665532,6.62051 13.030947,6.115857 11.352647,6.037422 9.4418166,5.948122 7.2138166,5.59687 6.5025166,5.272781 c -0.7166,-0.326509 -1.22881,-1.157151 -1.1992,-1.944755 0.0134,-0.355828 0.29655,-1.19971 0.62927,-1.875295 0.8797,-1.7861862 1.39548,-2.9821863 1.69155,-3.9223027 0.14358,-0.4559022 0.40156,-1.1060595 0.57329,-1.4447943 0.28585,-0.5638228 0.69835,-2.0772367 0.96109,-3.5261199 0.36441,-2.0096154 -1.13115,-4.0735981 -3.13882,-4.3318051 -0.31518,-0.04053 -0.91343,-0.140762 -1.32945,-0.222727 -1.08576,-0.213922 -3.51655,0.21747 -4.78586,0.849345 -1.4863,0.7399 -2.73858,2.3438042 -2.72908,3.4953915 0.004,0.4559022 0.0826,1.1305491 0.1752,1.4992141 0.13605,0.5416333 0.10006,0.6965114 -0.18746,0.8068483 -0.25149,0.096504 -0.59313,-0.1153746 -1.16502,-0.7225286 -1.12289,-1.1921106 -1.12577,-2.1734591 -0.0114,-3.8827249 0.68697,-1.0537124 1.81559,-2.1562194 2.20728,-2.1562194 0.0663,0 0.32212,-0.187681 0.56834,-0.417068 0.24621,-0.229387 0.96502,-0.567406 1.59735,-0.751151 0.63233,-0.183745 1.35581,-0.429479 1.60772,-0.546074 0.25193,-0.116595 1.23108,-0.215753 2.1759,-0.220352 1.59039,-0.0078 1.84034,0.05219 3.36852,0.80772 2.08265,1.029662 2.31303,1.219883 2.9258204,2.415726 0.44178,0.8621238 0.4922,1.1934862 0.42569,2.7975835 -0.071,1.7137395 -0.4134,3.0346852 -1.3846204,5.3425076 -0.1439,0.3419265 -0.29273,0.7804035 -0.33075,0.9743935 -0.10705,0.5462645 -1.71903,3.8626324 -1.94553,4.0026224 -0.33934,0.209717 -0.22506,1.082829 0.16114,1.231248 0.76575,0.294279 3.7748804,0.709065 5.9643104,0.822135 2.20189,0.113713 4.486906,0.54946 4.965895,0.946988 0.126436,0.104935 0.438583,0.136214 0.693648,0.06951 0.435724,-0.113943 0.442977,-0.144252 0.11992,-0.501224 -0.385574,-0.426053 -0.359454,-0.698913 0.305747,-3.1938787 0.536439,-2.0120504 0.850215,-2.7113446 1.999129,-4.4554098 1.119307,-1.699124 1.898013,-2.2787625 3.320719,-2.4718291 0.990529,-0.1344187 1.222599,-0.088528 2.077615,0.4108323 1.129152,0.659457 1.320917,0.9132416 1.32246,1.7501539 0.0024,1.4267675 -1.367151,3.4077342 -2.911147,4.2100421 -0.390579,0.2029587 -0.896652,0.4707357 -1.124602,0.5950602 -0.227958,0.1243245 -0.764162,0.3762621 -1.191568,0.5598601 -1.984521,0.852482 -2.227704,1.016381 -2.227704,1.50143 0,0.855781 0.770936,1.13893 3.101008,1.13893 1.153002,0 2.837955,-0.06469 3.74435,-0.143755 1.208204,-0.105394 1.732738,-0.07342 1.965567,0.119812 0.283747,0.23549 0.278836,0.306376 -0.04605,0.66542 -0.700979,0.774574 -1.702811,1.004755 -4.823941,1.108342 -2.238724,0.0743 -3.257418,0.02485 -3.981878,-0.193279 -0.891702,-0.26849 -1.001683,-0.262006 -1.308598,0.07713 -0.441198,0.487517 -0.897443,0.588748 -1.655229,0.367264 z m 6.456198,-7.0485754 c 1.155531,-0.7446891 2.141651,-1.8253233 2.142826,-2.3481999 0.0031,-1.5024372 -1.671669,-1.3612381 -3.022193,0.2547605 -0.445819,0.5334494 -0.814483,1.0234885 -0.819261,1.0889724 -0.0047,0.065486 -0.163217,0.4083126 -0.352083,0.7618363 -0.188875,0.3535252 -0.329292,0.8300968 -0.312045,1.0590484 0.03023,0.4017727 0.05694,0.4044686 0.766542,0.077383 C 22.937444,0.5738357 23.65574,0.171626 24.12931,-0.133568 Z M 40.591651,1.9060885 C 40.460656,1.7482514 40.295873,1.0022292 40.225469,0.248262 40.061423,-1.5084586 39.794311,-1.5355167 37.781743,7.1260419e-4 37.301524,0.3672746 36.382503,0.8807227 35.739475,1.1417083 L 34.570339,1.6162262 33.789181,1.2123419 c -0.579986,-0.2998657 -0.798937,-0.5549575 -0.850167,-0.990477 -0.09303,-0.7908979 0.517766,-2.6680942 1.01437,-3.1175128 0.220886,-0.1999029 0.401615,-0.4526302 0.401615,-0.5616183 0,-0.4628048 1.732401,-2.2137561 2.588411,-2.616128 1.039943,-0.4888329 2.533789,-0.5735168 3.079384,-0.1745668 0.197498,0.1444111 0.474196,0.4941095 0.614895,0.7771068 0.140692,0.2829966 0.533132,0.6088364 0.872088,0.7240849 1.488464,0.5060967 1.484233,0.4968899 1.062358,2.3127638 -0.20729,0.8922426 -0.42466,2.1817778 -0.483043,2.8656307 -0.05838,0.6838537 -0.201936,1.359937 -0.319001,1.5024065 -0.282254,0.3434973 -0.881972,0.3292773 -1.17844,-0.027945 z m -3.542686,-3.4471967 c 0.05702,-0.05922 0.779701,-0.6177807 1.60602,-1.2412376 0.826326,-0.6234594 1.502406,-1.201179 1.502406,-1.2838234 0,-0.339594 -0.942737,-0.6188279 -1.739504,-0.5152299 -0.705193,0.09169 -1.033772,0.3106186 -1.919396,1.2788457 -1.125792,1.2308061 -1.527243,2.1276885 -1.076935,2.4059944 0.221598,0.1369532 1.278013,-0.2814497 1.627409,-0.6445492 z m 9.872782,2.7192944 c -0.626103,-0.4127817 -1.544705,-1.8421171 -1.57768,-2.4548516 -0.01078,-0.2001955 -0.07112,-0.8887533 -0.134096,-1.5301295 -0.0942,-0.9593143 -0.02352,-1.3650525 0.39851,-2.2877077 0.512215,-1.1198189 2.066769,-2.6593933 2.685267,-2.6593933 0.162548,0 0.56649,-0.2330182 0.897652,-0.5178178 0.557031,-0.4790504 0.768292,-0.5505792 1.804579,-0.6109964 0.493343,-0.02876 0.767311,-0.4894345 0.745961,-1.2543119 -0.0096,-0.341927 0.04164,-0.854817 0.11373,-1.139757 0.0721,-0.284939 0.173631,-1.109517 0.225629,-1.832394 0.052,-0.722877 0.14496,-1.395901 0.206583,-1.495608 0.06162,-0.09971 -0.08425,-1.979461 -0.324169,-4.17723 -0.573131,-5.250218 -0.414763,-7.27193 0.61271,-7.821818 0.698952,-0.374069 1.195096,0.33412 1.368506,1.953384 0.08107,0.75707 0.09332,1.709825 0.0272,2.117234 -0.265787,1.637846 0.527423,7.610692 1.357282,10.22029 1.136306,3.5732607 3.245414,6.4158763 5.355594,7.2181654 0.902773,0.3432345 2.12706,-0.035942 3.50871,-1.0866978 1.629352,-1.2391339 2.253662,-1.5386127 2.471774,-1.1857023 0.09891,0.1600341 -0.06699,0.5030031 -0.432643,0.8944348 -0.326183,0.3491823 -0.745066,0.8922011 -0.930853,1.2067139 -0.434477,0.7355089 -2.38289,2.0197448 -3.335426,2.1984424 -0.438153,0.082199 -0.891654,0.042372 -1.116513,-0.098057 -0.208265,-0.1300624 -0.543121,-0.2373533 -0.744124,-0.2384224 -0.688422,-0.00368 -2.4577,-1.201933 -3.38033,-2.2893781 -0.50736,-0.597991 -1.06235,-1.2384258 -1.233314,-1.4231887 -0.392607,-0.4242959 -1.450599,-2.5235483 -1.450599,-2.8782554 0,-0.4156198 -0.608397,-1.4891408 -0.843941,-1.4891408 -0.119256,0 -0.204296,0.474829 -0.194847,1.087949 0.04413,2.8634136 -0.843274,7.4489072 -1.849588,9.5574479 -1.054044,2.2085531 -2.729504,3.0070891 -4.231568,2.016796 z m 2.195152,-1.8345096 c 0.683945,-0.7747337 1.967496,-4.5844912 2.07638,-6.1629849 0.05787,-0.8390036 -0.437502,-0.9056153 -1.612773,-0.2168602 -0.509714,0.2987135 -0.928127,0.4692436 -0.929807,0.3789565 -0.0016,-0.090286 -0.118246,0.033326 -0.259035,0.2746976 -0.14079,0.2413697 -0.426075,0.6784846 -0.633966,0.9713663 -0.207892,0.2928801 -0.508194,1.026106 -0.667336,1.6293869 -0.248591,0.942359 -0.247865,1.2365737 0.0052,2.0885562 0.161974,0.5454248 0.351212,1.0834459 0.420531,1.1956061 0.207074,0.3350552 1.256829,0.2309724 1.600859,-0.1587245 z m 145.011181,-0.074592 c -0.39892,-0.1031728 -1.28482,-0.2568204 -1.96867,-0.3414378 -1.07583,-0.1331193 -1.2523,-0.2166738 -1.3096,-0.6201125 -0.0364,-0.2564444 0.0226,-0.4662635 0.13126,-0.4662635 0.10861,0 0.24625,-0.1865055 0.30584,-0.414457 0.13394,-0.5121239 0.66448,-0.5296282 2.56926,-0.084773 1.72244,0.4022677 2.71975,0.2897308 4.90683,-0.5536912 1.69407,-0.6533025 2.46817,-0.6727922 2.70024,-0.067984 0.20675,0.5387653 -0.33562,1.4246771 -0.91303,1.4913319 -0.28386,0.03277 -0.8425,0.1936963 -1.24142,0.3576161 -0.90399,0.371465 -3.39492,0.9369772 -4.00202,0.9085744 -0.24936,-0.01167 -0.77978,-0.1056266 -1.17869,-0.2088017 z m 66.71756,-2.3866284 c -0.11383,-0.2993957 -0.26473,-1.2552362 -0.33534,-2.1240916 -0.15254,-1.8772527 -1.16585,-4.1345005 -2.50407,-5.5780886 -0.14247,-0.153687 -0.25903,-0.305127 -0.25903,-0.336535 0,-0.210393 0.82692,-0.949025 1.06045,-0.947226 0.57649,0.0045 2.52423,2.4827369 3.17463,4.0393762 0.4378,1.0477676 0.3055,4.5243807 -0.19311,5.0753471 -0.49869,0.5510429 -0.69528,0.5242112 -0.94353,-0.1287821 z m -52.90233,-2.7022208 c -0.076,-0.075981 -0.13816,-0.3541706 -0.13816,-0.6181936 0,-0.371772 0.24539,-0.6029065 1.08796,-1.0247901 0.59837,-0.2996127 1.27445,-0.7573391 1.5024,-1.0171725 0.22795,-0.259835 1.11385,-1.1029999 1.96867,-1.8737012 0.85481,-0.770703 1.7046,-1.643398 1.88839,-1.939324 0.18381,-0.295924 0.67682,-0.717777 1.09562,-0.937449 0.69651,-0.365359 0.78953,-0.37127 1.09147,-0.06935 0.59348,0.593475 0.1461,1.378018 -1.94239,3.4062936 -2.5256,2.4527596 -3.84235,3.4482454 -5.123,3.8730653 -1.15033,0.3815803 -1.23773,0.3938378 -1.43096,0.2006161 z m -35.88402,-2.9329967 c -1.17067,-0.2469792 -3.00311,-2.0703887 -3.00508,-2.9902817 -0.002,-0.516809 0.13051,-0.464732 1.19625,0.473374 0.89647,0.789099 1.00294,0.828382 1.89686,0.699856 1.92325,-0.276521 3.79661,-1.470005 4.51835,-2.878557 0.17643,-0.344296 0.54078,-0.889592 0.80968,-1.211771 0.2689,-0.322175 0.48891,-0.744379 0.48891,-0.938224 0,-0.193846 0.12289,-0.53639 0.27307,-0.761206 1.24117,-1.857864 1.98552,-6.69252 1.38698,-9.008738 -0.13252,-0.512891 -0.32954,-1.492044 -0.43779,-2.175898 -0.10826,-0.683854 -0.28768,-1.405296 -0.39871,-1.603208 -0.11101,-0.197911 -0.20186,-0.602006 -0.20186,-0.897989 0,-0.338099 -0.0963,-0.506278 -0.25904,-0.45241 -0.24442,0.08091 -1.31355,1.365815 -2.58985,3.112547 -1.39865,1.914187 -3.3873,2.164921 -5.40278,0.681195 -1.32207,-0.97325 -1.98473,-2.057567 -2.24246,-3.669409 -0.11354,-0.70994 -0.21272,-0.818464 -0.92291,-1.009696 -0.43765,-0.117845 -0.86874,-0.328065 -0.958,-0.467159 -0.0892,-0.139092 -0.4554,-0.415484 -0.81366,-0.614207 -0.58817,-0.326243 -0.72204,-0.331793 -1.37929,-0.05718 -0.66267,0.27689 -2.01028,1.631627 -2.01028,2.020937 0,0.08856 -0.21954,0.616098 -0.48786,1.172297 -0.34621,0.717677 -0.43142,1.112093 -0.2935,1.358556 0.10689,0.191006 0.13806,0.493967 0.0693,0.673241 -0.0688,0.179276 0.0633,0.645206 0.2935,1.035401 0.5045,0.855065 0.54402,2.199992 0.0961,3.271935 -0.26703,0.63908 -0.40061,0.750782 -0.77711,0.64982 -0.25006,-0.06705 -0.55256,-0.123191 -0.67223,-0.124747 -0.28824,-0.0038 -0.71535,-2.122131 -0.71338,-3.538187 0.005,-3.538691 0.68914,-5.861007 2.10401,-7.141477 2.07119,-1.874439 3.27017,-2.135155 4.65703,-1.012671 0.4353,0.352319 0.84437,0.864718 0.90905,1.138666 0.15065,0.638178 0.74554,0.765303 0.92566,0.197808 l 0.13636,-0.429643 0.57989,0.412923 c 0.56478,0.402152 1.10297,1.814946 1.39925,3.673053 0.0759,0.476124 0.32897,0.807975 0.90861,1.191563 0.97188,0.643152 1.59245,0.668705 2.548,0.104916 0.6961,-0.410706 3.18644,-3.454505 4.28685,-5.239546 0.5264,-0.853918 1.23042,-2.743244 1.23042,-3.302016 0,-0.159748 0.24521,-0.402181 0.54494,-0.538743 0.45821,-0.208772 0.61487,-0.18968 0.98434,0.119951 0.24165,0.202532 0.47016,0.384458 0.50775,0.404278 0.0376,0.01981 -0.0749,0.254644 -0.24994,0.521834 -0.17506,0.267188 -0.32093,0.671604 -0.32417,0.898699 -0.003,0.227098 -0.0553,1.158925 -0.11567,2.07073 -0.0674,1.017305 0.0223,2.61861 0.2322,4.144567 0.18812,1.367708 0.359,2.62662 0.37975,2.797584 0.0207,0.170963 0.15598,0.590601 0.30054,0.932527 0.26274,0.621503 0.24304,1.175653 -0.16583,4.662639 -0.26664,2.274052 -0.54351,3.163549 -1.77942,5.71678 -1.30685,2.699743 -2.70587,4.367859 -4.31605,5.1462068 -1.20669,0.5832961 -2.52624,0.909992 -3.14679,0.7790798 z M 96.514417,-11.404311 c -0.113335,-0.298094 -0.148235,-0.97794 -0.07756,-1.510767 0.08666,-0.653236 0.02697,-1.211789 -0.183229,-1.714882 -0.171459,-0.410356 -0.344072,-1.152617 -0.383584,-1.649465 -0.06236,-0.784167 -0.01511,-0.911472 0.358095,-0.964822 0.332947,-0.0476 0.512884,-0.35146 0.797626,-1.346985 0.202228,-0.707039 0.48796,-1.565283 0.634962,-1.90721 0.146999,-0.341927 0.325873,-0.816753 0.397499,-1.055172 0.07163,-0.238418 0.360549,-0.649864 0.642054,-0.914327 0.788643,-0.740889 1.79803,-0.349461 3.05741,1.185623 0.54071,0.659083 1.07626,1.310964 1.19011,1.448621 0.11386,0.13766 0.20701,0.440731 0.20701,0.673493 0,0.755347 0.59392,0.472756 0.7438,-0.353903 0.3009,-1.65963 1.00029,-2.967622 2.63402,-4.926094 1.18686,-1.422777 2.70123,-1.390099 3.84219,0.08291 0.80347,1.037295 2.3536,3.935537 2.22029,4.151227 -0.0602,0.09734 0.0759,0.412471 0.30226,0.700289 0.22639,0.287819 0.41163,0.608604 0.41163,0.712857 0,0.274217 1.2346,2.512779 1.46404,2.654581 0.27878,0.172298 0.23848,0.783887 -0.0804,1.219974 -0.20876,0.28549 -0.42585,0.341655 -0.90977,0.23537 -0.50042,-0.10991 -0.77388,-0.390569 -1.28588,-1.319695 -0.35766,-0.649053 -0.83416,-1.505027 -1.0589,-1.902164 -0.22474,-0.397136 -0.4143,-0.8634 -0.42124,-1.036141 -0.0203,-0.5041 -1.92204,-3.987484 -2.30656,-4.224848 -0.4253,-0.262532 -0.94948,0.156617 -1.87633,1.500371 -0.88921,1.289172 -1.79315,3.884477 -2.32061,6.662707 -0.12865,0.677641 -0.85117,1.446475 -1.35933,1.446475 -0.479,0 -0.79233,-0.529387 -0.92454,-1.562065 -0.0537,-0.419498 -0.18171,-0.869105 -0.28445,-0.999123 -0.10273,-0.130017 -0.24589,-0.565228 -0.31812,-0.967137 -0.18249,-1.015462 -1.23424,-2.985963 -1.635216,-3.063678 -0.182498,-0.03537 -0.436707,0.131685 -0.564908,0.371235 -0.377982,0.706265 -0.822114,3.677427 -0.889333,5.949471 -0.05062,1.710999 -0.135776,2.192822 -0.448652,2.538547 -0.553954,0.612112 -1.319154,0.556087 -1.574403,-0.11527 z m 22.804213,-2.628309 c -0.59976,-0.279062 -0.8341,-0.530606 -1.6694,-1.791947 -0.5808,-0.87703 -0.61011,-1.028821 -0.61011,-3.159409 0,-3.216918 0.75877,-5.281822 2.63899,-7.181679 0.66931,-0.676294 1.09846,-0.928699 1.72099,-1.012197 0.78288,-0.105007 0.88612,-0.05201 1.84329,0.9463 1.29195,1.347486 1.42517,1.926679 0.77579,3.372965 -0.78851,1.756176 -1.36613,2.15547 -4.07786,2.818939 -0.9341,0.228539 -1.32749,1.212086 -1.00033,2.500983 0.31737,1.250345 0.99185,1.785268 2.22754,1.766628 1.64571,-0.02483 2.9928,-0.789428 4.98964,-2.832087 3.41944,-3.497909 4.31006,-4.685941 4.58827,-6.120415 0.0971,-0.500745 0.28156,-1.036948 0.40988,-1.191563 0.30845,-0.37166 0.89751,-0.357294 1.2187,0.02972 0.39345,0.474085 0.78579,0.373651 1.12838,-0.288852 0.70586,-1.364984 2.19313,-2.508731 3.26222,-2.508731 0.78861,0 0.98348,0.142309 2.10279,1.535612 0.58477,0.72791 0.8111,0.622995 1.47274,-0.682706 0.84975,-1.676896 2.75902,-3.135831 4.09463,-3.128838 0.71322,0.0038 1.61631,0.718558 1.61631,1.27936 0,0.160598 0.0762,0.380585 0.16941,0.488862 0.29679,0.344905 0.68566,2.277917 0.96717,4.807699 0.11472,1.030894 0.0962,1.087783 -0.35233,1.084776 -0.26037,-0.0016 -0.56881,-0.07169 -0.68542,-0.155421 -0.40368,-0.289882 -1.00022,-1.390061 -1.03553,-1.909786 -0.0195,-0.287086 -0.15154,-1.198058 -0.29341,-2.024381 -0.28747,-1.674467 -0.54674,-1.857295 -1.46903,-1.035889 -1.36875,1.219042 -3.72494,4.485682 -3.72494,5.164301 0,0.545946 -0.83045,1.235904 -1.40562,1.167825 -0.45573,-0.05394 -0.5794,-0.222755 -0.80574,-1.099862 -0.14706,-0.569878 -0.26918,-1.378214 -0.27138,-1.796299 -0.005,-0.881946 -0.17394,-1.415741 -0.44902,-1.415741 -0.26803,0 -1.42003,0.869657 -1.42003,1.072001 0,0.09083 -0.28253,0.624314 -0.62785,1.185524 -0.34532,0.561212 -0.94751,1.926555 -1.3382,3.034097 -0.3907,1.107545 -0.92413,2.327685 -1.18541,2.711426 -0.79648,1.169827 -1.6148,0.821234 -1.6148,-0.687886 0,-0.746462 -0.0658,-0.891082 -0.40562,-0.891082 -0.22612,0 -0.66171,0.340849 -0.98433,0.770245 -0.94585,1.258878 -3.83303,3.987243 -4.69872,4.440243 -1.81033,0.947309 -3.9772,1.260454 -5.10166,0.737262 z m 1.2202,-8.115473 c 0.47182,-0.16647 0.91414,-0.299686 0.98292,-0.296041 0.21486,0.01137 0.86589,-1.191868 0.93652,-1.730908 0.0842,-0.642421 -0.36146,-1.208836 -0.82347,-1.046621 -0.5485,0.192583 -1.68065,1.371745 -1.6879,1.757986 -0.004,0.19273 -0.0998,0.408053 -0.21381,0.478494 -0.19052,0.117748 -0.30679,1.139757 -0.12967,1.139757 0.0427,0 0.46359,-0.136202 0.93541,-0.302667 z m 100.40081,4.46048 c 0.0314,-0.62409 0.74982,-1.776256 1.40021,-2.245568 0.20096,-0.145008 0.48653,-0.381542 0.63459,-0.525631 0.14809,-0.14409 0.82875,-0.574656 1.5126,-0.956818 0.68386,-0.38216 1.81103,-1.098829 2.50486,-1.592598 0.76375,-0.543557 1.4996,-0.902515 1.86506,-0.90981 1.88084,-0.03754 2.78462,0.676313 1.81846,1.436306 -0.30003,0.235992 -0.77501,0.429077 -1.05552,0.429077 -0.99498,0 -5.85198,2.927086 -7.19211,4.334343 -0.33475,0.351526 -0.81341,0.639138 -1.0637,0.639138 -0.3722,0 -0.44948,-0.110769 -0.42445,-0.608439 z m 27.17144,-2.893749 c -0.34193,-0.177095 -0.95283,-0.533783 -1.35757,-0.792642 -1.13464,-0.725696 -4.25633,-1.922156 -5.0117,-1.920865 -0.37208,6.22e-4 -1.02941,0.09915 -1.46071,0.218933 -1.0155,0.282004 -1.51471,0.117872 -1.48812,-0.489287 0.0318,-0.726072 0.21017,-0.895885 1.32379,-1.260133 1.30046,-0.425359 2.71299,-0.428326 3.70097,-0.0078 0.42377,0.180376 1.32997,0.503747 2.01382,0.718606 1.81871,0.571409 3.44756,1.614247 3.93239,2.517609 0.45568,0.84904 0.42344,0.936323 -0.43317,1.172592 -0.41192,0.113617 -0.79148,0.06475 -1.2197,-0.157042 z m -96.98123,-1.010545 c -1.15875,-0.605895 -1.72267,-1.471405 -2.08266,-3.196465 -0.24226,-1.160912 -0.22908,-1.372156 0.14511,-2.327167 0.45474,-1.160572 1.15193,-1.990467 2.23559,-2.661114 0.55681,-0.344597 0.98989,-0.431083 1.9657,-0.392547 0.68835,0.02719 1.34147,0.139353 1.45138,0.24926 0.10991,0.10991 0.35143,0.199835 0.53672,0.199835 0.18529,0 0.5529,0.229928 0.8169,0.510951 0.51458,0.547742 1.29172,2.569657 1.10425,2.872979 -0.0623,0.100846 0.0792,0.122256 0.31447,0.04758 0.57358,-0.182048 0.94506,0.509775 0.75018,1.397069 -0.20791,0.946611 -1.85782,2.414897 -3.48111,3.097905 -1.51926,0.639237 -2.78935,0.707436 -3.75653,0.201712 z m 4.03929,-2.37553 c 1.41475,-0.74143 2.07229,-1.253694 2.07229,-1.614444 0,-0.0739 -0.23798,-0.242788 -0.52884,-0.375313 -0.29086,-0.132524 -0.66513,-0.567132 -0.8317,-0.965792 -0.16657,-0.39866 -0.4352,-0.724835 -0.59695,-0.724835 -0.16175,0 -0.35329,-0.186505 -0.42564,-0.414457 -0.10253,-0.323052 -0.31354,-0.414457 -0.95678,-0.414457 -0.45389,0 -1.08319,0.133391 -1.39846,0.296422 -1.25108,0.646961 -2.24769,3.005302 -1.70138,4.026093 0.33264,0.621545 1.66072,1.27112 2.29518,1.122587 0.28494,-0.06671 1.21747,-0.487819 2.07228,-0.935804 z"
       id="path826"
       inkscape:connector-curvature="0"
       sodipodi:nodetypes="ccsscccccccsccccccscccccccccccccccccsscccsccscccccccccsccsccccccccccssccccccccsccccccccccccscssscccsccccccscccccccccccccccccccccsccccccccccssccccccccccssccccscsccccccccccccccccccccsccscssccssssscssscccccsccsccccsscccccsscscccsccccscscccscccccscccccccsscssccccsscsccccscssscscccsscsssccsscsccscsssccssscscsscscccccssccsccscccsscccsccccccsccccccccccccsccsscccccccscsccscscccccssscccssccccscsccscccccccsccccccsccccsccccccccccccsccssscscssccscsccscscccscccccccccscsscccccssccccccccccsccccsscccccssccccccccccccccccccccsccccsccccsccccccsccccccsssccccccssscsssccccccscsscsccccccccccscccscscccccscccsccscccscscccccccccccccsccsccccsccccccccscccccccsccccccccccscccccccccscccccccccccscccssscccscscssccccscccccsccccsssccscccsccscssscscscccssscscssccsssccccccccssccccccccscscccccsscccccccscscsscccsscccscsscsccsc" />
    <path
       inkscape:connector-curvature="0"
       style="fill:#f7df1e;fill-opacity:1;stroke:none;stroke-width:0.05000001;stroke-linejoin:round;stroke-miterlimit:4;stroke-dasharray:none;stroke-opacity:1"
       d="m 266.09804,87.624565 c -0.0599,-0.01292 -0.13151,-0.01129 -0.22316,0.0043 -0.32605,0.05025 -1.1771,0.695148 -1.1944,0.905309 -0.005,0.06626 -0.0985,0.202546 -0.20711,0.302652 -0.10861,0.100107 -0.40761,0.394833 -0.66438,0.65507 -0.40943,0.415045 -0.52709,0.461441 -0.95942,0.375316 -0.67276,-0.133951 -1.29045,-0.470184 -1.27216,-0.692292 0.008,-0.100925 -0.044,-0.196616 -0.11663,-0.213019 -0.0726,-0.01644 -0.0995,0.04155 -0.0592,0.128488 0.0499,0.107468 -0.01,0.09075 -0.18681,-0.05159 -0.21092,-0.169351 -0.2287,-0.237343 -0.0947,-0.358394 0.13445,-0.121356 0.12726,-0.14316 -0.0363,-0.117495 -0.11074,0.01731 -0.24206,0.113209 -0.29247,0.213019 -0.10976,0.217519 0.32048,1.107032 0.61705,1.275561 0.11565,0.06574 0.28753,0.350085 0.38208,0.632263 0.0945,0.282179 0.24719,0.631007 0.33897,0.775128 0.14967,0.235003 0.11598,0.345581 -0.32206,1.076089 -0.52054,0.868084 -0.76806,1.808374 -0.58918,2.235793 0.0831,0.198432 0.2295,0.279107 0.61285,0.337274 0.29506,0.04482 0.6171,0.182205 0.77767,0.332203 0.24321,0.227302 0.41341,0.26638 1.50547,0.346548 l 1.23074,0.09046 0.44293,0.416722 c 0.24369,0.22895 0.5695,0.44798 0.72357,0.48689 0.23818,0.0602 0.28542,0.005 0.31614,-0.36769 0.0281,-0.340745 0.14149,-0.506544 0.50633,-0.742156 0.53247,-0.343931 0.57717,-0.447244 0.2688,-0.620453 -0.20906,-0.117446 -0.31324,-0.657699 -0.11826,-0.613681 0.0525,0.01145 0.34955,0.338566 0.66018,0.726956 0.3106,0.388342 0.60807,0.7167 0.66102,0.728641 0.053,0.01145 0.0913,0.08768 0.0846,0.169054 -0.0195,0.235514 0.34151,0.698299 0.58833,0.753999 0.57743,0.13036 0.53508,-1.036573 -0.0515,-1.420073 -0.15196,-0.09929 -0.23267,-0.174157 -0.1792,-0.166535 0.16983,0.02421 -0.61731,-1.047561 -0.79964,-1.088733 -0.096,-0.02159 -0.1343,-0.08833 -0.0862,-0.147871 0.0481,-0.0597 0.01,-0.255078 -0.0846,-0.433651 -0.0942,-0.178574 -0.16498,-0.382797 -0.15801,-0.453911 0.0114,-0.123171 0.52463,-0.616985 1.08451,-1.044797 0.28413,-0.217087 0.5064,-1.048477 0.30347,-1.134387 -0.71258,-0.301524 -1.30089,-0.447115 -1.31105,-0.323726 -0.007,0.08669 -0.16881,0.08764 -0.41335,0 -0.84035,-0.295855 -0.93365,-0.451919 -0.93574,-1.564665 -8.7e-4,-0.379471 -0.0764,-0.791617 -0.16822,-0.915438 -0.0918,-0.123826 -0.17238,-0.179132 -0.1792,-0.122566 -0.007,0.05661 -0.0793,-0.0139 -0.16145,-0.158062 -0.0726,-0.127277 -0.14018,-0.193847 -0.24006,-0.216394 z m -0.45055,1.455602 c 0.1977,0.03592 0.3618,0.447246 0.29332,0.81317 -0.0751,0.400937 -0.47387,0.533932 -0.79711,0.26543 -0.18387,-0.152778 -0.18165,-0.201551 0.0288,-0.586647 0.12612,-0.230936 0.30132,-0.448197 0.38883,-0.482647 0.029,-0.01129 0.0579,-0.01521 0.0862,-0.0082 z m -1.42939,2.174078 c 0.0523,-0.02338 0.58946,0.06908 1.19355,0.205445 1.09487,0.247166 1.0992,0.248941 1.24681,0.663554 0.1343,0.376744 0.11483,0.486499 -0.2054,1.174943 -0.19431,0.417769 -0.45796,0.891676 -0.58579,1.053238 -0.22732,0.287285 -0.24055,0.287547 -0.61875,0.0049 -0.21266,-0.158667 -0.55774,-0.541463 -0.76669,-0.851224 -0.20895,-0.309744 -0.47039,-0.620657 -0.5807,-0.690595 -0.11025,-0.07003 -0.25106,-0.280103 -0.31361,-0.467457 -0.0954,-0.285468 -0.062,-0.398297 0.21047,-0.695666 0.17868,-0.195102 0.36775,-0.373758 0.42011,-0.397301 z m -1.22229,2.014335 c 0.007,0 0.0131,3.44e-4 0.0203,0.0049 0.22953,0.06592 1.15683,1.148749 1.08113,1.274701 -0.0164,0.02601 -0.16884,0.08751 -0.34149,0.136912 -0.17266,0.04956 -0.57853,0.07083 -0.90194,0.04727 -0.45548,-0.03288 -0.60051,-0.08784 -0.64242,-0.240896 -0.0764,-0.279663 0.5267,-1.218088 0.78444,-1.220639 z"
       id="path1374"
       sodipodi:nodetypes="ccccccccccccccccccccccccccccccccccccccccccccccccccccccccccccccccccccccccccc" />
  </g>
</svg>
