<?xml version="1.0" encoding="UTF-8" standalone="no"?>
<!-- Created with Inkscape (http://www.inkscape.org/) -->

<svg
   xmlns:dc="http://purl.org/dc/elements/1.1/"
   xmlns:cc="http://creativecommons.org/ns#"
   xmlns:rdf="http://www.w3.org/1999/02/22-rdf-syntax-ns#"
   xmlns:svg="http://www.w3.org/2000/svg"
   xmlns="http://www.w3.org/2000/svg"
   xmlns:sodipodi="http://sodipodi.sourceforge.net/DTD/sodipodi-0.dtd"
   xmlns:inkscape="http://www.inkscape.org/namespaces/inkscape"
   width="508mm"
   height="285.75mm"
   viewBox="0 0 508 285.75"
   version="1.1"
   id="svg8"
   sodipodi:docname="overlay-wasm.svg"
   inkscape:version="0.92.2 (5c3e80d, 2017-08-06)">
  <defs
     id="defs2" />
  <sodipodi:namedview
     id="base"
     pagecolor="#ffffff"
     bordercolor="#666666"
     borderopacity="1.0"
     inkscape:pageopacity="0.0"
     inkscape:pageshadow="2"
     inkscape:zoom="0.35"
     inkscape:cx="1551.4286"
     inkscape:cy="177.14287"
     inkscape:document-units="mm"
     inkscape:current-layer="layer1"
     showgrid="false"
     fit-margin-top="0"
     fit-margin-left="0"
     fit-margin-right="0"
     fit-margin-bottom="0"
     inkscape:window-width="1920"
     inkscape:window-height="1016"
     inkscape:window-x="0"
     inkscape:window-y="27"
     inkscape:window-maximized="1" />
  <metadata
     id="metadata5">
    <rdf:RDF>
      <cc:Work
         rdf:about="">
        <dc:format>image/svg+xml</dc:format>
        <dc:type
           rdf:resource="http://purl.org/dc/dcmitype/StillImage" />
        <dc:title></dc:title>
      </cc:Work>
    </rdf:RDF>
  </metadata>
  <g
     inkscape:label="Layer 1"
     inkscape:groupmode="layer"
     id="layer1"
     transform="translate(136.07143,85.511902)">
    <path
       style="fill:#ffffff;fill-opacity:1;stroke-width:1"
       d="m 299.73637,67.620406 c -0.70144,-0.501771 -0.79628,-0.903766 -0.41604,-1.763373 0.34035,-0.769414 0.74478,-1.057357 1.42345,-1.013448 0.49495,0.03202 0.94384,-0.27489 1.25188,-0.855922 0.181,-0.341407 0.23688,-0.352753 1.29633,-0.263196 1.08156,0.09143 2.05617,0.448178 2.41913,0.885516 0.35586,0.428789 0.10223,1.127586 -0.66293,1.826488 -1.07689,0.983639 -1.98712,1.36964 -3.49364,1.481553 -1.20646,0.08962 -1.29772,0.07469 -1.81818,-0.297618 z m 3.5266,-1.622636 c 0.32321,-0.177364 0.61082,-0.392003 0.63915,-0.476978 0.0444,-0.133126 -0.93913,-0.554434 -1.37623,-0.589543 -0.19864,-0.01595 -1.61534,0.715777 -1.74833,0.903019 -0.0575,0.08094 0.004,0.267216 0.13692,0.413945 0.19743,0.218161 0.37989,0.249034 1.00114,0.169406 0.41784,-0.05355 1.02415,-0.242486 1.34735,-0.419849 z m 6.66006,-4.540096 c -0.12329,-0.07476 -0.85739,-0.289883 -1.63133,-0.478052 -1.12835,-0.274333 -1.5207,-0.444682 -1.98005,-0.859673 -0.31507,-0.284651 -0.57286,-0.581492 -0.57286,-0.659646 0,-0.195625 -0.93947,-1.311473 -1.10698,-1.3148 -0.0746,-0.0015 -0.47807,0.258622 -0.89662,0.57801 -1.09505,0.835622 -1.75438,1.128611 -3.55023,1.577629 -2.14999,0.537564 -3.44635,0.469877 -5.08877,-0.265697 -0.30557,-0.136856 -0.60941,-0.248828 -0.6752,-0.248828 -0.35434,0 -2.42609,-1.890248 -2.73353,-2.494052 -0.11761,-0.230985 -0.35996,-0.621712 -0.53855,-0.868284 -0.17858,-0.246571 -0.41027,-0.750921 -0.51487,-1.120778 -0.10459,-0.369857 -0.25378,-0.756416 -0.33154,-0.859021 -0.0778,-0.102606 -0.22007,-0.737386 -0.31626,-1.410626 -0.1385,-0.969342 -0.13462,-1.412533 0.0186,-2.12972 0.10645,-0.498108 0.22063,-1.073768 0.25374,-1.279244 0.28186,-1.749306 0.52313,-2.540136 0.91184,-2.988743 0.5508,-0.63567 0.91849,-1.237129 1.27898,-2.09212 0.6246,-1.481406 1.02991,-1.980836 3.26186,-4.019303 0.27931,-0.255097 0.56249,-0.463811 0.62929,-0.463811 0.0668,0 0.25154,-0.139637 0.41055,-0.310306 0.21032,-0.225758 0.41267,-0.29083 0.74264,-0.238825 0.30341,0.04782 0.48017,0.0021 0.53395,-0.138005 0.0442,-0.115218 0.19224,-0.209487 0.32895,-0.209487 0.13671,0 0.45824,-0.129543 0.71452,-0.287873 0.60676,-0.374873 1.62822,-0.462548 2.46276,-0.211389 0.36621,0.110213 0.8579,0.200388 1.09265,0.200388 0.23475,0 0.82923,0.11188 1.32107,0.248623 0.69807,0.19408 1.0336,0.39562 1.52947,0.918695 0.34938,0.36854 0.79047,0.811445 0.98021,0.984233 0.18974,0.17279 0.70973,0.67485 1.15554,1.115691 0.5464,0.540307 0.88844,0.771643 1.04954,0.709827 0.13143,-0.05044 0.29414,-0.0917 0.36157,-0.0917 0.0674,0 0.18927,-0.191251 0.27075,-0.425003 0.18782,-0.538773 1.0398,-1.517679 1.3209,-1.517679 0.11736,0 0.2581,-0.116561 0.31277,-0.259026 0.0547,-0.142464 0.43323,-0.574109 0.84125,-0.959211 0.93271,-0.880324 1.97657,-1.175941 4.18447,-1.185022 1.54061,-0.0063 2.27048,0.160179 3.23398,0.737813 0.5378,0.322416 1.64758,1.389837 1.80922,1.740164 0.0758,0.164381 0.27154,0.500615 0.43487,0.747186 0.16333,0.246571 0.39887,0.683675 0.52342,0.971341 0.12455,0.287667 0.32273,0.72477 0.4404,0.971341 0.11768,0.246572 0.31489,0.784546 0.43827,1.195498 0.12337,0.410952 0.32736,1.03054 0.4533,1.376863 0.12594,0.346323 0.19174,0.72673 0.14622,0.845351 -0.0455,0.11862 0.01,0.507731 0.12303,0.864694 0.19738,0.622504 0.25296,3.067542 0.0763,3.355219 -0.045,0.07321 -0.11903,0.368692 -0.16458,0.656627 -0.2951,1.865313 -2.15578,5.962052 -2.71321,5.973805 -0.12779,0.0027 -0.31373,0.204171 -0.82001,0.888525 -0.0411,0.05555 -0.41096,0.301222 -0.82191,0.54594 -2.55999,1.52445 -4.52232,2.13888 -7.17298,2.245953 -0.98629,0.03984 -1.89412,0.01127 -2.0174,-0.06349 z m 4.4084,-1.659338 c 0.49314,-0.148711 1.21777,-0.355901 1.61029,-0.460424 0.39253,-0.104523 0.74954,-0.248063 0.79337,-0.318979 0.0438,-0.07092 0.18139,-0.128939 0.3057,-0.128939 0.33575,0 2.39957,-1.372705 2.58374,-1.718527 0.17138,-0.321772 0.31898,-0.559727 0.92542,-1.491906 0.21477,-0.330118 0.44155,-0.768331 0.50396,-0.973807 0.0624,-0.205476 0.16438,-0.440839 0.22659,-0.523029 0.0974,-0.128632 0.53591,-1.483276 0.70148,-2.166839 0.16265,-0.671505 0.34044,-2.17115 0.28178,-2.376898 -0.0373,-0.131039 -0.10855,-0.674526 -0.1582,-1.20775 -0.0497,-0.533222 -0.17804,-1.10482 -0.28528,-1.270215 -0.18882,-0.291198 -0.3332,-0.782903 -0.46487,-1.583195 -0.1043,-0.633972 -0.83263,-2.557934 -1.22104,-3.225508 -0.19924,-0.342441 -0.61133,-0.809615 -0.91576,-1.038161 -0.30443,-0.228548 -0.58713,-0.454574 -0.62823,-0.502284 -0.0411,-0.04771 -0.35225,-0.209056 -0.69147,-0.358552 -0.6439,-0.283775 -2.97901,-0.383469 -4.09051,-0.174641 -1.13034,0.212364 -2.55298,1.494165 -3.58649,3.231445 -0.20549,0.345393 -0.47305,0.729908 -0.59461,0.854482 -0.25683,0.263209 -0.2689,1.229885 -0.022,1.760487 0.40756,0.875799 0.45442,1.087309 0.44428,2.005424 -0.007,0.634757 -0.0879,1.058964 -0.23341,1.22421 -0.12249,0.139077 -0.19248,0.340817 -0.15556,0.448311 0.0749,0.218053 -0.33404,1.503462 -0.78669,2.472731 -0.16271,0.348414 -0.29584,0.669752 -0.29584,0.714084 0,0.04433 -0.36712,0.616661 -0.81582,1.271843 -0.44871,0.655183 -0.77198,1.191241 -0.71838,1.191241 0.0536,0 -0.11726,0.17787 -0.37967,0.395266 -0.26242,0.217397 -0.47712,0.486383 -0.47712,0.597748 0,0.111367 -0.0673,0.202483 -0.14944,0.202483 -0.25004,0 -0.16714,0.710844 0.14221,1.21954 0.34341,0.564689 1.43994,1.469513 1.78415,1.472222 0.13226,0.0011 0.64396,0.207035 1.1371,0.457763 0.88843,0.451703 0.91234,0.455026 2.61515,0.363313 0.95547,-0.05146 2.11665,-0.212614 2.61515,-0.362939 z m -2.25341,-4.054753 c -1.01546,-0.804947 -0.94999,-1.335482 0.23733,-1.923007 0.47533,-0.235209 0.74741,-0.470925 0.77622,-0.672468 0.0321,-0.224312 0.16861,-0.321107 0.49267,-0.349249 0.60625,-0.05265 0.82072,0.1183 0.96807,0.771615 0.23275,1.031968 -0.18327,1.795736 -1.26694,2.325982 -0.24658,0.120648 -0.48727,0.240107 -0.53488,0.265463 -0.0476,0.02536 -0.35022,-0.162895 -0.67247,-0.418336 z m 0.90847,-1.187266 c -0.0508,-0.08219 -0.15564,-0.149437 -0.23297,-0.149437 -0.0773,0 -0.14062,0.06725 -0.14062,0.149437 0,0.08219 0.10484,0.149437 0.23297,0.149437 0.12814,0 0.19142,-0.06725 0.14062,-0.149437 z m -13.20116,4.420348 c 0.1365,-0.01609 0.53998,-0.152465 0.89662,-0.303055 1.47526,-0.622925 2.17064,-1.059531 2.66585,-1.673798 0.28766,-0.356829 0.74588,-0.867664 1.01827,-1.135186 1.43904,-1.413369 2.11565,-2.147364 2.11766,-2.29727 0.001,-0.09188 0.23931,-0.629855 0.52905,-1.195497 0.28975,-0.565642 0.75774,-1.644765 1.04,-2.398053 0.64384,-1.718316 0.65176,-2.844456 0.0282,-4.008934 -0.21972,-0.4103 -0.39949,-0.884773 -0.39949,-1.054387 0,-0.169616 -0.16812,-0.53626 -0.37359,-0.814767 -0.20548,-0.278508 -0.37359,-0.586448 -0.37359,-0.684313 0,-0.09786 -0.15131,-0.280491 -0.33624,-0.405836 -0.54234,-0.367594 -1.30757,-1.121718 -1.30757,-1.288584 0,-0.08471 -0.20174,-0.258347 -0.44831,-0.385855 -0.24658,-0.127507 -0.44832,-0.287889 -0.44832,-0.356406 0,-0.182293 -1.73297,-0.718861 -2.71366,-0.840211 -0.75293,-0.09317 -0.86328,-0.0718 -1.00596,0.194809 -0.1154,0.215623 -0.31285,0.299454 -0.70534,0.299454 -0.29979,0 -0.58682,0.0639 -0.63784,0.14201 -0.21293,0.325924 -0.88135,0.548499 -1.52181,0.506741 -0.48073,-0.03135 -0.73957,0.0251 -0.87756,0.19137 -0.10764,0.129705 -0.2813,0.235826 -0.3859,0.235826 -0.46559,0 -2.46309,2.326472 -2.46309,2.868745 0,0.148189 -0.062,0.269435 -0.13785,0.269435 -0.0758,0 -0.21609,0.237072 -0.31171,0.526826 -0.0956,0.289755 -0.3194,0.71058 -0.49726,0.935164 -0.72208,0.911743 -1.02292,1.554596 -1.06416,2.273939 -0.0165,0.287666 -0.10583,0.664468 -0.19853,0.837337 -0.0927,0.172868 -0.1571,0.726755 -0.14312,1.230863 0.0147,0.530753 -0.0477,0.989653 -0.14826,1.090215 -0.13192,0.131923 -0.12617,0.267087 0.0239,0.562384 0.10868,0.213797 0.18929,0.640938 0.17914,0.949201 -0.0101,0.308263 0.032,0.560438 0.0936,0.560389 0.0616,-4.9e-5 0.11207,0.178351 0.11207,0.396444 0,0.722391 0.7433,2.035582 1.64323,2.903109 0.65572,0.63211 1.14924,0.946209 2.03928,1.297876 2.03,0.802089 2.08209,0.80931 4.11225,0.570015 z m 0.0507,-5.281129 c -0.70139,-0.156523 -1.3382,-1.126331 -1.17566,-1.790438 0.13046,-0.533022 0.29399,-0.63133 1.05476,-0.63411 0.67037,-0.0024 0.9187,-0.194241 0.65809,-0.508253 -0.21692,-0.261377 -0.0561,-0.390657 0.48581,-0.390657 0.82742,0 1.41721,0.315077 1.64125,0.876784 0.25255,0.633189 0.19797,0.881288 -0.32123,1.460181 -0.73927,0.824259 -1.54668,1.164205 -2.34302,0.986493 z m 0.97134,-1.674961 c 0,-0.07961 -0.10087,-0.106039 -0.22415,-0.05873 -0.12329,0.04731 -0.22416,0.112445 -0.22416,0.144748 0,0.0323 0.10087,0.05873 0.22416,0.05873 0.12328,0 0.22415,-0.06514 0.22415,-0.144748 z"
       id="path881"
       inkscape:connector-curvature="0" />
    <path
       style="fill:#ffffff;fill-opacity:1;stroke-width:0.99999994"
       d="m 268.27485,-1.8595644 c -0.0627,-0.063757 -0.34241,-0.2860281 -0.62158,-0.4940384 -0.27917,-0.2079788 -0.61165,-0.6026551 -0.73888,-0.8770138 -0.12722,-0.2743588 -0.29276,-0.5240282 -0.36785,-0.5548227 -0.32368,-0.1327393 -1.06088,-2.3822495 -0.97633,-2.9791973 0.0835,-0.5897681 -0.0552,-0.8196915 -0.48465,-0.8032133 -0.20398,0.00778 -0.39202,0.065739 -0.41784,0.128691 -0.0772,0.1882732 -2.88926,1.3752406 -3.07639,1.298542 -0.0951,-0.038964 -0.19773,-0.010183 -0.2281,0.063872 -0.0787,0.1918446 -0.90791,0.2406794 -1.7246,0.1015716 -0.60717,-0.1034223 -0.75814,-0.1887971 -1.15919,-0.6555097 -0.54232,-0.6311162 -1.07099,-1.7407227 -1.20299,-2.5249296 -0.0516,-0.3064438 -0.0576,-1.0547703 -0.0133,-1.6629463 0.0701,-0.96343 0.18135,-1.339629 0.86417,-2.922504 0.43105,-0.999193 0.9032,-1.985774 1.04934,-2.192339 0.59984,-0.848104 1.29253,-1.589357 1.64378,-1.759019 0.20534,-0.09919 0.40298,-0.252598 0.4392,-0.340911 0.0878,-0.214068 0.96611,-0.856214 1.06787,-0.780729 0.35667,0.264604 0.003,1.182485 -0.71736,1.859687 -1.33882,1.259281 -1.68709,1.78245 -2.27101,3.411622 -0.30533,0.851805 -0.55967,1.725203 -0.56524,1.940877 -0.006,0.215692 -0.0442,0.406383 -0.0858,0.423781 -0.0416,0.01741 -0.094,0.47007 -0.11638,1.005915 -0.0328,0.7856298 0.0495,1.1339899 0.42536,1.799228 0.70396,1.2459948 0.79037,1.2805142 2.49537,0.9966413 0.28604,-0.04762 0.85265,-0.2773038 1.25917,-0.510402 0.40651,-0.2330983 0.97492,-0.5114614 1.26315,-0.618593 0.28821,-0.1071224 0.55627,-0.2733671 0.59566,-0.3694328 0.0394,-0.096066 0.21216,-0.2334506 0.38391,-0.3052949 0.17175,-0.071857 0.40358,-0.2908827 0.51517,-0.4867167 0.39422,-0.6918359 0.95578,-1.5149749 1.10994,-1.6269039 0.21774,-0.158105 1.04517,0.06883 1.08441,0.297405 0.0486,0.283291 -0.0123,0.566746 -0.30582,1.422431 -0.14691,0.428339 -0.29949,1.2292479 -0.33906,1.7797926 -0.0396,0.5505576 -0.10482,1.0811468 -0.14499,1.1791 -0.10791,0.2631328 0.5152,2.0545046 0.89282,2.5667618 0.48413,0.6567509 1.48656,1.2604904 2.41592,1.4550659 1.17869,0.2467716 2.59123,-0.1484109 4.17786,-1.1688141 0.53134,-0.3417176 0.97896,-0.652744 0.99473,-0.6911776 0.0157,-0.038397 0.48562,-0.3846993 1.04413,-0.7695093 0.93828,-0.6464485 1.41726,-1.0620618 1.7675,-1.5336849 0.0759,-0.1021185 0.3158,-0.4035019 0.53319,-0.6696816 0.66924,-0.8193866 2.66572,-6.0283858 2.59074,-6.7594298 -0.0201,-0.195943 0.0266,-0.40216 0.10382,-0.458212 0.0772,-0.05604 -0.0937,-0.340098 -0.37973,-0.631195 -0.50443,-0.513314 -0.51262,-0.547545 -0.27174,-1.134941 0.41199,-1.004608 1.09934,-1.044119 1.74714,-0.100432 0.28231,0.411256 0.3653,1.250932 0.17056,1.725783 -0.0608,0.148194 -0.0496,0.321933 0.025,0.3861 0.0822,0.07077 -0.0276,0.554868 -0.27939,1.231381 -0.22819,0.613091 -0.40581,1.118434 -0.3948,1.122949 0.0585,0.02398 -0.67615,2.1706179 -1.09618,3.2032108 -0.48424,1.1886965 -1.4624,2.7734298 -1.6625,2.691367 -0.058,-0.02379 -0.10766,0.054313 -0.11033,0.1736127 -0.004,0.1924613 -1.86808,1.879038 -2.16715,1.961197 -0.0649,0.017803 -0.26448,0.1575923 -0.44361,0.31061 -0.57883,0.494458 -2.52191,1.600467 -3.51586,2.0012426 -1.20103,0.4842691 -2.82205,0.5766109 -3.88375,0.2212486 -0.43088,-0.1441686 -0.83471,-0.3143163 -0.89751,-0.3777918 z m 25.42564,5.2982729 c -0.56271,-1.3454261 -0.89293,-2.3608764 -0.85045,-2.61516343 0.0382,-0.22862108 0.0192,-0.43630671 -0.0423,-0.46150836 -0.0614,-0.025194 -0.0761,-0.53781089 -0.0324,-1.13912504 0.11096,-1.53037617 0.0979,-1.56511937 -0.48727,-1.29377797 -0.27234,0.126289 -0.58716,0.3396085 -0.69958,0.4740347 -0.11241,0.1344299 -0.24775,0.2266348 -0.30072,0.2049125 -0.053,-0.021741 -0.33828,0.133823 -0.63404,0.3456663 -0.55864,0.40014777 -2.1485,0.86124886 -2.99538,0.86873822 -0.96859,0.008573 -3.9367,-1.46981472 -4.07606,-2.03023992 -0.0373,-0.14973 -0.13716,-0.3006995 -0.22208,-0.3355273 -0.0849,-0.034832 -0.19019,-0.2778723 -0.23395,-0.5401032 -0.0437,-0.2622308 -0.1206,-0.5663089 -0.17078,-0.6757198 -0.14905,-0.3249847 -0.25198,-1.5825399 -0.1336,-1.6320743 0.0601,-0.025161 0.0742,-0.2299894 0.0313,-0.4552011 -0.13059,-0.6845709 0.99512,-3.2803845 1.35805,-3.1315498 0.0641,0.026294 0.11914,-0.060165 0.12215,-0.1921732 0.003,-0.1320175 0.0743,-0.2117989 0.15852,-0.1772709 0.0842,0.034528 0.18034,-0.00375 0.21372,-0.085146 0.0678,-0.1652815 1.13494,-0.8830527 1.70514,-1.1468717 0.44765,-0.207125 1.86449,-0.608264 1.98045,-0.56071 0.0457,0.01874 0.27418,-0.04074 0.50783,-0.132164 0.23364,-0.09141 0.88401,-0.194173 1.44523,-0.228349 0.78502,-0.0478 1.0674,-0.0053 1.22405,0.184456 0.1474,0.178523 0.35006,0.237535 0.73414,0.213749 0.40259,-0.02493 0.56078,0.02401 0.65595,0.202907 0.13211,0.248339 0.53371,0.320449 0.9972,0.179042 0.41123,-0.125462 1.2546,0.125153 1.249,0.371144 -0.003,0.11242 0.0979,0.206726 0.2233,0.209579 0.12797,0.0029 0.38049,0.3234656 0.57571,0.730845 0.19127,0.3991091 0.44245,0.7644822 0.55819,0.8119449 0.40482,0.1660152 0.23054,0.8919397 -0.67075,2.7937086 -1.10334,2.3281152 -0.98289,2.0057741 -1.38953,3.7184211 -0.29753,1.25302184 -0.37443,2.64841852 -0.16932,3.07199786 0.0269,0.0554423 0.0847,0.26879584 0.12857,0.47417124 0.10531,0.4929075 1.11581,2.4555955 1.3052,2.535103 0.0816,0.03406 0.22879,0.2730372 0.32725,0.5307025 0.17799,0.4657845 0.17648,0.4704177 -0.26111,0.8038043 -0.24206,0.1844276 -0.61371,0.3290049 -0.82587,0.3212894 -0.34872,-0.012694 -0.47404,-0.2250969 -1.30563,-2.2135186 z m -5.56544,-4.8894011 c 0.54772,-0.033235 1.70471,-0.4145727 2.01544,-0.6642883 1.41069,-1.1336699 3.4129,-2.9594514 3.75765,-3.4265205 0.23329,-0.3161035 0.6451,-1.0117942 0.91506,-1.5459878 0.46274,-0.9156721 0.47901,-1.0014648 0.28463,-1.4981475 -0.11343,-0.2897786 -0.34893,-0.6320258 -0.52333,-0.7605531 -0.54439,-0.4011744 -2.4457,-0.9024212 -3.43515,-0.9056082 -1.75383,-0.0057 -4.45196,0.7032251 -4.95192,1.3010197 -0.10372,0.124041 -0.23998,0.2044532 -0.30277,0.1787052 -0.18305,-0.07507 -0.46005,0.2885396 -1.08378,1.4226351 -0.52028,0.9459996 -0.5783,1.133572 -0.53039,1.7144392 0.0296,0.3587326 0.0104,0.7581823 -0.0428,0.8876855 -0.16086,0.3922474 0.43151,1.7840017 0.9065,2.1297835 0.56576,0.4118658 2.56682,1.1925642 2.99081,1.1668557 z m 9.83859,6.9680155 c -0.14141,-0.1736398 -0.28293,-0.5723871 -0.31451,-0.8861302 -0.057,-0.5665728 -0.0538,-0.5725558 0.48299,-0.8870525 0.63971,-0.3748355 0.80426,-0.3041433 0.86469,0.3714682 0.0398,0.4446507 0.12404,0.5409439 0.72641,0.8301384 1.32002,0.6337437 3.74332,0.8893686 4.97739,0.5250767 l 0.51462,-0.1519206 -0.0611,-0.6387349 c -0.0722,-0.7555864 -2.5863,-6.6959099 -3.30024,-7.7980034 -0.3612,-0.5575969 -0.5742,-1.8559435 -0.38154,-2.3257439 0.35304,-0.8608811 1.73958,-1.7128746 2.45359,-1.5076781 0.71547,0.2056139 1.49275,0.1554854 1.5988,-0.103112 0.15491,-0.3777215 0.54237,-0.2967701 0.88405,0.1846867 0.34947,0.492452 0.21714,0.637571 -0.57013,0.6252381 -0.51012,-0.00799 -1.71706,0.2494172 -2.21245,0.4718718 -0.90865,0.4080122 -1.1307,1.2475157 -0.54977,2.0784315 0.23105,0.3304815 0.51418,0.8145039 0.62919,1.0756164 0.11501,0.2611032 0.31118,0.6245786 0.43596,0.8077159 0.12477,0.1831372 0.20297,0.3912077 0.17378,0.4623942 -0.0292,0.071149 0.16904,0.59837835 0.44054,1.17155209 1.14316,2.41348511 1.4396,3.32560191 1.58584,4.87947711 0.0857,0.9104635 -0.2724,1.7562535 -0.82424,1.9469044 -0.59643,0.2060453 -2.39442,0.3362862 -3.52333,0.2552232 -1.21276,-0.087086 -3.65666,-0.9283387 -4.03054,-1.3874191 z m 15.2033,2.4210695 c -0.10426,-0.5353833 0.0757,-1.5572247 0.5886,-3.3425716 0.47335,-1.6475926 0.93476,-5.37920582 0.82157,-6.6443031 -0.0553,-0.6184416 -0.0518,-0.6268196 0.37596,-0.8956696 0.23746,-0.1492787 0.85316,-0.3043311 1.36823,-0.3445655 0.75731,-0.059147 1.18946,0.013381 2.2585,0.3790656 0.78802,0.2695638 1.56988,0.6284714 1.93568,0.8886093 0.33752,0.2400226 0.82041,0.5525831 1.07309,0.694573 0.961,0.54000004 2.10422,1.62026649 2.42662,2.29299482 0.38844,0.81053118 0.48855,1.87788318 0.26027,2.77497748 -0.20137,0.7913307 -0.31598,1.0531649 -1.28864,2.9441115 -0.64822,1.2602479 -0.81169,1.484622 -1.15897,1.5908143 -0.22236,0.067996 -0.49323,0.065437 -0.60192,-0.00569 -0.31097,-0.2035079 -0.14583,-1.0717792 0.34208,-1.7985575 0.34883,-0.5196006 1.15283,-2.4321139 1.58027,-3.7590654 0.13395,-0.4157075 -0.57365,-1.5257126 -1.46252,-2.29434865 -2.01927,-1.74612945 -4.78183,-2.89217805 -5.5141,-2.28755605 -0.23748,0.1960848 -0.4497,0.97190814 -0.28438,1.03970444 0.0556,0.0228037 0.0369,0.21499537 -0.0416,0.42709215 -0.0784,0.21215574 -0.16216,0.88612359 -0.18588,1.49783481 -0.0237,0.6117205 -0.11177,1.2795336 -0.19564,1.4840352 -0.0839,0.2045017 -0.15724,0.5557898 -0.16305,0.780649 -0.006,0.2248441 -0.16782,0.9081462 -0.36,1.5184113 -0.19222,0.6102593 -0.34169,1.221777 -0.33223,1.3588999 0.0322,0.467048 -0.38975,1.7742016 -0.63926,1.980236 -0.40655,0.3356947 -0.70288,0.2324277 -0.80259,-0.2797423 z m 21.48468,2.3062976 c 0.0354,-0.2592586 0.22992,-0.7791261 0.43244,-1.1551625 0.69153,-1.284698 0.66056,-2.9578418 -0.0864,-4.6712149 -0.35234,-0.8081374 -2.07989,-2.9472013 -2.52895,-3.1313608 -0.14301,-0.058644 -0.27148,-0.1757706 -0.2855,-0.2602874 -0.0697,-0.42006041 -2.44443,-1.51259037 -3.60876,-1.6602507 -0.43044,-0.0545884 -1.02034,0.0849755 -1.94639,0.46050313 -0.73084,0.2963557 -1.41102,0.63229955 -1.51153,0.74653824 -0.20734,0.2356483 -0.78325,0.0687306 -0.67153,-0.19463107 0.17077,-0.40324326 0.94101,-1.12344967 1.72767,-1.6162344 0.65561,-0.4106895 1.08877,-0.5471187 1.92526,-0.6063893 1.04924,-0.074342 1.12946,-0.055855 2.87765,0.6630062 1.54442,0.63519967 1.89636,0.83226061 2.49285,1.39666786 2.01998,1.91136434 3.39459,4.32163944 3.55375,6.23119824 0.0799,0.9587991 0.0452,1.1242976 -0.55893,2.6629448 -0.69845,1.7790436 -0.89995,2.0063136 -1.54404,1.7421746 -0.2546,-0.104412 -0.31686,-0.245794 -0.2675,-0.607483 z m -76.27238,-42.586144 c -0.93586,-0.509566 -1.91548,-1.591117 -1.76765,-1.951589 0.0375,-0.09148 -0.0732,-0.353125 -0.2461,-0.58144 -0.17287,-0.228324 -0.2883,-0.479641 -0.25651,-0.558496 0.0318,-0.07882 0.0354,-0.3706 0.008,-0.648335 -0.0811,-0.822098 0.35944,-2.035397 1.00371,-2.764513 0.45042,-0.509739 0.89887,-0.771302 2.30999,-1.347305 1.73158,-0.706822 3.34931,-1.150714 3.68779,-1.011904 0.0961,0.0394 0.19672,0.01792 0.22364,-0.04773 0.0714,-0.174072 1.76909,0.164912 2.0649,0.412311 0.26417,0.220934 0.70967,0.227621 1.21035,0.01816 0.25418,-0.106331 0.36926,-0.06536 0.78614,0.279906 0.60975,0.505 0.52869,0.744018 -0.23223,0.684887 -0.32284,-0.02509 -0.668,-0.02529 -0.76703,-4.33e-4 -0.099,0.02486 -0.63786,0.01751 -1.19741,-0.01632 -1.63682,-0.09896 -2.77716,0.0337 -3.44081,0.400283 -0.3408,0.188262 -0.83169,0.343031 -1.09085,0.343948 -0.55317,0.0019 -1.38532,0.453855 -2.34055,1.271051 -0.8415,0.719895 -1.05998,1.436234 -0.7303,2.394479 0.31678,0.920807 0.77864,1.479755 1.60637,1.944062 1.06756,0.59884 3.43647,1.221862 4.5019,1.183993 0.68058,-0.02418 1.02945,0.04545 1.48038,0.295466 0.32448,0.179892 0.60517,0.363443 0.62375,0.407854 0.0186,0.04445 -0.14596,0.204108 -0.36558,0.354897 -0.23984,0.164636 -0.87769,0.294977 -1.59687,0.326308 -1.14052,0.04968 -1.74667,-0.07179 -4.37676,-0.877043 -0.19731,-0.0604 -0.69149,-0.291035 -1.0982,-0.512472 z m 12.49893,2.927921 c -0.56801,-0.345778 -1.32931,-2.555615 -1.08535,-3.1505 0.0408,-0.09948 0.0131,-0.295758 -0.0616,-0.436161 -0.0747,-0.140407 -0.0915,-0.287425 -0.0374,-0.326706 0.054,-0.03929 0.14363,-0.33707 0.19814,-0.662113 0.0621,-0.367913 0.17598,-0.631266 0.3019,-0.698224 0.11116,-0.05915 0.21022,-0.166377 0.2201,-0.238297 0.0343,-0.249647 0.86369,-0.949068 1.42864,-1.204742 0.31243,-0.141388 0.95533,-0.459931 1.42867,-0.707873 1.05754,-0.553941 2.02061,-0.618341 3.2533,-0.217542 0.91839,0.298602 0.95441,0.3271 1.4532,1.149969 0.28129,0.464076 0.60469,0.92657 0.71866,1.027765 0.11396,0.101186 0.16851,0.278313 0.12123,0.393602 -0.0473,0.115289 -0.0179,0.355068 0.0652,0.532844 0.14761,0.315535 0.16621,0.480629 0.19938,1.769983 0.0134,0.518753 -0.23603,1.464335 -0.44838,1.700172 -0.0292,0.03247 -0.11733,0.157217 -0.19585,0.277267 -0.40968,0.626353 -2.21401,1.337301 -3.50767,1.382093 -0.52348,0.01813 -1.11033,0.102481 -1.30409,0.187458 -0.21461,0.09411 -0.55369,0.0743 -0.86755,-0.0507 -0.28349,-0.112583 -0.74154,-0.273645 -1.01814,-0.357343 -0.2766,-0.0837 -0.66465,-0.250596 -0.86235,-0.370916 z m 1.42459,-0.837647 c 0.37773,-0.17516 0.59219,-0.160935 1.17466,0.07793 1.23818,0.50777 3.0343,0.189107 3.79787,-0.673815 0.63642,-0.71926 0.74853,-1.193218 0.53617,-2.26693 -0.50568,-2.556787 -2.07882,-3.329192 -4.64185,-2.279129 -0.68946,0.282475 -1.34828,0.644608 -1.46402,0.804747 -0.11572,0.160142 -0.37464,0.512051 -0.57535,0.782038 -0.20065,0.270005 -0.3451,0.574177 -0.32088,0.67598 0.0242,0.101789 -0.0611,0.432716 -0.18958,0.735359 -0.24445,0.575012 -0.10612,1.079524 0.29862,1.091263 0.12165,0.0036 0.24042,0.224875 0.27783,0.517763 0.0807,0.631939 0.48045,0.825135 1.10655,0.534798 z m 25.05822,11.12421 c -0.0384,-0.215638 0.0327,-0.60441 0.15793,-0.863947 0.12534,-0.259513 0.21627,-0.543164 0.20217,-0.630282 -0.0141,-0.08712 0.29178,-0.906544 0.67965,-1.820972 1.04145,-2.454925 1.72596,-6.077924 1.27997,-6.774266 -0.17,-0.265428 -0.1435,-0.442515 0.16912,-1.130457 0.40855,-0.898996 0.95885,-1.309057 1.31127,-0.977044 0.25192,0.237324 0.71082,0.08894 0.87157,-0.281821 0.20259,-0.467118 1.7499,-0.476713 3.15069,-0.01949 1.10121,0.359442 1.15671,0.396196 1.64833,1.091567 1.29533,1.832188 1.27415,3.059404 -0.0784,4.541315 -1.15006,1.260079 -2.12861,1.850176 -3.18349,1.919724 -0.49175,0.03242 -1.02494,0.0053 -1.18488,-0.06031 -0.44037,-0.180593 -0.85107,-0.677497 -0.93988,-1.137148 -0.0437,-0.226321 -0.14029,-0.436426 -0.21458,-0.466894 -0.16816,-0.06896 -0.71899,1.243497 -0.68338,1.628172 0.0319,0.344072 -0.44084,1.173021 -0.56865,0.997047 -0.0502,-0.06918 -0.0963,0.0676 -0.10241,0.304012 -0.006,0.236372 -0.0919,0.526323 -0.19052,0.644324 -0.0987,0.117999 -0.1303,0.282148 -0.0703,0.364795 0.06,0.08267 0.0375,0.202214 -0.05,0.265717 -0.0874,0.06351 -0.39879,0.728392 -0.69194,1.477481 -0.47464,1.213001 -0.56863,1.365498 -0.85628,1.395177 -0.46991,0.0482 -0.57808,-0.02875 -0.65611,-0.466702 z m 6.20199,-6.287188 c 0.13452,0.04835 0.49591,-0.08155 0.80311,-0.28869 0.30719,-0.207143 0.71899,-0.475948 0.9151,-0.597347 0.37162,-0.230051 0.96985,-1.25374 1.05023,-1.797194 0.0933,-0.631112 -0.62637,-1.967115 -1.17435,-2.179905 -0.17309,-0.06731 -0.4955,-0.196933 -0.71637,-0.288268 -0.98346,-0.406987 -3.27783,-0.117305 -3.50747,0.442662 -0.12043,0.293666 0.42206,0.831478 0.71506,0.708902 0.33018,-0.138121 0.8153,0.101641 0.9267,0.458008 0.0527,0.168697 -0.003,0.5639 -0.1231,0.878227 -0.46373,1.210383 -0.17249,2.371131 0.63494,2.530156 0.12735,0.02507 0.34161,0.08515 0.47612,0.133537 z m -2.26555,-1.264482 c 0.0312,-0.07604 -0.009,-0.165275 -0.0897,-0.198308 -0.0805,-0.03301 -0.13347,0.01794 -0.11767,0.113256 0.0158,0.09532 0.0562,0.184555 0.0897,0.198309 0.0336,0.01377 0.0865,-0.03722 0.11767,-0.113257 z m -18.49151,-0.799524 c -0.22114,-0.206574 -0.26246,-0.440454 -0.29224,-1.654356 -0.0133,-0.5412 0.14736,-1.363807 0.44236,-2.265316 0.10633,-0.324921 0.173,-0.820914 0.14816,-1.102201 -0.0248,-0.281282 0.0161,-0.653443 0.091,-0.827022 0.23997,-0.556165 1.37123,-0.964282 2.92385,-1.05476 1.57343,-0.09168 1.37019,-0.147989 4.28233,1.186431 0.46046,0.210988 0.63177,0.229415 0.69614,0.07482 0.0469,-0.112814 0.21949,-0.177648 0.38342,-0.144144 0.16393,0.03348 0.62024,-0.08868 1.01403,-0.2715 0.62082,-0.288227 0.83369,-0.301935 1.6017,-0.103159 0.96777,0.250479 0.98594,0.25943 2.19828,1.083064 0.95781,0.650713 1.03697,0.741915 1.29577,1.492779 0.10477,0.304039 0.254,0.72292 0.33159,0.930842 0.0776,0.207922 0.0941,0.397702 0.0366,0.42173 -0.0574,0.02406 -0.0496,0.174884 0.0175,0.335236 0.19845,0.474387 -0.54538,1.746327 -1.52556,2.608649 -0.93062,0.818729 -1.33531,0.961451 -1.60856,0.567303 -0.21392,-0.308569 0.0887,-0.988033 0.59489,-1.335439 0.18799,-0.129054 0.44529,-0.417461 0.57177,-0.640905 0.12653,-0.223422 0.31494,-0.507839 0.41874,-0.632007 0.10387,-0.124136 0.17109,-0.425102 0.14907,-0.66893 -0.0504,-0.562289 -0.65118,-1.64501 -1.07578,-1.938786 -0.17883,-0.123702 -0.4951,-0.363304 -0.70285,-0.532414 -0.7138,-0.581043 -2.70398,-0.677947 -3.22995,-0.15726 -0.24756,0.245067 -0.28902,0.420694 -0.236,0.99976 0.0548,0.598177 -0.0345,0.952442 -0.60127,2.386137 -0.67064,1.696473 -0.90992,2.018505 -1.36182,1.833185 -0.52182,-0.213998 -0.58699,-1.49285 -0.10245,-2.010373 0.15593,-0.166492 0.37876,-0.683493 0.52631,-1.220679 0.14079,-0.512498 0.29778,-0.964627 0.34891,-1.004704 0.0511,-0.04009 -0.16735,-0.372022 -0.48557,-0.737668 -0.31822,-0.365651 -0.58282,-0.654485 -0.588,-0.641855 -0.005,0.01265 -0.16114,-0.08885 -0.34659,-0.225507 -0.32931,-0.242666 -1.43558,-0.483853 -2.43679,-0.53124 -0.27487,-0.01302 -0.84888,0.106713 -1.27557,0.266052 -0.65512,0.24465 -0.77607,0.345769 -0.77759,0.650059 -0.003,0.61966 -0.3571,2.567277 -0.47566,2.616874 -0.0621,0.02599 -0.0936,0.266171 -0.07,0.53368 0.0236,0.267538 -0.015,0.52854 -0.0859,0.580004 -0.0708,0.05149 -0.17588,0.370112 -0.23323,0.708136 -0.11526,0.678898 -0.21153,0.751956 -0.56107,0.425484 z m 25.57818,3.562945 c -0.20386,-0.371932 -0.17762,-0.519789 0.33738,-1.900474 0.54583,-1.463269 0.57045,-1.502489 1.0883,-1.732282 0.92553,-0.410692 1.0212,-0.162073 0.52307,1.359273 -0.53207,1.625037 -0.95364,2.397364 -1.3954,2.556856 -0.30453,0.109918 -0.35075,0.08625 -0.55334,-0.283385 z m 4.4164,1.257562 c -0.17423,-1.115264 0.55896,-3.256557 2.60358,-7.603787 1.77985,-3.784318 2.63082,-5.825609 3.56513,-8.551895 0.75328,-2.198149 0.88809,-2.906654 0.65102,-3.421424 -0.16717,-0.36296 -0.16153,-0.367534 0.48018,-0.389655 0.35713,-0.01231 0.73079,0.05436 0.83035,0.148157 0.15822,0.149052 0.10355,0.583247 -0.1167,0.926749 -0.0395,0.06154 -0.0201,0.254928 0.0429,0.429697 0.0843,0.233539 -0.0971,0.956606 -0.68416,2.727621 -0.86576,2.611662 -0.87459,2.633979 -2.11289,5.343543 -1.0382,2.271721 -0.94735,2.070229 -1.41245,3.135604 -1.50718,3.452742 -2.33817,5.85517 -2.33227,6.742654 0.004,0.536703 -0.1397,1.126937 -0.26139,1.077035 -0.0288,-0.0118 -0.30315,-0.01977 -0.60982,-0.01775 -0.55094,0.0036 -0.5586,-0.0029 -0.64354,-0.546563 z m 7.61768,3.261771 c -0.028,-0.06677 -0.30499,-0.26327 -0.61571,-0.436715 -1.27545,-0.711993 -2.14749,-1.995304 -2.25222,-3.314405 -0.0408,-0.5141 -0.12618,-0.95605 -0.18971,-0.982106 -0.43928,-0.180145 0.87882,-2.469271 1.73163,-3.007331 0.2383,-0.150346 0.45055,-0.315496 0.47168,-0.367006 0.1125,-0.274326 1.6708,-0.92709 2.34127,-0.980737 1.29308,-0.10347 3.10444,0.698576 2.86981,1.270714 -0.026,0.06336 0.0143,0.408186 0.0895,0.766295 0.16696,0.794801 0.0435,1.107008 -0.65079,1.64624 -0.58679,0.455697 -2.16913,0.878586 -2.41628,0.645753 -0.0852,-0.08031 -0.17366,-0.1004 -0.1965,-0.04469 -0.0462,0.112608 -1.6229,0.224539 -1.96524,0.13951 -0.30574,-0.07594 -0.58971,0.160471 -0.63056,0.524941 -0.0519,0.463487 0.44155,1.486075 0.86406,1.790464 0.20495,0.147643 0.62484,0.450988 0.9331,0.674087 0.30826,0.223106 1.20721,0.689489 1.99769,1.036417 0.79047,0.346941 1.59908,0.704552 1.7969,0.794711 0.87688,0.39965 0.10251,1.037508 -1.0074,0.829805 -0.2898,-0.05424 -0.5946,-0.110827 -0.67731,-0.125761 -0.52141,-0.09414 -2.45207,-0.760016 -2.49396,-0.860154 z m -0.0328,-5.836684 c 0.40854,-0.05347 0.82978,-0.06156 0.93609,-0.01796 0.10629,0.04359 0.21602,0.0238 0.24382,-0.04398 0.0278,-0.06779 0.32651,-0.120888 0.6638,-0.117997 0.4587,0.0039 0.73724,-0.112115 1.10523,-0.460456 0.48914,-0.463042 0.49095,-0.46812 0.31564,-0.887221 -0.16416,-0.392397 -0.22672,-0.428275 -0.90533,-0.519285 -0.78678,-0.105517 -2.47508,0.466418 -2.66722,0.903552 -0.0555,0.127449 -0.17974,0.244325 -0.27501,0.260159 -0.2527,0.04192 -0.54045,0.828587 -0.33336,0.91119 0.0955,0.03796 0.50777,0.02546 0.91631,-0.02801 z m 13.20831,8.973116 c -0.053,-0.274223 0.001,-0.553335 0.14494,-0.748583 0.24626,-0.334165 1.31435,-2.892811 1.47936,-3.543837 0.16,-0.631317 0.086,-0.760658 -0.50806,-0.88739 -0.60987,-0.130112 -1.3291,-0.100301 -1.98105,0.08212 -0.58283,0.163081 -0.98283,-0.01186 -0.83748,-0.366274 0.0729,-0.177683 0.20555,-0.238729 0.37128,-0.170762 0.35093,0.143913 1.20378,-0.115612 1.20953,-0.368069 0.005,-0.237469 0.70997,-0.532622 0.84091,-0.352278 0.0487,0.06704 0.4062,0.111761 0.79451,0.09943 0.62035,-0.01972 0.71263,-0.06823 0.76046,-0.399811 0.0299,-0.207575 0.34836,-1.185394 0.7076,-2.172972 0.35918,-0.987607 0.80673,-2.31408 0.99443,-2.947769 0.50239,-1.696137 1.2341,-3.353566 1.5563,-3.525217 0.24637,-0.13125 0.28782,-0.107547 0.43747,0.250164 0.1361,0.325327 0.10913,0.476467 -0.15261,0.855321 -0.17481,0.253113 -0.33764,0.561103 -0.36185,0.684427 -0.0241,0.123361 -0.14481,0.618975 -0.26809,1.101415 -0.12328,0.482449 -0.26034,1.044035 -0.30458,1.247975 -0.11914,0.549086 -1.07469,3.471491 -1.22243,3.738453 -0.0701,0.126703 -0.0702,0.253873 -10e-5,0.282611 0.07,0.02872 0.0429,0.242575 -0.0603,0.475211 -0.103,0.232719 -0.13198,0.499721 -0.0638,0.593571 0.0681,0.09381 0.74209,0.29449 1.49771,0.445833 1.73479,0.347548 2.56838,0.675267 2.85551,1.12262 0.17578,0.273871 0.17268,0.375724 -0.0145,0.475267 -0.37981,0.202053 -1.2166,0.216406 -1.68289,0.02887 -0.43798,-0.175937 -3.01229,-0.566856 -3.20462,-0.486396 -0.0583,0.02438 -0.2366,0.528965 -0.39629,1.121304 -0.15969,0.592334 -0.47914,1.62956 -0.70991,2.304937 -0.40253,1.177892 -0.44009,1.236543 -0.92296,1.438545 -0.6303,0.263678 -0.85132,0.176357 -0.95856,-0.378694 z m 9.13821,1.579 c -0.963,-0.732844 -1.26975,-1.086379 -1.31361,-1.513972 -0.0548,-0.533716 0.0776,-0.67296 1.04955,-1.104143 0.51229,-0.227264 1.00283,-0.532165 1.0901,-0.677552 0.27698,-0.461407 1.12134,-0.923497 1.44621,-0.791453 0.16682,0.0678 0.35965,0.08238 0.42851,0.03239 0.24342,-0.176759 0.95314,0.08169 1.48436,0.54055 0.78122,0.674811 0.88956,0.985975 0.59411,1.706417 -0.30455,0.74263 -0.9138,1.328714 -1.7947,1.726481 -0.36085,0.162933 -0.75125,0.422667 -0.86757,0.577184 -0.23293,0.30945 -0.69041,0.407022 -1.07089,0.228433 -0.13528,-0.06347 -0.606,-0.389445 -1.04607,-0.724341 z m 1.73885,-0.918306 c 0.83601,-0.06016 2.03151,-0.839124 1.95648,-1.274791 -0.0597,-0.346754 -0.52894,-0.640852 -0.99065,-0.620912 -0.18999,0.0082 -0.65505,0.0167 -1.03349,0.01888 -0.37844,0.0022 -0.71206,0.06247 -0.74139,0.133989 -0.0293,0.07151 -0.24263,0.237186 -0.47401,0.368166 -0.56713,0.321034 -0.58604,0.427233 -0.15501,0.87031 0.49419,0.508012 0.64625,0.561342 1.43807,0.50436 z m -33.85451,-18.020829 c -0.25384,-0.89167 0.16137,-1.259318 0.99601,-0.881934 0.56984,0.257682 0.54343,0.660469 -0.078,1.188516 -0.48214,0.409706 -0.73853,0.324086 -0.91806,-0.306582 z"
       id="path870"
       inkscape:connector-curvature="0" />
  </g>
</svg>
