<?xml version="1.0" encoding="UTF-8" standalone="no"?>
<!-- Created with Inkscape (http://www.inkscape.org/) -->

<svg
   xmlns:dc="http://purl.org/dc/elements/1.1/"
   xmlns:cc="http://creativecommons.org/ns#"
   xmlns:rdf="http://www.w3.org/1999/02/22-rdf-syntax-ns#"
   xmlns:svg="http://www.w3.org/2000/svg"
   xmlns="http://www.w3.org/2000/svg"
   xmlns:sodipodi="http://sodipodi.sourceforge.net/DTD/sodipodi-0.dtd"
   xmlns:inkscape="http://www.inkscape.org/namespaces/inkscape"
   width="508mm"
   height="285.75mm"
   viewBox="0 0 508 285.75"
   version="1.1"
   id="svg1417"
   inkscape:version="0.92.2 (5c3e80d, 2017-08-06)"
   sodipodi:docname="overlay-usecases-gmain.svg">
  <defs
     id="defs1411" />
  <sodipodi:namedview
     id="base"
     pagecolor="#ffffff"
     bordercolor="#666666"
     borderopacity="1.0"
     inkscape:pageopacity="0.0"
     inkscape:pageshadow="2"
     inkscape:zoom="0.35355339"
     inkscape:cx="871.9359"
     inkscape:cy="62.948064"
     inkscape:document-units="mm"
     inkscape:current-layer="layer1"
     showgrid="false"
     fit-margin-top="0"
     fit-margin-left="0"
     fit-margin-right="0"
     fit-margin-bottom="0"
     inkscape:window-width="1920"
     inkscape:window-height="1016"
     inkscape:window-x="0"
     inkscape:window-y="27"
     inkscape:window-maximized="1"
     inkscape:snap-nodes="false" />
  <metadata
     id="metadata1414">
    <rdf:RDF>
      <cc:Work
         rdf:about="">
        <dc:format>image/svg+xml</dc:format>
        <dc:type
           rdf:resource="http://purl.org/dc/dcmitype/StillImage" />
        <dc:title></dc:title>
      </cc:Work>
    </rdf:RDF>
  </metadata>
  <g
     inkscape:label="Layer 1"
     inkscape:groupmode="layer"
     id="layer1"
     transform="translate(24.946428,-88.35714)">
    <g
       id="g2482"
       transform="matrix(0.43341105,-0.09797876,0.09797876,0.43341105,395.29032,194.5384)"
       style="stroke-width:2.25048923;fill:#ffffff">
      <path
         inkscape:connector-curvature="0"
         id="path2469"
         d="m -324.98392,204.50922 2.38125,-34.925 6.08541,-5.02708 7.14375,0.52917 2.38125,6.87916 23.28334,-1.85208 5.02708,-6.35 11.90625,-0.52917 8.73125,29.63334 -2.64584,7.9375 -6.34999,0.79375 -16.13959,-13.75834 -1.05833,-2.64583 -21.96042,1.5875 -5.29166,12.43542 -4.49792,5.55625 z"
         style="fill:#ffffff;fill-opacity:0.24705882;fill-rule:evenodd;stroke:#000000;stroke-width:0.59544194px;stroke-linecap:butt;stroke-linejoin:miter;stroke-opacity:1" />
      <path
         inkscape:connector-curvature="0"
         id="path1378"
         d="m -273.3109,161.2204 c -1.47294,-0.002 -2.28546,0.24225 -4.90811,1.21108 -1.67296,0.61803 -4.09574,2.29004 -3.86335,2.66603 0.0619,0.10007 -0.009,0.15652 -0.15798,0.12567 -0.14876,-0.0309 -0.27046,0.0789 -0.27046,0.24383 0,0.16495 -0.20678,0.52311 -0.45955,0.79583 -0.25275,0.27269 -0.45954,0.62574 -0.45954,0.78446 0,0.1589 -0.092,0.23187 -0.20433,0.16245 -0.11234,-0.0694 -0.20406,0.017 -0.20406,0.19208 0,0.17511 -0.18178,0.5001 -0.40389,0.72223 -0.22211,0.2221 -0.35479,0.53185 -0.29469,0.68842 0.13627,0.35514 -0.40958,0.92073 -1.00077,1.03696 -3.13499,0.61629 -9.25035,1.13284 -13.45759,1.1369 -1.09075,0.002 -2.89535,0.14626 -4.01026,0.32282 -1.11489,0.17661 -2.33647,0.2914 -2.71449,0.2552 -0.6721,-0.0643 -0.68843,-0.0883 -0.73688,-1.08693 -0.0904,-1.86332 -0.15236,-2.24419 -0.40989,-2.51643 -0.1404,-0.14845 -0.2552,-0.45319 -0.2552,-0.67736 0,-0.88808 -2.78849,-3.8435 -3.63179,-3.84929 -0.25626,-0.002 -0.51636,-0.13464 -0.57802,-0.29529 -0.16469,-0.42922 -1.0204,-0.66104 -2.62054,-0.70996 -0.7797,-0.0239 -1.46901,-0.0737 -1.53182,-0.111 -0.1965,-0.11677 -2.92259,0.50536 -3.57614,0.81617 -0.34256,0.16291 -0.76047,0.51425 -0.92897,0.78056 -0.1685,0.26634 -0.65692,0.95151 -1.08515,1.52285 -0.42819,0.57134 -0.76943,1.09237 -0.75843,1.15755 0.0109,0.0652 -0.12127,0.25952 -0.29379,0.43202 -0.17251,0.17253 -0.31354,0.44507 -0.31354,0.60554 0,0.16048 -0.0697,0.29171 -0.15469,0.29171 -0.2791,0 -0.64552,1.11106 -0.57262,1.73616 0.0393,0.337 -0.02,0.78483 -0.13196,0.99539 -0.11195,0.21054 -0.23481,0.57827 -0.27284,0.81706 -0.038,0.2388 -0.16351,0.80187 -0.27914,1.25119 -0.11567,0.44933 -0.26682,1.38835 -0.33569,2.08681 -0.0689,0.69844 -0.2346,1.75521 -0.36829,2.34859 -0.14514,0.64418 -0.18777,1.57291 -0.10591,2.30461 0.0754,0.674 0.0983,1.28886 0.0508,1.36667 -0.20012,0.32839 -0.36212,5.0537 -0.1795,5.23632 0.0487,0.0487 4.6e-4,0.25284 -0.10712,0.45386 -0.25754,0.48125 -0.36128,1.28273 -0.50143,3.86993 -0.0639,1.1795 -0.16062,2.65015 -0.21511,3.26798 -0.0545,0.61783 -0.13578,1.5966 -0.18071,2.17507 -0.0449,0.57846 -0.17338,1.22317 -0.28542,1.43249 -0.20522,0.38346 -0.51468,3.26338 -0.48677,4.52995 0.008,0.37548 0.14859,0.78907 0.31176,0.91909 0.44499,0.35461 1.30999,2.03565 1.20631,2.3444 -0.14337,0.42684 0.76626,1.24277 1.54946,1.3897 0.39285,0.0737 0.95272,0.26481 1.24401,0.42454 0.90843,0.49815 3.86501,0.22486 5.94208,-0.54929 2.07585,-0.77373 2.81081,-1.20537 3.56628,-2.0931 0.72888,-0.85653 2.56101,-3.62335 2.56101,-3.86784 0,-0.10283 0.21457,-0.41895 0.47719,-0.70219 0.26261,-0.28322 0.64041,-1.03739 0.83921,-1.67602 0.19884,-0.63863 0.4787,-1.29899 0.62201,-1.4675 0.44839,-0.52724 1.12523,-2.00635 1.12523,-2.45928 0,-0.23833 0.31593,-1.36791 0.70218,-2.51016 0.38625,-1.14222 0.76124,-2.55133 0.83353,-3.13125 0.18172,-1.45799 0.1594,-1.45108 6.63379,-2.02368 0.8425,-0.0745 1.7617,-0.1681 2.04253,-0.20793 0.28084,-0.0398 1.75148,-0.16787 3.26798,-0.28422 2.78915,-0.21401 6.89699,-0.7138 7.67317,-0.93376 0.49989,-0.14166 0.71506,0.0977 1.19284,1.32659 0.19403,0.49902 0.51786,1.05048 0.71954,1.22546 0.20168,0.17495 0.54002,0.64138 0.75185,1.03665 0.2118,0.39529 0.45427,0.73998 0.53852,0.76592 0.0843,0.026 0.15318,0.0931 0.15318,0.14929 0,0.0562 0.16065,0.27679 0.35723,0.49007 1.15831,1.25671 1.37863,1.53326 1.37863,1.73047 0,0.12016 0.20626,0.32131 0.45836,0.44698 0.25207,0.12569 0.39762,0.28929 0.32341,0.36352 -0.0742,0.0742 -0.0168,0.13492 0.12746,0.13492 0.14427,0 0.6091,0.34466 1.03308,0.76591 1.12607,1.11888 1.81205,1.685 2.04193,1.685 0.11147,0 0.20284,0.0763 0.20284,0.16964 0,0.0934 0.22651,0.29097 0.50352,0.4392 0.277,0.14827 0.44595,0.3633 0.37518,0.47781 -0.0777,0.12578 0.006,0.15659 0.21122,0.0778 0.2316,-0.0889 0.33988,-0.0241 0.33988,0.20344 0,0.18372 0.057,0.2769 0.12685,0.20705 0.0698,-0.0698 0.39935,0.14532 0.73211,0.47809 0.33274,0.33274 0.7034,0.54404 0.82365,0.46972 0.12379,-0.0765 0.1596,-0.0394 0.0826,0.0853 -0.0749,0.12109 0.16346,0.43053 0.52986,0.68781 0.36641,0.25729 0.69704,0.53999 0.73449,0.6283 0.0375,0.0883 0.15619,0.16065 0.26388,0.16065 0.21158,0 0.47873,0.20141 1.42232,1.07228 0.33471,0.30892 0.70955,0.56156 0.83323,0.56156 0.12366,0 0.42193,0.21265 0.66268,0.47242 0.24077,0.25981 0.95089,0.68512 1.5782,0.94512 1.08686,0.45047 1.23405,0.46166 3.12168,0.23905 2.24148,-0.26438 4.08668,-1.04059 4.77228,-2.00752 0.39417,-0.5559 1.0639,-2.29173 1.0639,-2.75757 0,-0.12924 0.17704,-0.42481 0.39343,-0.65671 0.60825,-0.6519 1.1009,-3.43698 0.83322,-4.71065 -0.11803,-0.56167 -0.26252,-1.29715 -0.32103,-1.63415 -0.17657,-1.01716 -1.2724,-6.18679 -1.66674,-7.86313 -0.0397,-0.1685 -0.10019,-0.69362 -0.13463,-1.16683 -0.0345,-0.47317 -0.15443,-0.97878 -0.26658,-1.12343 -0.19363,-0.24969 -0.69144,-1.8698 -0.70818,-2.3052 -0.004,-0.11233 -0.0808,-0.34221 -0.16992,-0.51071 -0.0891,-0.1685 -0.22319,-0.76297 -0.29799,-1.32089 -0.0748,-0.55794 -0.23455,-1.1334 -0.35514,-1.27872 -0.1206,-0.14529 -0.29922,-0.69961 -0.39701,-1.23202 -0.37358,-2.03376 -1.27465,-4.87581 -1.74753,-5.51248 -0.27115,-0.36508 -0.43172,-0.66389 -0.35693,-0.66389 0.0748,0 -0.0124,-0.22634 -0.19387,-0.50321 -0.18141,-0.27689 -0.3297,-0.73664 -0.3297,-1.02142 0,-0.2848 -0.0898,-0.51759 -0.19925,-0.51759 -0.10945,0 -0.33359,-0.25295 -0.49814,-0.56187 -0.16456,-0.30891 -0.58599,-0.83729 -0.93646,-1.17429 -0.35043,-0.33701 -0.84884,-0.81953 -1.10787,-1.07228 -0.259,-0.25275 -0.57705,-0.45955 -0.70666,-0.45955 -0.12961,0 -0.68759,-0.23646 -1.24013,-0.52536 -0.84393,-0.44129 -1.36145,-0.54204 -3.23566,-0.62978 -0.44063,-0.0206 -0.81584,-0.034 -1.15575,-0.0344 z m 1.56414,2.53707 c 1.84606,-0.005 2.10229,0.0747 3.16895,0.57293 0.69808,0.32613 1.22308,0.6678 1.16651,0.75934 -0.0566,0.0916 0.1765,0.45863 0.5179,0.81586 0.34141,0.35727 0.6208,0.5724 0.6208,0.4781 0,-0.0943 0.12959,0.006 0.28812,0.2229 0.15853,0.21683 0.24654,0.46161 0.19565,0.54391 -0.0509,0.0823 0.0448,0.3589 0.21242,0.61483 0.16771,0.25591 0.3101,0.53388 0.31625,0.61782 0.006,0.0839 0.28703,0.72201 0.62409,1.41782 0.36824,0.7602 0.56598,1.43291 0.49574,1.6856 -0.0935,0.3365 -0.0741,0.35944 0.096,0.11428 0.15556,-0.22414 0.19174,-0.0106 0.13552,0.79614 -0.0482,0.69089 -0.009,0.99603 0.10412,0.81707 0.21077,-0.33293 0.21246,-0.32335 0.2923,1.52583 0.0285,0.65939 0.13138,1.25669 0.22858,1.32748 0.20621,0.15021 0.33617,0.57425 0.35273,1.15006 0.006,0.22467 0.19923,0.56619 0.42844,0.75903 0.2292,0.19285 0.31224,0.35405 0.1843,0.35753 -0.30664,0.009 -0.24689,0.67631 0.0793,0.88498 0.14043,0.0898 0.25551,0.38832 0.25551,0.66359 0,0.27526 0.0974,0.50054 0.21631,0.50054 0.11899,0 0.15882,0.0926 0.0889,0.20583 -0.07,0.11319 0.0226,0.35557 0.20554,0.53853 0.24852,0.24851 0.29886,0.53208 0.19926,1.12164 -0.0805,0.47629 -0.0529,0.78924 0.0697,0.78924 0.11167,0 0.15779,0.17338 0.10233,0.38537 -0.0555,0.212 -0.002,0.44718 0.12116,0.52267 0.3186,0.1969 0.28682,0.98693 -0.0332,0.82483 -0.14043,-0.0711 -0.0827,0.0112 0.12835,0.18281 0.24159,0.19657 0.34341,0.46705 0.27463,0.73 -0.0601,0.2297 -0.0261,0.46905 0.0757,0.53196 0.10177,0.0629 0.1852,0.52788 0.1852,1.03338 0,0.51524 0.0834,0.86738 0.18997,0.80151 0.10458,-0.0646 0.25679,-0.01 0.33807,0.12177 0.0923,0.14932 0.0593,0.18435 -0.088,0.0933 -0.12969,-0.0802 -0.23606,-0.0537 -0.23606,0.0586 0,0.11233 0.0885,0.25876 0.19657,0.32551 0.12493,0.0776 0.12514,0.3072 0,0.63637 -0.12921,0.33974 -0.12653,0.47224 0.008,0.38924 0.11201,-0.0692 0.20375,-0.0339 0.20375,0.0784 0,0.11234 -0.0834,0.25573 -0.1852,0.31863 -0.19948,0.12328 -0.0692,0.89271 0.21273,1.25628 0.0951,0.12266 0.10768,0.28813 0.0279,0.36799 -0.0799,0.0798 0.0167,0.0831 0.21451,0.007 0.34183,-0.13118 0.34226,-0.094 0.0123,0.75514 -0.19089,0.49121 -0.43522,1.00754 -0.54302,1.14737 -0.10784,0.13981 -0.14382,0.45339 -0.0802,0.69681 0.0637,0.24342 0.0193,0.62273 -0.0984,0.84279 -0.11778,0.22006 -0.12944,0.34743 -0.0257,0.28332 0.1038,-0.0641 0.19521,0.29281 0.20313,0.79375 0.008,0.50061 -0.0591,0.95572 -0.14898,1.01123 -0.0899,0.0556 -0.11662,0.27952 -0.0595,0.49784 0.12335,0.47175 -0.91549,1.61502 -1.94649,2.14216 -1.08866,0.55668 -3.00941,0.78936 -4.20951,0.50981 -0.98492,-0.22944 -1.49308,-0.53084 -2.87097,-1.70296 -0.337,-0.28665 -0.71022,-0.60254 -0.82964,-0.70188 -0.1194,-0.0993 -0.44127,-0.29738 -0.71505,-0.44009 -0.27373,-0.14272 -0.77646,-0.54585 -1.11714,-0.89576 -0.34067,-0.34989 -0.89213,-0.84534 -1.22546,-1.101 -3.33947,-2.56156 -3.09543,-2.35102 -6.97426,-6.02435 -0.68465,-0.64837 -1.35311,-1.44027 -1.48546,-1.75981 -0.13236,-0.31954 -0.4526,-0.69408 -0.71145,-0.83264 -0.37214,-0.19915 -0.49378,-0.47803 -0.58191,-1.33196 -0.1414,-1.36989 -0.60018,-2.25896 -1.37116,-2.65764 -0.5428,-0.28051 -0.84438,-0.28126 -2.90687,-0.005 -1.26576,0.16926 -2.80692,0.40187 -3.42476,0.51699 -1.51285,0.28182 -6.95443,0.8016 -8.47617,0.80957 -0.674,0.003 -1.93527,0.14219 -2.80276,0.30816 -0.86746,0.16602 -2.46115,0.36414 -3.54173,0.44011 -1.78958,0.12579 -1.9838,0.18 -2.18015,0.61094 -0.1478,0.32425 -0.14971,0.55536 -0.006,0.73449 0.322,0.40126 0.1836,2.6258 -0.21003,3.37628 -0.19149,0.36508 -0.48347,0.92649 -0.64894,1.24759 -0.16545,0.3211 -0.34041,0.89533 -0.38893,1.27633 -0.12248,0.96226 -0.2074,1.28866 -0.36619,1.40944 -0.0752,0.0573 -0.16725,0.23455 -0.20435,0.39403 -0.037,0.15948 -0.20027,0.45452 -0.36261,0.65551 -0.16234,0.20099 -0.32919,0.6206 -0.37099,0.93256 -0.0819,0.61163 -0.89711,2.1433 -2.09638,3.93905 -0.41261,0.61784 -0.91236,1.46811 -1.11057,1.88935 -0.1982,0.42126 -0.4448,0.7659 -0.54812,0.7659 -0.10332,0 -0.43775,0.25266 -0.74316,0.56157 -0.65764,0.66521 -2.41271,1.52954 -3.7742,1.85854 -1.16144,0.28067 -1.18943,0.28141 -1.5773,0.0362 -0.16755,-0.10596 -0.50776,-0.14159 -0.75603,-0.0793 -0.24828,0.0623 -0.89711,-0.0348 -1.44177,-0.21571 -0.92491,-0.3072 -1.01095,-0.39574 -1.30145,-1.34244 -0.17247,-0.56194 -0.23749,-1.12947 -0.14601,-1.27362 0.28642,-0.45127 0.19287,-2.48726 -0.13583,-2.95653 -0.1999,-0.28529 -0.27143,-0.71132 -0.20554,-1.21977 0.0557,-0.42976 0.14886,-1.42494 0.20704,-2.21127 0.0582,-0.78634 0.1483,-1.79723 0.20046,-2.24658 0.0522,-0.44932 0.14007,-1.50638 0.19537,-2.34888 0.20463,-3.11688 0.35929,-5.14723 0.43261,-5.6809 0.0415,-0.30165 0.12644,-2.11076 0.18878,-4.02043 0.0624,-1.90966 0.20069,-3.88592 0.30727,-4.39141 0.10657,-0.50551 0.24866,-1.28653 0.31594,-1.73587 0.50941,-3.40207 1.17697,-5.67472 2.00572,-6.82826 0.40943,-0.56991 0.74437,-1.09268 0.74437,-1.16173 0,-0.33749 1.76251,-1.77514 2.4916,-2.03236 1.05212,-0.37128 3.85079,-0.37936 4.71454,-0.0138 0.3615,0.15301 0.83225,0.47459 1.04626,0.71476 0.21398,0.24016 0.48096,0.4368 0.59327,0.4368 0.33018,0 1.80121,1.64725 1.89204,2.11883 0.0458,0.23794 0.15308,0.45576 0.23845,0.48407 0.19901,0.066 0.0698,2.34537 -0.14571,2.57119 -0.28735,0.30105 0.0348,0.97847 0.56008,1.17819 0.47641,0.18114 0.48781,0.21785 0.17622,0.56216 -0.64808,0.71617 -0.42675,0.85707 1.14736,0.7306 0.81442,-0.0654 1.94041,-0.2041 2.50208,-0.30816 1.23094,-0.22809 3.09386,-0.33222 8.88455,-0.49604 2.41518,-0.0683 4.89673,-0.20636 5.51456,-0.30666 0.95691,-0.15534 2.32018,-0.30822 6.28404,-0.70488 1.00319,-0.10038 1.22932,-0.38893 1.15665,-1.47588 -0.053,-0.79295 0.0603,-1.15987 0.68424,-2.21455 0.41123,-0.69527 0.89951,-1.34604 1.08483,-1.44625 0.18533,-0.10019 0.97943,-0.61857 1.76488,-1.15217 0.78544,-0.53357 1.54485,-0.97025 1.6874,-0.97025 0.14256,0 0.57435,-0.195 0.95979,-0.43321 0.61778,-0.38181 1.03191,-0.43622 3.49624,-0.45955 0.33561,-0.003 0.63204,-0.006 0.89576,-0.006 z m -1.41156,3.43074 c -0.26578,0.002 -0.62237,0.11578 -1.25747,0.37099 -1.30073,0.52268 -2.47842,1.30661 -2.47842,1.6497 0,0.11123 -0.16066,0.33432 -0.35724,0.49545 -0.19657,0.16104 -0.25166,0.24014 -0.12236,0.17592 0.15637,-0.0777 0.2283,0.12251 0.21481,0.59776 -0.0112,0.39292 -0.0939,0.71445 -0.18399,0.71445 -0.0901,0 -0.16397,0.0971 -0.16397,0.21602 0,0.11896 0.092,0.15977 0.20435,0.0904 0.2648,-0.16366 0.25911,0.0263 -0.0161,0.54062 -0.17904,0.33455 -0.11766,0.56019 0.32699,1.20182 0.48554,0.70061 0.65455,0.7967 1.49682,0.85117 1.64721,0.10654 3.04379,-0.16629 3.70659,-0.72401 0.33598,-0.2827 0.78119,-0.56788 0.98941,-0.63397 0.5337,-0.16941 0.84907,-0.98071 0.84907,-2.18404 0,-1.23012 -0.4982,-2.04552 -1.60212,-2.62265 -0.41069,-0.2147 -0.94417,-0.49759 -1.18536,-0.62858 -0.13479,-0.0732 -0.2615,-0.11219 -0.42096,-0.111 z m -0.35662,2.45481 c 0.14592,0.002 0.29527,0.01 0.44638,0.0278 0.53573,0.0631 1.09472,0.23362 1.24221,0.37877 0.43033,0.42351 -0.56765,1.44957 -1.68321,1.73046 -1.42745,0.35944 -2.43952,0.20486 -2.28606,-0.34915 0.0519,-0.18744 0.15657,-0.55585 0.23247,-0.81886 0.1696,-0.58765 1.02672,-0.97644 2.04821,-0.96904 z m -41.68016,3.18779 c -0.4071,-0.009 -0.89039,0.79158 -0.82306,1.36309 0.0371,0.31492 0.0855,0.57262 0.10771,0.57262 0.11397,0 0.12298,0.9344 0.0108,1.11597 -0.11444,0.18516 -1.86212,0.61054 -2.93798,0.71505 -0.50046,0.0486 -1.12269,0.88992 -1.00137,1.35381 0.12014,0.4595 0.9819,0.66075 2.75219,0.64234 1.19575,-0.0124 1.38658,0.0376 1.49921,0.39252 0.071,0.22369 0.078,0.45783 0.0156,0.52029 -0.0625,0.0625 -0.0164,0.29503 0.10233,0.51699 0.15239,0.28521 0.15125,0.46837 -0.005,0.62409 -0.15767,0.15767 -0.12495,0.32557 0.11489,0.5906 0.4006,0.44264 0.27299,0.43468 1.1408,0.0721 0.57251,-0.23921 0.71482,-0.41137 0.71713,-0.86793 0.002,-0.31327 -0.0896,-0.6841 -0.20284,-0.82395 -0.14255,-0.17604 -0.107,-0.40511 0.11548,-0.74468 0.2574,-0.39284 0.56785,-0.51928 1.55875,-0.63427 0.92562,-0.10742 1.3136,-0.25276 1.54079,-0.57712 0.43981,-0.6279 0.37641,-1.0229 -0.25193,-1.56922 -0.44681,-0.38852 -0.79667,-0.48575 -1.78701,-0.49634 l -1.23143,-0.0131 -0.11399,-0.9906 c -0.10947,-0.95311 -0.70613,-1.74892 -1.32149,-1.76219 z m 36.73944,1.08633 c -0.78135,-0.004 -3.95311,1.88464 -3.95311,2.41143 0,0.10926 0.0689,0.15557 0.15318,0.10352 0.0843,-0.052 0.14775,0.55415 0.14121,1.34722 -0.01,1.20709 0.0605,1.51989 0.43202,1.92076 0.2441,0.26337 0.62895,0.47899 0.85508,0.47899 0.22611,0 0.51593,0.12645 0.64414,0.28094 0.44412,0.53512 1.80617,0.5812 3.15698,0.10681 0.69047,-0.24249 1.50345,-0.56685 1.80676,-0.72074 0.74255,-0.37666 1.4829,-0.35284 1.82353,0.0589 0.15416,0.1864 0.71157,0.53924 1.23892,0.78387 1.5201,0.70514 3.89862,0.42134 5.1687,-0.61662 0.59863,-0.48919 0.61213,-0.54083 0.58699,-2.24627 -0.0206,-1.39473 -0.10289,-1.83119 -0.40868,-2.17089 -0.5248,-0.58296 -2.33157,-1.5992 -2.84764,-1.60153 -0.67098,-0.003 -2.49092,0.592 -2.82129,0.92238 -0.16571,0.16572 -0.38359,0.30128 -0.48439,0.30128 -0.10076,0 -0.39916,0.22988 -0.66298,0.51071 -0.53131,0.56558 -1.02112,0.66962 -1.02112,0.21691 0,-0.16152 -0.41358,-0.59078 -0.91909,-0.95379 -0.5055,-0.36303 -0.91909,-0.72125 -0.91909,-0.79613 0,-0.0749 -0.37594,-0.1511 -0.83532,-0.16904 -0.4594,-0.018 -0.91472,-0.0818 -1.01184,-0.14181 -0.0292,-0.0181 -0.0709,-0.0267 -0.12296,-0.0269 z m 7.63905,2.25705 c 0.0719,-0.006 0.13901,0.006 0.20405,0.0347 0.19601,0.0867 0.60898,0.14593 0.91789,0.13162 0.30892,-0.0141 0.56187,0.051 0.56187,0.14481 0,0.0938 0.27572,0.22551 0.61273,0.29291 1.23924,0.24785 0.50326,1.625 -1.04595,1.95725 -1.45428,0.3119 -2.11075,0.27087 -2.49668,-0.15557 -0.50878,-0.56217 -0.41287,-1.02201 0.37787,-1.81275 0.3919,-0.39192 0.65252,-0.57462 0.86822,-0.59299 z m -7.63396,0.3635 c 0.77283,-0.003 1.61504,0.0751 1.87168,0.17264 0.62521,0.23769 0.81125,0.90039 0.41258,1.46958 -0.17571,0.25086 -0.31923,0.39191 -0.31923,0.31355 0,-0.0784 -0.24869,-0.0481 -0.55228,0.0673 -0.9405,0.35756 -2.17443,0.39692 -2.71749,0.0868 -0.2799,-0.15986 -0.71572,-0.40075 -0.96847,-0.53554 -0.61041,-0.32561 -0.58179,-0.47498 0.20435,-1.06839 0.55303,-0.41745 0.89823,-0.50187 2.06886,-0.50593 z m 18.78723,14.12836 c 0.0186,0.003 0.0408,0.0343 0.0652,0.0954 0.059,0.14743 0.0517,0.32345 -0.0161,0.39133 -0.0679,0.0679 -0.11621,-0.0527 -0.10742,-0.26807 0.006,-0.14871 0.0274,-0.22339 0.0584,-0.2187 z"
         style="fill:#ffffff;fill-opacity:1;stroke:none;stroke-width:2.25048923" />
    </g>
  </g>
</svg>
