<?xml version="1.0" encoding="UTF-8" standalone="no"?>
<svg
   xmlns:dc="http://purl.org/dc/elements/1.1/"
   xmlns:cc="http://creativecommons.org/ns#"
   xmlns:rdf="http://www.w3.org/1999/02/22-rdf-syntax-ns#"
   xmlns:svg="http://www.w3.org/2000/svg"
   xmlns="http://www.w3.org/2000/svg"
   xmlns:sodipodi="http://sodipodi.sourceforge.net/DTD/sodipodi-0.dtd"
   xmlns:inkscape="http://www.inkscape.org/namespaces/inkscape"
   id="svg1140"
   version="1.1"
   viewBox="0 0 105.85444 100.70863"
   height="100.70863mm"
   width="105.85444mm"
   sodipodi:docname="pinwheel-standalone.svg"
   inkscape:version="0.92.2 (5c3e80d, 2017-08-06)">
  <sodipodi:namedview
     pagecolor="#ffffff"
     bordercolor="#666666"
     borderopacity="1"
     objecttolerance="10"
     gridtolerance="10"
     guidetolerance="10"
     inkscape:pageopacity="0"
     inkscape:pageshadow="2"
     inkscape:window-width="1920"
     inkscape:window-height="1016"
     id="namedview21"
     showgrid="false"
     fit-margin-top="0"
     fit-margin-left="0"
     fit-margin-right="0"
     fit-margin-bottom="0"
     inkscape:zoom="1.1611014"
     inkscape:cx="81.300602"
     inkscape:cy="189.18472"
     inkscape:window-x="0"
     inkscape:window-y="27"
     inkscape:window-maximized="1"
     inkscape:current-layer="svg1140" />
  <defs
     id="defs1134" />
  <metadata
     id="metadata1137">
    <rdf:RDF>
      <cc:Work
         rdf:about="">
        <dc:format>image/svg+xml</dc:format>
        <dc:type
           rdf:resource="http://purl.org/dc/dcmitype/StillImage" />
        <dc:title></dc:title>
      </cc:Work>
    </rdf:RDF>
  </metadata>
  <g
     id="g1077"
     transform="matrix(0.34512479,0,0,0.34512479,30.494771,-47.176481)"
     style="stroke-width:2.89750266">
    <g
       id="g1064"
       style="stroke-width:2.89750266">
      <path
         inkscape:connector-curvature="0"
         style="opacity:1;vector-effect:none;fill:#654ff0;fill-opacity:1;stroke:#654ff0;stroke-width:14.48751354;stroke-linejoin:round;stroke-miterlimit:4;stroke-dasharray:none;stroke-opacity:1"
         d="m 121.63014,1072.1058 c -6.59376,-20.1586 -17.65406,-59.6272 -19.51607,-69.6428 -1.09554,-5.89289 -3.619332,-16.13117 -5.608431,-22.75178 -6.474499,-21.55001 -4.250988,-23.91683 5.594781,-5.95539 3.49061,6.36785 12.20994,17.32461 24.19445,30.40287 17.74969,19.3696 19.41993,20.7859 31.69506,26.8757 7.12689,3.5357 17.57033,9.7307 23.20765,13.7666 5.63732,4.0359 16.03837,10.0889 23.11345,13.4512 7.07508,3.3622 12.86378,6.6371 12.86378,7.2776 0,1.4169 -1.33968,1.7374 -26.02769,6.2265 -10.77952,1.9601 -21.70809,3.5723 -24.28572,3.5826 -2.57762,0.01 -10.79373,1.2876 -18.25802,2.8384 -7.46429,1.5507 -15.92973,2.828 -18.8121,2.8383 -5.16879,0.019 -5.28073,-0.1037 -8.16114,-8.9098 z"
         id="path1052"
         transform="scale(0.26458333)" />
      <path
         inkscape:connector-curvature="0"
         style="opacity:1;vector-effect:none;fill:#654ff0;fill-opacity:1;stroke:#654ff0;stroke-width:14.48751354;stroke-linejoin:round;stroke-miterlimit:4;stroke-dasharray:none;stroke-opacity:1"
         d="m 260.23797,974.10559 c 0.34104,-13.98298 1.11619,-21.936 2.27398,-23.33104 0.9661,-1.16409 5.33304,-3.33221 9.7043,-4.81804 7.93145,-2.69599 7.97385,-2.69484 20.6772,0.55922 7.0012,1.79342 19.02506,3.90233 26.71969,4.68647 7.69463,0.78415 14.49328,1.92379 15.10812,2.53255 0.61483,0.60876 -8.53234,5.70034 -20.32705,11.31464 -11.7947,5.6143 -24.83346,12.60682 -28.97502,15.53893 -15.84488,11.21778 -21.46081,14.73179 -23.54364,14.73179 -1.84745,0 -2.08116,-3.02772 -1.63758,-21.21452 z"
         id="path1054"
         transform="scale(0.26458333)" />
      <path
         inkscape:connector-curvature="0"
         style="opacity:1;vector-effect:none;fill:#654ff0;fill-opacity:1;stroke:#654ff0;stroke-width:14.48751354;stroke-linejoin:round;stroke-miterlimit:4;stroke-dasharray:none;stroke-opacity:1"
         d="m 354.8375,1161.2012 c -16.1231,-29.7941 -31.84886,-52.6224 -46.35623,-67.293 -7.78998,-7.8776 -14.1636,-14.5898 -14.1636,-14.916 0,-2.0687 31.39262,-9.846 46.92158,-11.6245 9.94313,-1.1388 19.84627,-2.4378 22.00699,-2.8868 l 3.92857,-0.8164 0.0341,11.185 c 0.0187,6.1517 0.57231,13.4999 1.23015,16.3293 1.17811,5.0672 0.0365,25.3259 -2.6887,47.7127 -0.76518,6.2858 -1.74835,14.3954 -2.18484,18.0214 -0.43649,3.6261 -1.65832,7.7754 -2.71518,9.2207 -1.7697,2.4203 -2.24488,2.0305 -6.01282,-4.9324 z"
         id="path1056"
         transform="scale(0.26458333)" />
      <path
         inkscape:connector-curvature="0"
         style="opacity:1;vector-effect:none;fill:#654ff0;fill-opacity:1;stroke:#654ff0;stroke-width:14.48751354;stroke-linejoin:round;stroke-miterlimit:4;stroke-dasharray:none;stroke-opacity:1"
         d="m 157.17481,1188.6038 c 9.38677,-7.1856 37.35017,-35.4013 48.8833,-49.3242 12.02916,-14.5219 20.81752,-26.892 27.67866,-38.9595 l 4.06118,-7.1428 1.66187,22.1428 c 0.91403,12.1786 1.99408,29.9124 2.40011,39.4085 l 0.73825,17.2656 -4.4974,1.5787 c -2.47357,0.8684 -8.67597,2.3007 -13.78311,3.1829 -5.10715,0.8823 -13.34381,2.8403 -18.30371,4.3511 -11.62016,3.5396 -46.57451,11.3608 -50.68104,11.3402 -2.8054,-0.014 -2.59969,-0.4433 1.84189,-3.8433 z"
         id="path1058"
         transform="scale(0.26458333)" />
    </g>
    <g
       transform="matrix(1.0264837,0,0,1.0264595,-1.5373134,-7.2644028)"
       style="stroke-width:3.73430157;stroke-miterlimit:4;stroke-dasharray:none"
       id="g1050">
      <path
         inkscape:connector-curvature="0"
         style="opacity:1;vector-effect:none;fill:#f7df1e;fill-opacity:1;stroke:#f7df1e;stroke-width:14.11389542;stroke-linejoin:round;stroke-miterlimit:4;stroke-dasharray:none;stroke-opacity:1"
         d="M 210.89249,1035.94 C 154.68631,1005.8119 133.0854,986.15933 115.36458,949.0287 92.189355,900.46939 96.459203,823.97916 125.49825,767.49373 c 38.62939,-75.14013 50.43554,-96.021 66.04017,-116.80147 9.72108,-12.94545 18.68983,-27.49672 19.93056,-32.33618 2.28035,-8.89446 12.74162,-15.66818 17.25718,-11.1741 1.34867,1.34225 2.85922,28.2046 3.35679,59.69411 0.49755,31.4895 2.9555,119.71751 5.46209,196.06223 4.32932,131.86035 4.18624,139.49788 -2.85824,152.57868 -6.28422,11.6691 -6.61252,15.0562 -2.15168,22.1992 2.89521,4.6359 4.64623,9.0468 3.89115,9.8019 -0.75509,0.755 -12.24529,-4.4551 -25.53378,-11.5781 z"
         id="path1038"
         transform="scale(0.26458333)" />
      <path
         inkscape:connector-curvature="0"
         style="opacity:1;vector-effect:none;fill:#f7df1e;fill-opacity:1;stroke:#f7df1e;stroke-width:14.11389542;stroke-linejoin:round;stroke-miterlimit:4;stroke-dasharray:none;stroke-opacity:1"
         d="m 272.59455,1054.1812 c -10.16195,-1.1692 -11.11168,-2.7341 -11.11168,-18.3081 v -17.0297 l 35.35534,-20.52831 c 56.06161,-32.551 84.54303,-41.07492 148.83377,-44.54301 48.45588,-2.61389 59.47029,-0.50095 98.6536,18.92514 39.75752,19.71076 49.02135,24.98654 47.15372,26.85417 -3.93843,3.93841 -67.07829,17.62261 -99.68165,21.60381 -37.2071,4.5434 -113.74553,16.8311 -171.72593,27.5694 -20.00102,3.7044 -41.36575,6.1598 -47.47717,5.4566 z"
         id="path1040"
         transform="scale(0.26458333)" />
      <path
         inkscape:connector-curvature="0"
         style="opacity:1;vector-effect:none;fill:#f7df1e;fill-opacity:1;stroke:#f7df1e;stroke-width:14.11389542;stroke-linejoin:round;stroke-miterlimit:4;stroke-dasharray:none;stroke-opacity:1"
         d="m 273.4364,1467.2653 c -0.0926,-2.0372 -1.03725,-43.7059 -2.09928,-92.5973 -1.06204,-48.8914 -3.71372,-124.904 -5.89262,-168.917 -5.10736,-103.1668 -5.0309,-115.946 0.69371,-115.946 9.87421,0 38.54109,26.5438 51.96812,48.1193 36.24183,58.236 52.3468,116.1858 44.1071,158.7084 -4.39742,22.6938 -29.26992,80.9338 -41.61166,97.4355 -5.31654,7.1086 -17.31654,26.5617 -26.66666,43.2292 -18.47909,32.9409 -20.24623,35.5243 -20.49871,29.9679 z"
         id="path1042"
         transform="scale(0.26458333)" />
      <path
         inkscape:connector-curvature="0"
         style="opacity:1;vector-effect:none;fill:#f7df1e;fill-opacity:1;stroke:#f7df1e;stroke-width:14.11389542;stroke-linejoin:round;stroke-miterlimit:4;stroke-dasharray:none;stroke-opacity:1"
         d="m -15.594074,1190.631 c -13.496341,-1.7628 -35.427432,-7.6295 -48.735751,-13.0372 -13.308324,-5.4076 -31.273681,-11.1597 -39.923015,-12.7823 -16.56058,-3.1068 -44.28331,-15.7743 -48.12476,-21.9899 -3.36242,-5.4405 10.58932,-7.9119 70.694,-12.5229 85.7662467,-6.5797 183.74324,-20.3097 229.90514,-32.2177 7.84651,-2.0241 26.75499,-4.9491 42.01885,-6.5001 l 27.75246,-2.8198 -20.81007,26.4803 c -43.14218,54.8974 -68.6102,69.0479 -135.710115,75.403 -24.445691,2.3153 -46.264986,3.9806 -48.487322,3.7007 -2.222335,-0.28 -15.0830722,-1.9513 -28.579417,-3.7141 z"
         id="path1044"
         transform="scale(0.26458333)" />
    </g>
    <path
       style="fill:#0e232e;fill-opacity:1;stroke-width:2.89750266"
       d="m 63.232562,147.72431 c -9.741644,5.19867 -14.082313,15.53531 -20.425627,23.98924 -4.67193,9.10377 -8.691513,18.41398 -13.724744,27.33993 -5.835579,10.40851 -6.13272,23.20209 -10.134378,33.95633 0.756433,11.50498 0.302839,22.66764 3.595758,33.68915 1.021731,9.02125 11.572736,25.12768 -5.289599,22.51697 -13.6225907,2.45308 -27.384396,3.88855 -41.147575,5.4912 -6.837558,1.55595 -29.800588,-1.79124 -23.736837,8.94513 8.360201,8.51942 20.439862,9.82856 31.193962,13.75833 11.6072062,5.86861 25.0443452,2.76644 37.447168,5.16753 11.618158,1.34331 23.463487,-1.7029 34.35188,-4.20381 14.46421,-7.42238 8.806579,13.64153 10.00371,22.01603 1.595267,8.29828 -0.253025,19.50594 0.856402,28.92754 1.233734,10.76532 -1.770843,22.66375 0.0056,32.62969 8.951547,0.52793 12.849052,-15.07584 18.091345,-21.94599 7.275906,-9.09001 11.789547,-19.56887 15.824361,-30.37355 4.66246,-10.31113 -0.0345,-21.58243 0.67767,-32.4047 -0.861499,-10.43858 1.6575,-20.80306 1.07184,-31.29034 -0.6867,-11.1651 17.34542,-6.27163 24.62302,-9.06673 11.9809,-2.23683 24.32094,-3.62273 35.9851,-7.27686 8.86403,-8.14796 -6.63072,-11.62242 -13.17478,-15.99296 -12.28766,-7.61317 -27.1143,-8.25018 -41.05619,-6.25881 -10.268221,2.98119 -20.677169,-0.40111 -31.044621,-2.16214 -15.447499,6.19725 -7.308861,-15.70818 -9.979308,-24.24017 -0.611725,-12.44316 1.567293,-24.70446 -1.520723,-36.90786 0.626749,-10.5813 1.702418,-20.62939 -0.222973,-31.22175 0.31209,-2.33771 0.742638,-4.46355 -2.270473,-5.0814 z m -3.176035,11.03241 c 5.137019,10.74782 0.141439,23.12055 1.980295,34.59862 1.285772,19.38137 0.409528,38.90405 2.023206,58.29856 2.205833,8.00984 -3.06389,16.60906 -1.957627,22.95878 2.194234,7.77065 -12.360341,-4.23915 -16.532839,-5.91333 -9.259115,-5.47729 -16.197256,-14.34366 -18.50345,-24.97 -4.038195,-17.77993 1.815771,-36.37527 11.327211,-51.40203 3.955617,-11.20747 12.626959,-19.763 17.643298,-30.22507 0.643157,-1.64376 2.871515,-2.10089 4.019906,-3.34553 z m 14.299904,90.85801 c 5.714658,1.6127 21.376903,1.75352 8.454177,6.19647 -5.389504,0.42812 -16.934319,14.96241 -14.127234,1.14233 -0.533533,-4.19757 0.727035,-7.58095 5.673057,-7.3388 z m 49.949399,1.68827 c 11.98965,-0.26535 22.27162,6.83665 32.46242,12.1482 -5.02874,5.67687 -22.82395,6.3087 -32.97556,8.13324 -13.56611,1.40659 -26.846512,4.63502 -40.376956,6.36217 -8.343728,5.31154 -21.12456,-0.75934 -12.524726,-9.91544 9.852406,-6.20357 20.013026,-12.70423 31.824202,-14.27818 6.87195,-2.27303 14.38405,-2.4892 21.59062,-2.44999 z m -99.517434,2.6076 c 5.372003,8.99969 12.537824,17.29072 22.178045,21.62229 4.525046,3.5473 17.348542,7.5605 4.073186,8.07459 -8.726869,0.95364 -21.553714,7.24182 -21.077383,-6.80686 -2.041409,-7.46926 -4.796856,-15.34352 -5.173848,-22.89002 z m 72.143401,27.34407 c 1.188825,8.86714 1.289006,19.33967 -1.760154,27.86608 -5.153056,-8.16162 -10.462909,-17.23748 -17.47203,-23.8157 6.121827,-2.82791 12.727398,-2.89073 19.232184,-4.05038 z m -26.651603,5.96294 c 8.900244,4.02733 13.962549,12.23059 18.529101,20.52847 5.022693,9.24916 7.924118,18.9443 8.213584,29.44645 -0.844334,12.61175 -6.818642,24.68929 -13.909338,34.91772 -4.04549,4.23662 -6.955738,16.92736 -11.268573,16.31194 -1.103664,-22.74134 0.03988,-45.70216 -2.377257,-68.40834 1.93215,-10.5924 -3.724704,-23.69898 0.532908,-32.76007 l 0.27957,-0.0362 z m -14.450798,0.3297 c 2.586948,5.32443 -10.651788,15.8607 -15.834272,21.0706 -12.756998,8.70449 -29.118532,7.84122 -43.9078176,7.15871 -11.7457914,-2.87848 -23.4588144,-6.5573 -34.6102894,-11.06599 -11.595985,-7.21047 10.389153,-4.12416 14.949828,-5.92863 16.3400576,-1.15283 32.6746965,-2.79654 48.735132,-6.09426 9.48321,-1.23626 18.647681,-3.53934 28.062019,-5.00212 l 2.6054,-0.13827 z m 7.069336,1.77612 c -0.04244,6.45389 3.290795,16.17362 0.173836,21.34901 -5.362034,0.10246 -22.278302,7.68007 -21.036129,3.19469 8.1521,-7.04465 15.423874,-15.28363 20.862293,-24.5437 z"
       id="path826"
       inkscape:connector-curvature="0" />
  </g>
</svg>
