<?xml version="1.0" encoding="UTF-8"?>
<svg width="107.15mm" height="55.453mm" version="1.1" viewBox="0 0 107.15071 55.452618" xmlns="http://www.w3.org/2000/svg">
<g transform="translate(-41.675 -79.53)">
<path transform="matrix(.26458 0 0 .26458 41.675 79.53)" d="m128.76 0v143.49h143.49v-143.49h-55.32c0.02683 0.25334 0.02734 0.52011 0.02734 0.77344 0 9.0933-7.3731 16.453-16.453 16.453-9.092 0-16.455-7.3598-16.455-16.453 0-0.25334 0.00133-0.5201 0.02929-0.77344h-55.322zm33.279 77.334h9.5078l6.5059 34.586h0.12109l7.8398-34.586h8.8926l7.041 35.012h0.13476l7.4121-35.012h9.3184l-12.105 50.799h-9.4394l-7-34.572h-0.12109l-7.5332 34.572h-9.627l-10.947-50.799zm67.494 0h15l14.947 50.799h-9.8672l-3.2402-11.307h-17.08l-2.4922 11.307h-9.5605l12.293-50.799zm5.7207 12.52l-4.1465 18.652h12.904l-4.7578-18.652h-4zm-64.893 83.627c-3.8069 0-6.7973 0.88681-8.9727 2.6582-2.1598 1.7714-3.2402 4.1949-3.2402 7.2715 0 2.6571 0.78412 4.731 2.3535 6.2226 1.5694 1.4917 4.1113 2.5879 7.623 3.2871l2.8652 0.5586c2.3929 0.48169 4.1113 1.2046 5.1523 2.168 1.0566 0.96339 1.584 2.3005 1.584 4.0098 0 1.9579-0.73079 3.4649-2.1914 4.5215-1.4606 1.0566-3.5345 1.584-6.2227 1.584-1.7714 0-3.5727-0.27061-5.4062-0.81445-1.8335-0.54385-3.7059-1.3536-5.6172-2.4258v4.8496c1.9889 0.73032 3.9068 1.2814 5.7559 1.6543 1.8646 0.37293 3.6205 0.55859 5.2676 0.55859 4.3663 0 7.6766-0.86905 9.9297-2.6094 2.2686-1.7403 3.4023-4.2961 3.4023-7.668 0-2.828-0.83941-5.0816-2.5176-6.7598-1.6626-1.6937-4.2481-2.8748-7.7598-3.543l-2.8438-0.58203c-2.5794-0.4817-4.3353-1.1118-5.2676-1.8887-0.91677-0.79246-1.375-1.9578-1.375-3.4961 0-1.8336 0.69129-3.2477 2.0742-4.2422 1.3985-0.99446 3.3795-1.4922 5.9434-1.4922 1.4762 0 3.0069 0.21132 4.5918 0.63086s3.2697 1.0555 5.0566 1.9102v-4.5918c-1.7714-0.59046-3.5036-1.0329-5.1973-1.3281s-3.3567-0.44336-4.9883-0.44336zm33.367 0c-3.8069 0-6.7992 0.88681-8.9746 2.6582-2.1599 1.7714-3.2383 4.1949-3.2383 7.2715 0 2.6571 0.78412 4.731 2.3535 6.2226 1.5694 1.4917 4.1094 2.5879 7.6211 3.2871l2.8672 0.5586c2.3929 0.48169 4.1093 1.2046 5.1504 2.168 1.0566 0.96339 1.5859 2.3005 1.5859 4.0098 0 1.9579-0.73078 3.4649-2.1914 4.5215-1.4606 1.0566-3.5345 1.584-6.2227 1.584-1.7714 0-3.5746-0.27061-5.4082-0.81445-1.8336-0.54385-3.706-1.3536-5.6172-2.4258v4.8496c1.9889 0.73032 3.9087 1.2814 5.7578 1.6543 1.8646 0.37293 3.6205 0.55859 5.2676 0.55859 4.3663 0 7.6766-0.86905 9.9297-2.6094 2.2686-1.7403 3.4023-4.2961 3.4023-7.668 0-2.828-0.83941-5.0816-2.5176-6.7598-1.6626-1.6937-4.25-2.8748-7.7617-3.543l-2.8438-0.58203c-2.5794-0.4817-4.3353-1.1118-5.2676-1.8887-0.91678-0.79246-1.375-1.9578-1.375-3.4961 0-1.8336 0.69129-3.2477 2.0742-4.2422 1.3985-0.99446 3.3795-1.4922 5.9434-1.4922 1.4762 0 3.0069 0.21132 4.5918 0.63086s3.2717 1.0555 5.0586 1.9102v-4.5918c-1.7714-0.59046-3.5036-1.0329-5.1973-1.3281s-3.3567-0.44336-4.9883-0.44336zm-203.73 0.62891l8.2734 34.799h10.35l6.2461-26.453 6.3164 26.453h10.35l8.2031-34.799h-8.5293l-6.0137 25.289-5.9668-25.289h-8.6484l-5.9668 25.289-6.0137-25.289h-8.5996zm52.412 0v34.799h24.73v-6.7812h-15.756v-7.9726h14.334v-6.7812h-14.334v-6.4805h15.242v-6.7832h-24.217zm30.934 0v34.799h14.893c4.6305 0 8.081-0.82361 10.35-2.4707s3.4023-4.1476 3.4023-7.5039c0-2.1909-0.52931-4.0396-1.5859-5.5469s-2.5478-2.5422-4.4746-3.1016c1.5072-0.57493 2.6568-1.4519 3.4492-2.6328 0.79246-1.1965 1.1894-2.6422 1.1894-4.3359 0-3.2165-1.0883-5.555-3.2637-7.0156-2.1599-1.4606-5.6558-2.1914-10.488-2.1914h-13.471zm47.941 0l-13.287 34.799h4.9648l3.1699-8.9258h15.688l3.168 8.9258h4.8965l-13.264-34.799h-5.3359zm95.135 0v34.799h22.422v-3.9609h-17.715v-12.611h16.572v-3.9609h-16.572v-10.303h17.295v-3.9629h-22.002zm33.699 0v34.799h4.5684v-30.557l8.9746 23.867h4.7305l8.9746-23.867v30.557h4.5918v-34.799h-7.0156l-8.9277 23.682-8.8809-23.682h-7.0156zm50.266 0v34.799h12.492c3.9002 0 6.9063-0.84536 9.0195-2.5391s3.1699-4.0954 3.1699-7.2031c0-2.3619-0.6439-4.3271-1.9336-5.8965-1.2742-1.5849-3.0695-2.6258-5.3848-3.123 1.9268-0.31077 3.3884-1.0968 4.3828-2.3555 0.99447-1.2586 1.4922-2.9513 1.4922-5.0801 0-2.7503-0.97174-4.8716-2.9141-6.3633s-4.7094-2.2383-8.2988-2.2383h-12.025zm38.092 0v34.799h21.652v-3.9609h-16.945v-30.838h-4.707zm27.156 0l12.307 18.227v16.572h4.7305v-16.572l12.307-18.227h-5.0566l-9.5801 14.312-9.6504-14.312h-5.0566zm-60.541 3.8691h6.9688c2.2997 0 4.0101 0.43648 5.1289 1.3066 1.1343 0.87015 1.7012 2.1816 1.7012 3.9375 0 1.7714-0.56686 3.0927-1.7012 3.9629-1.1188 0.85462-2.8292 1.2832-5.1289 1.2832h-6.9688v-10.49zm-181.15 0.76953l6.4102 17.318h-12.797l6.3867-17.318zm-41.625 1.4688h4.9648c1.414 0 2.4865 0.31799 3.2168 0.95508 0.73031 0.62153 1.0957 1.532 1.0957 2.7285 0 1.212-0.36539 2.1285-1.0957 2.75-0.73031 0.62154-1.8028 0.93164-3.2168 0.93164h-4.9648v-7.3652zm222.78 12.074h7.5527c2.5328 0 4.4052 0.51946 5.6172 1.5605 1.2276 1.0256 1.8418 2.6273 1.8418 4.8027 0 2.1598-0.61425 3.7676-1.8418 4.8242-1.212 1.0411-3.0844 1.5605-5.6172 1.5605h-7.5527v-12.748zm-222.78 1.3984h5.2676c1.818 0 3.1769 0.37924 4.0781 1.1406 0.90124 0.74585 1.3535 1.8736 1.3535 3.3809 0 1.5383-0.46018 2.6878-1.377 3.4492-0.90122 0.76138-2.2522 1.1426-4.0547 1.1426h-5.2676v-9.1133z" fill="#ffffff"/>
</g>
</svg>
